<?xml version="1.0" encoding="UTF-8" standalone="no"?>
<!DOCTYPE svg PUBLIC "-//W3C//DTD SVG 1.1//EN"
 "http://www.w3.org/Graphics/SVG/1.1/DTD/svg11.dtd">
<!-- Generated by graphviz version 2.38.0 (20140413.2041)
 -->
<!-- Title: godep Pages: 1 -->
<svg width="5419pt" height="620pt"
 viewBox="0.00 0.00 5418.82 620.00" xmlns="http://www.w3.org/2000/svg" xmlns:xlink="http://www.w3.org/1999/xlink">
<g id="graph0" class="graph" transform="scale(1 1) rotate(0) translate(4 616)">
<title>godep</title>
<polygon fill="white" stroke="none" points="-4,4 -4,-616 5414.82,-616 5414.82,4 -4,4"/>
<!-- 0 -->
<g id="node1" class="node"><title>0</title>
<ellipse fill="paleturquoise" stroke="paleturquoise" cx="2158.94" cy="-306" rx="131.983" ry="18"/>
<text text-anchor="middle" x="2158.94" y="-301.8" font-family="Times,serif" font-size="14.00">k8s.io/kubernetes/pkg/api/meta</text>
</g>
<!-- 1 -->
<g id="node2" class="node"><title>1</title>
<ellipse fill="paleturquoise" stroke="paleturquoise" cx="1341.94" cy="-162" rx="141.22" ry="18"/>
<text text-anchor="middle" x="1341.94" y="-157.8" font-family="Times,serif" font-size="14.00">k8s.io/kubernetes/pkg/conversion</text>
</g>
<!-- 0&#45;&gt;1 -->
<g id="edge1" class="edge"><title>0&#45;&gt;1</title>
<path fill="none" stroke="black" d="M2065.16,-293.272C2047.82,-291.333 2029.84,-289.476 2012.94,-288 1944.53,-282.026 1454.77,-287.416 1395.94,-252 1373.05,-238.223 1358.59,-210.684 1350.46,-189.869"/>
<polygon fill="black" stroke="black" points="1353.67,-188.477 1346.96,-180.28 1347.1,-190.874 1353.67,-188.477"/>
</g>
<!-- 2 -->
<g id="node3" class="node"><title>2</title>
<ellipse fill="paleturquoise" stroke="paleturquoise" cx="1533.94" cy="-234" rx="128.556" ry="18"/>
<text text-anchor="middle" x="1533.94" y="-229.8" font-family="Times,serif" font-size="14.00">k8s.io/kubernetes/pkg/runtime</text>
</g>
<!-- 0&#45;&gt;2 -->
<g id="edge2" class="edge"><title>0&#45;&gt;2</title>
<path fill="none" stroke="black" d="M2062.75,-293.652C2046.14,-291.735 2029.04,-289.788 2012.94,-288 1861.47,-271.187 1823.35,-269.317 1671.94,-252 1660.41,-250.682 1648.36,-249.26 1636.37,-247.819"/>
<polygon fill="black" stroke="black" points="1636.68,-244.331 1626.33,-246.607 1635.84,-251.281 1636.68,-244.331"/>
</g>
<!-- 3 -->
<g id="node4" class="node"><title>3</title>
<ellipse fill="paleturquoise" stroke="paleturquoise" cx="1799.94" cy="-234" rx="119.246" ry="18"/>
<text text-anchor="middle" x="1799.94" y="-229.8" font-family="Times,serif" font-size="14.00">k8s.io/kubernetes/pkg/types</text>
</g>
<!-- 0&#45;&gt;3 -->
<g id="edge3" class="edge"><title>0&#45;&gt;3</title>
<path fill="none" stroke="black" d="M2086.72,-290.919C2026.88,-279.252 1941.93,-262.686 1880.02,-250.615"/>
<polygon fill="black" stroke="black" points="1880.39,-247.121 1869.9,-248.642 1879.05,-253.991 1880.39,-247.121"/>
</g>
<!-- 4 -->
<g id="node5" class="node"><title>4</title>
<ellipse fill="paleturquoise" stroke="paleturquoise" cx="1338.94" cy="-90" rx="179.914" ry="18"/>
<text text-anchor="middle" x="1338.94" y="-85.8" font-family="Times,serif" font-size="14.00">k8s.io/kubernetes/third_party/forked/reflect</text>
</g>
<!-- 1&#45;&gt;4 -->
<g id="edge4" class="edge"><title>1&#45;&gt;4</title>
<path fill="none" stroke="black" d="M1341.2,-143.697C1340.86,-135.983 1340.47,-126.712 1340.1,-118.112"/>
<polygon fill="black" stroke="black" points="1343.6,-117.945 1339.67,-108.104 1336.6,-118.245 1343.6,-117.945"/>
</g>
<!-- 2&#45;&gt;1 -->
<g id="edge57" class="edge"><title>2&#45;&gt;1</title>
<path fill="none" stroke="black" d="M1489.89,-216.941C1461.82,-206.706 1425.26,-193.379 1395.51,-182.533"/>
<polygon fill="black" stroke="black" points="1396.71,-179.243 1386.11,-179.106 1394.31,-185.819 1396.71,-179.243"/>
</g>
<!-- 5 -->
<g id="node6" class="node"><title>5</title>
<ellipse fill="paleturquoise" stroke="paleturquoise" cx="1053.94" cy="-162" rx="128.57" ry="18"/>
<text text-anchor="middle" x="1053.94" y="-157.8" font-family="Times,serif" font-size="14.00">k8s.io/kubernetes/pkg/util/sets</text>
</g>
<!-- 2&#45;&gt;5 -->
<g id="edge59" class="edge"><title>2&#45;&gt;5</title>
<path fill="none" stroke="black" d="M1448.4,-220.526C1364.44,-208.282 1236.64,-189.644 1149.41,-176.924"/>
<polygon fill="black" stroke="black" points="1149.91,-173.46 1139.51,-175.48 1148.9,-180.386 1149.91,-173.46"/>
</g>
<!-- 29 -->
<g id="node30" class="node"><title>29</title>
<ellipse fill="paleturquoise" stroke="paleturquoise" cx="1921.94" cy="-162" rx="130.299" ry="18"/>
<text text-anchor="middle" x="1921.94" y="-157.8" font-family="Times,serif" font-size="14.00">k8s.io/kubernetes/pkg/util/json</text>
</g>
<!-- 2&#45;&gt;29 -->
<g id="edge58" class="edge"><title>2&#45;&gt;29</title>
<path fill="none" stroke="black" d="M1609.67,-219.337C1674.59,-207.624 1768.09,-190.756 1835.84,-178.532"/>
<polygon fill="black" stroke="black" points="1836.85,-181.908 1846.07,-176.688 1835.6,-175.019 1836.85,-181.908"/>
</g>
<!-- 31 -->
<g id="node32" class="node"><title>31</title>
<ellipse fill="paleturquoise" stroke="paleturquoise" cx="1639.94" cy="-162" rx="133.728" ry="18"/>
<text text-anchor="middle" x="1639.94" y="-157.8" font-family="Times,serif" font-size="14.00">k8s.io/kubernetes/pkg/util/yaml</text>
</g>
<!-- 2&#45;&gt;31 -->
<g id="edge60" class="edge"><title>2&#45;&gt;31</title>
<path fill="none" stroke="black" d="M1559.33,-216.233C1573.25,-207.037 1590.71,-195.51 1605.81,-185.536"/>
<polygon fill="black" stroke="black" points="1607.97,-188.304 1614.39,-179.873 1604.11,-182.463 1607.97,-188.304"/>
</g>
<!-- 6 -->
<g id="node7" class="node"><title>6</title>
<ellipse fill="paleturquoise" stroke="paleturquoise" cx="2496.94" cy="-306" rx="111.739" ry="18"/>
<text text-anchor="middle" x="2496.94" y="-301.8" font-family="Times,serif" font-size="14.00">k8s.io/kubernetes/pkg/util</text>
</g>
<!-- 6&#45;&gt;3 -->
<g id="edge13" class="edge"><title>6&#45;&gt;3</title>
<path fill="none" stroke="black" d="M2416.35,-293.481C2401.28,-291.51 2385.64,-289.588 2370.94,-288 2174.54,-266.786 2124.35,-273.01 1927.94,-252 1916.99,-250.829 1905.53,-249.482 1894.16,-248.069"/>
<polygon fill="black" stroke="black" points="1894.57,-244.592 1884.21,-246.813 1893.69,-251.537 1894.57,-244.592"/>
</g>
<!-- 6&#45;&gt;5 -->
<g id="edge14" class="edge"><title>6&#45;&gt;5</title>
<path fill="none" stroke="black" d="M2567.39,-291.987C2589.57,-284.209 2611.71,-271.798 2624.94,-252 2633.83,-238.697 2636.11,-227.455 2624.94,-216 2597.14,-187.493 1231.65,-182.938 1191.94,-180 1179.08,-179.049 1165.59,-177.755 1152.28,-176.303"/>
<polygon fill="black" stroke="black" points="1152.48,-172.804 1142.15,-175.165 1151.7,-179.76 1152.48,-172.804"/>
</g>
<!-- 7 -->
<g id="node8" class="node"><title>7</title>
<ellipse fill="paleturquoise" stroke="paleturquoise" cx="2681.94" cy="-162" rx="147.581" ry="18"/>
<text text-anchor="middle" x="2681.94" y="-157.8" font-family="Times,serif" font-size="14.00">github.com/davecgh/go&#45;spew/spew</text>
</g>
<!-- 6&#45;&gt;7 -->
<g id="edge5" class="edge"><title>6&#45;&gt;7</title>
<path fill="none" stroke="black" d="M2580.06,-293.975C2608.13,-286.384 2637.5,-273.582 2657.94,-252 2673.63,-235.429 2679.28,-209.706 2681.22,-190.167"/>
<polygon fill="black" stroke="black" points="2684.72,-190.272 2681.95,-180.046 2677.74,-189.768 2684.72,-190.272"/>
</g>
<!-- 8 -->
<g id="node9" class="node"><title>8</title>
<ellipse fill="paleturquoise" stroke="paleturquoise" cx="2977.94" cy="-90" rx="103.66" ry="18"/>
<text text-anchor="middle" x="2977.94" y="-85.8" font-family="Times,serif" font-size="14.00">github.com/golang/glog</text>
</g>
<!-- 6&#45;&gt;8 -->
<g id="edge6" class="edge"><title>6&#45;&gt;8</title>
<path fill="none" stroke="black" d="M2597.18,-297.985C2714.55,-288.922 2896.17,-271.922 2920.94,-252 2961.66,-219.24 2973.33,-155.265 2976.64,-118.592"/>
<polygon fill="black" stroke="black" points="2980.17,-118.386 2977.43,-108.152 2973.19,-117.862 2980.17,-118.386"/>
</g>
<!-- 9 -->
<g id="node10" class="node"><title>9</title>
<ellipse fill="paleturquoise" stroke="paleturquoise" cx="1197.94" cy="-234" rx="112.869" ry="18"/>
<text text-anchor="middle" x="1197.94" y="-229.8" font-family="Times,serif" font-size="14.00">github.com/google/gofuzz</text>
</g>
<!-- 6&#45;&gt;9 -->
<g id="edge7" class="edge"><title>6&#45;&gt;9</title>
<path fill="none" stroke="black" d="M2403.81,-296.073C2371,-293.164 2333.85,-290.138 2299.94,-288 1898.64,-262.708 1797.24,-277.205 1395.94,-252 1365.46,-250.086 1332.4,-247.464 1302.17,-244.852"/>
<polygon fill="black" stroke="black" points="1302.31,-241.35 1292.04,-243.967 1301.7,-248.324 1302.31,-241.35"/>
</g>
<!-- 10 -->
<g id="node11" class="node"><title>10</title>
<ellipse fill="paleturquoise" stroke="paleturquoise" cx="2044.94" cy="-234" rx="107.739" ry="18"/>
<text text-anchor="middle" x="2044.94" y="-229.8" font-family="Times,serif" font-size="14.00">github.com/juju/ratelimit</text>
</g>
<!-- 6&#45;&gt;10 -->
<g id="edge8" class="edge"><title>6&#45;&gt;10</title>
<path fill="none" stroke="black" d="M2419.49,-293.006C2339.25,-280.58 2214.15,-261.206 2130.9,-248.313"/>
<polygon fill="black" stroke="black" points="2131.38,-244.846 2120.96,-246.774 2130.31,-251.763 2131.38,-244.846"/>
</g>
<!-- 11 -->
<g id="node12" class="node"><title>11</title>
<ellipse fill="paleturquoise" stroke="paleturquoise" cx="2281.94" cy="-234" rx="111.747" ry="18"/>
<text text-anchor="middle" x="2281.94" y="-229.8" font-family="Times,serif" font-size="14.00">github.com/pborman/uuid</text>
</g>
<!-- 6&#45;&gt;11 -->
<g id="edge9" class="edge"><title>6&#45;&gt;11</title>
<path fill="none" stroke="black" d="M2449.75,-289.638C2416.99,-278.97 2373.17,-264.703 2338.52,-253.423"/>
<polygon fill="black" stroke="black" points="2339.6,-250.094 2329.01,-250.326 2337.43,-256.75 2339.6,-250.094"/>
</g>
<!-- 12 -->
<g id="node13" class="node"><title>12</title>
<ellipse fill="paleturquoise" stroke="paleturquoise" cx="4011.94" cy="-234" rx="205.466" ry="18"/>
<text text-anchor="middle" x="4011.94" y="-229.8" font-family="Times,serif" font-size="14.00">github.com/prometheus/client_golang/prometheus</text>
</g>
<!-- 6&#45;&gt;12 -->
<g id="edge10" class="edge"><title>6&#45;&gt;12</title>
<path fill="none" stroke="black" d="M2594.91,-297.31C2638.92,-294.064 2691.51,-290.472 2738.94,-288 3208.79,-263.511 3327.19,-278.55 3796.94,-252 3817.51,-250.837 3839.17,-249.389 3860.51,-247.831"/>
<polygon fill="black" stroke="black" points="3860.9,-251.312 3870.62,-247.083 3860.38,-244.331 3860.9,-251.312"/>
</g>
<!-- 13 -->
<g id="node14" class="node"><title>13</title>
<ellipse fill="paleturquoise" stroke="paleturquoise" cx="2810.94" cy="-234" rx="101.349" ry="18"/>
<text text-anchor="middle" x="2810.94" y="-229.8" font-family="Times,serif" font-size="14.00">github.com/spf13/pflag</text>
</g>
<!-- 6&#45;&gt;13 -->
<g id="edge11" class="edge"><title>6&#45;&gt;13</title>
<path fill="none" stroke="black" d="M2559.72,-291.003C2611.96,-279.359 2686.26,-262.794 2740.51,-250.701"/>
<polygon fill="black" stroke="black" points="2741.39,-254.089 2750.39,-248.497 2739.87,-247.257 2741.39,-254.089"/>
</g>
<!-- 14 -->
<g id="node15" class="node"><title>14</title>
<ellipse fill="paleturquoise" stroke="paleturquoise" cx="2513.94" cy="-234" rx="102.493" ry="18"/>
<text text-anchor="middle" x="2513.94" y="-229.8" font-family="Times,serif" font-size="14.00">golang.org/x/crypto/ssh</text>
</g>
<!-- 6&#45;&gt;14 -->
<g id="edge12" class="edge"><title>6&#45;&gt;14</title>
<path fill="none" stroke="black" d="M2501.14,-287.697C2503.03,-279.898 2505.31,-270.509 2507.42,-261.829"/>
<polygon fill="black" stroke="black" points="2510.82,-262.648 2509.78,-252.104 2504.02,-260.996 2510.82,-262.648"/>
</g>
<!-- 15 -->
<g id="node16" class="node"><title>15</title>
<ellipse fill="paleturquoise" stroke="paleturquoise" cx="4278.94" cy="-18" rx="142.968" ry="18"/>
<text text-anchor="middle" x="4278.94" y="-13.8" font-family="Times,serif" font-size="14.00">github.com/golang/protobuf/proto</text>
</g>
<!-- 12&#45;&gt;15 -->
<g id="edge85" class="edge"><title>12&#45;&gt;15</title>
<path fill="none" stroke="black" d="M3876.13,-220.478C3754.82,-208.626 3594.7,-191.047 3584.94,-180 3553.15,-144.029 3552.31,-107.21 3584.94,-72 3620.94,-33.1405 3933.27,-22.6497 4126.46,-19.8962"/>
<polygon fill="black" stroke="black" points="4126.76,-23.3925 4136.71,-19.7557 4126.67,-16.3931 4126.76,-23.3925"/>
</g>
<!-- 32 -->
<g id="node33" class="node"><title>32</title>
<ellipse fill="paleturquoise" stroke="paleturquoise" cx="3722.94" cy="-162" rx="129.118" ry="18"/>
<text text-anchor="middle" x="3722.94" y="-157.8" font-family="Times,serif" font-size="14.00">github.com/prometheus/procfs</text>
</g>
<!-- 12&#45;&gt;32 -->
<g id="edge88" class="edge"><title>12&#45;&gt;32</title>
<path fill="none" stroke="black" d="M3945.63,-216.941C3900.46,-205.998 3840.68,-191.52 3794.44,-180.318"/>
<polygon fill="black" stroke="black" points="3795.03,-176.861 3784.49,-177.908 3793.38,-183.664 3795.03,-176.861"/>
</g>
<!-- 44 -->
<g id="node45" class="node"><title>44</title>
<ellipse fill="paleturquoise" stroke="paleturquoise" cx="4011.94" cy="-162" rx="141.799" ry="18"/>
<text text-anchor="middle" x="4011.94" y="-157.8" font-family="Times,serif" font-size="14.00">github.com/beorn7/perks/quantile</text>
</g>
<!-- 12&#45;&gt;44 -->
<g id="edge84" class="edge"><title>12&#45;&gt;44</title>
<path fill="none" stroke="black" d="M4011.94,-215.697C4011.94,-207.983 4011.94,-198.712 4011.94,-190.112"/>
<polygon fill="black" stroke="black" points="4015.44,-190.104 4011.94,-180.104 4008.44,-190.104 4015.44,-190.104"/>
</g>
<!-- 50 -->
<g id="node51" class="node"><title>50</title>
<ellipse fill="paleturquoise" stroke="paleturquoise" cx="3761.94" cy="-90" rx="167.883" ry="18"/>
<text text-anchor="middle" x="3761.94" y="-85.8" font-family="Times,serif" font-size="14.00">github.com/prometheus/client_model/go</text>
</g>
<!-- 12&#45;&gt;50 -->
<g id="edge86" class="edge"><title>12&#45;&gt;50</title>
<path fill="none" stroke="black" d="M4084.95,-217.149C4136.96,-202.57 4192.77,-178.039 4162.94,-144 4153.82,-133.604 4004.15,-115.939 3890.31,-103.884"/>
<polygon fill="black" stroke="black" points="3890.42,-100.376 3880.11,-102.809 3889.68,-107.338 3890.42,-100.376"/>
</g>
<!-- 54 -->
<g id="node55" class="node"><title>54</title>
<ellipse fill="paleturquoise" stroke="paleturquoise" cx="4399.94" cy="-162" rx="169.029" ry="18"/>
<text text-anchor="middle" x="4399.94" y="-157.8" font-family="Times,serif" font-size="14.00">github.com/prometheus/common/expfmt</text>
</g>
<!-- 12&#45;&gt;54 -->
<g id="edge87" class="edge"><title>12&#45;&gt;54</title>
<path fill="none" stroke="black" d="M4097.57,-217.552C4159.85,-206.316 4244.06,-191.121 4307.8,-179.622"/>
<polygon fill="black" stroke="black" points="4308.63,-183.029 4317.85,-177.809 4307.39,-176.141 4308.63,-183.029"/>
</g>
<!-- 16 -->
<g id="node17" class="node"><title>16</title>
<ellipse fill="paleturquoise" stroke="paleturquoise" cx="1642.94" cy="-90" rx="106.026" ry="18"/>
<text text-anchor="middle" x="1642.94" y="-85.8" font-family="Times,serif" font-size="14.00">github.com/ghodss/yaml</text>
</g>
<!-- 17 -->
<g id="node18" class="node"><title>17</title>
<ellipse fill="paleturquoise" stroke="paleturquoise" cx="1642.94" cy="-18" rx="79.3425" ry="18"/>
<text text-anchor="middle" x="1642.94" y="-13.8" font-family="Times,serif" font-size="14.00">gopkg.in/yaml.v2</text>
</g>
<!-- 16&#45;&gt;17 -->
<g id="edge15" class="edge"><title>16&#45;&gt;17</title>
<path fill="none" stroke="black" d="M1642.94,-71.6966C1642.94,-63.9827 1642.94,-54.7125 1642.94,-46.1124"/>
<polygon fill="black" stroke="black" points="1646.44,-46.1043 1642.94,-36.1043 1639.44,-46.1044 1646.44,-46.1043"/>
</g>
<!-- 18 -->
<g id="node19" class="node"><title>18</title>
<ellipse fill="paleturquoise" stroke="paleturquoise" cx="2867.94" cy="-306" rx="120.386" ry="18"/>
<text text-anchor="middle" x="2867.94" y="-301.8" font-family="Times,serif" font-size="14.00">k8s.io/kubernetes/pkg/fields</text>
</g>
<!-- 19 -->
<g id="node20" class="node"><title>19</title>
<ellipse fill="paleturquoise" stroke="paleturquoise" cx="627.937" cy="-450" rx="157.988" ry="18"/>
<text text-anchor="middle" x="627.937" y="-445.8" font-family="Times,serif" font-size="14.00">k8s.io/kubernetes/pkg/apis/extensions</text>
</g>
<!-- 19&#45;&gt;1 -->
<g id="edge19" class="edge"><title>19&#45;&gt;1</title>
<path fill="none" stroke="black" d="M516.47,-437.245C328.767,-413.48 -17.816,-350.15 111.937,-216 153.674,-172.849 1132.06,-184.384 1191.94,-180 1205.71,-178.991 1220.18,-177.677 1234.46,-176.227"/>
<polygon fill="black" stroke="black" points="1235.23,-179.665 1244.81,-175.148 1234.5,-172.703 1235.23,-179.665"/>
</g>
<!-- 19&#45;&gt;5 -->
<g id="edge22" class="edge"><title>19&#45;&gt;5</title>
<path fill="none" stroke="black" d="M474.505,-445.66C310.413,-440.463 69.7331,-427.513 40.937,-396 -13.0282,-336.943 -14.1681,-273.995 40.937,-216 67.9125,-187.61 705.83,-182.076 744.937,-180 804.662,-176.83 870.875,-173.202 926.639,-170.115"/>
<polygon fill="black" stroke="black" points="927.134,-173.592 936.925,-169.544 926.747,-166.603 927.134,-173.592"/>
</g>
<!-- 19&#45;&gt;6 -->
<g id="edge21" class="edge"><title>19&#45;&gt;6</title>
<path fill="none" stroke="black" d="M781.744,-445.95C1091.67,-439.34 1781.74,-422.152 2016.94,-396 2093.9,-387.442 2305.56,-345.754 2420.41,-322.594"/>
<polygon fill="black" stroke="black" points="2421.43,-325.959 2430.53,-320.549 2420.04,-319.097 2421.43,-325.959"/>
</g>
<!-- 20 -->
<g id="node21" class="node"><title>20</title>
<ellipse fill="paleturquoise" stroke="paleturquoise" cx="1896.94" cy="-378" rx="110.578" ry="18"/>
<text text-anchor="middle" x="1896.94" y="-373.8" font-family="Times,serif" font-size="14.00">k8s.io/kubernetes/pkg/api</text>
</g>
<!-- 19&#45;&gt;20 -->
<g id="edge16" class="edge"><title>19&#45;&gt;20</title>
<path fill="none" stroke="black" d="M766.461,-441.359C1019.32,-427.411 1551.02,-398.082 1783.77,-385.242"/>
<polygon fill="black" stroke="black" points="1784.16,-388.726 1793.95,-384.681 1783.77,-381.737 1784.16,-388.726"/>
</g>
<!-- 21 -->
<g id="node22" class="node"><title>21</title>
<ellipse fill="paleturquoise" stroke="paleturquoise" cx="951.937" cy="-306" rx="145.849" ry="18"/>
<text text-anchor="middle" x="951.937" y="-301.8" font-family="Times,serif" font-size="14.00">k8s.io/kubernetes/pkg/api/resource</text>
</g>
<!-- 19&#45;&gt;21 -->
<g id="edge17" class="edge"><title>19&#45;&gt;21</title>
<path fill="none" stroke="black" d="M665.738,-432.433C725.121,-406.407 840.148,-355.994 904.828,-327.647"/>
<polygon fill="black" stroke="black" points="906.623,-330.681 914.377,-323.462 903.813,-324.27 906.623,-330.681"/>
</g>
<!-- 22 -->
<g id="node23" class="node"><title>22</title>
<ellipse fill="paleturquoise" stroke="paleturquoise" cx="627.937" cy="-306" rx="160.342" ry="18"/>
<text text-anchor="middle" x="627.937" y="-301.8" font-family="Times,serif" font-size="14.00">k8s.io/kubernetes/pkg/api/unversioned</text>
</g>
<!-- 19&#45;&gt;22 -->
<g id="edge18" class="edge"><title>19&#45;&gt;22</title>
<path fill="none" stroke="black" d="M627.937,-431.871C627.937,-407.67 627.937,-363.211 627.937,-334.393"/>
<polygon fill="black" stroke="black" points="631.437,-334.189 627.937,-324.189 624.437,-334.189 631.437,-334.189"/>
</g>
<!-- 23 -->
<g id="node24" class="node"><title>23</title>
<ellipse fill="paleturquoise" stroke="paleturquoise" cx="290.937" cy="-306" rx="121.03" ry="18"/>
<text text-anchor="middle" x="290.937" y="-301.8" font-family="Times,serif" font-size="14.00">k8s.io/kubernetes/pkg/labels</text>
</g>
<!-- 19&#45;&gt;23 -->
<g id="edge20" class="edge"><title>19&#45;&gt;23</title>
<path fill="none" stroke="black" d="M548.211,-434.381C510.197,-425.843 464.675,-413.287 425.937,-396 386.612,-378.452 345.943,-349.978 319.66,-329.972"/>
<polygon fill="black" stroke="black" points="321.709,-327.133 311.652,-323.799 317.435,-332.677 321.709,-327.133"/>
</g>
<!-- 24 -->
<g id="node25" class="node"><title>24</title>
<ellipse fill="paleturquoise" stroke="paleturquoise" cx="899.937" cy="-234" rx="128.529" ry="18"/>
<text text-anchor="middle" x="899.937" y="-229.8" font-family="Times,serif" font-size="14.00">speter.net/go/exp/math/dec/inf</text>
</g>
<!-- 19&#45;&gt;24 -->
<g id="edge23" class="edge"><title>19&#45;&gt;24</title>
<path fill="none" stroke="black" d="M586.753,-432.562C521.979,-404.443 408.603,-344.647 458.937,-288 504.123,-237.147 695.404,-260.189 762.937,-252 774.07,-250.65 785.711,-249.226 797.301,-247.799"/>
<polygon fill="black" stroke="black" points="797.963,-251.244 807.46,-246.547 797.107,-244.297 797.963,-251.244"/>
</g>
<!-- 20&#45;&gt;0 -->
<g id="edge63" class="edge"><title>20&#45;&gt;0</title>
<path fill="none" stroke="black" d="M1951.86,-362.326C1992.65,-351.428 2048.5,-336.507 2091.91,-324.907"/>
<polygon fill="black" stroke="black" points="2093.06,-328.223 2101.82,-322.26 2091.26,-321.46 2093.06,-328.223"/>
</g>
<!-- 20&#45;&gt;1 -->
<g id="edge67" class="edge"><title>20&#45;&gt;1</title>
<path fill="none" stroke="black" d="M1786.29,-376.87C1595.97,-375.482 1223.06,-367.21 1182.94,-324 1172.05,-312.275 1173.17,-300.67 1182.94,-288 1221.38,-238.146 1275.75,-296.841 1319.94,-252 1335.87,-235.835 1340.88,-210.065 1342.19,-190.406"/>
<polygon fill="black" stroke="black" points="1345.69,-190.34 1342.58,-180.212 1338.7,-190.069 1345.69,-190.34"/>
</g>
<!-- 20&#45;&gt;2 -->
<g id="edge70" class="edge"><title>20&#45;&gt;2</title>
<path fill="none" stroke="black" d="M1988.89,-367.976C2104.65,-356.169 2289.74,-335.622 2299.94,-324 2310.49,-311.971 2310.92,-299.633 2299.94,-288 2251.95,-237.184 1741.55,-258.276 1671.94,-252 1659.61,-250.888 1646.68,-249.54 1633.88,-248.094"/>
<polygon fill="black" stroke="black" points="1634,-244.584 1623.67,-246.916 1633.2,-251.538 1634,-244.584"/>
</g>
<!-- 20&#45;&gt;3 -->
<g id="edge71" class="edge"><title>20&#45;&gt;3</title>
<path fill="none" stroke="black" d="M1991.62,-368.678C2116.45,-357.246 2321.72,-336.664 2332.94,-324 2343.55,-312.023 2343.74,-299.804 2332.94,-288 2302.44,-254.671 1972.84,-256.975 1927.94,-252 1916.99,-250.788 1905.54,-249.415 1894.17,-247.987"/>
<polygon fill="black" stroke="black" points="1894.58,-244.511 1884.22,-246.722 1893.7,-251.455 1894.58,-244.511"/>
</g>
<!-- 20&#45;&gt;5 -->
<g id="edge74" class="edge"><title>20&#45;&gt;5</title>
<path fill="none" stroke="black" d="M1786.51,-376.485C1612.09,-374.408 1281.41,-364.987 1171.94,-324 1146.96,-314.65 1090.66,-274.235 1075.94,-252 1063.69,-233.498 1058.25,-208.753 1055.85,-190.051"/>
<polygon fill="black" stroke="black" points="1059.33,-189.664 1054.77,-180.097 1052.37,-190.415 1059.33,-189.664"/>
</g>
<!-- 20&#45;&gt;6 -->
<g id="edge72" class="edge"><title>20&#45;&gt;6</title>
<path fill="none" stroke="black" d="M1987,-367.547C2082.4,-357.388 2237.39,-340.473 2370.94,-324 2382.04,-322.631 2393.68,-321.138 2405.21,-319.624"/>
<polygon fill="black" stroke="black" points="2405.84,-323.07 2415.3,-318.29 2404.93,-316.131 2405.84,-323.07"/>
</g>
<!-- 20&#45;&gt;7 -->
<g id="edge61" class="edge"><title>20&#45;&gt;7</title>
<path fill="none" stroke="black" d="M2007.19,-376.255C2149.44,-373.618 2404.05,-363.203 2617.94,-324 2673.13,-313.885 2684.47,-301.458 2738.94,-288 2818.99,-268.221 2868.59,-315.711 2920.94,-252 2958.79,-205.929 2890.68,-183.7 2817.62,-172.979"/>
<polygon fill="black" stroke="black" points="2817.67,-169.453 2807.29,-171.541 2816.71,-176.386 2817.67,-169.453"/>
</g>
<!-- 20&#45;&gt;18 -->
<g id="edge68" class="edge"><title>20&#45;&gt;18</title>
<path fill="none" stroke="black" d="M2002.15,-372.466C2160.94,-365.143 2471.21,-348.958 2733.94,-324 2746.28,-322.828 2759.24,-321.414 2772.03,-319.91"/>
<polygon fill="black" stroke="black" points="2772.73,-323.351 2782.24,-318.686 2771.9,-316.401 2772.73,-323.351"/>
</g>
<!-- 20&#45;&gt;21 -->
<g id="edge64" class="edge"><title>20&#45;&gt;21</title>
<path fill="none" stroke="black" d="M1793.97,-371.314C1643.86,-362.736 1356.21,-345.215 1111.94,-324 1097.1,-322.711 1081.5,-321.222 1066.1,-319.671"/>
<polygon fill="black" stroke="black" points="1066.33,-316.176 1056.02,-318.645 1065.62,-323.14 1066.33,-316.176"/>
</g>
<!-- 20&#45;&gt;22 -->
<g id="edge65" class="edge"><title>20&#45;&gt;22</title>
<path fill="none" stroke="black" d="M1789.48,-373.682C1592.49,-367.186 1160.4,-351.018 796.937,-324 781.473,-322.85 765.231,-321.456 749.183,-319.965"/>
<polygon fill="black" stroke="black" points="749.51,-316.481 739.225,-319.026 748.852,-323.45 749.51,-316.481"/>
</g>
<!-- 20&#45;&gt;23 -->
<g id="edge69" class="edge"><title>20&#45;&gt;23</title>
<path fill="none" stroke="black" d="M1787.22,-375.35C1546.49,-371.206 953.971,-358.134 458.937,-324 438.108,-322.564 415.865,-320.611 394.608,-318.54"/>
<polygon fill="black" stroke="black" points="394.888,-315.051 384.592,-317.549 394.198,-322.017 394.888,-315.051"/>
</g>
<!-- 20&#45;&gt;24 -->
<g id="edge75" class="edge"><title>20&#45;&gt;24</title>
<path fill="none" stroke="black" d="M1937.88,-361.27C1954,-352.818 1970.82,-340.643 1979.94,-324 1987.63,-309.968 1991.02,-299.537 1979.94,-288 1945.11,-251.759 1126.08,-255.418 1075.94,-252 1054.29,-250.525 1031.18,-248.568 1009.07,-246.509"/>
<polygon fill="black" stroke="black" points="1009.27,-243.013 998.988,-245.557 1008.61,-249.982 1009.27,-243.013"/>
</g>
<!-- 30 -->
<g id="node31" class="node"><title>30</title>
<ellipse fill="paleturquoise" stroke="paleturquoise" cx="1297.94" cy="-306" rx="105.923" ry="18"/>
<text text-anchor="middle" x="1297.94" y="-301.8" font-family="Times,serif" font-size="14.00">golang.org/x/net/context</text>
</g>
<!-- 20&#45;&gt;30 -->
<g id="edge62" class="edge"><title>20&#45;&gt;30</title>
<path fill="none" stroke="black" d="M1804.93,-367.967C1707.47,-358.155 1549.18,-341.523 1412.94,-324 1403.5,-322.787 1393.65,-321.444 1383.84,-320.06"/>
<polygon fill="black" stroke="black" points="1384.05,-316.556 1373.66,-318.608 1383.06,-323.485 1384.05,-316.556"/>
</g>
<!-- 33 -->
<g id="node34" class="node"><title>33</title>
<ellipse fill="paleturquoise" stroke="paleturquoise" cx="1552.94" cy="-306" rx="131.423" ry="18"/>
<text text-anchor="middle" x="1552.94" y="-301.8" font-family="Times,serif" font-size="14.00">k8s.io/kubernetes/pkg/util/rand</text>
</g>
<!-- 20&#45;&gt;33 -->
<g id="edge73" class="edge"><title>20&#45;&gt;33</title>
<path fill="none" stroke="black" d="M1830.61,-363.503C1774.2,-352.025 1693.04,-335.509 1633.02,-323.296"/>
<polygon fill="black" stroke="black" points="1633.7,-319.862 1623.2,-321.297 1632.3,-326.721 1633.7,-319.862"/>
</g>
<!-- 53 -->
<g id="node54" class="node"><title>53</title>
<ellipse fill="paleturquoise" stroke="paleturquoise" cx="1836.94" cy="-306" rx="134.273" ry="18"/>
<text text-anchor="middle" x="1836.94" y="-301.8" font-family="Times,serif" font-size="14.00">k8s.io/kubernetes/pkg/auth/user</text>
</g>
<!-- 20&#45;&gt;53 -->
<g id="edge66" class="edge"><title>20&#45;&gt;53</title>
<path fill="none" stroke="black" d="M1882.41,-360.055C1875.22,-351.668 1866.4,-341.376 1858.45,-332.096"/>
<polygon fill="black" stroke="black" points="1860.91,-329.59 1851.74,-324.275 1855.59,-334.146 1860.91,-329.59"/>
</g>
<!-- 21&#45;&gt;13 -->
<g id="edge27" class="edge"><title>21&#45;&gt;13</title>
<path fill="none" stroke="black" d="M1069.38,-295.249C1105.76,-292.527 1145.99,-289.82 1182.94,-288 1823.25,-256.465 1984.93,-289.196 2624.94,-252 2654.62,-250.275 2686.9,-247.605 2716.11,-244.888"/>
<polygon fill="black" stroke="black" points="2716.68,-248.35 2726.3,-243.926 2716.02,-241.381 2716.68,-248.35"/>
</g>
<!-- 21&#45;&gt;24 -->
<g id="edge28" class="edge"><title>21&#45;&gt;24</title>
<path fill="none" stroke="black" d="M939.349,-288.055C933.182,-279.753 925.628,-269.584 918.789,-260.378"/>
<polygon fill="black" stroke="black" points="921.543,-258.216 912.77,-252.275 915.924,-262.39 921.543,-258.216"/>
</g>
<!-- 22&#45;&gt;9 -->
<g id="edge44" class="edge"><title>22&#45;&gt;9</title>
<path fill="none" stroke="black" d="M731.821,-292.242C837.169,-279.305 998.891,-259.444 1101.49,-246.845"/>
<polygon fill="black" stroke="black" points="1102.04,-250.304 1111.53,-245.611 1101.18,-243.356 1102.04,-250.304"/>
</g>
<!-- 23&#45;&gt;5 -->
<g id="edge53" class="edge"><title>23&#45;&gt;5</title>
<path fill="none" stroke="black" d="M211.154,-292.434C147.69,-279.236 75.1616,-254.903 111.937,-216 112.802,-215.085 669.432,-184.233 926.523,-170.03"/>
<polygon fill="black" stroke="black" points="926.873,-173.516 936.665,-169.47 926.487,-166.527 926.873,-173.516"/>
</g>
<!-- 42 -->
<g id="node43" class="node"><title>42</title>
<ellipse fill="paleturquoise" stroke="paleturquoise" cx="273.937" cy="-234" rx="152.85" ry="18"/>
<text text-anchor="middle" x="273.937" y="-229.8" font-family="Times,serif" font-size="14.00">k8s.io/kubernetes/pkg/util/validation</text>
</g>
<!-- 23&#45;&gt;42 -->
<g id="edge54" class="edge"><title>23&#45;&gt;42</title>
<path fill="none" stroke="black" d="M286.735,-287.697C284.841,-279.898 282.561,-270.509 280.453,-261.829"/>
<polygon fill="black" stroke="black" points="283.852,-260.996 278.091,-252.104 277.05,-262.648 283.852,-260.996"/>
</g>
<!-- 46 -->
<g id="node47" class="node"><title>46</title>
<ellipse fill="paleturquoise" stroke="paleturquoise" cx="598.937" cy="-234" rx="154.531" ry="18"/>
<text text-anchor="middle" x="598.937" y="-229.8" font-family="Times,serif" font-size="14.00">k8s.io/kubernetes/pkg/util/fielderrors</text>
</g>
<!-- 23&#45;&gt;46 -->
<g id="edge52" class="edge"><title>23&#45;&gt;46</title>
<path fill="none" stroke="black" d="M354.381,-290.581C403.02,-279.527 470.35,-264.224 522.051,-252.474"/>
<polygon fill="black" stroke="black" points="522.867,-255.878 531.843,-250.249 521.316,-249.052 522.867,-255.878"/>
</g>
<!-- 25 -->
<g id="node26" class="node"><title>25</title>
<ellipse fill="paleturquoise" stroke="paleturquoise" cx="3425.94" cy="-306" rx="103.055" ry="18"/>
<text text-anchor="middle" x="3425.94" y="-301.8" font-family="Times,serif" font-size="14.00">github.com/spf13/cobra</text>
</g>
<!-- 25&#45;&gt;13 -->
<g id="edge26" class="edge"><title>25&#45;&gt;13</title>
<path fill="none" stroke="black" d="M3342.03,-295.45C3227.53,-282.418 3022.99,-259.137 2903.94,-245.585"/>
<polygon fill="black" stroke="black" points="2904.08,-242.079 2893.75,-244.426 2903.29,-249.034 2904.08,-242.079"/>
</g>
<!-- 26 -->
<g id="node27" class="node"><title>26</title>
<ellipse fill="paleturquoise" stroke="paleturquoise" cx="3606.94" cy="-234" rx="181.222" ry="18"/>
<text text-anchor="middle" x="3606.94" y="-229.8" font-family="Times,serif" font-size="14.00">github.com/cpuguy83/go&#45;md2man/md2man</text>
</g>
<!-- 25&#45;&gt;26 -->
<g id="edge24" class="edge"><title>25&#45;&gt;26</title>
<path fill="none" stroke="black" d="M3466.56,-289.291C3492.57,-279.23 3526.58,-266.078 3554.61,-255.239"/>
<polygon fill="black" stroke="black" points="3556.18,-258.381 3564.25,-251.51 3553.66,-251.852 3556.18,-258.381"/>
</g>
<!-- 27 -->
<g id="node28" class="node"><title>27</title>
<ellipse fill="paleturquoise" stroke="paleturquoise" cx="3244.94" cy="-234" rx="163.188" ry="18"/>
<text text-anchor="middle" x="3244.94" y="-229.8" font-family="Times,serif" font-size="14.00">github.com/inconshreveable/mousetrap</text>
</g>
<!-- 25&#45;&gt;27 -->
<g id="edge25" class="edge"><title>25&#45;&gt;27</title>
<path fill="none" stroke="black" d="M3385.32,-289.291C3359.21,-279.194 3325.05,-265.984 3296.97,-255.122"/>
<polygon fill="black" stroke="black" points="3297.9,-251.73 3287.31,-251.387 3295.37,-258.259 3297.9,-251.73"/>
</g>
<!-- 36 -->
<g id="node37" class="node"><title>36</title>
<ellipse fill="paleturquoise" stroke="paleturquoise" cx="3376.94" cy="-162" rx="135.413" ry="18"/>
<text text-anchor="middle" x="3376.94" y="-157.8" font-family="Times,serif" font-size="14.00">github.com/russross/blackfriday</text>
</g>
<!-- 26&#45;&gt;36 -->
<g id="edge32" class="edge"><title>26&#45;&gt;36</title>
<path fill="none" stroke="black" d="M3553.59,-216.765C3519.14,-206.28 3474.21,-192.606 3438.29,-181.672"/>
<polygon fill="black" stroke="black" points="3439,-178.229 3428.41,-178.666 3436.96,-184.926 3439,-178.229"/>
</g>
<!-- 28 -->
<g id="node29" class="node"><title>28</title>
<ellipse fill="paleturquoise" stroke="paleturquoise" cx="3349.94" cy="-90" rx="187.531" ry="18"/>
<text text-anchor="middle" x="3349.94" y="-85.8" font-family="Times,serif" font-size="14.00">github.com/shurcooL/sanitized_anchor_name</text>
</g>
<!-- 31&#45;&gt;8 -->
<g id="edge30" class="edge"><title>31&#45;&gt;8</title>
<path fill="none" stroke="black" d="M1732.53,-148.979C1749.28,-147.093 1766.62,-145.33 1782.94,-144 2180.05,-111.634 2653.13,-98.0126 2865.26,-93.2187"/>
<polygon fill="black" stroke="black" points="2865.55,-96.7132 2875.47,-92.9903 2865.4,-89.7149 2865.55,-96.7132"/>
</g>
<!-- 31&#45;&gt;16 -->
<g id="edge29" class="edge"><title>31&#45;&gt;16</title>
<path fill="none" stroke="black" d="M1640.68,-143.697C1641.01,-135.983 1641.41,-126.712 1641.78,-118.112"/>
<polygon fill="black" stroke="black" points="1645.27,-118.245 1642.2,-108.104 1638.28,-117.945 1645.27,-118.245"/>
</g>
<!-- 34 -->
<g id="node35" class="node"><title>34</title>
<ellipse fill="paleturquoise" stroke="paleturquoise" cx="4976.94" cy="-162" rx="136.646" ry="18"/>
<text text-anchor="middle" x="4976.94" y="-157.8" font-family="Times,serif" font-size="14.00">github.com/coreos/pkg/capnslog</text>
</g>
<!-- 35 -->
<g id="node36" class="node"><title>35</title>
<ellipse fill="paleturquoise" stroke="paleturquoise" cx="5250.94" cy="-90" rx="159.775" ry="18"/>
<text text-anchor="middle" x="5250.94" y="-85.8" font-family="Times,serif" font-size="14.00">github.com/coreos/go&#45;systemd/journal</text>
</g>
<!-- 34&#45;&gt;35 -->
<g id="edge31" class="edge"><title>34&#45;&gt;35</title>
<path fill="none" stroke="black" d="M5036.73,-145.725C5078.74,-134.991 5135.14,-120.583 5179.52,-109.244"/>
<polygon fill="black" stroke="black" points="5180.55,-112.594 5189.37,-106.728 5178.82,-105.812 5180.55,-112.594"/>
</g>
<!-- 36&#45;&gt;28 -->
<g id="edge89" class="edge"><title>36&#45;&gt;28</title>
<path fill="none" stroke="black" d="M3370.26,-143.697C3367.22,-135.813 3363.55,-126.304 3360.18,-117.546"/>
<polygon fill="black" stroke="black" points="3363.4,-116.175 3356.53,-108.104 3356.87,-118.694 3363.4,-116.175"/>
</g>
<!-- 37 -->
<g id="node38" class="node"><title>37</title>
<ellipse fill="paleturquoise" stroke="paleturquoise" cx="2888.94" cy="-594" rx="176.549" ry="18"/>
<text text-anchor="middle" x="2888.94" y="-589.8" font-family="Times,serif" font-size="14.00">github.com/openshift/origin/pkg/ipfailover</text>
</g>
<!-- 37&#45;&gt;8 -->
<g id="edge33" class="edge"><title>37&#45;&gt;8</title>
<path fill="none" stroke="black" d="M2920,-576.142C2957.6,-553.21 3015.94,-508.384 3015.94,-451 3015.94,-451 3015.94,-451 3015.94,-233 3015.94,-191.633 3000.7,-145.722 2989.53,-117.605"/>
<polygon fill="black" stroke="black" points="2992.66,-116.019 2985.63,-108.093 2986.18,-118.673 2992.66,-116.019"/>
</g>
<!-- 37&#45;&gt;20 -->
<g id="edge36" class="edge"><title>37&#45;&gt;20</title>
<path fill="none" stroke="black" d="M2817.2,-577.524C2634.85,-538.187 2155.05,-434.682 1970.62,-394.895"/>
<polygon fill="black" stroke="black" points="1971.25,-391.452 1960.74,-392.764 1969.78,-398.294 1971.25,-391.452"/>
</g>
<!-- 38 -->
<g id="node39" class="node"><title>38</title>
<ellipse fill="paleturquoise" stroke="paleturquoise" cx="3248.94" cy="-450" rx="204.917" ry="18"/>
<text text-anchor="middle" x="3248.94" y="-445.8" font-family="Times,serif" font-size="14.00">github.com/openshift/origin/pkg/cmd/util/variable</text>
</g>
<!-- 37&#45;&gt;38 -->
<g id="edge34" class="edge"><title>37&#45;&gt;38</title>
<path fill="none" stroke="black" d="M2933.82,-576.473C2961.58,-566.167 2997.91,-552.525 3029.94,-540 3088.34,-517.162 3155.04,-489.883 3199.33,-471.598"/>
<polygon fill="black" stroke="black" points="3200.8,-474.778 3208.7,-467.724 3198.12,-468.308 3200.8,-474.778"/>
</g>
<!-- 39 -->
<g id="node40" class="node"><title>39</title>
<ellipse fill="paleturquoise" stroke="paleturquoise" cx="2212.94" cy="-522" rx="179.504" ry="18"/>
<text text-anchor="middle" x="2212.94" y="-517.8" font-family="Times,serif" font-size="14.00">github.com/openshift/origin/pkg/deploy/api</text>
</g>
<!-- 37&#45;&gt;39 -->
<g id="edge35" class="edge"><title>37&#45;&gt;39</title>
<path fill="none" stroke="black" d="M2770.03,-580.687C2650.45,-568.305 2466.6,-549.266 2343.15,-536.484"/>
<polygon fill="black" stroke="black" points="2343.2,-532.97 2332.89,-535.421 2342.48,-539.933 2343.2,-532.97"/>
</g>
<!-- 38&#45;&gt;8 -->
<g id="edge42" class="edge"><title>38&#45;&gt;8</title>
<path fill="none" stroke="black" d="M3188.57,-432.795C3131.3,-413.327 3053.94,-374.53 3053.94,-307 3053.94,-307 3053.94,-307 3053.94,-233 3053.94,-192.031 3050.28,-179.561 3029.94,-144 3023.8,-133.269 3014.96,-123.14 3006.31,-114.668"/>
<polygon fill="black" stroke="black" points="3008.52,-111.945 2998.82,-107.675 3003.74,-117.06 3008.52,-111.945"/>
</g>
<!-- 41 -->
<g id="node42" class="node"><title>41</title>
<ellipse fill="paleturquoise" stroke="paleturquoise" cx="3856.94" cy="-378" rx="167.323" ry="18"/>
<text text-anchor="middle" x="3856.94" y="-373.8" font-family="Times,serif" font-size="14.00">github.com/openshift/origin/pkg/version</text>
</g>
<!-- 38&#45;&gt;41 -->
<g id="edge43" class="edge"><title>38&#45;&gt;41</title>
<path fill="none" stroke="black" d="M3367.97,-435.295C3474.64,-423.015 3630.32,-405.091 3737.2,-392.785"/>
<polygon fill="black" stroke="black" points="3737.85,-396.233 3747.39,-391.613 3737.05,-389.279 3737.85,-396.233"/>
</g>
<!-- 39&#45;&gt;6 -->
<g id="edge41" class="edge"><title>39&#45;&gt;6</title>
<path fill="none" stroke="black" d="M2217.61,-503.98C2227.55,-471 2254.01,-398.279 2302.94,-360 2329.6,-339.138 2363.9,-326.477 2396.23,-318.796"/>
<polygon fill="black" stroke="black" points="2397.19,-322.167 2406.18,-316.569 2395.66,-315.336 2397.19,-322.167"/>
</g>
<!-- 39&#45;&gt;18 -->
<g id="edge40" class="edge"><title>39&#45;&gt;18</title>
<path fill="none" stroke="black" d="M2262.98,-504.651C2382.47,-465.609 2683.93,-367.118 2810.54,-325.753"/>
<polygon fill="black" stroke="black" points="2811.65,-329.071 2820.07,-322.638 2809.48,-322.417 2811.65,-329.071"/>
</g>
<!-- 39&#45;&gt;19 -->
<g id="edge39" class="edge"><title>39&#45;&gt;19</title>
<path fill="none" stroke="black" d="M2042.05,-516.415C1783.76,-509.02 1278.59,-492.738 849.937,-468 821.285,-466.346 790.58,-464.222 761.421,-462.039"/>
<polygon fill="black" stroke="black" points="761.414,-458.529 751.178,-461.265 760.886,-465.509 761.414,-458.529"/>
</g>
<!-- 39&#45;&gt;20 -->
<g id="edge37" class="edge"><title>39&#45;&gt;20</title>
<path fill="none" stroke="black" d="M2175.76,-504.293C2117.57,-478.143 2005.13,-427.619 1942.28,-399.374"/>
<polygon fill="black" stroke="black" points="1943.56,-396.113 1933,-395.206 1940.69,-402.498 1943.56,-396.113"/>
</g>
<!-- 39&#45;&gt;22 -->
<g id="edge38" class="edge"><title>39&#45;&gt;22</title>
<path fill="none" stroke="black" d="M2110.47,-507.165C1825.92,-468.747 1027.93,-361.005 736.361,-321.639"/>
<polygon fill="black" stroke="black" points="736.583,-318.137 726.204,-320.268 735.646,-325.074 736.583,-318.137"/>
</g>
<!-- 40 -->
<g id="node41" class="node"><title>40</title>
<ellipse fill="paleturquoise" stroke="paleturquoise" cx="4113.94" cy="-90" rx="165.6" ry="18"/>
<text text-anchor="middle" x="4113.94" y="-85.8" font-family="Times,serif" font-size="14.00">github.com/prometheus/common/model</text>
</g>
<!-- 41&#45;&gt;12 -->
<g id="edge48" class="edge"><title>41&#45;&gt;12</title>
<path fill="none" stroke="black" d="M3856.03,-359.848C3855.93,-340.23 3858.74,-308.22 3875.94,-288 3888.72,-272.973 3906.3,-262.184 3924.58,-254.445"/>
<polygon fill="black" stroke="black" points="3925.87,-257.7 3933.89,-250.778 3923.31,-251.187 3925.87,-257.7"/>
</g>
<!-- 41&#45;&gt;25 -->
<g id="edge49" class="edge"><title>41&#45;&gt;25</title>
<path fill="none" stroke="black" d="M3768.68,-362.666C3692.59,-350.307 3583.52,-332.593 3508.98,-320.488"/>
<polygon fill="black" stroke="black" points="3509.13,-316.967 3498.7,-318.818 3508.01,-323.876 3509.13,-316.967"/>
</g>
<!-- 48 -->
<g id="node49" class="node"><title>48</title>
<ellipse fill="paleturquoise" stroke="paleturquoise" cx="4406.94" cy="-306" rx="132.546" ry="18"/>
<text text-anchor="middle" x="4406.94" y="-301.8" font-family="Times,serif" font-size="14.00">github.com/coreos/etcd/version</text>
</g>
<!-- 41&#45;&gt;48 -->
<g id="edge47" class="edge"><title>41&#45;&gt;48</title>
<path fill="none" stroke="black" d="M3960.39,-363.834C4058.61,-351.332 4205.46,-332.643 4303.63,-320.148"/>
<polygon fill="black" stroke="black" points="4304.09,-323.618 4313.57,-318.883 4303.21,-316.674 4304.09,-323.618"/>
</g>
<!-- 49 -->
<g id="node50" class="node"><title>49</title>
<ellipse fill="paleturquoise" stroke="paleturquoise" cx="4011.94" cy="-306" rx="127.332" ry="18"/>
<text text-anchor="middle" x="4011.94" y="-301.8" font-family="Times,serif" font-size="14.00">k8s.io/kubernetes/pkg/version</text>
</g>
<!-- 41&#45;&gt;49 -->
<g id="edge50" class="edge"><title>41&#45;&gt;49</title>
<path fill="none" stroke="black" d="M3893.67,-360.411C3915.46,-350.568 3943.27,-338.01 3966.45,-327.543"/>
<polygon fill="black" stroke="black" points="3968.06,-330.655 3975.74,-323.349 3965.18,-324.275 3968.06,-330.655"/>
</g>
<!-- 43 -->
<g id="node44" class="node"><title>43</title>
<ellipse fill="paleturquoise" stroke="paleturquoise" cx="4406.94" cy="-234" rx="141.797" ry="18"/>
<text text-anchor="middle" x="4406.94" y="-229.8" font-family="Times,serif" font-size="14.00">github.com/coreos/etcd/pkg/types</text>
</g>
<!-- 45 -->
<g id="node46" class="node"><title>45</title>
<ellipse fill="paleturquoise" stroke="paleturquoise" cx="4419.94" cy="-90" rx="121.598" ry="18"/>
<text text-anchor="middle" x="4419.94" y="-85.8" font-family="Times,serif" font-size="14.00">bitbucket.org/ww/goautoneg</text>
</g>
<!-- 46&#45;&gt;7 -->
<g id="edge45" class="edge"><title>46&#45;&gt;7</title>
<path fill="none" stroke="black" d="M704.493,-220.804C723.591,-218.935 743.341,-217.225 761.937,-216 772.937,-215.276 2077.19,-179.548 2529.53,-167.169"/>
<polygon fill="black" stroke="black" points="2529.83,-170.662 2539.73,-166.89 2529.64,-163.665 2529.83,-170.662"/>
</g>
<!-- 47 -->
<g id="node48" class="node"><title>47</title>
<ellipse fill="paleturquoise" stroke="paleturquoise" cx="598.937" cy="-162" rx="136.637" ry="18"/>
<text text-anchor="middle" x="598.937" y="-157.8" font-family="Times,serif" font-size="14.00">k8s.io/kubernetes/pkg/util/errors</text>
</g>
<!-- 46&#45;&gt;47 -->
<g id="edge46" class="edge"><title>46&#45;&gt;47</title>
<path fill="none" stroke="black" d="M598.937,-215.697C598.937,-207.983 598.937,-198.712 598.937,-190.112"/>
<polygon fill="black" stroke="black" points="602.437,-190.104 598.937,-180.104 595.437,-190.104 602.437,-190.104"/>
</g>
<!-- 48&#45;&gt;43 -->
<g id="edge77" class="edge"><title>48&#45;&gt;43</title>
<path fill="none" stroke="black" d="M4406.94,-287.697C4406.94,-279.983 4406.94,-270.712 4406.94,-262.112"/>
<polygon fill="black" stroke="black" points="4410.44,-262.104 4406.94,-252.104 4403.44,-262.104 4410.44,-262.104"/>
</g>
<!-- 51 -->
<g id="node52" class="node"><title>51</title>
<ellipse fill="paleturquoise" stroke="paleturquoise" cx="4728.94" cy="-234" rx="147.028" ry="18"/>
<text text-anchor="middle" x="4728.94" y="-229.8" font-family="Times,serif" font-size="14.00">github.com/coreos/etcd/pkg/fileutil</text>
</g>
<!-- 48&#45;&gt;51 -->
<g id="edge76" class="edge"><title>48&#45;&gt;51</title>
<path fill="none" stroke="black" d="M4474.05,-290.411C4525.41,-279.246 4596.36,-263.821 4650.37,-252.08"/>
<polygon fill="black" stroke="black" points="4651.22,-255.477 4660.25,-249.932 4649.73,-248.636 4651.22,-255.477"/>
</g>
<!-- 49&#45;&gt;12 -->
<g id="edge83" class="edge"><title>49&#45;&gt;12</title>
<path fill="none" stroke="black" d="M4011.94,-287.697C4011.94,-279.983 4011.94,-270.712 4011.94,-262.112"/>
<polygon fill="black" stroke="black" points="4015.44,-262.104 4011.94,-252.104 4008.44,-262.104 4015.44,-262.104"/>
</g>
<!-- 50&#45;&gt;15 -->
<g id="edge51" class="edge"><title>50&#45;&gt;15</title>
<path fill="none" stroke="black" d="M3861.62,-75.5033C3951.84,-63.2877 4084.2,-45.3664 4175.55,-32.9979"/>
<polygon fill="black" stroke="black" points="4176.21,-36.441 4185.65,-31.6309 4175.27,-29.5043 4176.21,-36.441"/>
</g>
<!-- 51&#45;&gt;34 -->
<g id="edge55" class="edge"><title>51&#45;&gt;34</title>
<path fill="none" stroke="black" d="M4784.59,-217.291C4822.38,-206.626 4872.47,-192.486 4912.07,-181.31"/>
<polygon fill="black" stroke="black" points="4913.22,-184.621 4921.89,-178.536 4911.32,-177.884 4913.22,-184.621"/>
</g>
<!-- 52 -->
<g id="node53" class="node"><title>52</title>
<ellipse fill="paleturquoise" stroke="paleturquoise" cx="4796.94" cy="-90" rx="237.876" ry="18"/>
<text text-anchor="middle" x="4796.94" y="-85.8" font-family="Times,serif" font-size="14.00">github.com/matttproud/golang_protobuf_extensions/pbutil</text>
</g>
<!-- 52&#45;&gt;15 -->
<g id="edge56" class="edge"><title>52&#45;&gt;15</title>
<path fill="none" stroke="black" d="M4686.13,-74.0262C4596.27,-61.8831 4470.54,-44.893 4382.65,-33.0149"/>
<polygon fill="black" stroke="black" points="4383.04,-29.5357 4372.66,-31.6649 4382.1,-36.4726 4383.04,-29.5357"/>
</g>
<!-- 54&#45;&gt;15 -->
<g id="edge79" class="edge"><title>54&#45;&gt;15</title>
<path fill="none" stroke="black" d="M4550.34,-153.715C4735.42,-144.008 5027.39,-125.96 5043.94,-108 5054.78,-96.2315 5054.85,-83.6982 5043.94,-72 5003.17,-28.3058 4643.23,-19.8319 4431.92,-18.6671"/>
<polygon fill="black" stroke="black" points="4431.68,-15.1659 4421.66,-18.6156 4431.64,-22.1658 4431.68,-15.1659"/>
</g>
<!-- 54&#45;&gt;40 -->
<g id="edge82" class="edge"><title>54&#45;&gt;40</title>
<path fill="none" stroke="black" d="M4335.75,-145.291C4291.87,-134.55 4233.59,-120.285 4187.78,-109.073"/>
<polygon fill="black" stroke="black" points="4188.45,-105.635 4177.91,-106.657 4186.79,-112.434 4188.45,-105.635"/>
</g>
<!-- 54&#45;&gt;45 -->
<g id="edge78" class="edge"><title>54&#45;&gt;45</title>
<path fill="none" stroke="black" d="M4404.88,-143.697C4407.11,-135.898 4409.79,-126.509 4412.27,-117.829"/>
<polygon fill="black" stroke="black" points="4415.67,-118.681 4415.05,-108.104 4408.94,-116.758 4415.67,-118.681"/>
</g>
<!-- 54&#45;&gt;50 -->
<g id="edge81" class="edge"><title>54&#45;&gt;50</title>
<path fill="none" stroke="black" d="M4286.98,-148.606C4174.04,-136.215 4000.88,-117.216 3884.63,-104.461"/>
<polygon fill="black" stroke="black" points="3884.93,-100.974 3874.61,-103.362 3884.17,-107.932 3884.93,-100.974"/>
</g>
<!-- 54&#45;&gt;52 -->
<g id="edge80" class="edge"><title>54&#45;&gt;52</title>
<path fill="none" stroke="black" d="M4483.16,-146.326C4545.66,-135.305 4631.5,-120.171 4697.6,-108.516"/>
<polygon fill="black" stroke="black" points="4698.37,-111.933 4707.61,-106.75 4697.16,-105.04 4698.37,-111.933"/>
</g>
</g>
</svg>
