<?xml version="1.0" encoding="UTF-8" standalone="no"?>
<!DOCTYPE svg PUBLIC "-//W3C//DTD SVG 1.1//EN"
 "http://www.w3.org/Graphics/SVG/1.1/DTD/svg11.dtd">
<!-- Generated by graphviz version 2.38.0 (20140413.2041)
 -->
<!-- Title: godep Pages: 1 -->
<svg width="5452pt" height="548pt"
 viewBox="0.00 0.00 5452.29 548.00" xmlns="http://www.w3.org/2000/svg" xmlns:xlink="http://www.w3.org/1999/xlink">
<g id="graph0" class="graph" transform="scale(1 1) rotate(0) translate(4 544)">
<title>godep</title>
<polygon fill="white" stroke="none" points="-4,4 -4,-544 5448.29,-544 5448.29,4 -4,4"/>
<!-- 0 -->
<g id="node1" class="node"><title>0</title>
<ellipse fill="paleturquoise" stroke="paleturquoise" cx="4939.69" cy="-234" rx="119.246" ry="18"/>
<text text-anchor="middle" x="4939.69" y="-229.8" font-family="Times,serif" font-size="14.00">k8s.io/kubernetes/pkg/types</text>
</g>
<!-- 1 -->
<g id="node2" class="node"><title>1</title>
<ellipse fill="paleturquoise" stroke="paleturquoise" cx="3832.69" cy="-162" rx="136.637" ry="18"/>
<text text-anchor="middle" x="3832.69" y="-157.8" font-family="Times,serif" font-size="14.00">k8s.io/kubernetes/pkg/util/errors</text>
</g>
<!-- 2 -->
<g id="node3" class="node"><title>2</title>
<ellipse fill="paleturquoise" stroke="paleturquoise" cx="1585.69" cy="-234" rx="205.466" ry="18"/>
<text text-anchor="middle" x="1585.69" y="-229.8" font-family="Times,serif" font-size="14.00">github.com/prometheus/client_golang/prometheus</text>
</g>
<!-- 3 -->
<g id="node4" class="node"><title>3</title>
<ellipse fill="paleturquoise" stroke="paleturquoise" cx="1952.69" cy="-162" rx="141.799" ry="18"/>
<text text-anchor="middle" x="1952.69" y="-157.8" font-family="Times,serif" font-size="14.00">github.com/beorn7/perks/quantile</text>
</g>
<!-- 2&#45;&gt;3 -->
<g id="edge1" class="edge"><title>2&#45;&gt;3</title>
<path fill="none" stroke="black" d="M1667.14,-217.465C1726.75,-206.095 1807.43,-190.706 1867.82,-179.187"/>
<polygon fill="black" stroke="black" points="1868.55,-182.612 1877.71,-177.3 1867.24,-175.736 1868.55,-182.612"/>
</g>
<!-- 4 -->
<g id="node5" class="node"><title>4</title>
<ellipse fill="paleturquoise" stroke="paleturquoise" cx="1212.69" cy="-18" rx="142.968" ry="18"/>
<text text-anchor="middle" x="1212.69" y="-13.8" font-family="Times,serif" font-size="14.00">github.com/golang/protobuf/proto</text>
</g>
<!-- 2&#45;&gt;4 -->
<g id="edge2" class="edge"><title>2&#45;&gt;4</title>
<path fill="none" stroke="black" d="M1561.07,-215.965C1549,-206.551 1535.08,-193.948 1525.69,-180 1497.26,-137.797 1526.23,-105.224 1487.69,-72 1464.35,-51.8856 1396.74,-38.6981 1334.4,-30.5084"/>
<polygon fill="black" stroke="black" points="1334.81,-27.0325 1324.44,-29.2366 1333.92,-33.976 1334.81,-27.0325"/>
</g>
<!-- 5 -->
<g id="node6" class="node"><title>5</title>
<ellipse fill="paleturquoise" stroke="paleturquoise" cx="1310.69" cy="-90" rx="167.883" ry="18"/>
<text text-anchor="middle" x="1310.69" y="-85.8" font-family="Times,serif" font-size="14.00">github.com/prometheus/client_model/go</text>
</g>
<!-- 2&#45;&gt;5 -->
<g id="edge3" class="edge"><title>2&#45;&gt;5</title>
<path fill="none" stroke="black" d="M1553.06,-216.153C1503.03,-190.319 1407.39,-140.933 1352.39,-112.534"/>
<polygon fill="black" stroke="black" points="1353.76,-109.303 1343.27,-107.825 1350.55,-115.523 1353.76,-109.303"/>
</g>
<!-- 6 -->
<g id="node7" class="node"><title>6</title>
<ellipse fill="paleturquoise" stroke="paleturquoise" cx="1065.69" cy="-162" rx="169.029" ry="18"/>
<text text-anchor="middle" x="1065.69" y="-157.8" font-family="Times,serif" font-size="14.00">github.com/prometheus/common/expfmt</text>
</g>
<!-- 2&#45;&gt;6 -->
<g id="edge4" class="edge"><title>2&#45;&gt;6</title>
<path fill="none" stroke="black" d="M1478.57,-218.581C1390.26,-206.692 1265.44,-189.89 1176.2,-177.877"/>
<polygon fill="black" stroke="black" points="1176.42,-174.375 1166.05,-176.51 1175.49,-181.313 1176.42,-174.375"/>
</g>
<!-- 7 -->
<g id="node8" class="node"><title>7</title>
<ellipse fill="paleturquoise" stroke="paleturquoise" cx="1663.69" cy="-162" rx="129.118" ry="18"/>
<text text-anchor="middle" x="1663.69" y="-157.8" font-family="Times,serif" font-size="14.00">github.com/prometheus/procfs</text>
</g>
<!-- 2&#45;&gt;7 -->
<g id="edge5" class="edge"><title>2&#45;&gt;7</title>
<path fill="none" stroke="black" d="M1604.57,-216.055C1614.37,-207.264 1626.49,-196.38 1637.21,-186.763"/>
<polygon fill="black" stroke="black" points="1639.61,-189.316 1644.71,-180.032 1634.93,-184.106 1639.61,-189.316"/>
</g>
<!-- 5&#45;&gt;4 -->
<g id="edge23" class="edge"><title>5&#45;&gt;4</title>
<path fill="none" stroke="black" d="M1286.96,-72.055C1274.21,-62.9408 1258.3,-51.5774 1244.48,-41.7077"/>
<polygon fill="black" stroke="black" points="1246.36,-38.7533 1236.19,-35.789 1242.3,-44.4495 1246.36,-38.7533"/>
</g>
<!-- 6&#45;&gt;4 -->
<g id="edge16" class="edge"><title>6&#45;&gt;4</title>
<path fill="none" stroke="black" d="M1076.27,-143.933C1088.56,-124.969 1110.17,-94.1121 1133.69,-72 1145.83,-60.5845 1160.67,-49.9344 1174.2,-41.2196"/>
<polygon fill="black" stroke="black" points="1176.25,-44.0649 1182.86,-35.7836 1172.53,-38.1363 1176.25,-44.0649"/>
</g>
<!-- 6&#45;&gt;5 -->
<g id="edge18" class="edge"><title>6&#45;&gt;5</title>
<path fill="none" stroke="black" d="M1121.9,-144.941C1158.47,-134.492 1206.32,-120.82 1244.7,-109.855"/>
<polygon fill="black" stroke="black" points="1246.09,-113.097 1254.74,-106.985 1244.16,-106.367 1246.09,-113.097"/>
</g>
<!-- 8 -->
<g id="node9" class="node"><title>8</title>
<ellipse fill="paleturquoise" stroke="paleturquoise" cx="237.688" cy="-90" rx="237.876" ry="18"/>
<text text-anchor="middle" x="237.688" y="-85.8" font-family="Times,serif" font-size="14.00">github.com/matttproud/golang_protobuf_extensions/pbutil</text>
</g>
<!-- 6&#45;&gt;8 -->
<g id="edge17" class="edge"><title>6&#45;&gt;8</title>
<path fill="none" stroke="black" d="M937.675,-150.178C793.093,-137.955 557.508,-118.038 400.095,-104.73"/>
<polygon fill="black" stroke="black" points="400.101,-101.218 389.842,-103.863 399.511,-108.193 400.101,-101.218"/>
</g>
<!-- 24 -->
<g id="node25" class="node"><title>24</title>
<ellipse fill="paleturquoise" stroke="paleturquoise" cx="614.688" cy="-90" rx="121.598" ry="18"/>
<text text-anchor="middle" x="614.688" y="-85.8" font-family="Times,serif" font-size="14.00">bitbucket.org/ww/goautoneg</text>
</g>
<!-- 6&#45;&gt;24 -->
<g id="edge15" class="edge"><title>6&#45;&gt;24</title>
<path fill="none" stroke="black" d="M974.421,-146.834C896.088,-134.676 783.778,-117.245 705.56,-105.104"/>
<polygon fill="black" stroke="black" points="705.655,-101.577 695.236,-103.502 704.581,-108.494 705.655,-101.577"/>
</g>
<!-- 25 -->
<g id="node26" class="node"><title>25</title>
<ellipse fill="paleturquoise" stroke="paleturquoise" cx="920.688" cy="-90" rx="165.6" ry="18"/>
<text text-anchor="middle" x="920.688" y="-85.8" font-family="Times,serif" font-size="14.00">github.com/prometheus/common/model</text>
</g>
<!-- 6&#45;&gt;25 -->
<g id="edge19" class="edge"><title>6&#45;&gt;25</title>
<path fill="none" stroke="black" d="M1030.96,-144.233C1010.96,-134.579 985.643,-122.358 964.313,-112.06"/>
<polygon fill="black" stroke="black" points="965.663,-108.826 955.136,-107.63 962.619,-115.129 965.663,-108.826"/>
</g>
<!-- 8&#45;&gt;4 -->
<g id="edge6" class="edge"><title>8&#45;&gt;4</title>
<path fill="none" stroke="black" d="M403.636,-77.0858C595.338,-63.3226 906.786,-40.9622 1082.08,-28.3772"/>
<polygon fill="black" stroke="black" points="1082.41,-31.8627 1092.13,-27.6555 1081.9,-24.8807 1082.41,-31.8627"/>
</g>
<!-- 9 -->
<g id="node10" class="node"><title>9</title>
<ellipse fill="paleturquoise" stroke="paleturquoise" cx="2532.69" cy="-234" rx="102.493" ry="18"/>
<text text-anchor="middle" x="2532.69" y="-229.8" font-family="Times,serif" font-size="14.00">golang.org/x/crypto/ssh</text>
</g>
<!-- 10 -->
<g id="node11" class="node"><title>10</title>
<ellipse fill="paleturquoise" stroke="paleturquoise" cx="2796.69" cy="-378" rx="121.594" ry="18"/>
<text text-anchor="middle" x="2796.69" y="-373.8" font-family="Times,serif" font-size="14.00">k8s.io/kubernetes/pkg/watch</text>
</g>
<!-- 11 -->
<g id="node12" class="node"><title>11</title>
<ellipse fill="paleturquoise" stroke="paleturquoise" cx="2160.69" cy="-90" rx="103.66" ry="18"/>
<text text-anchor="middle" x="2160.69" y="-85.8" font-family="Times,serif" font-size="14.00">github.com/golang/glog</text>
</g>
<!-- 10&#45;&gt;11 -->
<g id="edge7" class="edge"><title>10&#45;&gt;11</title>
<path fill="none" stroke="black" d="M2685,-370.8C2520.47,-359.195 2224.81,-328.092 2154.69,-252 2121.31,-215.775 2136.69,-153.195 2149.55,-117.666"/>
<polygon fill="black" stroke="black" points="2152.95,-118.577 2153.23,-107.986 2146.4,-116.088 2152.95,-118.577"/>
</g>
<!-- 12 -->
<g id="node13" class="node"><title>12</title>
<ellipse fill="paleturquoise" stroke="paleturquoise" cx="4635.69" cy="-234" rx="128.556" ry="18"/>
<text text-anchor="middle" x="4635.69" y="-229.8" font-family="Times,serif" font-size="14.00">k8s.io/kubernetes/pkg/runtime</text>
</g>
<!-- 10&#45;&gt;12 -->
<g id="edge8" class="edge"><title>10&#45;&gt;12</title>
<path fill="none" stroke="black" d="M2837.95,-361.015C2863.87,-350.798 2897.92,-337.059 2927.69,-324 2961.91,-308.985 2967.33,-296.65 3003.69,-288 3161.12,-250.548 4298.16,-261.786 4459.69,-252 4481.61,-250.672 4505.02,-248.759 4527.39,-246.691"/>
<polygon fill="black" stroke="black" points="4527.95,-250.153 4537.58,-245.731 4527.29,-243.184 4527.95,-250.153"/>
</g>
<!-- 13 -->
<g id="node14" class="node"><title>13</title>
<ellipse fill="paleturquoise" stroke="paleturquoise" cx="2806.69" cy="-306" rx="111.739" ry="18"/>
<text text-anchor="middle" x="2806.69" y="-301.8" font-family="Times,serif" font-size="14.00">k8s.io/kubernetes/pkg/util</text>
</g>
<!-- 10&#45;&gt;13 -->
<g id="edge9" class="edge"><title>10&#45;&gt;13</title>
<path fill="none" stroke="black" d="M2799.16,-359.697C2800.26,-351.983 2801.59,-342.712 2802.81,-334.112"/>
<polygon fill="black" stroke="black" points="2806.29,-334.499 2804.24,-324.104 2799.37,-333.509 2806.29,-334.499"/>
</g>
<!-- 23 -->
<g id="node24" class="node"><title>23</title>
<ellipse fill="paleturquoise" stroke="paleturquoise" cx="4393.69" cy="-162" rx="130.299" ry="18"/>
<text text-anchor="middle" x="4393.69" y="-157.8" font-family="Times,serif" font-size="14.00">k8s.io/kubernetes/pkg/util/json</text>
</g>
<!-- 12&#45;&gt;23 -->
<g id="edge49" class="edge"><title>12&#45;&gt;23</title>
<path fill="none" stroke="black" d="M4582.28,-217.552C4545.32,-206.862 4495.98,-192.59 4457.04,-181.325"/>
<polygon fill="black" stroke="black" points="4457.96,-177.946 4447.38,-178.53 4456.01,-184.671 4457.96,-177.946"/>
</g>
<!-- 33 -->
<g id="node34" class="node"><title>33</title>
<ellipse fill="paleturquoise" stroke="paleturquoise" cx="4116.69" cy="-162" rx="128.57" ry="18"/>
<text text-anchor="middle" x="4116.69" y="-157.8" font-family="Times,serif" font-size="14.00">k8s.io/kubernetes/pkg/util/sets</text>
</g>
<!-- 12&#45;&gt;33 -->
<g id="edge50" class="edge"><title>12&#45;&gt;33</title>
<path fill="none" stroke="black" d="M4546.47,-220.967C4454.52,-208.564 4311.49,-189.274 4216,-176.395"/>
<polygon fill="black" stroke="black" points="4216.42,-172.92 4206.04,-175.052 4215.49,-179.857 4216.42,-172.92"/>
</g>
<!-- 36 -->
<g id="node37" class="node"><title>36</title>
<ellipse fill="paleturquoise" stroke="paleturquoise" cx="4971.69" cy="-162" rx="141.22" ry="18"/>
<text text-anchor="middle" x="4971.69" y="-157.8" font-family="Times,serif" font-size="14.00">k8s.io/kubernetes/pkg/conversion</text>
</g>
<!-- 12&#45;&gt;36 -->
<g id="edge48" class="edge"><title>12&#45;&gt;36</title>
<path fill="none" stroke="black" d="M4704.49,-218.666C4758.65,-207.383 4834.23,-191.638 4891.19,-179.77"/>
<polygon fill="black" stroke="black" points="4892.16,-183.143 4901.24,-177.677 4890.74,-176.29 4892.16,-183.143"/>
</g>
<!-- 39 -->
<g id="node40" class="node"><title>39</title>
<ellipse fill="paleturquoise" stroke="paleturquoise" cx="4675.69" cy="-162" rx="133.728" ry="18"/>
<text text-anchor="middle" x="4675.69" y="-157.8" font-family="Times,serif" font-size="14.00">k8s.io/kubernetes/pkg/util/yaml</text>
</g>
<!-- 12&#45;&gt;39 -->
<g id="edge51" class="edge"><title>12&#45;&gt;39</title>
<path fill="none" stroke="black" d="M4645.58,-215.697C4650.18,-207.644 4655.75,-197.894 4660.84,-188.982"/>
<polygon fill="black" stroke="black" points="4663.99,-190.523 4665.91,-180.104 4657.91,-187.05 4663.99,-190.523"/>
</g>
<!-- 13&#45;&gt;0 -->
<g id="edge63" class="edge"><title>13&#45;&gt;0</title>
<path fill="none" stroke="black" d="M2898.8,-295.789C2931.85,-292.819 2969.41,-289.826 3003.69,-288 3789.4,-246.154 3988.33,-300.12 4773.69,-252 4794.66,-250.715 4817.07,-248.794 4838.42,-246.701"/>
<polygon fill="black" stroke="black" points="4838.87,-250.173 4848.47,-245.695 4838.17,-243.208 4838.87,-250.173"/>
</g>
<!-- 13&#45;&gt;2 -->
<g id="edge60" class="edge"><title>13&#45;&gt;2</title>
<path fill="none" stroke="black" d="M2703.38,-299.077C2494.78,-287.118 2021.22,-259.969 1762.5,-245.137"/>
<polygon fill="black" stroke="black" points="1762.43,-241.627 1752.25,-244.549 1762.03,-248.616 1762.43,-241.627"/>
</g>
<!-- 13&#45;&gt;9 -->
<g id="edge62" class="edge"><title>13&#45;&gt;9</title>
<path fill="none" stroke="black" d="M2749.91,-290.496C2705.81,-279.229 2644.58,-263.586 2598.37,-251.78"/>
<polygon fill="black" stroke="black" points="2599.01,-248.33 2588.45,-249.246 2597.27,-255.112 2599.01,-248.33"/>
</g>
<!-- 13&#45;&gt;11 -->
<g id="edge56" class="edge"><title>13&#45;&gt;11</title>
<path fill="none" stroke="black" d="M2696.44,-303.121C2526.43,-299.132 2215.95,-287.082 2179.69,-252 2144.12,-217.595 2148.45,-154.511 2154.64,-118.366"/>
<polygon fill="black" stroke="black" points="2158.17,-118.551 2156.59,-108.076 2151.29,-117.253 2158.17,-118.551"/>
</g>
<!-- 14 -->
<g id="node15" class="node"><title>14</title>
<ellipse fill="paleturquoise" stroke="paleturquoise" cx="3530.69" cy="-162" rx="147.581" ry="18"/>
<text text-anchor="middle" x="3530.69" y="-157.8" font-family="Times,serif" font-size="14.00">github.com/davecgh/go&#45;spew/spew</text>
</g>
<!-- 13&#45;&gt;14 -->
<g id="edge55" class="edge"><title>13&#45;&gt;14</title>
<path fill="none" stroke="black" d="M2829.64,-288.372C2843.66,-278.085 2861.88,-264.499 2877.69,-252 2897.24,-236.539 2897.65,-225.519 2920.69,-216 3000.1,-183.186 3222.47,-170.68 3375.58,-165.919"/>
<polygon fill="black" stroke="black" points="3376.13,-169.404 3386.02,-165.603 3375.92,-162.407 3376.13,-169.404"/>
</g>
<!-- 17 -->
<g id="node18" class="node"><title>17</title>
<ellipse fill="paleturquoise" stroke="paleturquoise" cx="2760.69" cy="-234" rx="107.739" ry="18"/>
<text text-anchor="middle" x="2760.69" y="-229.8" font-family="Times,serif" font-size="14.00">github.com/juju/ratelimit</text>
</g>
<!-- 13&#45;&gt;17 -->
<g id="edge58" class="edge"><title>13&#45;&gt;17</title>
<path fill="none" stroke="black" d="M2795.55,-288.055C2790.15,-279.837 2783.55,-269.791 2777.55,-260.66"/>
<polygon fill="black" stroke="black" points="2780.46,-258.71 2772.04,-252.275 2774.61,-262.555 2780.46,-258.71"/>
</g>
<!-- 28 -->
<g id="node29" class="node"><title>28</title>
<ellipse fill="paleturquoise" stroke="paleturquoise" cx="3113.69" cy="-234" rx="112.869" ry="18"/>
<text text-anchor="middle" x="3113.69" y="-229.8" font-family="Times,serif" font-size="14.00">github.com/google/gofuzz</text>
</g>
<!-- 13&#45;&gt;28 -->
<g id="edge57" class="edge"><title>13&#45;&gt;28</title>
<path fill="none" stroke="black" d="M2868.44,-290.919C2918.53,-279.498 2989.21,-263.383 3041.83,-251.385"/>
<polygon fill="black" stroke="black" points="3042.8,-254.754 3051.77,-249.119 3041.24,-247.929 3042.8,-254.754"/>
</g>
<!-- 29 -->
<g id="node30" class="node"><title>29</title>
<ellipse fill="paleturquoise" stroke="paleturquoise" cx="3345.69" cy="-234" rx="101.349" ry="18"/>
<text text-anchor="middle" x="3345.69" y="-229.8" font-family="Times,serif" font-size="14.00">github.com/spf13/pflag</text>
</g>
<!-- 13&#45;&gt;29 -->
<g id="edge61" class="edge"><title>13&#45;&gt;29</title>
<path fill="none" stroke="black" d="M2894.7,-294.919C2981.5,-284.792 3117.87,-268.378 3235.69,-252 3244.54,-250.769 3253.79,-249.428 3263,-248.056"/>
<polygon fill="black" stroke="black" points="3263.59,-251.507 3272.96,-246.56 3262.55,-244.585 3263.59,-251.507"/>
</g>
<!-- 13&#45;&gt;33 -->
<g id="edge64" class="edge"><title>13&#45;&gt;33</title>
<path fill="none" stroke="black" d="M2843.9,-288.967C2864.98,-279.302 2891.48,-266.148 2913.69,-252 2935.29,-238.236 2934.67,-224.903 2958.69,-216 3065.02,-176.581 3865.64,-188.941 3978.69,-180 3991.44,-178.991 4004.83,-177.672 4018.04,-176.214"/>
<polygon fill="black" stroke="black" points="4018.55,-179.678 4028.09,-175.074 4017.76,-172.722 4018.55,-179.678"/>
</g>
<!-- 41 -->
<g id="node42" class="node"><title>41</title>
<ellipse fill="paleturquoise" stroke="paleturquoise" cx="2300.69" cy="-234" rx="111.747" ry="18"/>
<text text-anchor="middle" x="2300.69" y="-229.8" font-family="Times,serif" font-size="14.00">github.com/pborman/uuid</text>
</g>
<!-- 13&#45;&gt;41 -->
<g id="edge59" class="edge"><title>13&#45;&gt;41</title>
<path fill="none" stroke="black" d="M2724.44,-293.745C2646.48,-283.061 2526.11,-266.522 2421.69,-252 2412,-250.652 2401.87,-249.238 2391.78,-247.826"/>
<polygon fill="black" stroke="black" points="2392.11,-244.337 2381.72,-246.416 2391.13,-251.27 2392.11,-244.337"/>
</g>
<!-- 15 -->
<g id="node16" class="node"><title>15</title>
<ellipse fill="paleturquoise" stroke="paleturquoise" cx="4672.69" cy="-90" rx="106.026" ry="18"/>
<text text-anchor="middle" x="4672.69" y="-85.8" font-family="Times,serif" font-size="14.00">github.com/ghodss/yaml</text>
</g>
<!-- 16 -->
<g id="node17" class="node"><title>16</title>
<ellipse fill="paleturquoise" stroke="paleturquoise" cx="4672.69" cy="-18" rx="79.3425" ry="18"/>
<text text-anchor="middle" x="4672.69" y="-13.8" font-family="Times,serif" font-size="14.00">gopkg.in/yaml.v2</text>
</g>
<!-- 15&#45;&gt;16 -->
<g id="edge10" class="edge"><title>15&#45;&gt;16</title>
<path fill="none" stroke="black" d="M4672.69,-71.6966C4672.69,-63.9827 4672.69,-54.7125 4672.69,-46.1124"/>
<polygon fill="black" stroke="black" points="4676.19,-46.1043 4672.69,-36.1043 4669.19,-46.1044 4676.19,-46.1043"/>
</g>
<!-- 18 -->
<g id="node19" class="node"><title>18</title>
<ellipse fill="paleturquoise" stroke="paleturquoise" cx="4974.69" cy="-306" rx="131.423" ry="18"/>
<text text-anchor="middle" x="4974.69" y="-301.8" font-family="Times,serif" font-size="14.00">k8s.io/kubernetes/pkg/util/rand</text>
</g>
<!-- 19 -->
<g id="node20" class="node"><title>19</title>
<ellipse fill="paleturquoise" stroke="paleturquoise" cx="3172.69" cy="-450" rx="173.12" ry="18"/>
<text text-anchor="middle" x="3172.69" y="-445.8" font-family="Times,serif" font-size="14.00">github.com/openshift/origin/pkg/route/api</text>
</g>
<!-- 19&#45;&gt;13 -->
<g id="edge14" class="edge"><title>19&#45;&gt;13</title>
<path fill="none" stroke="black" d="M3129.99,-432.433C3061.95,-406.037 2929.26,-354.554 2856.82,-326.45"/>
<polygon fill="black" stroke="black" points="2858.03,-323.164 2847.44,-322.81 2855.49,-329.69 2858.03,-323.164"/>
</g>
<!-- 20 -->
<g id="node21" class="node"><title>20</title>
<ellipse fill="paleturquoise" stroke="paleturquoise" cx="4116.69" cy="-378" rx="110.578" ry="18"/>
<text text-anchor="middle" x="4116.69" y="-373.8" font-family="Times,serif" font-size="14.00">k8s.io/kubernetes/pkg/api</text>
</g>
<!-- 19&#45;&gt;20 -->
<g id="edge11" class="edge"><title>19&#45;&gt;20</title>
<path fill="none" stroke="black" d="M3309.2,-438.877C3498.13,-424.868 3835.51,-399.85 4008.25,-387.041"/>
<polygon fill="black" stroke="black" points="4008.66,-390.52 4018.38,-386.29 4008.14,-383.539 4008.66,-390.52"/>
</g>
<!-- 21 -->
<g id="node22" class="node"><title>21</title>
<ellipse fill="paleturquoise" stroke="paleturquoise" cx="3172.69" cy="-306" rx="160.342" ry="18"/>
<text text-anchor="middle" x="3172.69" y="-301.8" font-family="Times,serif" font-size="14.00">k8s.io/kubernetes/pkg/api/unversioned</text>
</g>
<!-- 19&#45;&gt;21 -->
<g id="edge12" class="edge"><title>19&#45;&gt;21</title>
<path fill="none" stroke="black" d="M3172.69,-431.871C3172.69,-407.67 3172.69,-363.211 3172.69,-334.393"/>
<polygon fill="black" stroke="black" points="3176.19,-334.189 3172.69,-324.189 3169.19,-334.189 3176.19,-334.189"/>
</g>
<!-- 22 -->
<g id="node23" class="node"><title>22</title>
<ellipse fill="paleturquoise" stroke="paleturquoise" cx="3471.69" cy="-306" rx="120.386" ry="18"/>
<text text-anchor="middle" x="3471.69" y="-301.8" font-family="Times,serif" font-size="14.00">k8s.io/kubernetes/pkg/fields</text>
</g>
<!-- 19&#45;&gt;22 -->
<g id="edge13" class="edge"><title>19&#45;&gt;22</title>
<path fill="none" stroke="black" d="M3207.87,-432.293C3262.67,-406.266 3368.31,-356.095 3427.94,-327.775"/>
<polygon fill="black" stroke="black" points="3429.57,-330.876 3437.1,-323.424 3426.57,-324.553 3429.57,-330.876"/>
</g>
<!-- 20&#45;&gt;0 -->
<g id="edge43" class="edge"><title>20&#45;&gt;0</title>
<path fill="none" stroke="black" d="M4226.91,-376.551C4530.88,-374.775 5361.31,-366.076 5401.69,-324 5412.77,-312.456 5412.34,-299.941 5401.69,-288 5379.35,-262.958 5191.19,-248.089 5062,-240.741"/>
<polygon fill="black" stroke="black" points="5061.81,-237.226 5051.63,-240.161 5061.42,-244.215 5061.81,-237.226"/>
</g>
<!-- 20&#45;&gt;12 -->
<g id="edge42" class="edge"><title>20&#45;&gt;12</title>
<path fill="none" stroke="black" d="M4178.2,-362.987C4209.74,-354.342 4248.06,-341.514 4279.69,-324 4301.49,-311.926 4300.06,-298.444 4322.69,-288 4342.21,-278.989 4454.27,-261.266 4538.77,-248.803"/>
<polygon fill="black" stroke="black" points="4539.28,-252.265 4548.67,-247.349 4538.27,-245.34 4539.28,-252.265"/>
</g>
<!-- 20&#45;&gt;13 -->
<g id="edge44" class="edge"><title>20&#45;&gt;13</title>
<path fill="none" stroke="black" d="M4009.95,-373.285C3811.6,-366.079 3372.83,-348.707 3003.69,-324 2973.38,-321.971 2940.48,-319.314 2910.41,-316.704"/>
<polygon fill="black" stroke="black" points="2910.59,-313.207 2900.33,-315.822 2909.98,-320.181 2910.59,-313.207"/>
</g>
<!-- 20&#45;&gt;14 -->
<g id="edge33" class="edge"><title>20&#45;&gt;14</title>
<path fill="none" stroke="black" d="M4068.14,-361.731C4042.84,-352.676 4011.98,-339.859 3986.69,-324 3966.42,-311.296 3968.05,-298.762 3946.69,-288 3875,-251.877 3840.91,-289.036 3769.69,-252 3749.05,-241.267 3752.01,-227.318 3731.69,-216 3700.41,-198.582 3663.19,-186.704 3629.33,-178.689"/>
<polygon fill="black" stroke="black" points="3629.93,-175.237 3619.41,-176.426 3628.38,-182.062 3629.93,-175.237"/>
</g>
<!-- 20&#45;&gt;18 -->
<g id="edge45" class="edge"><title>20&#45;&gt;18</title>
<path fill="none" stroke="black" d="M4218.77,-370.984C4358.11,-362.426 4615.59,-345.377 4834.69,-324 4846.8,-322.818 4859.49,-321.454 4872.07,-320.024"/>
<polygon fill="black" stroke="black" points="4872.59,-323.487 4882.13,-318.864 4871.79,-316.533 4872.59,-323.487"/>
</g>
<!-- 20&#45;&gt;21 -->
<g id="edge37" class="edge"><title>20&#45;&gt;21</title>
<path fill="none" stroke="black" d="M4014.57,-371.028C3866.41,-362.133 3583.27,-344.261 3342.69,-324 3327.66,-322.734 3311.89,-321.3 3296.27,-319.815"/>
<polygon fill="black" stroke="black" points="3296.32,-316.304 3286.03,-318.833 3295.65,-323.272 3296.32,-316.304"/>
</g>
<!-- 20&#45;&gt;22 -->
<g id="edge40" class="edge"><title>20&#45;&gt;22</title>
<path fill="none" stroke="black" d="M4023.38,-368.228C3919.96,-358.316 3748.27,-341.3 3600.69,-324 3589.95,-322.741 3578.72,-321.36 3567.56,-319.944"/>
<polygon fill="black" stroke="black" points="3567.7,-316.434 3557.34,-318.638 3566.82,-323.378 3567.7,-316.434"/>
</g>
<!-- 27 -->
<g id="node28" class="node"><title>27</title>
<ellipse fill="paleturquoise" stroke="paleturquoise" cx="5258.69" cy="-306" rx="134.273" ry="18"/>
<text text-anchor="middle" x="5258.69" y="-301.8" font-family="Times,serif" font-size="14.00">k8s.io/kubernetes/pkg/auth/user</text>
</g>
<!-- 20&#45;&gt;27 -->
<g id="edge38" class="edge"><title>20&#45;&gt;27</title>
<path fill="none" stroke="black" d="M4223.92,-373.574C4406.88,-367.22 4790.97,-351.675 5114.69,-324 5127.68,-322.889 5141.31,-321.532 5154.79,-320.074"/>
<polygon fill="black" stroke="black" points="5155.49,-323.517 5165.05,-318.941 5154.73,-316.559 5155.49,-323.517"/>
</g>
<!-- 30 -->
<g id="node31" class="node"><title>30</title>
<ellipse fill="paleturquoise" stroke="paleturquoise" cx="3593.69" cy="-234" rx="128.529" ry="18"/>
<text text-anchor="middle" x="3593.69" y="-229.8" font-family="Times,serif" font-size="14.00">speter.net/go/exp/math/dec/inf</text>
</g>
<!-- 20&#45;&gt;30 -->
<g id="edge47" class="edge"><title>20&#45;&gt;30</title>
<path fill="none" stroke="black" d="M4055.18,-362.987C4023.64,-354.342 3985.32,-341.514 3953.69,-324 3931.88,-311.926 3933.33,-298.421 3910.69,-288 3890.88,-278.884 3777.08,-261.141 3691.45,-248.704"/>
<polygon fill="black" stroke="black" points="3691.82,-245.221 3681.42,-247.253 3690.81,-252.149 3691.82,-245.221"/>
</g>
<!-- 31 -->
<g id="node32" class="node"><title>31</title>
<ellipse fill="paleturquoise" stroke="paleturquoise" cx="4116.69" cy="-306" rx="121.03" ry="18"/>
<text text-anchor="middle" x="4116.69" y="-301.8" font-family="Times,serif" font-size="14.00">k8s.io/kubernetes/pkg/labels</text>
</g>
<!-- 20&#45;&gt;31 -->
<g id="edge41" class="edge"><title>20&#45;&gt;31</title>
<path fill="none" stroke="black" d="M4116.69,-359.697C4116.69,-351.983 4116.69,-342.712 4116.69,-334.112"/>
<polygon fill="black" stroke="black" points="4120.19,-334.104 4116.69,-324.104 4113.19,-334.104 4120.19,-334.104"/>
</g>
<!-- 20&#45;&gt;33 -->
<g id="edge46" class="edge"><title>20&#45;&gt;33</title>
<path fill="none" stroke="black" d="M4168.08,-361.944C4193.12,-353.185 4222.88,-340.567 4246.69,-324 4264.5,-311.602 4260.78,-298.655 4279.69,-288 4350.77,-247.95 4407.96,-315.093 4459.69,-252 4469.83,-239.627 4470.1,-228.147 4459.69,-216 4451.8,-206.796 4318.21,-188.211 4220.13,-175.682"/>
<polygon fill="black" stroke="black" points="4220.51,-172.204 4210.15,-174.413 4219.63,-179.148 4220.51,-172.204"/>
</g>
<!-- 35 -->
<g id="node36" class="node"><title>35</title>
<ellipse fill="paleturquoise" stroke="paleturquoise" cx="4437.69" cy="-306" rx="105.923" ry="18"/>
<text text-anchor="middle" x="4437.69" y="-301.8" font-family="Times,serif" font-size="14.00">golang.org/x/net/context</text>
</g>
<!-- 20&#45;&gt;35 -->
<g id="edge34" class="edge"><title>20&#45;&gt;35</title>
<path fill="none" stroke="black" d="M4180.11,-363.17C4233.54,-351.518 4309.97,-334.852 4365.69,-322.701"/>
<polygon fill="black" stroke="black" points="4366.47,-326.113 4375.49,-320.563 4364.98,-319.274 4366.47,-326.113"/>
</g>
<!-- 20&#45;&gt;36 -->
<g id="edge39" class="edge"><title>20&#45;&gt;36</title>
<path fill="none" stroke="black" d="M4227.16,-376.62C4534.47,-375.023 5379.64,-366.748 5420.69,-324 5520.41,-220.147 5277.59,-183.097 5111.5,-170.014"/>
<polygon fill="black" stroke="black" points="5111.41,-166.497 5101.17,-169.223 5110.87,-173.476 5111.41,-166.497"/>
</g>
<!-- 38 -->
<g id="node39" class="node"><title>38</title>
<ellipse fill="paleturquoise" stroke="paleturquoise" cx="3755.69" cy="-306" rx="145.849" ry="18"/>
<text text-anchor="middle" x="3755.69" y="-301.8" font-family="Times,serif" font-size="14.00">k8s.io/kubernetes/pkg/api/resource</text>
</g>
<!-- 20&#45;&gt;38 -->
<g id="edge36" class="edge"><title>20&#45;&gt;38</title>
<path fill="none" stroke="black" d="M4048.36,-363.751C3989.38,-352.314 3903.91,-335.742 3840.55,-323.456"/>
<polygon fill="black" stroke="black" points="3841.07,-319.99 3830.58,-321.523 3839.73,-326.862 3841.07,-319.99"/>
</g>
<!-- 40 -->
<g id="node41" class="node"><title>40</title>
<ellipse fill="paleturquoise" stroke="paleturquoise" cx="4693.69" cy="-306" rx="131.983" ry="18"/>
<text text-anchor="middle" x="4693.69" y="-301.8" font-family="Times,serif" font-size="14.00">k8s.io/kubernetes/pkg/api/meta</text>
</g>
<!-- 20&#45;&gt;40 -->
<g id="edge35" class="edge"><title>20&#45;&gt;40</title>
<path fill="none" stroke="black" d="M4202.45,-366.596C4305.19,-354.131 4477.31,-333.251 4588.12,-319.807"/>
<polygon fill="black" stroke="black" points="4588.81,-323.249 4598.32,-318.57 4587.97,-316.3 4588.81,-323.249"/>
</g>
<!-- 21&#45;&gt;28 -->
<g id="edge52" class="edge"><title>21&#45;&gt;28</title>
<path fill="none" stroke="black" d="M3158.41,-288.055C3151.34,-279.668 3142.66,-269.376 3134.84,-260.096"/>
<polygon fill="black" stroke="black" points="3137.37,-257.666 3128.25,-252.275 3132.02,-262.177 3137.37,-257.666"/>
</g>
<!-- 26 -->
<g id="node27" class="node"><title>26</title>
<ellipse fill="paleturquoise" stroke="paleturquoise" cx="4976.69" cy="-90" rx="179.914" ry="18"/>
<text text-anchor="middle" x="4976.69" y="-85.8" font-family="Times,serif" font-size="14.00">k8s.io/kubernetes/third_party/forked/reflect</text>
</g>
<!-- 32 -->
<g id="node33" class="node"><title>32</title>
<ellipse fill="paleturquoise" stroke="paleturquoise" cx="3933.69" cy="-234" rx="154.531" ry="18"/>
<text text-anchor="middle" x="3933.69" y="-229.8" font-family="Times,serif" font-size="14.00">k8s.io/kubernetes/pkg/util/fielderrors</text>
</g>
<!-- 31&#45;&gt;32 -->
<g id="edge20" class="edge"><title>31&#45;&gt;32</title>
<path fill="none" stroke="black" d="M4074.7,-288.941C4048.37,-278.867 4014.2,-265.797 3986.09,-255.046"/>
<polygon fill="black" stroke="black" points="3987.02,-251.652 3976.43,-251.349 3984.52,-258.19 3987.02,-251.652"/>
</g>
<!-- 31&#45;&gt;33 -->
<g id="edge21" class="edge"><title>31&#45;&gt;33</title>
<path fill="none" stroke="black" d="M4116.69,-287.871C4116.69,-263.67 4116.69,-219.211 4116.69,-190.393"/>
<polygon fill="black" stroke="black" points="4120.19,-190.189 4116.69,-180.189 4113.19,-190.189 4120.19,-190.189"/>
</g>
<!-- 34 -->
<g id="node35" class="node"><title>34</title>
<ellipse fill="paleturquoise" stroke="paleturquoise" cx="4297.69" cy="-234" rx="152.85" ry="18"/>
<text text-anchor="middle" x="4297.69" y="-229.8" font-family="Times,serif" font-size="14.00">k8s.io/kubernetes/pkg/util/validation</text>
</g>
<!-- 31&#45;&gt;34 -->
<g id="edge22" class="edge"><title>31&#45;&gt;34</title>
<path fill="none" stroke="black" d="M4158.21,-288.941C4184.26,-278.867 4218.06,-265.797 4245.85,-255.046"/>
<polygon fill="black" stroke="black" points="4247.35,-258.22 4255.41,-251.349 4244.83,-251.691 4247.35,-258.22"/>
</g>
<!-- 32&#45;&gt;1 -->
<g id="edge54" class="edge"><title>32&#45;&gt;1</title>
<path fill="none" stroke="black" d="M3909.24,-216.055C3896.09,-206.941 3879.69,-195.577 3865.45,-185.708"/>
<polygon fill="black" stroke="black" points="3867.12,-182.609 3856.91,-179.789 3863.14,-188.362 3867.12,-182.609"/>
</g>
<!-- 32&#45;&gt;14 -->
<g id="edge53" class="edge"><title>32&#45;&gt;14</title>
<path fill="none" stroke="black" d="M3851.16,-218.666C3784.44,-207.076 3690.6,-190.776 3621.7,-178.809"/>
<polygon fill="black" stroke="black" points="3622.18,-175.339 3611.73,-177.076 3620.98,-182.236 3622.18,-175.339"/>
</g>
<!-- 36&#45;&gt;26 -->
<g id="edge24" class="edge"><title>36&#45;&gt;26</title>
<path fill="none" stroke="black" d="M4972.92,-143.697C4973.47,-135.983 4974.14,-126.712 4974.75,-118.112"/>
<polygon fill="black" stroke="black" points="4978.24,-118.328 4975.47,-108.104 4971.26,-117.83 4978.24,-118.328"/>
</g>
<!-- 37 -->
<g id="node38" class="node"><title>37</title>
<ellipse fill="paleturquoise" stroke="paleturquoise" cx="3059.69" cy="-522" rx="162.084" ry="18"/>
<text text-anchor="middle" x="3059.69" y="-517.8" font-family="Times,serif" font-size="14.00">github.com/openshift/origin/pkg/router</text>
</g>
<!-- 37&#45;&gt;10 -->
<g id="edge28" class="edge"><title>37&#45;&gt;10</title>
<path fill="none" stroke="black" d="M3014.98,-504.671C2990.22,-495.054 2959.18,-482.043 2932.69,-468 2895.12,-448.086 2854.66,-420.778 2827.72,-401.681"/>
<polygon fill="black" stroke="black" points="2829.65,-398.754 2819.47,-395.789 2825.58,-404.45 2829.65,-398.754"/>
</g>
<!-- 37&#45;&gt;19 -->
<g id="edge25" class="edge"><title>37&#45;&gt;19</title>
<path fill="none" stroke="black" d="M3086.75,-504.233C3101.74,-494.951 3120.56,-483.294 3136.76,-473.257"/>
<polygon fill="black" stroke="black" points="3138.79,-476.114 3145.45,-467.873 3135.11,-470.163 3138.79,-476.114"/>
</g>
<!-- 37&#45;&gt;20 -->
<g id="edge26" class="edge"><title>37&#45;&gt;20</title>
<path fill="none" stroke="black" d="M3158.65,-507.705C3362.45,-480.327 3826.4,-417.998 4024.38,-391.401"/>
<polygon fill="black" stroke="black" points="4025.02,-394.846 4034.47,-390.046 4024.09,-387.909 4025.02,-394.846"/>
</g>
<!-- 37&#45;&gt;33 -->
<g id="edge27" class="edge"><title>37&#45;&gt;33</title>
<path fill="none" stroke="black" d="M3026.21,-504.195C3012.56,-495.431 2998.23,-483.31 2990.69,-468 2975.4,-436.989 2900.69,-309.941 2991.69,-216 3029.86,-176.589 3923.99,-184.358 3978.69,-180 3991.34,-178.992 4004.62,-177.68 4017.74,-176.232"/>
<polygon fill="black" stroke="black" points="4018.18,-179.705 4027.72,-175.102 4017.39,-172.749 4018.18,-179.705"/>
</g>
<!-- 38&#45;&gt;29 -->
<g id="edge29" class="edge"><title>38&#45;&gt;29</title>
<path fill="none" stroke="black" d="M3673.7,-291.003C3601.61,-278.695 3497.31,-260.888 3425.79,-248.676"/>
<polygon fill="black" stroke="black" points="3426.37,-245.224 3415.92,-246.991 3425.19,-252.125 3426.37,-245.224"/>
</g>
<!-- 38&#45;&gt;30 -->
<g id="edge30" class="edge"><title>38&#45;&gt;30</title>
<path fill="none" stroke="black" d="M3717.71,-288.588C3694.75,-278.671 3665.31,-265.948 3640.87,-255.388"/>
<polygon fill="black" stroke="black" points="3642,-252.063 3631.43,-251.309 3639.22,-258.489 3642,-252.063"/>
</g>
<!-- 39&#45;&gt;11 -->
<g id="edge32" class="edge"><title>39&#45;&gt;11</title>
<path fill="none" stroke="black" d="M4584.27,-148.809C4567.16,-146.903 4549.4,-145.177 4532.69,-144 4085.35,-112.486 2683,-96.2383 2273.82,-92.0859"/>
<polygon fill="black" stroke="black" points="2273.79,-88.5855 2263.76,-91.9841 2273.72,-95.5851 2273.79,-88.5855"/>
</g>
<!-- 39&#45;&gt;15 -->
<g id="edge31" class="edge"><title>39&#45;&gt;15</title>
<path fill="none" stroke="black" d="M4674.95,-143.697C4674.62,-135.983 4674.22,-126.712 4673.85,-118.112"/>
<polygon fill="black" stroke="black" points="4677.35,-117.945 4673.42,-108.104 4670.35,-118.245 4677.35,-117.945"/>
</g>
<!-- 40&#45;&gt;0 -->
<g id="edge67" class="edge"><title>40&#45;&gt;0</title>
<path fill="none" stroke="black" d="M4747.98,-289.552C4785.94,-278.751 4836.75,-264.292 4876.52,-252.974"/>
<polygon fill="black" stroke="black" points="4877.72,-256.272 4886.38,-250.168 4875.81,-249.539 4877.72,-256.272"/>
</g>
<!-- 40&#45;&gt;12 -->
<g id="edge66" class="edge"><title>40&#45;&gt;12</title>
<path fill="none" stroke="black" d="M4679.65,-288.055C4672.7,-279.668 4664.17,-269.376 4656.48,-260.096"/>
<polygon fill="black" stroke="black" points="4659.08,-257.742 4650,-252.275 4653.69,-262.209 4659.08,-257.742"/>
</g>
<!-- 40&#45;&gt;36 -->
<g id="edge65" class="edge"><title>40&#45;&gt;36</title>
<path fill="none" stroke="black" d="M4721.54,-288.22C4737.31,-278.315 4757.13,-265.168 4773.69,-252 4791.9,-237.521 4791.72,-227.944 4811.69,-216 4837.41,-200.613 4868.16,-189.055 4895.8,-180.724"/>
<polygon fill="black" stroke="black" points="4896.81,-184.074 4905.43,-177.911 4894.85,-177.355 4896.81,-184.074"/>
</g>
</g>
</svg>
