<?xml version="1.0" encoding="UTF-8" standalone="no"?>
<!DOCTYPE svg PUBLIC "-//W3C//DTD SVG 1.1//EN"
 "http://www.w3.org/Graphics/SVG/1.1/DTD/svg11.dtd">
<!-- Generated by graphviz version 2.38.0 (20140413.2041)
 -->
<!-- Title: godep Pages: 1 -->
<svg width="4948pt" height="548pt"
 viewBox="0.00 0.00 4947.88 548.00" xmlns="http://www.w3.org/2000/svg" xmlns:xlink="http://www.w3.org/1999/xlink">
<g id="graph0" class="graph" transform="scale(1 1) rotate(0) translate(4 544)">
<title>godep</title>
<polygon fill="white" stroke="none" points="-4,4 -4,-544 4943.88,-544 4943.88,4 -4,4"/>
<!-- 0 -->
<g id="node1" class="node"><title>0</title>
<ellipse fill="paleturquoise" stroke="paleturquoise" cx="1212.69" cy="-18" rx="142.968" ry="18"/>
<text text-anchor="middle" x="1212.69" y="-13.8" font-family="Times,serif" font-size="14.00">github.com/golang/protobuf/proto</text>
</g>
<!-- 1 -->
<g id="node2" class="node"><title>1</title>
<ellipse fill="paleturquoise" stroke="paleturquoise" cx="658.688" cy="-90" rx="165.6" ry="18"/>
<text text-anchor="middle" x="658.688" y="-85.8" font-family="Times,serif" font-size="14.00">github.com/prometheus/common/model</text>
</g>
<!-- 2 -->
<g id="node3" class="node"><title>2</title>
<ellipse fill="paleturquoise" stroke="paleturquoise" cx="4293.69" cy="-90" rx="103.66" ry="18"/>
<text text-anchor="middle" x="4293.69" y="-85.8" font-family="Times,serif" font-size="14.00">github.com/golang/glog</text>
</g>
<!-- 3 -->
<g id="node4" class="node"><title>3</title>
<ellipse fill="paleturquoise" stroke="paleturquoise" cx="2938.69" cy="-234" rx="128.529" ry="18"/>
<text text-anchor="middle" x="2938.69" y="-229.8" font-family="Times,serif" font-size="14.00">speter.net/go/exp/math/dec/inf</text>
</g>
<!-- 4 -->
<g id="node5" class="node"><title>4</title>
<ellipse fill="paleturquoise" stroke="paleturquoise" cx="2205.69" cy="-306" rx="111.739" ry="18"/>
<text text-anchor="middle" x="2205.69" y="-301.8" font-family="Times,serif" font-size="14.00">k8s.io/kubernetes/pkg/util</text>
</g>
<!-- 4&#45;&gt;2 -->
<g id="edge2" class="edge"><title>4&#45;&gt;2</title>
<path fill="none" stroke="black" d="M2094.78,-303.842C1920.56,-300.856 1598.84,-290.178 1563.69,-252 1552.85,-240.23 1552.67,-227.606 1563.69,-216 1669,-105.029 2785.83,-150.215 2938.69,-144 3490.91,-121.548 3631.24,-157.561 4181.69,-108 4191.6,-107.107 4201.98,-105.903 4212.24,-104.545"/>
<polygon fill="black" stroke="black" points="4213.02,-107.971 4222.45,-103.141 4212.06,-101.036 4213.02,-107.971"/>
</g>
<!-- 5 -->
<g id="node6" class="node"><title>5</title>
<ellipse fill="paleturquoise" stroke="paleturquoise" cx="3095.69" cy="-162" rx="147.581" ry="18"/>
<text text-anchor="middle" x="3095.69" y="-157.8" font-family="Times,serif" font-size="14.00">github.com/davecgh/go&#45;spew/spew</text>
</g>
<!-- 4&#45;&gt;5 -->
<g id="edge1" class="edge"><title>4&#45;&gt;5</title>
<path fill="none" stroke="black" d="M2223.11,-288.015C2248.59,-263.349 2294.06,-220.092 2303.69,-216 2360.92,-191.664 2731.21,-175.297 2944.63,-167.76"/>
<polygon fill="black" stroke="black" points="2944.8,-171.256 2954.67,-167.407 2944.55,-164.26 2944.8,-171.256"/>
</g>
<!-- 6 -->
<g id="node7" class="node"><title>6</title>
<ellipse fill="paleturquoise" stroke="paleturquoise" cx="2458.69" cy="-234" rx="112.869" ry="18"/>
<text text-anchor="middle" x="2458.69" y="-229.8" font-family="Times,serif" font-size="14.00">github.com/google/gofuzz</text>
</g>
<!-- 4&#45;&gt;6 -->
<g id="edge3" class="edge"><title>4&#45;&gt;6</title>
<path fill="none" stroke="black" d="M2259.34,-290.155C2298.96,-279.194 2353.03,-264.234 2394.86,-252.659"/>
<polygon fill="black" stroke="black" points="2395.97,-255.984 2404.67,-249.944 2394.1,-249.238 2395.97,-255.984"/>
</g>
<!-- 7 -->
<g id="node8" class="node"><title>7</title>
<ellipse fill="paleturquoise" stroke="paleturquoise" cx="1680.69" cy="-234" rx="107.739" ry="18"/>
<text text-anchor="middle" x="1680.69" y="-229.8" font-family="Times,serif" font-size="14.00">github.com/juju/ratelimit</text>
</g>
<!-- 4&#45;&gt;7 -->
<g id="edge4" class="edge"><title>4&#45;&gt;7</title>
<path fill="none" stroke="black" d="M2120.25,-294.349C2037.47,-283.929 1908.4,-267.423 1796.69,-252 1787.48,-250.729 1777.88,-249.371 1768.3,-247.998"/>
<polygon fill="black" stroke="black" points="1768.74,-244.526 1758.35,-246.563 1767.75,-251.454 1768.74,-244.526"/>
</g>
<!-- 8 -->
<g id="node9" class="node"><title>8</title>
<ellipse fill="paleturquoise" stroke="paleturquoise" cx="1917.69" cy="-234" rx="111.747" ry="18"/>
<text text-anchor="middle" x="1917.69" y="-229.8" font-family="Times,serif" font-size="14.00">github.com/pborman/uuid</text>
</g>
<!-- 4&#45;&gt;8 -->
<g id="edge5" class="edge"><title>4&#45;&gt;8</title>
<path fill="none" stroke="black" d="M2146.71,-290.666C2100.22,-279.364 2035.29,-263.585 1986.44,-251.711"/>
<polygon fill="black" stroke="black" points="1987.13,-248.276 1976.59,-249.315 1985.48,-255.078 1987.13,-248.276"/>
</g>
<!-- 9 -->
<g id="node10" class="node"><title>9</title>
<ellipse fill="paleturquoise" stroke="paleturquoise" cx="1304.69" cy="-234" rx="205.466" ry="18"/>
<text text-anchor="middle" x="1304.69" y="-229.8" font-family="Times,serif" font-size="14.00">github.com/prometheus/client_golang/prometheus</text>
</g>
<!-- 4&#45;&gt;9 -->
<g id="edge6" class="edge"><title>4&#45;&gt;9</title>
<path fill="none" stroke="black" d="M2107.55,-297.376C1952.48,-285.328 1649.33,-261.775 1463.14,-247.31"/>
<polygon fill="black" stroke="black" points="1463.22,-243.806 1452.98,-246.521 1462.68,-250.785 1463.22,-243.806"/>
</g>
<!-- 10 -->
<g id="node11" class="node"><title>10</title>
<ellipse fill="paleturquoise" stroke="paleturquoise" cx="2690.69" cy="-234" rx="101.349" ry="18"/>
<text text-anchor="middle" x="2690.69" y="-229.8" font-family="Times,serif" font-size="14.00">github.com/spf13/pflag</text>
</g>
<!-- 4&#45;&gt;10 -->
<g id="edge7" class="edge"><title>4&#45;&gt;10</title>
<path fill="none" stroke="black" d="M2286.88,-293.582C2388.38,-279.298 2552.31,-256.198 2580.69,-252 2589.3,-250.726 2598.29,-249.374 2607.25,-248.011"/>
<polygon fill="black" stroke="black" points="2607.98,-251.44 2617.34,-246.471 2606.92,-244.52 2607.98,-251.44"/>
</g>
<!-- 11 -->
<g id="node12" class="node"><title>11</title>
<ellipse fill="paleturquoise" stroke="paleturquoise" cx="2149.69" cy="-234" rx="102.493" ry="18"/>
<text text-anchor="middle" x="2149.69" y="-229.8" font-family="Times,serif" font-size="14.00">golang.org/x/crypto/ssh</text>
</g>
<!-- 4&#45;&gt;11 -->
<g id="edge8" class="edge"><title>4&#45;&gt;11</title>
<path fill="none" stroke="black" d="M2192.13,-288.055C2185.42,-279.668 2177.19,-269.376 2169.76,-260.096"/>
<polygon fill="black" stroke="black" points="2172.49,-257.898 2163.51,-252.275 2167.02,-262.27 2172.49,-257.898"/>
</g>
<!-- 12 -->
<g id="node13" class="node"><title>12</title>
<ellipse fill="paleturquoise" stroke="paleturquoise" cx="3242.69" cy="-234" rx="119.246" ry="18"/>
<text text-anchor="middle" x="3242.69" y="-229.8" font-family="Times,serif" font-size="14.00">k8s.io/kubernetes/pkg/types</text>
</g>
<!-- 4&#45;&gt;12 -->
<g id="edge9" class="edge"><title>4&#45;&gt;12</title>
<path fill="none" stroke="black" d="M2283.35,-293.017C2297.73,-291.103 2312.64,-289.321 2326.69,-288 2658.94,-256.752 2743.91,-277.008 3076.69,-252 3097.17,-250.461 3119.04,-248.47 3139.96,-246.396"/>
<polygon fill="black" stroke="black" points="3140.54,-249.856 3150.14,-245.373 3139.84,-242.891 3140.54,-249.856"/>
</g>
<!-- 13 -->
<g id="node14" class="node"><title>13</title>
<ellipse fill="paleturquoise" stroke="paleturquoise" cx="3823.69" cy="-162" rx="128.57" ry="18"/>
<text text-anchor="middle" x="3823.69" y="-157.8" font-family="Times,serif" font-size="14.00">k8s.io/kubernetes/pkg/util/sets</text>
</g>
<!-- 4&#45;&gt;13 -->
<g id="edge10" class="edge"><title>4&#45;&gt;13</title>
<path fill="none" stroke="black" d="M2237.86,-288.754C2256.04,-279.02 2278.83,-265.868 2297.69,-252 2316.69,-238.026 2314.84,-224.883 2336.69,-216 2475.08,-159.744 3531.69,-190.829 3680.69,-180 3694.67,-178.984 3709.38,-177.598 3723.84,-176.052"/>
<polygon fill="black" stroke="black" points="3724.24,-179.529 3733.8,-174.959 3723.47,-172.571 3724.24,-179.529"/>
</g>
<!-- 9&#45;&gt;0 -->
<g id="edge32" class="edge"><title>9&#45;&gt;0</title>
<path fill="none" stroke="black" d="M1402.3,-218.103C1426.35,-210.25 1450.2,-198.269 1467.69,-180 1501.45,-144.741 1518.77,-109.643 1487.69,-72 1468.85,-49.1811 1405.75,-36.0797 1344.74,-28.6138"/>
<polygon fill="black" stroke="black" points="1344.92,-25.1108 1334.58,-27.4187 1344.1,-32.0629 1344.92,-25.1108"/>
</g>
<!-- 32 -->
<g id="node33" class="node"><title>32</title>
<ellipse fill="paleturquoise" stroke="paleturquoise" cx="693.688" cy="-162" rx="169.029" ry="18"/>
<text text-anchor="middle" x="693.688" y="-157.8" font-family="Times,serif" font-size="14.00">github.com/prometheus/common/expfmt</text>
</g>
<!-- 9&#45;&gt;32 -->
<g id="edge34" class="edge"><title>9&#45;&gt;32</title>
<path fill="none" stroke="black" d="M1185.43,-219.337C1078.36,-207.07 921.933,-189.149 814.414,-176.831"/>
<polygon fill="black" stroke="black" points="814.498,-173.318 804.165,-175.657 813.701,-180.272 814.498,-173.318"/>
</g>
<!-- 34 -->
<g id="node35" class="node"><title>34</title>
<ellipse fill="paleturquoise" stroke="paleturquoise" cx="1310.69" cy="-90" rx="167.883" ry="18"/>
<text text-anchor="middle" x="1310.69" y="-85.8" font-family="Times,serif" font-size="14.00">github.com/prometheus/client_model/go</text>
</g>
<!-- 9&#45;&gt;34 -->
<g id="edge33" class="edge"><title>9&#45;&gt;34</title>
<path fill="none" stroke="black" d="M1397.13,-217.793C1417.69,-209.923 1437.09,-198.012 1449.69,-180 1458.86,-166.887 1458.77,-157.176 1449.69,-144 1438.83,-128.243 1422.62,-117.168 1405.06,-109.384"/>
<polygon fill="black" stroke="black" points="1406.35,-106.133 1395.77,-105.606 1403.72,-112.616 1406.35,-106.133"/>
</g>
<!-- 35 -->
<g id="node36" class="node"><title>35</title>
<ellipse fill="paleturquoise" stroke="paleturquoise" cx="1009.69" cy="-162" rx="129.118" ry="18"/>
<text text-anchor="middle" x="1009.69" y="-157.8" font-family="Times,serif" font-size="14.00">github.com/prometheus/procfs</text>
</g>
<!-- 9&#45;&gt;35 -->
<g id="edge35" class="edge"><title>9&#45;&gt;35</title>
<path fill="none" stroke="black" d="M1237.01,-216.941C1190.64,-205.937 1129.2,-191.359 1081.89,-180.133"/>
<polygon fill="black" stroke="black" points="1082.56,-176.694 1072.02,-177.79 1080.94,-183.505 1082.56,-176.694"/>
</g>
<!-- 36 -->
<g id="node37" class="node"><title>36</title>
<ellipse fill="paleturquoise" stroke="paleturquoise" cx="1298.69" cy="-162" rx="141.799" ry="18"/>
<text text-anchor="middle" x="1298.69" y="-157.8" font-family="Times,serif" font-size="14.00">github.com/beorn7/perks/quantile</text>
</g>
<!-- 9&#45;&gt;36 -->
<g id="edge31" class="edge"><title>9&#45;&gt;36</title>
<path fill="none" stroke="black" d="M1303.2,-215.697C1302.54,-207.983 1301.75,-198.712 1301.01,-190.112"/>
<polygon fill="black" stroke="black" points="1304.5,-189.769 1300.15,-180.104 1297.52,-190.367 1304.5,-189.769"/>
</g>
<!-- 14 -->
<g id="node15" class="node"><title>14</title>
<ellipse fill="paleturquoise" stroke="paleturquoise" cx="237.688" cy="-90" rx="237.876" ry="18"/>
<text text-anchor="middle" x="237.688" y="-85.8" font-family="Times,serif" font-size="14.00">github.com/matttproud/golang_protobuf_extensions/pbutil</text>
</g>
<!-- 14&#45;&gt;0 -->
<g id="edge11" class="edge"><title>14&#45;&gt;0</title>
<path fill="none" stroke="black" d="M403.636,-77.0858C595.338,-63.3226 906.786,-40.9622 1082.08,-28.3772"/>
<polygon fill="black" stroke="black" points="1082.41,-31.8627 1092.13,-27.6555 1081.9,-24.8807 1082.41,-31.8627"/>
</g>
<!-- 15 -->
<g id="node16" class="node"><title>15</title>
<ellipse fill="paleturquoise" stroke="paleturquoise" cx="3957.69" cy="-306" rx="131.983" ry="18"/>
<text text-anchor="middle" x="3957.69" y="-301.8" font-family="Times,serif" font-size="14.00">k8s.io/kubernetes/pkg/api/meta</text>
</g>
<!-- 15&#45;&gt;12 -->
<g id="edge14" class="edge"><title>15&#45;&gt;12</title>
<path fill="none" stroke="black" d="M3846.11,-296.328C3727.92,-286.815 3535.94,-270.426 3370.69,-252 3359.94,-250.802 3348.7,-249.452 3337.53,-248.049"/>
<polygon fill="black" stroke="black" points="3337.68,-244.539 3327.31,-246.75 3336.79,-251.483 3337.68,-244.539"/>
</g>
<!-- 16 -->
<g id="node17" class="node"><title>16</title>
<ellipse fill="paleturquoise" stroke="paleturquoise" cx="4114.69" cy="-162" rx="141.22" ry="18"/>
<text text-anchor="middle" x="4114.69" y="-157.8" font-family="Times,serif" font-size="14.00">k8s.io/kubernetes/pkg/conversion</text>
</g>
<!-- 15&#45;&gt;16 -->
<g id="edge12" class="edge"><title>15&#45;&gt;16</title>
<path fill="none" stroke="black" d="M4030.19,-290.895C4053.41,-283.029 4077.31,-270.84 4093.69,-252 4108.45,-235.014 4113.3,-209.552 4114.69,-190.208"/>
<polygon fill="black" stroke="black" points="4118.19,-190.333 4115.15,-180.183 4111.2,-190.013 4118.19,-190.333"/>
</g>
<!-- 17 -->
<g id="node18" class="node"><title>17</title>
<ellipse fill="paleturquoise" stroke="paleturquoise" cx="4360.69" cy="-234" rx="128.556" ry="18"/>
<text text-anchor="middle" x="4360.69" y="-229.8" font-family="Times,serif" font-size="14.00">k8s.io/kubernetes/pkg/runtime</text>
</g>
<!-- 15&#45;&gt;17 -->
<g id="edge13" class="edge"><title>15&#45;&gt;17</title>
<path fill="none" stroke="black" d="M4035.87,-291.42C4103.94,-279.597 4202.51,-262.475 4273.19,-250.198"/>
<polygon fill="black" stroke="black" points="4274.16,-253.583 4283.41,-248.423 4272.96,-246.686 4274.16,-253.583"/>
</g>
<!-- 24 -->
<g id="node25" class="node"><title>24</title>
<ellipse fill="paleturquoise" stroke="paleturquoise" cx="3992.69" cy="-90" rx="179.914" ry="18"/>
<text text-anchor="middle" x="3992.69" y="-85.8" font-family="Times,serif" font-size="14.00">k8s.io/kubernetes/third_party/forked/reflect</text>
</g>
<!-- 16&#45;&gt;24 -->
<g id="edge37" class="edge"><title>16&#45;&gt;24</title>
<path fill="none" stroke="black" d="M4085.47,-144.233C4069.14,-134.865 4048.6,-123.078 4030.99,-112.978"/>
<polygon fill="black" stroke="black" points="4032.51,-109.813 4022.09,-107.873 4029.03,-115.885 4032.51,-109.813"/>
</g>
<!-- 17&#45;&gt;13 -->
<g id="edge40" class="edge"><title>17&#45;&gt;13</title>
<path fill="none" stroke="black" d="M4269.9,-221.165C4174.19,-208.689 4023.81,-189.087 3924.49,-176.14"/>
<polygon fill="black" stroke="black" points="3924.81,-172.652 3914.44,-174.83 3923.9,-179.593 3924.81,-172.652"/>
</g>
<!-- 17&#45;&gt;16 -->
<g id="edge38" class="edge"><title>17&#45;&gt;16</title>
<path fill="none" stroke="black" d="M4306.7,-217.638C4269.28,-206.99 4219.26,-192.757 4179.66,-181.487"/>
<polygon fill="black" stroke="black" points="4180.4,-178.06 4169.82,-178.689 4178.48,-184.793 4180.4,-178.06"/>
</g>
<!-- 22 -->
<g id="node23" class="node"><title>22</title>
<ellipse fill="paleturquoise" stroke="paleturquoise" cx="4407.69" cy="-162" rx="133.728" ry="18"/>
<text text-anchor="middle" x="4407.69" y="-157.8" font-family="Times,serif" font-size="14.00">k8s.io/kubernetes/pkg/util/yaml</text>
</g>
<!-- 17&#45;&gt;22 -->
<g id="edge41" class="edge"><title>17&#45;&gt;22</title>
<path fill="none" stroke="black" d="M4372.07,-216.055C4377.58,-207.837 4384.33,-197.791 4390.46,-188.66"/>
<polygon fill="black" stroke="black" points="4393.42,-190.529 4396.09,-180.275 4387.61,-186.626 4393.42,-190.529"/>
</g>
<!-- 37 -->
<g id="node38" class="node"><title>37</title>
<ellipse fill="paleturquoise" stroke="paleturquoise" cx="4689.69" cy="-162" rx="130.299" ry="18"/>
<text text-anchor="middle" x="4689.69" y="-157.8" font-family="Times,serif" font-size="14.00">k8s.io/kubernetes/pkg/util/json</text>
</g>
<!-- 17&#45;&gt;37 -->
<g id="edge39" class="edge"><title>17&#45;&gt;37</title>
<path fill="none" stroke="black" d="M4428.46,-218.581C4481.87,-207.216 4556.39,-191.362 4612.17,-179.493"/>
<polygon fill="black" stroke="black" points="4612.95,-182.905 4622.01,-177.4 4611.5,-176.058 4612.95,-182.905"/>
</g>
<!-- 18 -->
<g id="node19" class="node"><title>18</title>
<ellipse fill="paleturquoise" stroke="paleturquoise" cx="3534.69" cy="-162" rx="136.637" ry="18"/>
<text text-anchor="middle" x="3534.69" y="-157.8" font-family="Times,serif" font-size="14.00">k8s.io/kubernetes/pkg/util/errors</text>
</g>
<!-- 19 -->
<g id="node20" class="node"><title>19</title>
<ellipse fill="paleturquoise" stroke="paleturquoise" cx="4279.69" cy="-306" rx="134.273" ry="18"/>
<text text-anchor="middle" x="4279.69" y="-301.8" font-family="Times,serif" font-size="14.00">k8s.io/kubernetes/pkg/auth/user</text>
</g>
<!-- 20 -->
<g id="node21" class="node"><title>20</title>
<ellipse fill="paleturquoise" stroke="paleturquoise" cx="3193.69" cy="-522" rx="158.655" ry="18"/>
<text text-anchor="middle" x="3193.69" y="-517.8" font-family="Times,serif" font-size="14.00">github.com/openshift/origin/pkg/route</text>
</g>
<!-- 21 -->
<g id="node22" class="node"><title>21</title>
<ellipse fill="paleturquoise" stroke="paleturquoise" cx="3193.69" cy="-450" rx="173.12" ry="18"/>
<text text-anchor="middle" x="3193.69" y="-445.8" font-family="Times,serif" font-size="14.00">github.com/openshift/origin/pkg/route/api</text>
</g>
<!-- 20&#45;&gt;21 -->
<g id="edge15" class="edge"><title>20&#45;&gt;21</title>
<path fill="none" stroke="black" d="M3193.69,-503.697C3193.69,-495.983 3193.69,-486.712 3193.69,-478.112"/>
<polygon fill="black" stroke="black" points="3197.19,-478.104 3193.69,-468.104 3190.19,-478.104 3197.19,-478.104"/>
</g>
<!-- 21&#45;&gt;4 -->
<g id="edge24" class="edge"><title>21&#45;&gt;4</title>
<path fill="none" stroke="black" d="M3084.7,-436.001C3000.5,-425.752 2881.1,-410.77 2776.69,-396 2604.01,-371.574 2402.58,-339.286 2291.05,-321.074"/>
<polygon fill="black" stroke="black" points="2291.3,-317.569 2280.87,-319.41 2290.17,-324.478 2291.3,-317.569"/>
</g>
<!-- 28 -->
<g id="node29" class="node"><title>28</title>
<ellipse fill="paleturquoise" stroke="paleturquoise" cx="3461.69" cy="-378" rx="110.578" ry="18"/>
<text text-anchor="middle" x="3461.69" y="-373.8" font-family="Times,serif" font-size="14.00">k8s.io/kubernetes/pkg/api</text>
</g>
<!-- 21&#45;&gt;28 -->
<g id="edge21" class="edge"><title>21&#45;&gt;28</title>
<path fill="none" stroke="black" d="M3254.5,-433.116C3296.62,-422.114 3352.67,-407.476 3395.84,-396.199"/>
<polygon fill="black" stroke="black" points="3396.89,-399.541 3405.68,-393.628 3395.12,-392.769 3396.89,-399.541"/>
</g>
<!-- 29 -->
<g id="node30" class="node"><title>29</title>
<ellipse fill="paleturquoise" stroke="paleturquoise" cx="2495.69" cy="-306" rx="160.342" ry="18"/>
<text text-anchor="middle" x="2495.69" y="-301.8" font-family="Times,serif" font-size="14.00">k8s.io/kubernetes/pkg/api/unversioned</text>
</g>
<!-- 21&#45;&gt;29 -->
<g id="edge22" class="edge"><title>21&#45;&gt;29</title>
<path fill="none" stroke="black" d="M3123.7,-433.53C3040.94,-415.36 2898.98,-384.579 2776.69,-360 2713.11,-347.222 2641.26,-333.686 2586.13,-323.491"/>
<polygon fill="black" stroke="black" points="2586.5,-320.001 2576.03,-321.628 2585.23,-326.885 2586.5,-320.001"/>
</g>
<!-- 30 -->
<g id="node31" class="node"><title>30</title>
<ellipse fill="paleturquoise" stroke="paleturquoise" cx="4819.69" cy="-306" rx="120.386" ry="18"/>
<text text-anchor="middle" x="4819.69" y="-301.8" font-family="Times,serif" font-size="14.00">k8s.io/kubernetes/pkg/fields</text>
</g>
<!-- 21&#45;&gt;30 -->
<g id="edge23" class="edge"><title>21&#45;&gt;30</title>
<path fill="none" stroke="black" d="M3330.63,-438.937C3592.11,-419.391 4180.48,-373.814 4674.69,-324 4689.13,-322.544 4704.37,-320.888 4719.33,-319.196"/>
<polygon fill="black" stroke="black" points="4720.09,-322.632 4729.63,-318.02 4719.29,-315.677 4720.09,-322.632"/>
</g>
<!-- 22&#45;&gt;2 -->
<g id="edge17" class="edge"><title>22&#45;&gt;2</title>
<path fill="none" stroke="black" d="M4380.38,-144.233C4365.15,-134.882 4346,-123.123 4329.57,-113.036"/>
<polygon fill="black" stroke="black" points="4331.12,-109.88 4320.77,-107.63 4327.46,-115.845 4331.12,-109.88"/>
</g>
<!-- 23 -->
<g id="node24" class="node"><title>23</title>
<ellipse fill="paleturquoise" stroke="paleturquoise" cx="4521.69" cy="-90" rx="106.026" ry="18"/>
<text text-anchor="middle" x="4521.69" y="-85.8" font-family="Times,serif" font-size="14.00">github.com/ghodss/yaml</text>
</g>
<!-- 22&#45;&gt;23 -->
<g id="edge16" class="edge"><title>22&#45;&gt;23</title>
<path fill="none" stroke="black" d="M4434.99,-144.233C4450.22,-134.882 4469.37,-123.123 4485.8,-113.036"/>
<polygon fill="black" stroke="black" points="4487.91,-115.845 4494.6,-107.63 4484.25,-109.88 4487.91,-115.845"/>
</g>
<!-- 38 -->
<g id="node39" class="node"><title>38</title>
<ellipse fill="paleturquoise" stroke="paleturquoise" cx="4521.69" cy="-18" rx="79.3425" ry="18"/>
<text text-anchor="middle" x="4521.69" y="-13.8" font-family="Times,serif" font-size="14.00">gopkg.in/yaml.v2</text>
</g>
<!-- 23&#45;&gt;38 -->
<g id="edge36" class="edge"><title>23&#45;&gt;38</title>
<path fill="none" stroke="black" d="M4521.69,-71.6966C4521.69,-63.9827 4521.69,-54.7125 4521.69,-46.1124"/>
<polygon fill="black" stroke="black" points="4525.19,-46.1043 4521.69,-36.1043 4518.19,-46.1044 4525.19,-46.1043"/>
</g>
<!-- 25 -->
<g id="node26" class="node"><title>25</title>
<ellipse fill="paleturquoise" stroke="paleturquoise" cx="3572.69" cy="-306" rx="121.03" ry="18"/>
<text text-anchor="middle" x="3572.69" y="-301.8" font-family="Times,serif" font-size="14.00">k8s.io/kubernetes/pkg/labels</text>
</g>
<!-- 25&#45;&gt;13 -->
<g id="edge19" class="edge"><title>25&#45;&gt;13</title>
<path fill="none" stroke="black" d="M3620.79,-289.422C3645.18,-280.394 3674.64,-267.695 3698.69,-252 3718.17,-239.284 3718.21,-230.13 3736.69,-216 3751.49,-204.685 3768.84,-193.709 3784.13,-184.709"/>
<polygon fill="black" stroke="black" points="3785.97,-187.691 3792.86,-179.65 3782.46,-181.634 3785.97,-187.691"/>
</g>
<!-- 26 -->
<g id="node27" class="node"><title>26</title>
<ellipse fill="paleturquoise" stroke="paleturquoise" cx="3534.69" cy="-234" rx="154.531" ry="18"/>
<text text-anchor="middle" x="3534.69" y="-229.8" font-family="Times,serif" font-size="14.00">k8s.io/kubernetes/pkg/util/fielderrors</text>
</g>
<!-- 25&#45;&gt;26 -->
<g id="edge18" class="edge"><title>25&#45;&gt;26</title>
<path fill="none" stroke="black" d="M3563.29,-287.697C3558.92,-279.644 3553.63,-269.894 3548.79,-260.982"/>
<polygon fill="black" stroke="black" points="3551.82,-259.223 3543.97,-252.104 3545.67,-262.563 3551.82,-259.223"/>
</g>
<!-- 27 -->
<g id="node28" class="node"><title>27</title>
<ellipse fill="paleturquoise" stroke="paleturquoise" cx="3898.69" cy="-234" rx="152.85" ry="18"/>
<text text-anchor="middle" x="3898.69" y="-229.8" font-family="Times,serif" font-size="14.00">k8s.io/kubernetes/pkg/util/validation</text>
</g>
<!-- 25&#45;&gt;27 -->
<g id="edge20" class="edge"><title>25&#45;&gt;27</title>
<path fill="none" stroke="black" d="M3638.66,-290.834C3690.59,-279.683 3763.18,-264.096 3818.47,-252.224"/>
<polygon fill="black" stroke="black" points="3819.54,-255.574 3828.59,-250.052 3818.07,-248.73 3819.54,-255.574"/>
</g>
<!-- 26&#45;&gt;5 -->
<g id="edge44" class="edge"><title>26&#45;&gt;5</title>
<path fill="none" stroke="black" d="M3447.43,-219.087C3373.6,-207.315 3267.96,-190.469 3191.74,-178.316"/>
<polygon fill="black" stroke="black" points="3192.08,-174.827 3181.66,-176.708 3190.98,-181.739 3192.08,-174.827"/>
</g>
<!-- 26&#45;&gt;18 -->
<g id="edge45" class="edge"><title>26&#45;&gt;18</title>
<path fill="none" stroke="black" d="M3534.69,-215.697C3534.69,-207.983 3534.69,-198.712 3534.69,-190.112"/>
<polygon fill="black" stroke="black" points="3538.19,-190.104 3534.69,-180.104 3531.19,-190.104 3538.19,-190.104"/>
</g>
<!-- 28&#45;&gt;3 -->
<g id="edge60" class="edge"><title>28&#45;&gt;3</title>
<path fill="none" stroke="black" d="M3400.18,-362.987C3368.64,-354.342 3330.32,-341.514 3298.69,-324 3276.88,-311.926 3278.33,-298.421 3255.69,-288 3235.88,-278.884 3122.08,-261.141 3036.45,-248.704"/>
<polygon fill="black" stroke="black" points="3036.82,-245.221 3026.42,-247.253 3035.81,-252.149 3036.82,-245.221"/>
</g>
<!-- 28&#45;&gt;4 -->
<g id="edge57" class="edge"><title>28&#45;&gt;4</title>
<path fill="none" stroke="black" d="M3352.28,-375.268C3149.58,-371.31 2702.07,-359.058 2326.69,-324 2315.93,-322.996 2304.67,-321.718 2293.53,-320.317"/>
<polygon fill="black" stroke="black" points="2293.71,-316.811 2283.35,-318.998 2292.81,-323.753 2293.71,-316.811"/>
</g>
<!-- 28&#45;&gt;5 -->
<g id="edge46" class="edge"><title>28&#45;&gt;5</title>
<path fill="none" stroke="black" d="M3408.84,-362.074C3382.82,-353.315 3351.74,-340.66 3326.69,-324 3308.11,-311.644 3311.27,-298.7 3291.69,-288 3221.24,-249.508 3171.73,-308.489 3114.69,-252 3098.68,-236.147 3094.61,-210.341 3094.15,-190.589"/>
<polygon fill="black" stroke="black" points="3097.65,-190.361 3094.21,-180.34 3090.65,-190.32 3097.65,-190.361"/>
</g>
<!-- 28&#45;&gt;12 -->
<g id="edge56" class="edge"><title>28&#45;&gt;12</title>
<path fill="none" stroke="black" d="M3436.9,-360.447C3409.9,-342.462 3365.38,-312.955 3326.69,-288 3310.7,-277.687 3292.89,-266.417 3277.79,-256.932"/>
<polygon fill="black" stroke="black" points="3279.59,-253.925 3269.26,-251.574 3275.87,-259.854 3279.59,-253.925"/>
</g>
<!-- 28&#45;&gt;13 -->
<g id="edge59" class="edge"><title>28&#45;&gt;13</title>
<path fill="none" stroke="black" d="M3529.6,-363.755C3578.1,-353.886 3644.75,-339.487 3702.69,-324 3754.02,-310.28 3764.91,-299.915 3816.69,-288 3870.1,-275.709 4024.87,-293.488 4060.69,-252 4071.14,-239.889 4070.69,-228.487 4060.69,-216 4051.21,-204.17 3977.59,-188.906 3914.89,-177.8"/>
<polygon fill="black" stroke="black" points="3915.38,-174.333 3904.93,-176.054 3914.18,-181.228 3915.38,-174.333"/>
</g>
<!-- 28&#45;&gt;15 -->
<g id="edge48" class="edge"><title>28&#45;&gt;15</title>
<path fill="none" stroke="black" d="M3542.21,-365.637C3628.76,-353.421 3766.41,-333.995 3859.32,-320.883"/>
<polygon fill="black" stroke="black" points="3859.88,-324.338 3869.29,-319.475 3858.9,-317.407 3859.88,-324.338"/>
</g>
<!-- 28&#45;&gt;16 -->
<g id="edge52" class="edge"><title>28&#45;&gt;16</title>
<path fill="none" stroke="black" d="M3570.74,-374.747C3742.2,-370.201 4059.45,-357.35 4098.69,-324 4136.68,-291.716 4129.68,-226.813 4121.82,-190.036"/>
<polygon fill="black" stroke="black" points="4125.17,-188.981 4119.5,-180.025 4118.34,-190.557 4125.17,-188.981"/>
</g>
<!-- 28&#45;&gt;17 -->
<g id="edge55" class="edge"><title>28&#45;&gt;17</title>
<path fill="none" stroke="black" d="M3569.9,-374.153C3859.93,-366.266 4634.1,-343.438 4652.69,-324 4707.81,-266.365 4597.22,-245.736 4496.7,-238.522"/>
<polygon fill="black" stroke="black" points="4496.91,-235.028 4486.7,-237.845 4496.44,-242.012 4496.91,-235.028"/>
</g>
<!-- 28&#45;&gt;19 -->
<g id="edge51" class="edge"><title>28&#45;&gt;19</title>
<path fill="none" stroke="black" d="M3561.39,-370.22C3692.37,-361.061 3929.46,-343.607 4131.69,-324 4145.15,-322.695 4159.29,-321.213 4173.27,-319.682"/>
<polygon fill="black" stroke="black" points="4173.86,-323.138 4183.41,-318.559 4173.09,-316.181 4173.86,-323.138"/>
</g>
<!-- 28&#45;&gt;25 -->
<g id="edge54" class="edge"><title>28&#45;&gt;25</title>
<path fill="none" stroke="black" d="M3487.99,-360.411C3502.81,-351.064 3521.52,-339.268 3537.58,-329.141"/>
<polygon fill="black" stroke="black" points="3539.6,-332.007 3546.19,-323.713 3535.86,-326.086 3539.6,-332.007"/>
</g>
<!-- 28&#45;&gt;29 -->
<g id="edge50" class="edge"><title>28&#45;&gt;29</title>
<path fill="none" stroke="black" d="M3358.88,-371.248C3207.14,-362.51 2914.3,-344.702 2665.69,-324 2650.53,-322.738 2634.63,-321.3 2618.89,-319.806"/>
<polygon fill="black" stroke="black" points="2618.86,-316.288 2608.57,-318.818 2618.19,-323.256 2618.86,-316.288"/>
</g>
<!-- 28&#45;&gt;30 -->
<g id="edge53" class="edge"><title>28&#45;&gt;30</title>
<path fill="none" stroke="black" d="M3571.19,-375.302C3785.51,-371.304 4275.33,-358.854 4685.69,-324 4698.44,-322.917 4711.85,-321.522 4725.05,-319.999"/>
<polygon fill="black" stroke="black" points="4725.57,-323.462 4735.09,-318.812 4724.75,-316.51 4725.57,-323.462"/>
</g>
<!-- 31 -->
<g id="node32" class="node"><title>31</title>
<ellipse fill="paleturquoise" stroke="paleturquoise" cx="4537.69" cy="-306" rx="105.923" ry="18"/>
<text text-anchor="middle" x="4537.69" y="-301.8" font-family="Times,serif" font-size="14.00">golang.org/x/net/context</text>
</g>
<!-- 28&#45;&gt;31 -->
<g id="edge47" class="edge"><title>28&#45;&gt;31</title>
<path fill="none" stroke="black" d="M3570.03,-374.261C3748.26,-369.029 4114.31,-355.231 4422.69,-324 4432.81,-322.975 4443.4,-321.695 4453.88,-320.3"/>
<polygon fill="black" stroke="black" points="4454.45,-323.755 4463.89,-318.932 4453.5,-316.819 4454.45,-323.755"/>
</g>
<!-- 39 -->
<g id="node40" class="node"><title>39</title>
<ellipse fill="paleturquoise" stroke="paleturquoise" cx="3100.69" cy="-306" rx="145.849" ry="18"/>
<text text-anchor="middle" x="3100.69" y="-301.8" font-family="Times,serif" font-size="14.00">k8s.io/kubernetes/pkg/api/resource</text>
</g>
<!-- 28&#45;&gt;39 -->
<g id="edge49" class="edge"><title>28&#45;&gt;39</title>
<path fill="none" stroke="black" d="M3393.36,-363.751C3334.38,-352.314 3248.91,-335.742 3185.55,-323.456"/>
<polygon fill="black" stroke="black" points="3186.07,-319.99 3175.58,-321.523 3184.73,-326.862 3186.07,-319.99"/>
</g>
<!-- 40 -->
<g id="node41" class="node"><title>40</title>
<ellipse fill="paleturquoise" stroke="paleturquoise" cx="2805.69" cy="-306" rx="131.423" ry="18"/>
<text text-anchor="middle" x="2805.69" y="-301.8" font-family="Times,serif" font-size="14.00">k8s.io/kubernetes/pkg/util/rand</text>
</g>
<!-- 28&#45;&gt;40 -->
<g id="edge58" class="edge"><title>28&#45;&gt;40</title>
<path fill="none" stroke="black" d="M3369.35,-368.035C3266.07,-357.886 3093.8,-340.598 2945.69,-324 2934,-322.69 2921.76,-321.273 2909.6,-319.835"/>
<polygon fill="black" stroke="black" points="2909.76,-316.329 2899.42,-318.624 2908.93,-323.28 2909.76,-316.329"/>
</g>
<!-- 29&#45;&gt;6 -->
<g id="edge30" class="edge"><title>29&#45;&gt;6</title>
<path fill="none" stroke="black" d="M2486.54,-287.697C2482.29,-279.644 2477.13,-269.894 2472.42,-260.982"/>
<polygon fill="black" stroke="black" points="2475.5,-259.31 2467.73,-252.104 2469.31,-262.581 2475.5,-259.31"/>
</g>
<!-- 32&#45;&gt;0 -->
<g id="edge26" class="edge"><title>32&#45;&gt;0</title>
<path fill="none" stroke="black" d="M812.216,-149.124C921.471,-137.568 1070.43,-120.038 1095.69,-108 1116.69,-97.9913 1115.52,-86.5315 1133.69,-72 1147.12,-61.2526 1162.71,-50.4753 1176.47,-41.4722"/>
<polygon fill="black" stroke="black" points="1178.7,-44.1955 1185.2,-35.8302 1174.9,-38.3151 1178.7,-44.1955"/>
</g>
<!-- 32&#45;&gt;1 -->
<g id="edge29" class="edge"><title>32&#45;&gt;1</title>
<path fill="none" stroke="black" d="M685.036,-143.697C681.052,-135.728 676.238,-126.1 671.82,-117.264"/>
<polygon fill="black" stroke="black" points="674.843,-115.483 667.24,-108.104 668.582,-118.614 674.843,-115.483"/>
</g>
<!-- 32&#45;&gt;14 -->
<g id="edge27" class="edge"><title>32&#45;&gt;14</title>
<path fill="none" stroke="black" d="M601.684,-146.877C528.483,-135.64 425.81,-119.878 348.164,-107.959"/>
<polygon fill="black" stroke="black" points="348.277,-104.435 337.861,-106.378 347.215,-111.354 348.277,-104.435"/>
</g>
<!-- 33 -->
<g id="node34" class="node"><title>33</title>
<ellipse fill="paleturquoise" stroke="paleturquoise" cx="964.688" cy="-90" rx="121.598" ry="18"/>
<text text-anchor="middle" x="964.688" y="-85.8" font-family="Times,serif" font-size="14.00">bitbucket.org/ww/goautoneg</text>
</g>
<!-- 32&#45;&gt;33 -->
<g id="edge25" class="edge"><title>32&#45;&gt;33</title>
<path fill="none" stroke="black" d="M754.843,-145.203C797.134,-134.28 853.417,-119.741 897.048,-108.472"/>
<polygon fill="black" stroke="black" points="898.194,-111.791 907.001,-105.901 896.443,-105.013 898.194,-111.791"/>
</g>
<!-- 32&#45;&gt;34 -->
<g id="edge28" class="edge"><title>32&#45;&gt;34</title>
<path fill="none" stroke="black" d="M804.708,-148.405C913.321,-136.082 1078.27,-117.368 1190.07,-104.685"/>
<polygon fill="black" stroke="black" points="1190.5,-108.158 1200.04,-103.553 1189.71,-101.203 1190.5,-108.158"/>
</g>
<!-- 34&#45;&gt;0 -->
<g id="edge61" class="edge"><title>34&#45;&gt;0</title>
<path fill="none" stroke="black" d="M1286.96,-72.055C1274.21,-62.9408 1258.3,-51.5774 1244.48,-41.7077"/>
<polygon fill="black" stroke="black" points="1246.36,-38.7533 1236.19,-35.789 1242.3,-44.4495 1246.36,-38.7533"/>
</g>
<!-- 39&#45;&gt;3 -->
<g id="edge43" class="edge"><title>39&#45;&gt;3</title>
<path fill="none" stroke="black" d="M3062.71,-288.588C3039.75,-278.671 3010.31,-265.948 2985.87,-255.388"/>
<polygon fill="black" stroke="black" points="2987,-252.063 2976.43,-251.309 2984.22,-258.489 2987,-252.063"/>
</g>
<!-- 39&#45;&gt;10 -->
<g id="edge42" class="edge"><title>39&#45;&gt;10</title>
<path fill="none" stroke="black" d="M3018.7,-291.003C2946.61,-278.695 2842.31,-260.888 2770.79,-248.676"/>
<polygon fill="black" stroke="black" points="2771.37,-245.224 2760.92,-246.991 2770.19,-252.125 2771.37,-245.224"/>
</g>
</g>
</svg>
