<?xml version="1.0" encoding="UTF-8" standalone="no"?>
<!DOCTYPE svg PUBLIC "-//W3C//DTD SVG 1.1//EN"
 "http://www.w3.org/Graphics/SVG/1.1/DTD/svg11.dtd">
<!-- Generated by graphviz version 2.38.0 (20140413.2041)
 -->
<!-- Title: godep Pages: 1 -->
<svg width="3496pt" height="404pt"
 viewBox="0.00 0.00 3496.06 404.00" xmlns="http://www.w3.org/2000/svg" xmlns:xlink="http://www.w3.org/1999/xlink">
<g id="graph0" class="graph" transform="scale(1 1) rotate(0) translate(4 400)">
<title>godep</title>
<polygon fill="white" stroke="none" points="-4,4 -4,-400 3492.06,-400 3492.06,4 -4,4"/>
<!-- 0 -->
<g id="node1" class="node"><title>0</title>
<ellipse fill="paleturquoise" stroke="paleturquoise" cx="167.942" cy="-90" rx="167.883" ry="18"/>
<text text-anchor="middle" x="167.942" y="-85.8" font-family="Times,serif" font-size="14.00">github.com/prometheus/client_model/go</text>
</g>
<!-- 1 -->
<g id="node2" class="node"><title>1</title>
<ellipse fill="paleturquoise" stroke="paleturquoise" cx="724.942" cy="-18" rx="142.968" ry="18"/>
<text text-anchor="middle" x="724.942" y="-13.8" font-family="Times,serif" font-size="14.00">github.com/golang/protobuf/proto</text>
</g>
<!-- 0&#45;&gt;1 -->
<g id="edge1" class="edge"><title>0&#45;&gt;1</title>
<path fill="none" stroke="black" d="M272.382,-75.8746C370.903,-63.4932 517.93,-45.0158 617.441,-32.51"/>
<polygon fill="black" stroke="black" points="618.036,-35.9628 627.521,-31.2432 617.163,-29.0175 618.036,-35.9628"/>
</g>
<!-- 2 -->
<g id="node3" class="node"><title>2</title>
<ellipse fill="paleturquoise" stroke="paleturquoise" cx="954.942" cy="-162" rx="169.029" ry="18"/>
<text text-anchor="middle" x="954.942" y="-157.8" font-family="Times,serif" font-size="14.00">github.com/prometheus/common/expfmt</text>
</g>
<!-- 2&#45;&gt;0 -->
<g id="edge5" class="edge"><title>2&#45;&gt;0</title>
<path fill="none" stroke="black" d="M826.976,-150.222C703.527,-139.744 511.406,-123.225 344.942,-108 329.811,-106.616 313.955,-105.136 298.213,-103.648"/>
<polygon fill="black" stroke="black" points="298.179,-100.129 287.894,-102.669 297.519,-107.098 298.179,-100.129"/>
</g>
<!-- 2&#45;&gt;1 -->
<g id="edge3" class="edge"><title>2&#45;&gt;1</title>
<path fill="none" stroke="black" d="M927.824,-144.119C912.464,-134.181 893.141,-121.035 876.942,-108 858.817,-93.4149 858.185,-85.0742 838.942,-72 820.006,-59.1345 797.449,-47.9143 777.418,-39.151"/>
<polygon fill="black" stroke="black" points="778.686,-35.8868 768.115,-35.1755 775.935,-42.3237 778.686,-35.8868"/>
</g>
<!-- 3 -->
<g id="node4" class="node"><title>3</title>
<ellipse fill="paleturquoise" stroke="paleturquoise" cx="1357.94" cy="-90" rx="121.598" ry="18"/>
<text text-anchor="middle" x="1357.94" y="-85.8" font-family="Times,serif" font-size="14.00">bitbucket.org/ww/goautoneg</text>
</g>
<!-- 2&#45;&gt;3 -->
<g id="edge2" class="edge"><title>2&#45;&gt;3</title>
<path fill="none" stroke="black" d="M1039.42,-146.326C1107.84,-134.442 1203.8,-117.774 1272.48,-105.845"/>
<polygon fill="black" stroke="black" points="1273.15,-109.28 1282.4,-104.121 1271.95,-102.384 1273.15,-109.28"/>
</g>
<!-- 4 -->
<g id="node5" class="node"><title>4</title>
<ellipse fill="paleturquoise" stroke="paleturquoise" cx="591.942" cy="-90" rx="237.876" ry="18"/>
<text text-anchor="middle" x="591.942" y="-85.8" font-family="Times,serif" font-size="14.00">github.com/matttproud/golang_protobuf_extensions/pbutil</text>
</g>
<!-- 2&#45;&gt;4 -->
<g id="edge4" class="edge"><title>2&#45;&gt;4</title>
<path fill="none" stroke="black" d="M877.069,-145.983C820.648,-135.103 744.136,-120.349 684.575,-108.863"/>
<polygon fill="black" stroke="black" points="684.897,-105.361 674.416,-106.904 683.572,-112.234 684.897,-105.361"/>
</g>
<!-- 5 -->
<g id="node6" class="node"><title>5</title>
<ellipse fill="paleturquoise" stroke="paleturquoise" cx="1051.94" cy="-90" rx="165.6" ry="18"/>
<text text-anchor="middle" x="1051.94" y="-85.8" font-family="Times,serif" font-size="14.00">github.com/prometheus/common/model</text>
</g>
<!-- 2&#45;&gt;5 -->
<g id="edge6" class="edge"><title>2&#45;&gt;5</title>
<path fill="none" stroke="black" d="M978.423,-144.055C990.959,-135.008 1006.57,-123.744 1020.17,-113.926"/>
<polygon fill="black" stroke="black" points="1022.28,-116.722 1028.34,-108.032 1018.18,-111.045 1022.28,-116.722"/>
</g>
<!-- 4&#45;&gt;1 -->
<g id="edge12" class="edge"><title>4&#45;&gt;1</title>
<path fill="none" stroke="black" d="M624.137,-72.055C642.189,-62.5539 664.885,-50.6085 684.169,-40.4591"/>
<polygon fill="black" stroke="black" points="685.823,-43.5437 693.042,-35.789 682.563,-37.3493 685.823,-43.5437"/>
</g>
<!-- 6 -->
<g id="node7" class="node"><title>6</title>
<ellipse fill="paleturquoise" stroke="paleturquoise" cx="1664.94" cy="-162" rx="129.118" ry="18"/>
<text text-anchor="middle" x="1664.94" y="-157.8" font-family="Times,serif" font-size="14.00">github.com/prometheus/procfs</text>
</g>
<!-- 7 -->
<g id="node8" class="node"><title>7</title>
<ellipse fill="paleturquoise" stroke="paleturquoise" cx="948.942" cy="-234" rx="102.493" ry="18"/>
<text text-anchor="middle" x="948.942" y="-229.8" font-family="Times,serif" font-size="14.00">golang.org/x/crypto/ssh</text>
</g>
<!-- 8 -->
<g id="node9" class="node"><title>8</title>
<ellipse fill="paleturquoise" stroke="paleturquoise" cx="1176.94" cy="-234" rx="107.739" ry="18"/>
<text text-anchor="middle" x="1176.94" y="-229.8" font-family="Times,serif" font-size="14.00">github.com/juju/ratelimit</text>
</g>
<!-- 9 -->
<g id="node10" class="node"><title>9</title>
<ellipse fill="paleturquoise" stroke="paleturquoise" cx="1507.94" cy="-234" rx="205.466" ry="18"/>
<text text-anchor="middle" x="1507.94" y="-229.8" font-family="Times,serif" font-size="14.00">github.com/prometheus/client_golang/prometheus</text>
</g>
<!-- 9&#45;&gt;0 -->
<g id="edge9" class="edge"><title>9&#45;&gt;0</title>
<path fill="none" stroke="black" d="M1362.62,-221.264C1339.65,-219.464 1316.15,-217.655 1293.94,-216 1064.24,-198.88 1005.95,-204.671 776.942,-180 594.56,-160.352 382.918,-127.032 263.278,-107.213"/>
<polygon fill="black" stroke="black" points="263.847,-103.76 253.409,-105.574 262.7,-110.665 263.847,-103.76"/>
</g>
<!-- 9&#45;&gt;1 -->
<g id="edge8" class="edge"><title>9&#45;&gt;1</title>
<path fill="none" stroke="black" d="M1512.09,-215.872C1519,-182.704 1528.47,-109.668 1488.94,-72 1445.79,-30.8825 1088.26,-21.3631 877.924,-19.3495"/>
<polygon fill="black" stroke="black" points="877.742,-15.8478 867.71,-19.2565 877.678,-22.8475 877.742,-15.8478"/>
</g>
<!-- 9&#45;&gt;2 -->
<g id="edge10" class="edge"><title>9&#45;&gt;2</title>
<path fill="none" stroke="black" d="M1396.37,-218.877C1301.29,-206.842 1165.23,-189.618 1069.35,-177.482"/>
<polygon fill="black" stroke="black" points="1069.69,-173.997 1059.33,-176.213 1068.81,-180.942 1069.69,-173.997"/>
</g>
<!-- 9&#45;&gt;6 -->
<g id="edge11" class="edge"><title>9&#45;&gt;6</title>
<path fill="none" stroke="black" d="M1545.55,-216.233C1567.55,-206.422 1595.51,-193.958 1618.83,-183.557"/>
<polygon fill="black" stroke="black" points="1620.48,-186.657 1628.18,-179.388 1617.63,-180.264 1620.48,-186.657"/>
</g>
<!-- 10 -->
<g id="node11" class="node"><title>10</title>
<ellipse fill="paleturquoise" stroke="paleturquoise" cx="1953.94" cy="-162" rx="141.799" ry="18"/>
<text text-anchor="middle" x="1953.94" y="-157.8" font-family="Times,serif" font-size="14.00">github.com/beorn7/perks/quantile</text>
</g>
<!-- 9&#45;&gt;10 -->
<g id="edge7" class="edge"><title>9&#45;&gt;10</title>
<path fill="none" stroke="black" d="M1603.35,-218.026C1678.65,-206.207 1783.22,-189.795 1858.53,-177.976"/>
<polygon fill="black" stroke="black" points="1859.15,-181.42 1868.49,-176.412 1858.07,-174.505 1859.15,-181.42"/>
</g>
<!-- 11 -->
<g id="node12" class="node"><title>11</title>
<ellipse fill="paleturquoise" stroke="paleturquoise" cx="1859.94" cy="-234" rx="128.57" ry="18"/>
<text text-anchor="middle" x="1859.94" y="-229.8" font-family="Times,serif" font-size="14.00">k8s.io/kubernetes/pkg/util/sets</text>
</g>
<!-- 12 -->
<g id="node13" class="node"><title>12</title>
<ellipse fill="paleturquoise" stroke="paleturquoise" cx="2287.94" cy="-378" rx="161.518" ry="18"/>
<text text-anchor="middle" x="2287.94" y="-373.8" font-family="Times,serif" font-size="14.00">github.com/openshift/origin/pkg/assets</text>
</g>
<!-- 13 -->
<g id="node14" class="node"><title>13</title>
<ellipse fill="paleturquoise" stroke="paleturquoise" cx="2287.94" cy="-306" rx="111.739" ry="18"/>
<text text-anchor="middle" x="2287.94" y="-301.8" font-family="Times,serif" font-size="14.00">k8s.io/kubernetes/pkg/util</text>
</g>
<!-- 12&#45;&gt;13 -->
<g id="edge13" class="edge"><title>12&#45;&gt;13</title>
<path fill="none" stroke="black" d="M2287.94,-359.697C2287.94,-351.983 2287.94,-342.712 2287.94,-334.112"/>
<polygon fill="black" stroke="black" points="2291.44,-334.104 2287.94,-324.104 2284.44,-334.104 2291.44,-334.104"/>
</g>
<!-- 13&#45;&gt;7 -->
<g id="edge21" class="edge"><title>13&#45;&gt;7</title>
<path fill="none" stroke="black" d="M2176.75,-304.248C1960.92,-301.892 1470.36,-292.165 1059.94,-252 1050.19,-251.046 1039.99,-249.811 1029.9,-248.443"/>
<polygon fill="black" stroke="black" points="1030.24,-244.958 1019.85,-247.036 1029.27,-251.89 1030.24,-244.958"/>
</g>
<!-- 13&#45;&gt;8 -->
<g id="edge17" class="edge"><title>13&#45;&gt;8</title>
<path fill="none" stroke="black" d="M2178.48,-302.42C1995.13,-297.369 1614.45,-283.763 1293.94,-252 1283.65,-250.98 1272.87,-249.703 1262.21,-248.309"/>
<polygon fill="black" stroke="black" points="1262.41,-244.805 1252.03,-246.942 1261.47,-251.742 1262.41,-244.805"/>
</g>
<!-- 13&#45;&gt;9 -->
<g id="edge19" class="edge"><title>13&#45;&gt;9</title>
<path fill="none" stroke="black" d="M2193.08,-296.487C2059.3,-284.48 1813.93,-262.46 1656.02,-248.289"/>
<polygon fill="black" stroke="black" points="1656.02,-244.775 1645.75,-247.367 1655.39,-251.747 1656.02,-244.775"/>
</g>
<!-- 13&#45;&gt;11 -->
<g id="edge23" class="edge"><title>13&#45;&gt;11</title>
<path fill="none" stroke="black" d="M2212.41,-292.647C2139.26,-280.683 2028.28,-262.532 1950.44,-249.802"/>
<polygon fill="black" stroke="black" points="1950.6,-246.281 1940.17,-248.121 1949.47,-253.189 1950.6,-246.281"/>
</g>
<!-- 14 -->
<g id="node15" class="node"><title>14</title>
<ellipse fill="paleturquoise" stroke="paleturquoise" cx="2153.94" cy="-234" rx="147.581" ry="18"/>
<text text-anchor="middle" x="2153.94" y="-229.8" font-family="Times,serif" font-size="14.00">github.com/davecgh/go&#45;spew/spew</text>
</g>
<!-- 13&#45;&gt;14 -->
<g id="edge14" class="edge"><title>13&#45;&gt;14</title>
<path fill="none" stroke="black" d="M2256.52,-288.588C2238.23,-279.03 2214.94,-266.865 2195.18,-256.543"/>
<polygon fill="black" stroke="black" points="2196.58,-253.323 2186.09,-251.795 2193.34,-259.528 2196.58,-253.323"/>
</g>
<!-- 15 -->
<g id="node16" class="node"><title>15</title>
<ellipse fill="paleturquoise" stroke="paleturquoise" cx="2422.94" cy="-234" rx="103.66" ry="18"/>
<text text-anchor="middle" x="2422.94" y="-229.8" font-family="Times,serif" font-size="14.00">github.com/golang/glog</text>
</g>
<!-- 13&#45;&gt;15 -->
<g id="edge15" class="edge"><title>13&#45;&gt;15</title>
<path fill="none" stroke="black" d="M2319.59,-288.588C2338.38,-278.846 2362.39,-266.398 2382.54,-255.951"/>
<polygon fill="black" stroke="black" points="2384.22,-259.019 2391.49,-251.309 2381,-252.805 2384.22,-259.019"/>
</g>
<!-- 16 -->
<g id="node17" class="node"><title>16</title>
<ellipse fill="paleturquoise" stroke="paleturquoise" cx="2656.94" cy="-234" rx="112.869" ry="18"/>
<text text-anchor="middle" x="2656.94" y="-229.8" font-family="Times,serif" font-size="14.00">github.com/google/gofuzz</text>
</g>
<!-- 13&#45;&gt;16 -->
<g id="edge16" class="edge"><title>13&#45;&gt;16</title>
<path fill="none" stroke="black" d="M2357.35,-291.834C2419.9,-279.967 2511.84,-262.526 2577.35,-250.099"/>
<polygon fill="black" stroke="black" points="2578.05,-253.529 2587.22,-248.226 2576.74,-246.651 2578.05,-253.529"/>
</g>
<!-- 17 -->
<g id="node18" class="node"><title>17</title>
<ellipse fill="paleturquoise" stroke="paleturquoise" cx="2898.94" cy="-234" rx="111.747" ry="18"/>
<text text-anchor="middle" x="2898.94" y="-229.8" font-family="Times,serif" font-size="14.00">github.com/pborman/uuid</text>
</g>
<!-- 13&#45;&gt;17 -->
<g id="edge18" class="edge"><title>13&#45;&gt;17</title>
<path fill="none" stroke="black" d="M2380.81,-295.903C2479.62,-286.007 2640.48,-269.276 2778.94,-252 2788.73,-250.779 2798.96,-249.435 2809.13,-248.054"/>
<polygon fill="black" stroke="black" points="2809.84,-251.49 2819.27,-246.664 2808.89,-244.555 2809.84,-251.49"/>
</g>
<!-- 18 -->
<g id="node19" class="node"><title>18</title>
<ellipse fill="paleturquoise" stroke="paleturquoise" cx="3129.94" cy="-234" rx="101.349" ry="18"/>
<text text-anchor="middle" x="3129.94" y="-229.8" font-family="Times,serif" font-size="14.00">github.com/spf13/pflag</text>
</g>
<!-- 13&#45;&gt;18 -->
<g id="edge20" class="edge"><title>13&#45;&gt;18</title>
<path fill="none" stroke="black" d="M2393.35,-300.056C2535.81,-292.761 2797.59,-277.189 3019.94,-252 3029.28,-250.943 3039.03,-249.674 3048.71,-248.312"/>
<polygon fill="black" stroke="black" points="3049.35,-251.756 3058.75,-246.864 3048.36,-244.827 3049.35,-251.756"/>
</g>
<!-- 19 -->
<g id="node20" class="node"><title>19</title>
<ellipse fill="paleturquoise" stroke="paleturquoise" cx="3368.94" cy="-234" rx="119.246" ry="18"/>
<text text-anchor="middle" x="3368.94" y="-229.8" font-family="Times,serif" font-size="14.00">k8s.io/kubernetes/pkg/types</text>
</g>
<!-- 13&#45;&gt;19 -->
<g id="edge22" class="edge"><title>13&#45;&gt;19</title>
<path fill="none" stroke="black" d="M2396.29,-301.629C2573.16,-295.528 2934.83,-280.556 3239.94,-252 3251.54,-250.915 3263.7,-249.577 3275.72,-248.132"/>
<polygon fill="black" stroke="black" points="3276.28,-251.591 3285.77,-246.897 3275.42,-244.643 3276.28,-251.591"/>
</g>
</g>
</svg>
