<?xml version="1.0" encoding="UTF-8" standalone="no"?>
<!DOCTYPE svg PUBLIC "-//W3C//DTD SVG 1.1//EN"
 "http://www.w3.org/Graphics/SVG/1.1/DTD/svg11.dtd">
<!-- Generated by graphviz version 2.38.0 (20140413.2041)
 -->
<!-- Title: godep Pages: 1 -->
<svg width="12933pt" height="764pt"
 viewBox="0.00 0.00 12933.13 764.00" xmlns="http://www.w3.org/2000/svg" xmlns:xlink="http://www.w3.org/1999/xlink">
<g id="graph0" class="graph" transform="scale(1 1) rotate(0) translate(4 760)">
<title>godep</title>
<polygon fill="white" stroke="none" points="-4,4 -4,-760 12929.1,-760 12929.1,4 -4,4"/>
<!-- 0 -->
<g id="node1" class="node"><title>0</title>
<ellipse fill="paleturquoise" stroke="paleturquoise" cx="11402" cy="-522" rx="151.1" ry="18"/>
<text text-anchor="middle" x="11402" y="-517.8" font-family="Times,serif" font-size="14.00">k8s.io/kubernetes/pkg/client/metrics</text>
</g>
<!-- 1 -->
<g id="node2" class="node"><title>1</title>
<ellipse fill="paleturquoise" stroke="paleturquoise" cx="11592" cy="-234" rx="205.466" ry="18"/>
<text text-anchor="middle" x="11592" y="-229.8" font-family="Times,serif" font-size="14.00">github.com/prometheus/client_golang/prometheus</text>
</g>
<!-- 0&#45;&gt;1 -->
<g id="edge1" class="edge"><title>0&#45;&gt;1</title>
<path fill="none" stroke="black" d="M11413.3,-503.966C11445.3,-455.795 11536.6,-318.366 11574.9,-260.829"/>
<polygon fill="black" stroke="black" points="11577.9,-262.573 11580.5,-252.306 11572.1,-258.699 11577.9,-262.573"/>
</g>
<!-- 21 -->
<g id="node22" class="node"><title>21</title>
<ellipse fill="paleturquoise" stroke="paleturquoise" cx="11597" cy="-90" rx="167.883" ry="18"/>
<text text-anchor="middle" x="11597" y="-85.8" font-family="Times,serif" font-size="14.00">github.com/prometheus/client_model/go</text>
</g>
<!-- 1&#45;&gt;21 -->
<g id="edge171" class="edge"><title>1&#45;&gt;21</title>
<path fill="none" stroke="black" d="M11592.6,-215.871C11593.5,-191.67 11595.1,-147.211 11596.1,-118.393"/>
<polygon fill="black" stroke="black" points="11599.6,-118.306 11596.4,-108.189 11592.6,-118.06 11599.6,-118.306"/>
</g>
<!-- 22 -->
<g id="node23" class="node"><title>22</title>
<ellipse fill="paleturquoise" stroke="paleturquoise" cx="12231" cy="-18" rx="142.968" ry="18"/>
<text text-anchor="middle" x="12231" y="-13.8" font-family="Times,serif" font-size="14.00">github.com/golang/protobuf/proto</text>
</g>
<!-- 1&#45;&gt;22 -->
<g id="edge170" class="edge"><title>1&#45;&gt;22</title>
<path fill="none" stroke="black" d="M11788.9,-228.838C12139.7,-219.36 12843.2,-190.217 12917,-108 12927.7,-96.0964 12927.9,-83.7414 12917,-72 12881.6,-33.6778 12574.4,-22.9802 12383.4,-20.0486"/>
<polygon fill="black" stroke="black" points="12383.3,-16.5469 12373.2,-19.8986 12383.2,-23.5462 12383.3,-16.5469"/>
</g>
<!-- 53 -->
<g id="node54" class="node"><title>53</title>
<ellipse fill="paleturquoise" stroke="paleturquoise" cx="11754" cy="-162" rx="129.118" ry="18"/>
<text text-anchor="middle" x="11754" y="-157.8" font-family="Times,serif" font-size="14.00">github.com/prometheus/procfs</text>
</g>
<!-- 1&#45;&gt;53 -->
<g id="edge173" class="edge"><title>1&#45;&gt;53</title>
<path fill="none" stroke="black" d="M11630.8,-216.233C11653.7,-206.342 11682.9,-193.756 11707,-183.306"/>
<polygon fill="black" stroke="black" points="11708.6,-186.448 11716.4,-179.268 11705.8,-180.022 11708.6,-186.448"/>
</g>
<!-- 78 -->
<g id="node79" class="node"><title>78</title>
<ellipse fill="paleturquoise" stroke="paleturquoise" cx="12070" cy="-162" rx="169.029" ry="18"/>
<text text-anchor="middle" x="12070" y="-157.8" font-family="Times,serif" font-size="14.00">github.com/prometheus/common/expfmt</text>
</g>
<!-- 1&#45;&gt;78 -->
<g id="edge172" class="edge"><title>1&#45;&gt;78</title>
<path fill="none" stroke="black" d="M11692.5,-218.283C11772.4,-206.592 11883.7,-190.291 11964.7,-178.421"/>
<polygon fill="black" stroke="black" points="11965.6,-181.835 11975,-176.923 11964.6,-174.909 11965.6,-181.835"/>
</g>
<!-- 79 -->
<g id="node80" class="node"><title>79</title>
<ellipse fill="paleturquoise" stroke="paleturquoise" cx="11427" cy="-162" rx="141.799" ry="18"/>
<text text-anchor="middle" x="11427" y="-157.8" font-family="Times,serif" font-size="14.00">github.com/beorn7/perks/quantile</text>
</g>
<!-- 1&#45;&gt;79 -->
<g id="edge169" class="edge"><title>1&#45;&gt;79</title>
<path fill="none" stroke="black" d="M11552.5,-216.233C11529.3,-206.378 11499.7,-193.847 11475.2,-183.419"/>
<polygon fill="black" stroke="black" points="11476.2,-180.072 11465.7,-179.388 11473.5,-186.516 11476.2,-180.072"/>
</g>
<!-- 2 -->
<g id="node3" class="node"><title>2</title>
<ellipse fill="paleturquoise" stroke="paleturquoise" cx="3963.03" cy="-234" rx="331.45" ry="18"/>
<text text-anchor="middle" x="3963.03" y="-229.8" font-family="Times,serif" font-size="14.00">github.com/fsouza/go&#45;dockerclient/external/github.com/docker/docker/pkg/parsers</text>
</g>
<!-- 3 -->
<g id="node4" class="node"><title>3</title>
<ellipse fill="paleturquoise" stroke="paleturquoise" cx="6203.03" cy="-450" rx="177.131" ry="18"/>
<text text-anchor="middle" x="6203.03" y="-445.8" font-family="Times,serif" font-size="14.00">github.com/openshift/origin/pkg/image/api</text>
</g>
<!-- 4 -->
<g id="node5" class="node"><title>4</title>
<ellipse fill="paleturquoise" stroke="paleturquoise" cx="5988.03" cy="-378" rx="156.863" ry="18"/>
<text text-anchor="middle" x="5988.03" y="-373.8" font-family="Times,serif" font-size="14.00">github.com/docker/distribution/digest</text>
</g>
<!-- 3&#45;&gt;4 -->
<g id="edge2" class="edge"><title>3&#45;&gt;4</title>
<path fill="none" stroke="black" d="M6152.89,-432.676C6121.27,-422.381 6080.28,-409.036 6047.09,-398.229"/>
<polygon fill="black" stroke="black" points="6048.09,-394.875 6037.5,-395.107 6045.93,-401.531 6048.09,-394.875"/>
</g>
<!-- 5 -->
<g id="node6" class="node"><title>5</title>
<ellipse fill="paleturquoise" stroke="paleturquoise" cx="3963.03" cy="-378" rx="145.851" ry="18"/>
<text text-anchor="middle" x="3963.03" y="-373.8" font-family="Times,serif" font-size="14.00">github.com/fsouza/go&#45;dockerclient</text>
</g>
<!-- 3&#45;&gt;5 -->
<g id="edge3" class="edge"><title>3&#45;&gt;5</title>
<path fill="none" stroke="black" d="M6036.5,-443.796C5615.67,-430.645 4514.57,-396.236 4112.65,-383.676"/>
<polygon fill="black" stroke="black" points="4112.52,-380.17 4102.41,-383.356 4112.3,-387.166 4112.52,-380.17"/>
</g>
<!-- 6 -->
<g id="node7" class="node"><title>6</title>
<ellipse fill="paleturquoise" stroke="paleturquoise" cx="9214.03" cy="-90" rx="103.66" ry="18"/>
<text text-anchor="middle" x="9214.03" y="-85.8" font-family="Times,serif" font-size="14.00">github.com/golang/glog</text>
</g>
<!-- 3&#45;&gt;6 -->
<g id="edge4" class="edge"><title>3&#45;&gt;6</title>
<path fill="none" stroke="black" d="M6197.16,-431.743C6188.69,-405.246 6174.03,-352.794 6174.03,-307 6174.03,-307 6174.03,-307 6174.03,-233 6174.03,-212.94 5957.04,-208.383 6974.03,-144 7787.9,-92.4767 8770.97,-89.7968 9100.33,-90.5158"/>
<polygon fill="black" stroke="black" points="9100.35,-94.0157 9110.35,-90.5392 9100.36,-87.0157 9100.35,-94.0157"/>
</g>
<!-- 7 -->
<g id="node8" class="node"><title>7</title>
<ellipse fill="paleturquoise" stroke="paleturquoise" cx="8602.03" cy="-378" rx="110.578" ry="18"/>
<text text-anchor="middle" x="8602.03" y="-373.8" font-family="Times,serif" font-size="14.00">k8s.io/kubernetes/pkg/api</text>
</g>
<!-- 3&#45;&gt;7 -->
<g id="edge5" class="edge"><title>3&#45;&gt;7</title>
<path fill="none" stroke="black" d="M6370.77,-444.106C6828.59,-430.747 8091.55,-393.895 8484.06,-382.442"/>
<polygon fill="black" stroke="black" points="8484.4,-385.934 8494.29,-382.144 8484.2,-378.937 8484.4,-385.934"/>
</g>
<!-- 8 -->
<g id="node9" class="node"><title>8</title>
<ellipse fill="paleturquoise" stroke="paleturquoise" cx="8981.03" cy="-378" rx="135.976" ry="18"/>
<text text-anchor="middle" x="8981.03" y="-373.8" font-family="Times,serif" font-size="14.00">k8s.io/kubernetes/pkg/api/errors</text>
</g>
<!-- 3&#45;&gt;8 -->
<g id="edge6" class="edge"><title>3&#45;&gt;8</title>
<path fill="none" stroke="black" d="M6373.57,-445.058C6526.59,-441.544 6757.31,-436.308 6958.03,-432 7742.01,-415.174 7938.59,-429.688 8722.03,-396 8765.79,-394.118 8813.66,-391.214 8856.21,-388.336"/>
<polygon fill="black" stroke="black" points="8856.6,-391.818 8866.34,-387.645 8856.13,-384.834 8856.6,-391.818"/>
</g>
<!-- 9 -->
<g id="node10" class="node"><title>9</title>
<ellipse fill="paleturquoise" stroke="paleturquoise" cx="9204.03" cy="-306" rx="160.342" ry="18"/>
<text text-anchor="middle" x="9204.03" y="-301.8" font-family="Times,serif" font-size="14.00">k8s.io/kubernetes/pkg/api/unversioned</text>
</g>
<!-- 3&#45;&gt;9 -->
<g id="edge7" class="edge"><title>3&#45;&gt;9</title>
<path fill="none" stroke="black" d="M6338.65,-438.37C6462.73,-428.379 6651.36,-412.526 6815.03,-396 6953.91,-381.977 6987.76,-369.441 7127.03,-360 7905.85,-307.203 8102.95,-352.645 8883.03,-324 8939.6,-321.923 9001.74,-318.823 9056.15,-315.836"/>
<polygon fill="black" stroke="black" points="9056.43,-319.326 9066.22,-315.28 9056.04,-312.337 9056.43,-319.326"/>
</g>
<!-- 10 -->
<g id="node11" class="node"><title>10</title>
<ellipse fill="paleturquoise" stroke="paleturquoise" cx="9949.03" cy="-162" rx="141.22" ry="18"/>
<text text-anchor="middle" x="9949.03" y="-157.8" font-family="Times,serif" font-size="14.00">k8s.io/kubernetes/pkg/conversion</text>
</g>
<!-- 3&#45;&gt;10 -->
<g id="edge8" class="edge"><title>3&#45;&gt;10</title>
<path fill="none" stroke="black" d="M6207.91,-431.796C6218.84,-394.417 6246.12,-307.577 6269.03,-288 6275.63,-282.362 6564.42,-217.059 6573.03,-216 6903.35,-175.404 9235.36,-189.419 9568.03,-180 9648.62,-177.718 9738.75,-173.761 9811.11,-170.238"/>
<polygon fill="black" stroke="black" points="9811.38,-173.729 9821.2,-169.744 9811.04,-166.737 9811.38,-173.729"/>
</g>
<!-- 11 -->
<g id="node12" class="node"><title>11</title>
<ellipse fill="paleturquoise" stroke="paleturquoise" cx="6398.03" cy="-306" rx="120.386" ry="18"/>
<text text-anchor="middle" x="6398.03" y="-301.8" font-family="Times,serif" font-size="14.00">k8s.io/kubernetes/pkg/fields</text>
</g>
<!-- 3&#45;&gt;11 -->
<g id="edge9" class="edge"><title>3&#45;&gt;11</title>
<path fill="none" stroke="black" d="M6226.16,-432.153C6261.06,-406.746 6327.23,-358.559 6366.5,-329.959"/>
<polygon fill="black" stroke="black" points="6368.9,-332.541 6374.92,-323.825 6364.78,-326.882 6368.9,-332.541"/>
</g>
<!-- 12 -->
<g id="node13" class="node"><title>12</title>
<ellipse fill="paleturquoise" stroke="paleturquoise" cx="7333.03" cy="-162" rx="128.57" ry="18"/>
<text text-anchor="middle" x="7333.03" y="-157.8" font-family="Times,serif" font-size="14.00">k8s.io/kubernetes/pkg/util/sets</text>
</g>
<!-- 3&#45;&gt;12 -->
<g id="edge10" class="edge"><title>3&#45;&gt;12</title>
<path fill="none" stroke="black" d="M6201.19,-431.839C6198.71,-399.26 6198.32,-328.13 6236.03,-288 6319.9,-198.746 6381.2,-235.998 6502.03,-216 6743.18,-176.088 7028.3,-165.778 7194.1,-163.378"/>
<polygon fill="black" stroke="black" points="7194.41,-166.874 7204.36,-163.237 7194.31,-159.874 7194.41,-166.874"/>
</g>
<!-- 68 -->
<g id="node69" class="node"><title>68</title>
<ellipse fill="paleturquoise" stroke="paleturquoise" cx="5987.03" cy="-306" rx="158.616" ry="18"/>
<text text-anchor="middle" x="5987.03" y="-301.8" font-family="Times,serif" font-size="14.00">github.com/docker/docker/pkg/tarsum</text>
</g>
<!-- 4&#45;&gt;68 -->
<g id="edge115" class="edge"><title>4&#45;&gt;68</title>
<path fill="none" stroke="black" d="M5987.78,-359.697C5987.67,-351.983 5987.54,-342.712 5987.42,-334.112"/>
<polygon fill="black" stroke="black" points="5990.92,-334.053 5987.27,-324.104 5983.92,-334.153 5990.92,-334.053"/>
</g>
<!-- 19 -->
<g id="node20" class="node"><title>19</title>
<ellipse fill="paleturquoise" stroke="paleturquoise" cx="2631.03" cy="-234" rx="333.273" ry="18"/>
<text text-anchor="middle" x="2631.03" y="-229.8" font-family="Times,serif" font-size="14.00">github.com/fsouza/go&#45;dockerclient/external/github.com/docker/docker/pkg/fileutils</text>
</g>
<!-- 5&#45;&gt;19 -->
<g id="edge153" class="edge"><title>5&#45;&gt;19</title>
<path fill="none" stroke="black" d="M3856.56,-365.649C3621.44,-340.584 3057.18,-280.43 2784.15,-251.324"/>
<polygon fill="black" stroke="black" points="2784.48,-247.839 2774.16,-250.259 2783.74,-254.799 2784.48,-247.839"/>
</g>
<!-- 55 -->
<g id="node56" class="node"><title>55</title>
<ellipse fill="paleturquoise" stroke="paleturquoise" cx="963.03" cy="-306" rx="333.845" ry="18"/>
<text text-anchor="middle" x="963.03" y="-301.8" font-family="Times,serif" font-size="14.00">github.com/fsouza/go&#45;dockerclient/external/github.com/docker/docker/pkg/stdcopy</text>
</g>
<!-- 5&#45;&gt;55 -->
<g id="edge155" class="edge"><title>5&#45;&gt;55</title>
<path fill="none" stroke="black" d="M3819.18,-374.907C3430.22,-369.056 2325.03,-351.155 1406.03,-324 1348.76,-322.308 1287.33,-320.162 1229.02,-317.97"/>
<polygon fill="black" stroke="black" points="1229.05,-314.469 1218.93,-317.589 1228.79,-321.464 1229.05,-314.469"/>
</g>
<!-- 59 -->
<g id="node60" class="node"><title>59</title>
<ellipse fill="paleturquoise" stroke="paleturquoise" cx="3963.03" cy="-306" rx="302.619" ry="18"/>
<text text-anchor="middle" x="3963.03" y="-301.8" font-family="Times,serif" font-size="14.00">github.com/fsouza/go&#45;dockerclient/external/github.com/docker/docker/opts</text>
</g>
<!-- 5&#45;&gt;59 -->
<g id="edge151" class="edge"><title>5&#45;&gt;59</title>
<path fill="none" stroke="black" d="M3963.03,-359.697C3963.03,-351.983 3963.03,-342.712 3963.03,-334.112"/>
<polygon fill="black" stroke="black" points="3966.53,-334.104 3963.03,-324.104 3959.53,-334.104 3966.53,-334.104"/>
</g>
<!-- 67 -->
<g id="node68" class="node"><title>67</title>
<ellipse fill="paleturquoise" stroke="paleturquoise" cx="4989.03" cy="-306" rx="336.13" ry="18"/>
<text text-anchor="middle" x="4989.03" y="-301.8" font-family="Times,serif" font-size="14.00">github.com/fsouza/go&#45;dockerclient/external/github.com/docker/docker/pkg/homedir</text>
</g>
<!-- 5&#45;&gt;67 -->
<g id="edge154" class="edge"><title>5&#45;&gt;67</title>
<path fill="none" stroke="black" d="M4087.3,-368.522C4259.34,-356.784 4572.37,-335.427 4780.54,-321.224"/>
<polygon fill="black" stroke="black" points="4780.94,-324.705 4790.68,-320.532 4780.47,-317.721 4780.94,-324.705"/>
</g>
<!-- 75 -->
<g id="node76" class="node"><title>75</title>
<ellipse fill="paleturquoise" stroke="paleturquoise" cx="1747.03" cy="-306" rx="332.096" ry="18"/>
<text text-anchor="middle" x="1747.03" y="-301.8" font-family="Times,serif" font-size="14.00">github.com/fsouza/go&#45;dockerclient/external/github.com/docker/docker/pkg/archive</text>
</g>
<!-- 5&#45;&gt;75 -->
<g id="edge152" class="edge"><title>5&#45;&gt;75</title>
<path fill="none" stroke="black" d="M3823.57,-372.595C3467.33,-361.342 2518.07,-331.356 2036.25,-316.136"/>
<polygon fill="black" stroke="black" points="2036.12,-312.63 2026.01,-315.813 2035.89,-319.627 2036.12,-312.63"/>
</g>
<!-- 7&#45;&gt;9 -->
<g id="edge93" class="edge"><title>7&#45;&gt;9</title>
<path fill="none" stroke="black" d="M8689.24,-366.859C8794.05,-354.672 8970.32,-334.176 9086.91,-320.618"/>
<polygon fill="black" stroke="black" points="9087.42,-324.083 9096.95,-319.451 9086.61,-317.13 9087.42,-324.083"/>
</g>
<!-- 7&#45;&gt;10 -->
<g id="edge95" class="edge"><title>7&#45;&gt;10</title>
<path fill="none" stroke="black" d="M8704.33,-371.144C8775.05,-364.708 8860.34,-351.375 8883.03,-324 8893.24,-311.682 8893.51,-300.093 8883.03,-288 8809.53,-203.154 8706.53,-336.846 8633.03,-252 8622.55,-239.907 8621.94,-227.529 8633.03,-216 8669.07,-178.542 9516.09,-182.159 9568.03,-180 9647.8,-176.685 9736.95,-172.721 9808.95,-169.455"/>
<polygon fill="black" stroke="black" points="9809.16,-172.949 9818.99,-168.999 9808.84,-165.957 9809.16,-172.949"/>
</g>
<!-- 7&#45;&gt;11 -->
<g id="edge96" class="edge"><title>7&#45;&gt;11</title>
<path fill="none" stroke="black" d="M8491.97,-376.253C8189.94,-373.735 7322.77,-363.353 6603.03,-324 6571.74,-322.289 6537.81,-319.754 6506.73,-317.16"/>
<polygon fill="black" stroke="black" points="6507.01,-313.671 6496.75,-316.317 6506.42,-320.646 6507.01,-313.671"/>
</g>
<!-- 7&#45;&gt;12 -->
<g id="edge102" class="edge"><title>7&#45;&gt;12</title>
<path fill="none" stroke="black" d="M8521.48,-365.626C8506.08,-363.618 8490.07,-361.647 8475.03,-360 8428.25,-354.877 8084.86,-358.661 8053.03,-324 7993.85,-259.552 8126.69,-289.479 8153.03,-252 8162.23,-238.91 8164.04,-227.608 8153.03,-216 8126.92,-188.473 7508.83,-183.321 7471.03,-180 7458.7,-178.916 7445.77,-177.584 7432.97,-176.147"/>
<polygon fill="black" stroke="black" points="7433.09,-172.638 7422.76,-174.975 7432.29,-179.592 7433.09,-172.638"/>
</g>
<!-- 13 -->
<g id="node14" class="node"><title>13</title>
<ellipse fill="paleturquoise" stroke="paleturquoise" cx="8230.03" cy="-306" rx="134.273" ry="18"/>
<text text-anchor="middle" x="8230.03" y="-301.8" font-family="Times,serif" font-size="14.00">k8s.io/kubernetes/pkg/auth/user</text>
</g>
<!-- 7&#45;&gt;13 -->
<g id="edge94" class="edge"><title>7&#45;&gt;13</title>
<path fill="none" stroke="black" d="M8532.5,-363.916C8470.79,-352.304 8380.46,-335.307 8314.59,-322.912"/>
<polygon fill="black" stroke="black" points="8315.12,-319.451 8304.65,-321.041 8313.83,-326.33 8315.12,-319.451"/>
</g>
<!-- 15 -->
<g id="node16" class="node"><title>15</title>
<ellipse fill="paleturquoise" stroke="paleturquoise" cx="10593" cy="-234" rx="128.556" ry="18"/>
<text text-anchor="middle" x="10593" y="-229.8" font-family="Times,serif" font-size="14.00">k8s.io/kubernetes/pkg/runtime</text>
</g>
<!-- 7&#45;&gt;15 -->
<g id="edge98" class="edge"><title>7&#45;&gt;15</title>
<path fill="none" stroke="black" d="M8684.58,-365.982C8748.24,-356.784 8838.26,-342.251 8916.03,-324 8969.82,-311.376 8980.5,-296.928 9035.03,-288 9291.3,-246.041 9943.53,-261.654 10203,-252 10289.7,-248.775 10387.2,-244.525 10463.1,-241.081"/>
<polygon fill="black" stroke="black" points="10463.3,-244.573 10473.1,-240.622 10463,-237.58 10463.3,-244.573"/>
</g>
<!-- 29 -->
<g id="node30" class="node"><title>29</title>
<ellipse fill="paleturquoise" stroke="paleturquoise" cx="10734" cy="-306" rx="131.983" ry="18"/>
<text text-anchor="middle" x="10734" y="-301.8" font-family="Times,serif" font-size="14.00">k8s.io/kubernetes/pkg/api/meta</text>
</g>
<!-- 7&#45;&gt;29 -->
<g id="edge91" class="edge"><title>7&#45;&gt;29</title>
<path fill="none" stroke="black" d="M8697.89,-369.022C8740.21,-365.762 8790.57,-362.239 8836.03,-360 9453.71,-329.586 9608.87,-342.362 10227,-324 10352.8,-320.264 10496.1,-315.403 10598.2,-311.837"/>
<polygon fill="black" stroke="black" points="10598.4,-315.333 10608.2,-311.485 10598.1,-308.337 10598.4,-315.333"/>
</g>
<!-- 34 -->
<g id="node35" class="node"><title>34</title>
<ellipse fill="paleturquoise" stroke="paleturquoise" cx="7165.03" cy="-306" rx="121.03" ry="18"/>
<text text-anchor="middle" x="7165.03" y="-301.8" font-family="Times,serif" font-size="14.00">k8s.io/kubernetes/pkg/labels</text>
</g>
<!-- 7&#45;&gt;34 -->
<g id="edge97" class="edge"><title>7&#45;&gt;34</title>
<path fill="none" stroke="black" d="M8497.82,-371.924C8238.79,-359.306 7566.69,-326.566 7288.45,-313.012"/>
<polygon fill="black" stroke="black" points="7288.47,-309.509 7278.31,-312.518 7288.13,-316.501 7288.47,-309.509"/>
</g>
<!-- 35 -->
<g id="node36" class="node"><title>35</title>
<ellipse fill="paleturquoise" stroke="paleturquoise" cx="9570.03" cy="-306" rx="111.739" ry="18"/>
<text text-anchor="middle" x="9570.03" y="-301.8" font-family="Times,serif" font-size="14.00">k8s.io/kubernetes/pkg/util</text>
</g>
<!-- 7&#45;&gt;35 -->
<g id="edge100" class="edge"><title>7&#45;&gt;35</title>
<path fill="none" stroke="black" d="M8700.51,-369.723C8742.29,-366.667 8791.54,-363.108 8836.03,-360 9074.65,-343.334 9134.53,-342.284 9373.03,-324 9403.01,-321.702 9435.54,-318.986 9465.37,-316.407"/>
<polygon fill="black" stroke="black" points="9465.71,-319.89 9475.37,-315.539 9465.1,-312.917 9465.71,-319.89"/>
</g>
<!-- 48 -->
<g id="node49" class="node"><title>48</title>
<ellipse fill="paleturquoise" stroke="paleturquoise" cx="7780.03" cy="-306" rx="145.849" ry="18"/>
<text text-anchor="middle" x="7780.03" y="-301.8" font-family="Times,serif" font-size="14.00">k8s.io/kubernetes/pkg/api/resource</text>
</g>
<!-- 7&#45;&gt;48 -->
<g id="edge92" class="edge"><title>7&#45;&gt;48</title>
<path fill="none" stroke="black" d="M8522.78,-365.392C8507.61,-363.406 8491.85,-361.502 8477.03,-360 8239.05,-335.869 8178.34,-344.64 7940.03,-324 7925.19,-322.715 7909.59,-321.227 7894.19,-319.678"/>
<polygon fill="black" stroke="black" points="7894.42,-316.183 7884.11,-318.652 7893.71,-323.147 7894.42,-316.183"/>
</g>
<!-- 49 -->
<g id="node50" class="node"><title>49</title>
<ellipse fill="paleturquoise" stroke="paleturquoise" cx="10075" cy="-234" rx="119.246" ry="18"/>
<text text-anchor="middle" x="10075" y="-229.8" font-family="Times,serif" font-size="14.00">k8s.io/kubernetes/pkg/types</text>
</g>
<!-- 7&#45;&gt;49 -->
<g id="edge99" class="edge"><title>7&#45;&gt;49</title>
<path fill="none" stroke="black" d="M8521.74,-365.56C8506.89,-363.591 8491.5,-361.651 8477.03,-360 8433.79,-355.067 8116.35,-356.155 8087.03,-324 8076.25,-312.178 8075.83,-299.423 8087.03,-288 8123.21,-251.107 9895.5,-255.908 9947.03,-252 9958.82,-251.106 9971.18,-249.859 9983.38,-248.442"/>
<polygon fill="black" stroke="black" points="9984.06,-251.885 9993.58,-247.216 9983.23,-244.935 9984.06,-251.885"/>
</g>
<!-- 50 -->
<g id="node51" class="node"><title>50</title>
<ellipse fill="paleturquoise" stroke="paleturquoise" cx="8015.03" cy="-234" rx="128.529" ry="18"/>
<text text-anchor="middle" x="8015.03" y="-229.8" font-family="Times,serif" font-size="14.00">speter.net/go/exp/math/dec/inf</text>
</g>
<!-- 7&#45;&gt;50 -->
<g id="edge103" class="edge"><title>7&#45;&gt;50</title>
<path fill="none" stroke="black" d="M8522.77,-365.453C8507.61,-363.461 8491.84,-361.54 8477.03,-360 8421.74,-354.252 8015.9,-364.697 7978.03,-324 7961.27,-305.992 7975.96,-279.319 7991.51,-259.87"/>
<polygon fill="black" stroke="black" points="7994.35,-261.922 7998.13,-252.024 7989.01,-257.406 7994.35,-261.922"/>
</g>
<!-- 56 -->
<g id="node57" class="node"><title>56</title>
<ellipse fill="paleturquoise" stroke="paleturquoise" cx="8248.03" cy="-162" rx="147.581" ry="18"/>
<text text-anchor="middle" x="8248.03" y="-157.8" font-family="Times,serif" font-size="14.00">github.com/davecgh/go&#45;spew/spew</text>
</g>
<!-- 7&#45;&gt;56 -->
<g id="edge89" class="edge"><title>7&#45;&gt;56</title>
<path fill="none" stroke="black" d="M8521.13,-365.638C8505.83,-363.64 8489.95,-361.669 8475.03,-360 8430.68,-355.039 8105.14,-356.938 8075.03,-324 8009.18,-251.957 8135.8,-289.241 8186.03,-252 8208,-235.712 8225,-209.26 8235.59,-189.419"/>
<polygon fill="black" stroke="black" points="8238.83,-190.779 8240.27,-180.283 8232.6,-187.587 8238.83,-190.779"/>
</g>
<!-- 62 -->
<g id="node63" class="node"><title>62</title>
<ellipse fill="paleturquoise" stroke="paleturquoise" cx="8488.03" cy="-306" rx="105.923" ry="18"/>
<text text-anchor="middle" x="8488.03" y="-301.8" font-family="Times,serif" font-size="14.00">golang.org/x/net/context</text>
</g>
<!-- 7&#45;&gt;62 -->
<g id="edge90" class="edge"><title>7&#45;&gt;62</title>
<path fill="none" stroke="black" d="M8575.01,-360.411C8559.68,-350.996 8540.3,-339.096 8523.73,-328.92"/>
<polygon fill="black" stroke="black" points="8525.21,-325.72 8514.85,-323.47 8521.54,-331.685 8525.21,-325.72"/>
</g>
<!-- 63 -->
<g id="node64" class="node"><title>63</title>
<ellipse fill="paleturquoise" stroke="paleturquoise" cx="8743.03" cy="-306" rx="131.423" ry="18"/>
<text text-anchor="middle" x="8743.03" y="-301.8" font-family="Times,serif" font-size="14.00">k8s.io/kubernetes/pkg/util/rand</text>
</g>
<!-- 7&#45;&gt;63 -->
<g id="edge101" class="edge"><title>7&#45;&gt;63</title>
<path fill="none" stroke="black" d="M8634.73,-360.765C8654.29,-351.054 8679.36,-338.608 8700.45,-328.137"/>
<polygon fill="black" stroke="black" points="8702.12,-331.215 8709.53,-323.633 8699.01,-324.945 8702.12,-331.215"/>
</g>
<!-- 8&#45;&gt;9 -->
<g id="edge11" class="edge"><title>8&#45;&gt;9</title>
<path fill="none" stroke="black" d="M9031.35,-361.203C9064.47,-350.809 9108,-337.143 9143.08,-326.133"/>
<polygon fill="black" stroke="black" points="9144.24,-329.437 9152.73,-323.103 9142.14,-322.759 9144.24,-329.437"/>
</g>
<!-- 8&#45;&gt;15 -->
<g id="edge12" class="edge"><title>8&#45;&gt;15</title>
<path fill="none" stroke="black" d="M9111.9,-373.144C9254.86,-367.559 9490.28,-354.331 9691.03,-324 9761.81,-313.305 9777.23,-298.572 9848.03,-288 9963.28,-270.793 10283.9,-251.624 10464.7,-241.728"/>
<polygon fill="black" stroke="black" points="10465,-245.217 10474.8,-241.177 10464.7,-238.227 10465,-245.217"/>
</g>
<!-- 16 -->
<g id="node17" class="node"><title>16</title>
<ellipse fill="paleturquoise" stroke="paleturquoise" cx="7617.03" cy="-162" rx="136.637" ry="18"/>
<text text-anchor="middle" x="7617.03" y="-157.8" font-family="Times,serif" font-size="14.00">k8s.io/kubernetes/pkg/util/errors</text>
</g>
<!-- 8&#45;&gt;16 -->
<g id="edge13" class="edge"><title>8&#45;&gt;16</title>
<path fill="none" stroke="black" d="M8975.16,-359.848C8967.02,-338.956 8950.17,-304.427 8923.03,-288 8897.81,-272.735 8058.97,-200.385 7739.19,-173.283"/>
<polygon fill="black" stroke="black" points="7739.21,-169.773 7728.95,-172.416 7738.62,-176.748 7739.21,-169.773"/>
</g>
<!-- 17 -->
<g id="node18" class="node"><title>17</title>
<ellipse fill="paleturquoise" stroke="paleturquoise" cx="7599.03" cy="-234" rx="154.531" ry="18"/>
<text text-anchor="middle" x="7599.03" y="-229.8" font-family="Times,serif" font-size="14.00">k8s.io/kubernetes/pkg/util/fielderrors</text>
</g>
<!-- 8&#45;&gt;17 -->
<g id="edge14" class="edge"><title>8&#45;&gt;17</title>
<path fill="none" stroke="black" d="M8968.42,-359.727C8951.66,-338.364 8919.86,-302.989 8883.03,-288 8779.43,-245.835 7988.75,-257.414 7877.03,-252 7832.33,-249.834 7783.63,-247.013 7739.64,-244.293"/>
<polygon fill="black" stroke="black" points="7739.66,-240.787 7729.46,-243.659 7739.22,-247.773 7739.66,-240.787"/>
</g>
<!-- 42 -->
<g id="node43" class="node"><title>42</title>
<ellipse fill="paleturquoise" stroke="paleturquoise" cx="8975.03" cy="-234" rx="112.869" ry="18"/>
<text text-anchor="middle" x="8975.03" y="-229.8" font-family="Times,serif" font-size="14.00">github.com/google/gofuzz</text>
</g>
<!-- 9&#45;&gt;42 -->
<g id="edge42" class="edge"><title>9&#45;&gt;42</title>
<path fill="none" stroke="black" d="M9151.49,-288.941C9116.73,-278.315 9071.07,-264.356 9034.9,-253.301"/>
<polygon fill="black" stroke="black" points="9035.55,-249.841 9024.97,-250.264 9033.51,-256.535 9035.55,-249.841"/>
</g>
<!-- 52 -->
<g id="node53" class="node"><title>52</title>
<ellipse fill="paleturquoise" stroke="paleturquoise" cx="9949.03" cy="-90" rx="179.914" ry="18"/>
<text text-anchor="middle" x="9949.03" y="-85.8" font-family="Times,serif" font-size="14.00">k8s.io/kubernetes/third_party/forked/reflect</text>
</g>
<!-- 10&#45;&gt;52 -->
<g id="edge76" class="edge"><title>10&#45;&gt;52</title>
<path fill="none" stroke="black" d="M9949.03,-143.697C9949.03,-135.983 9949.03,-126.712 9949.03,-118.112"/>
<polygon fill="black" stroke="black" points="9952.53,-118.104 9949.03,-108.104 9945.53,-118.104 9952.53,-118.104"/>
</g>
<!-- 14 -->
<g id="node15" class="node"><title>14</title>
<ellipse fill="paleturquoise" stroke="paleturquoise" cx="9826.03" cy="-234" rx="111.747" ry="18"/>
<text text-anchor="middle" x="9826.03" y="-229.8" font-family="Times,serif" font-size="14.00">github.com/pborman/uuid</text>
</g>
<!-- 15&#45;&gt;10 -->
<g id="edge157" class="edge"><title>15&#45;&gt;10</title>
<path fill="none" stroke="black" d="M10494.9,-222.33C10378.7,-209.701 10185.5,-188.708 10062.9,-175.376"/>
<polygon fill="black" stroke="black" points="10063,-171.872 10052.7,-174.27 10062.3,-178.831 10063,-171.872"/>
</g>
<!-- 15&#45;&gt;12 -->
<g id="edge159" class="edge"><title>15&#45;&gt;12</title>
<path fill="none" stroke="black" d="M10478.3,-225.762C10417.6,-222.217 10341.8,-218.24 10274,-216 9651.43,-195.421 8092.54,-222.145 7471.03,-180 7457.98,-179.115 7444.27,-177.843 7430.77,-176.388"/>
<polygon fill="black" stroke="black" points="7430.82,-172.872 7420.49,-175.242 7430.05,-179.829 7430.82,-172.872"/>
</g>
<!-- 40 -->
<g id="node41" class="node"><title>40</title>
<ellipse fill="paleturquoise" stroke="paleturquoise" cx="9425.03" cy="-162" rx="133.728" ry="18"/>
<text text-anchor="middle" x="9425.03" y="-157.8" font-family="Times,serif" font-size="14.00">k8s.io/kubernetes/pkg/util/yaml</text>
</g>
<!-- 15&#45;&gt;40 -->
<g id="edge160" class="edge"><title>15&#45;&gt;40</title>
<path fill="none" stroke="black" d="M10477.3,-226.064C10258.1,-212.928 9783.89,-184.507 9554.5,-170.759"/>
<polygon fill="black" stroke="black" points="9554.62,-167.261 9544.43,-170.156 9554.21,-174.248 9554.62,-167.261"/>
</g>
<!-- 77 -->
<g id="node78" class="node"><title>77</title>
<ellipse fill="paleturquoise" stroke="paleturquoise" cx="10594" cy="-162" rx="130.299" ry="18"/>
<text text-anchor="middle" x="10594" y="-157.8" font-family="Times,serif" font-size="14.00">k8s.io/kubernetes/pkg/util/json</text>
</g>
<!-- 15&#45;&gt;77 -->
<g id="edge158" class="edge"><title>15&#45;&gt;77</title>
<path fill="none" stroke="black" d="M10593.3,-215.697C10593.4,-207.983 10593.5,-198.712 10593.6,-190.112"/>
<polygon fill="black" stroke="black" points="10597.1,-190.153 10593.8,-180.104 10590.1,-190.053 10597.1,-190.153"/>
</g>
<!-- 17&#45;&gt;16 -->
<g id="edge117" class="edge"><title>17&#45;&gt;16</title>
<path fill="none" stroke="black" d="M7603.48,-215.697C7605.48,-207.898 7607.9,-198.509 7610.13,-189.829"/>
<polygon fill="black" stroke="black" points="7613.53,-190.661 7612.63,-180.104 7606.75,-188.918 7613.53,-190.661"/>
</g>
<!-- 17&#45;&gt;56 -->
<g id="edge116" class="edge"><title>17&#45;&gt;56</title>
<path fill="none" stroke="black" d="M7708.39,-221.205C7825.75,-208.547 8011.44,-188.519 8131.49,-175.569"/>
<polygon fill="black" stroke="black" points="8131.89,-179.047 8141.46,-174.494 8131.14,-172.087 8131.89,-179.047"/>
</g>
<!-- 18 -->
<g id="node19" class="node"><title>18</title>
<ellipse fill="paleturquoise" stroke="paleturquoise" cx="6728.03" cy="-234" rx="145.884" ry="18"/>
<text text-anchor="middle" x="6728.03" y="-229.8" font-family="Times,serif" font-size="14.00">github.com/emicklei/go&#45;restful/log</text>
</g>
<!-- 20 -->
<g id="node21" class="node"><title>20</title>
<ellipse fill="paleturquoise" stroke="paleturquoise" cx="963.03" cy="-162" rx="289.333" ry="18"/>
<text text-anchor="middle" x="963.03" y="-157.8" font-family="Times,serif" font-size="14.00">github.com/fsouza/go&#45;dockerclient/external/github.com/Sirupsen/logrus</text>
</g>
<!-- 19&#45;&gt;20 -->
<g id="edge15" class="edge"><title>19&#45;&gt;20</title>
<path fill="none" stroke="black" d="M2397.86,-221.106C2361.44,-219.336 2324.22,-217.578 2289.03,-216 1914.94,-199.227 1481.36,-182.388 1214.62,-172.328"/>
<polygon fill="black" stroke="black" points="1214.54,-168.823 1204.42,-171.943 1214.28,-175.818 1214.54,-168.823"/>
</g>
<!-- 21&#45;&gt;22 -->
<g id="edge16" class="edge"><title>21&#45;&gt;22</title>
<path fill="none" stroke="black" d="M11709.3,-76.6063C11824.2,-63.9226 12001.7,-44.3156 12117.2,-31.5686"/>
<polygon fill="black" stroke="black" points="12117.9,-35.01 12127.5,-30.4336 12117.1,-28.0523 12117.9,-35.01"/>
</g>
<!-- 23 -->
<g id="node24" class="node"><title>23</title>
<ellipse fill="paleturquoise" stroke="paleturquoise" cx="11987" cy="-90" rx="165.6" ry="18"/>
<text text-anchor="middle" x="11987" y="-85.8" font-family="Times,serif" font-size="14.00">github.com/prometheus/common/model</text>
</g>
<!-- 24 -->
<g id="node25" class="node"><title>24</title>
<ellipse fill="paleturquoise" stroke="paleturquoise" cx="9872.03" cy="-666" rx="170.15" ry="18"/>
<text text-anchor="middle" x="9872.03" y="-661.8" font-family="Times,serif" font-size="14.00">k8s.io/kubernetes/pkg/client/unversioned</text>
</g>
<!-- 24&#45;&gt;0 -->
<g id="edge29" class="edge"><title>24&#45;&gt;0</title>
<path fill="none" stroke="black" d="M10037.7,-661.854C10235.7,-656.785 10576.9,-643.904 10868,-612 11028.7,-594.394 11214.4,-560.285 11319.1,-539.787"/>
<polygon fill="black" stroke="black" points="11319.8,-543.21 11329,-537.847 11318.5,-536.341 11319.8,-543.21"/>
</g>
<!-- 24&#45;&gt;6 -->
<g id="edge18" class="edge"><title>24&#45;&gt;6</title>
<path fill="none" stroke="black" d="M9702.79,-664.004C9029.34,-659.836 6568.35,-642.572 6405.03,-612 6133.42,-561.157 5984.56,-619.47 5822.03,-396 5685.97,-208.92 6037.99,-195.089 6463.03,-144 6727.19,-112.249 8615.05,-95.6216 9100.47,-91.8415"/>
<polygon fill="black" stroke="black" points="9100.66,-95.3402 9110.63,-91.7626 9100.61,-88.3404 9100.66,-95.3402"/>
</g>
<!-- 24&#45;&gt;7 -->
<g id="edge20" class="edge"><title>24&#45;&gt;7</title>
<path fill="none" stroke="black" d="M9844.84,-648.186C9812.18,-628.591 9755.26,-596.309 9703.03,-576 9585.68,-530.369 9552.34,-529.445 9429.03,-504 9167.42,-450.018 8854.74,-409.071 8699.49,-390.3"/>
<polygon fill="black" stroke="black" points="8699.84,-386.817 8689.49,-389.096 8699,-393.767 8699.84,-386.817"/>
</g>
<!-- 24&#45;&gt;8 -->
<g id="edge21" class="edge"><title>24&#45;&gt;8</title>
<path fill="none" stroke="black" d="M9861.82,-647.978C9832.55,-601.165 9742.91,-471.364 9627.03,-432 9520.5,-395.813 9234.02,-406.737 9122.03,-396 9110.24,-394.869 9097.9,-393.564 9085.65,-392.19"/>
<polygon fill="black" stroke="black" points="9085.72,-388.676 9075.39,-391.022 9084.93,-395.631 9085.72,-388.676"/>
</g>
<!-- 24&#45;&gt;9 -->
<g id="edge25" class="edge"><title>24&#45;&gt;9</title>
<path fill="none" stroke="black" d="M10038.1,-661.915C10241,-656.783 10563.3,-643.712 10609,-612 10679,-563.438 10729.5,-497.543 10675,-432 10567.8,-302.944 9813.7,-344.462 9449.03,-324 9414.93,-322.087 9378.19,-319.707 9343.79,-317.339"/>
<polygon fill="black" stroke="black" points="9343.9,-313.838 9333.68,-316.639 9343.42,-320.821 9343.9,-313.838"/>
</g>
<!-- 24&#45;&gt;11 -->
<g id="edge31" class="edge"><title>24&#45;&gt;11</title>
<path fill="none" stroke="black" d="M9702.11,-665.14C9017.78,-665.359 6497.19,-662.717 6432.03,-612 6399.7,-586.836 6408.03,-563.969 6408.03,-523 6408.03,-523 6408.03,-523 6408.03,-449 6408.03,-408.897 6404.01,-362.58 6401.07,-334.04"/>
<polygon fill="black" stroke="black" points="6404.54,-333.596 6400.01,-324.022 6397.58,-334.336 6404.54,-333.596"/>
</g>
<!-- 24&#45;&gt;12 -->
<g id="edge35" class="edge"><title>24&#45;&gt;12</title>
<path fill="none" stroke="black" d="M9702.53,-664.367C9100.33,-661.802 7084.59,-650.409 6797.03,-612 6637.51,-590.693 6446.03,-683.937 6446.03,-523 6446.03,-523 6446.03,-523 6446.03,-449 6446.03,-408.553 6441.28,-392.741 6465.03,-360 6483.74,-334.207 6505.93,-347.878 6527.03,-324 6561.58,-284.904 6530.53,-246.267 6573.03,-216 6622.36,-180.866 6990.13,-168.876 7195.43,-164.897"/>
<polygon fill="black" stroke="black" points="7195.76,-168.392 7205.69,-164.703 7195.62,-161.393 7195.76,-168.392"/>
</g>
<!-- 24&#45;&gt;15 -->
<g id="edge33" class="edge"><title>24&#45;&gt;15</title>
<path fill="none" stroke="black" d="M10038,-662.021C10293,-656.511 10759.5,-642.402 10830,-612 10851.4,-602.794 10846.9,-585.756 10868,-576 10936,-544.603 11147.4,-590.14 11203,-540 11233.1,-512.914 11222,-491.447 11222,-451 11222,-451 11222,-451 11222,-377 11222,-276.623 10913.4,-247.195 10728.5,-238.571"/>
<polygon fill="black" stroke="black" points="10728.6,-235.071 10718.4,-238.116 10728.3,-242.064 10728.6,-235.071"/>
</g>
<!-- 25 -->
<g id="node26" class="node"><title>25</title>
<ellipse fill="paleturquoise" stroke="paleturquoise" cx="6640.03" cy="-378" rx="165.547" ry="18"/>
<text text-anchor="middle" x="6640.03" y="-373.8" font-family="Times,serif" font-size="14.00">github.com/emicklei/go&#45;restful/swagger</text>
</g>
<!-- 24&#45;&gt;25 -->
<g id="edge17" class="edge"><title>24&#45;&gt;25</title>
<path fill="none" stroke="black" d="M9703.04,-663.803C9077.14,-659.148 6923.41,-641.048 6858.03,-612 6759.38,-568.168 6684.6,-456.056 6654.51,-405.013"/>
<polygon fill="black" stroke="black" points="6657.46,-403.121 6649.41,-396.224 6651.4,-406.631 6657.46,-403.121"/>
</g>
<!-- 26 -->
<g id="node27" class="node"><title>26</title>
<ellipse fill="paleturquoise" stroke="paleturquoise" cx="7302.03" cy="-594" rx="149.907" ry="18"/>
<text text-anchor="middle" x="7302.03" y="-589.8" font-family="Times,serif" font-size="14.00">github.com/google/cadvisor/info/v1</text>
</g>
<!-- 24&#45;&gt;26 -->
<g id="edge19" class="edge"><title>24&#45;&gt;26</title>
<path fill="none" stroke="black" d="M9703.85,-663.076C9232.06,-657.396 7902.17,-639.363 7466.03,-612 7449.82,-610.983 7432.75,-609.582 7415.98,-608.018"/>
<polygon fill="black" stroke="black" points="7415.88,-604.492 7405.59,-607.024 7415.21,-611.46 7415.88,-604.492"/>
</g>
<!-- 27 -->
<g id="node28" class="node"><title>27</title>
<ellipse fill="paleturquoise" stroke="paleturquoise" cx="10058" cy="-522" rx="136.656" ry="18"/>
<text text-anchor="middle" x="10058" y="-517.8" font-family="Times,serif" font-size="14.00">k8s.io/kubernetes/pkg/api/install</text>
</g>
<!-- 24&#45;&gt;27 -->
<g id="edge22" class="edge"><title>24&#45;&gt;27</title>
<path fill="none" stroke="black" d="M9894.47,-647.871C9927.79,-622.429 9990.45,-574.597 10027.8,-546.087"/>
<polygon fill="black" stroke="black" points="10030,-548.818 10035.8,-539.968 10025.7,-543.254 10030,-548.818"/>
</g>
<!-- 28 -->
<g id="node29" class="node"><title>28</title>
<ellipse fill="paleturquoise" stroke="paleturquoise" cx="10532" cy="-450" rx="133.705" ry="18"/>
<text text-anchor="middle" x="10532" y="-445.8" font-family="Times,serif" font-size="14.00">k8s.io/kubernetes/pkg/api/latest</text>
</g>
<!-- 24&#45;&gt;28 -->
<g id="edge23" class="edge"><title>24&#45;&gt;28</title>
<path fill="none" stroke="black" d="M10041.4,-664.305C10241.3,-661.683 10551.6,-651.245 10588,-612 10623.8,-573.455 10582.9,-510.818 10554.6,-476.127"/>
<polygon fill="black" stroke="black" points="10557.1,-473.757 10548,-468.35 10551.8,-478.259 10557.1,-473.757"/>
</g>
<!-- 24&#45;&gt;29 -->
<g id="edge24" class="edge"><title>24&#45;&gt;29</title>
<path fill="none" stroke="black" d="M10037.4,-661.72C10264.9,-656.118 10653,-642.243 10711,-612 10765.4,-583.627 10743.3,-533.605 10797,-504 10861.6,-468.408 11077.8,-522.918 11127,-468 11174.8,-414.72 11077,-372.951 11051,-360 10995.7,-332.432 10928.8,-318.8 10870.8,-312.205"/>
<polygon fill="black" stroke="black" points="10871.2,-308.722 10860.8,-311.13 10870.4,-315.682 10871.2,-308.722"/>
</g>
<!-- 30 -->
<g id="node31" class="node"><title>30</title>
<ellipse fill="paleturquoise" stroke="paleturquoise" cx="7119.03" cy="-450" rx="151.689" ry="18"/>
<text text-anchor="middle" x="7119.03" y="-445.8" font-family="Times,serif" font-size="14.00">k8s.io/kubernetes/pkg/api/validation</text>
</g>
<!-- 24&#45;&gt;30 -->
<g id="edge26" class="edge"><title>24&#45;&gt;30</title>
<path fill="none" stroke="black" d="M9702.47,-664.598C9418.04,-662.709 8827.02,-653.583 8329.03,-612 7911.07,-577.1 7416.18,-499.939 7213.1,-466.717"/>
<polygon fill="black" stroke="black" points="7213.51,-463.236 7203.07,-465.072 7212.37,-470.144 7213.51,-463.236"/>
</g>
<!-- 31 -->
<g id="node32" class="node"><title>31</title>
<ellipse fill="paleturquoise" stroke="paleturquoise" cx="7780.03" cy="-450" rx="157.988" ry="18"/>
<text text-anchor="middle" x="7780.03" y="-445.8" font-family="Times,serif" font-size="14.00">k8s.io/kubernetes/pkg/apis/extensions</text>
</g>
<!-- 24&#45;&gt;31 -->
<g id="edge27" class="edge"><title>24&#45;&gt;31</title>
<path fill="none" stroke="black" d="M9702.29,-664.705C9384.18,-661.588 8677.6,-642.509 8093.03,-540 8000.99,-523.861 7897.22,-491.424 7835.31,-470.487"/>
<polygon fill="black" stroke="black" points="7836.33,-467.138 7825.74,-467.229 7834.07,-473.765 7836.33,-467.138"/>
</g>
<!-- 32 -->
<g id="node33" class="node"><title>32</title>
<ellipse fill="paleturquoise" stroke="paleturquoise" cx="9510.03" cy="-594" rx="184.066" ry="18"/>
<text text-anchor="middle" x="9510.03" y="-589.8" font-family="Times,serif" font-size="14.00">k8s.io/kubernetes/pkg/apis/extensions/install</text>
</g>
<!-- 24&#45;&gt;32 -->
<g id="edge28" class="edge"><title>24&#45;&gt;32</title>
<path fill="none" stroke="black" d="M9794.37,-649.983C9737.01,-638.891 9658.81,-623.77 9598.94,-612.193"/>
<polygon fill="black" stroke="black" points="9599.6,-608.756 9589.12,-610.294 9598.28,-615.629 9599.6,-608.756"/>
</g>
<!-- 33 -->
<g id="node34" class="node"><title>33</title>
<ellipse fill="paleturquoise" stroke="paleturquoise" cx="11000" cy="-522" rx="193.83" ry="18"/>
<text text-anchor="middle" x="11000" y="-517.8" font-family="Times,serif" font-size="14.00">k8s.io/kubernetes/pkg/conversion/queryparams</text>
</g>
<!-- 24&#45;&gt;33 -->
<g id="edge30" class="edge"><title>24&#45;&gt;33</title>
<path fill="none" stroke="black" d="M10034.8,-660.727C10280,-653.517 10723.1,-637.211 10792,-612 10817.1,-602.843 10816.4,-588.354 10840,-576 10866.9,-561.933 10898.3,-550.562 10926.1,-542.013"/>
<polygon fill="black" stroke="black" points="10927.2,-545.336 10935.8,-539.107 10925.2,-538.632 10927.2,-545.336"/>
</g>
<!-- 24&#45;&gt;34 -->
<g id="edge32" class="edge"><title>24&#45;&gt;34</title>
<path fill="none" stroke="black" d="M9702.32,-664.637C9145.27,-663.04 7393.92,-654.645 7143.03,-612 7018.05,-590.756 6872.03,-649.773 6872.03,-523 6872.03,-523 6872.03,-523 6872.03,-449 6872.03,-365.756 6968.99,-331.295 7051.35,-317.038"/>
<polygon fill="black" stroke="black" points="7052.02,-320.476 7061.32,-315.398 7050.88,-313.569 7052.02,-320.476"/>
</g>
<!-- 24&#45;&gt;35 -->
<g id="edge34" class="edge"><title>24&#45;&gt;35</title>
<path fill="none" stroke="black" d="M9984.75,-652.515C10093.1,-633.571 10249.5,-586.157 10313,-468 10336.3,-424.697 10327.8,-390.198 10289,-360 10265.7,-341.807 9883.57,-321.535 9686.16,-312.21"/>
<polygon fill="black" stroke="black" points="9686.19,-308.707 9676.03,-311.733 9685.86,-315.699 9686.19,-308.707"/>
</g>
<!-- 36 -->
<g id="node37" class="node"><title>36</title>
<ellipse fill="paleturquoise" stroke="paleturquoise" cx="10448" cy="-594" rx="130.857" ry="18"/>
<text text-anchor="middle" x="10448" y="-589.8" font-family="Times,serif" font-size="14.00">k8s.io/kubernetes/pkg/util/wait</text>
</g>
<!-- 24&#45;&gt;36 -->
<g id="edge36" class="edge"><title>24&#45;&gt;36</title>
<path fill="none" stroke="black" d="M9979.02,-651.998C10083.1,-639.351 10240.2,-620.262 10343.4,-607.715"/>
<polygon fill="black" stroke="black" points="10344,-611.164 10353.5,-606.483 10343.2,-604.215 10344,-611.164"/>
</g>
<!-- 37 -->
<g id="node38" class="node"><title>37</title>
<ellipse fill="paleturquoise" stroke="paleturquoise" cx="11451" cy="-594" rx="127.332" ry="18"/>
<text text-anchor="middle" x="11451" y="-589.8" font-family="Times,serif" font-size="14.00">k8s.io/kubernetes/pkg/version</text>
</g>
<!-- 24&#45;&gt;37 -->
<g id="edge37" class="edge"><title>24&#45;&gt;37</title>
<path fill="none" stroke="black" d="M10031.4,-659.681C10277.8,-651.201 10766,-633.374 11180,-612 11228.7,-609.487 11282.3,-606.23 11328.9,-603.241"/>
<polygon fill="black" stroke="black" points="11329.2,-606.724 11339,-602.587 11328.8,-599.738 11329.2,-606.724"/>
</g>
<!-- 38 -->
<g id="node39" class="node"><title>38</title>
<ellipse fill="paleturquoise" stroke="paleturquoise" cx="10920" cy="-378" rx="121.594" ry="18"/>
<text text-anchor="middle" x="10920" y="-373.8" font-family="Times,serif" font-size="14.00">k8s.io/kubernetes/pkg/watch</text>
</g>
<!-- 24&#45;&gt;38 -->
<g id="edge38" class="edge"><title>24&#45;&gt;38</title>
<path fill="none" stroke="black" d="M10006.3,-654.888C10101.4,-646.229 10219.8,-631.976 10265,-612 10287.8,-601.938 10285.9,-587.546 10308,-576 10469.7,-491.494 10531.4,-526.864 10704,-468 10764.2,-447.499 10831.6,-418.762 10874.9,-399.545"/>
<polygon fill="black" stroke="black" points="10876.5,-402.627 10884.2,-395.356 10873.7,-396.234 10876.5,-402.627"/>
</g>
<!-- 39 -->
<g id="node40" class="node"><title>39</title>
<ellipse fill="paleturquoise" stroke="paleturquoise" cx="10977" cy="-450" rx="140.653" ry="18"/>
<text text-anchor="middle" x="10977" y="-445.8" font-family="Times,serif" font-size="14.00">k8s.io/kubernetes/pkg/watch/json</text>
</g>
<!-- 24&#45;&gt;39 -->
<g id="edge39" class="edge"><title>24&#45;&gt;39</title>
<path fill="none" stroke="black" d="M10036.4,-661.268C10255.7,-655.21 10622.8,-640.886 10678,-612 10732.4,-583.557 10712.4,-537.168 10764,-504 10794.1,-484.689 10830.7,-472.415 10865,-464.612"/>
<polygon fill="black" stroke="black" points="10866.1,-467.964 10875.1,-462.43 10864.6,-461.123 10866.1,-467.964"/>
</g>
<!-- 25&#45;&gt;18 -->
<g id="edge122" class="edge"><title>25&#45;&gt;18</title>
<path fill="none" stroke="black" d="M6623.55,-359.984C6607.56,-341.339 6587.79,-311.021 6603.03,-288 6613.3,-272.495 6629.11,-261.514 6646.07,-253.739"/>
<polygon fill="black" stroke="black" points="6647.72,-256.842 6655.58,-249.742 6645.01,-250.389 6647.72,-256.842"/>
</g>
<!-- 70 -->
<g id="node71" class="node"><title>70</title>
<ellipse fill="paleturquoise" stroke="paleturquoise" cx="6743.03" cy="-306" rx="130.836" ry="18"/>
<text text-anchor="middle" x="6743.03" y="-301.8" font-family="Times,serif" font-size="14.00">github.com/emicklei/go&#45;restful</text>
</g>
<!-- 25&#45;&gt;70 -->
<g id="edge121" class="edge"><title>25&#45;&gt;70</title>
<path fill="none" stroke="black" d="M6664.96,-360.055C6678.5,-350.855 6695.41,-339.363 6710.03,-329.429"/>
<polygon fill="black" stroke="black" points="6712.02,-332.305 6718.33,-323.789 6708.09,-326.515 6712.02,-332.305"/>
</g>
<!-- 27&#45;&gt;6 -->
<g id="edge43" class="edge"><title>27&#45;&gt;6</title>
<path fill="none" stroke="black" d="M10036,-504.033C9998.24,-472.99 9928.99,-406.018 9969.03,-360 10045,-272.659 10151,-411.341 10227,-324 10238.1,-311.313 10236.4,-239.143 10222,-216 10188.6,-162.173 10159.8,-161.998 10099,-144 9934.37,-95.2038 9497.95,-124.797 9327.03,-108 9317.11,-107.025 9306.73,-105.778 9296.45,-104.403"/>
<polygon fill="black" stroke="black" points="9296.62,-100.892 9286.23,-102.99 9295.66,-107.826 9296.62,-100.892"/>
</g>
<!-- 27&#45;&gt;7 -->
<g id="edge44" class="edge"><title>27&#45;&gt;7</title>
<path fill="none" stroke="black" d="M9937.99,-513.321C9799.35,-504.11 9564.48,-487.453 9363.03,-468 9122.05,-444.729 8839.06,-409.561 8695.61,-391.175"/>
<polygon fill="black" stroke="black" points="8695.89,-387.683 8685.52,-389.881 8695,-394.626 8695.89,-387.683"/>
</g>
<!-- 27&#45;&gt;12 -->
<g id="edge52" class="edge"><title>27&#45;&gt;12</title>
<path fill="none" stroke="black" d="M9985.39,-506.68C9960.57,-498.756 9934.26,-486.586 9915.03,-468 9854.5,-409.488 9799.65,-350.526 9856.03,-288 9907.94,-230.423 10151.1,-309.577 10203,-252 10213.7,-240.117 10214.3,-227.388 10203,-216 10176.4,-188.991 7508.89,-182.574 7471.03,-180 7457.98,-179.113 7444.27,-177.84 7430.77,-176.383"/>
<polygon fill="black" stroke="black" points="7430.82,-172.868 7420.5,-175.238 7430.05,-179.825 7430.82,-172.868"/>
</g>
<!-- 27&#45;&gt;15 -->
<g id="edge51" class="edge"><title>27&#45;&gt;15</title>
<path fill="none" stroke="black" d="M10145.6,-508.102C10195.4,-499.449 10258.6,-486.263 10313,-468 10348.5,-456.113 10355.1,-447.67 10389,-432 10424.4,-415.654 10438.4,-420.172 10469,-396 10517.6,-357.614 10557.9,-296.193 10578.4,-261.361"/>
<polygon fill="black" stroke="black" points="10581.6,-262.691 10583.6,-252.282 10575.6,-259.186 10581.6,-262.691"/>
</g>
<!-- 27&#45;&gt;28 -->
<g id="edge45" class="edge"><title>27&#45;&gt;28</title>
<path fill="none" stroke="black" d="M10145.2,-508.12C10227.4,-495.985 10350.3,-477.837 10435.4,-465.268"/>
<polygon fill="black" stroke="black" points="10436,-468.725 10445.3,-463.801 10434.9,-461.8 10436,-468.725"/>
</g>
<!-- 27&#45;&gt;29 -->
<g id="edge46" class="edge"><title>27&#45;&gt;29</title>
<path fill="none" stroke="black" d="M10190.1,-517.124C10359.9,-511.005 10637.4,-496.727 10675,-468 10717,-435.916 10729.1,-370.935 10732.6,-334.092"/>
<polygon fill="black" stroke="black" points="10736.1,-334.31 10733.4,-324.063 10729.1,-333.752 10736.1,-334.31"/>
</g>
<!-- 44 -->
<g id="node45" class="node"><title>44</title>
<ellipse fill="paleturquoise" stroke="paleturquoise" cx="10129" cy="-378" rx="151.084" ry="18"/>
<text text-anchor="middle" x="10129" y="-373.8" font-family="Times,serif" font-size="14.00">k8s.io/kubernetes/pkg/api/registered</text>
</g>
<!-- 27&#45;&gt;44 -->
<g id="edge47" class="edge"><title>27&#45;&gt;44</title>
<path fill="none" stroke="black" d="M10036.4,-503.907C10016.1,-485.717 9991.11,-456.273 10007,-432 10017.1,-416.685 10032.6,-405.772 10049.3,-398.004"/>
<polygon fill="black" stroke="black" points="10050.8,-401.158 10058.6,-394.004 10048,-394.723 10050.8,-401.158"/>
</g>
<!-- 45 -->
<g id="node46" class="node"><title>45</title>
<ellipse fill="paleturquoise" stroke="paleturquoise" cx="10092" cy="-306" rx="126.204" ry="18"/>
<text text-anchor="middle" x="10092" y="-301.8" font-family="Times,serif" font-size="14.00">k8s.io/kubernetes/pkg/api/util</text>
</g>
<!-- 27&#45;&gt;45 -->
<g id="edge48" class="edge"><title>27&#45;&gt;45</title>
<path fill="none" stroke="black" d="M9988.56,-506.37C9968.17,-498.499 9948.12,-486.441 9936.03,-468 9909.7,-427.863 9908.08,-399.02 9936.03,-360 9949.16,-341.669 9969,-329.602 9990.17,-321.679"/>
<polygon fill="black" stroke="black" points="9991.31,-324.986 9999.63,-318.427 9989.04,-318.366 9991.31,-324.986"/>
</g>
<!-- 46 -->
<g id="node47" class="node"><title>46</title>
<ellipse fill="paleturquoise" stroke="paleturquoise" cx="9495.03" cy="-450" rx="122.759" ry="18"/>
<text text-anchor="middle" x="9495.03" y="-445.8" font-family="Times,serif" font-size="14.00">k8s.io/kubernetes/pkg/api/v1</text>
</g>
<!-- 27&#45;&gt;46 -->
<g id="edge49" class="edge"><title>27&#45;&gt;46</title>
<path fill="none" stroke="black" d="M9962.21,-509.086C9860.14,-496.395 9699.28,-476.395 9595.48,-463.489"/>
<polygon fill="black" stroke="black" points="9595.66,-459.984 9585.3,-462.224 9594.79,-466.931 9595.66,-459.984"/>
</g>
<!-- 47 -->
<g id="node48" class="node"><title>47</title>
<ellipse fill="paleturquoise" stroke="paleturquoise" cx="10160" cy="-450" rx="143.587" ry="18"/>
<text text-anchor="middle" x="10160" y="-445.8" font-family="Times,serif" font-size="14.00">k8s.io/kubernetes/pkg/api/v1beta3</text>
</g>
<!-- 27&#45;&gt;47 -->
<g id="edge50" class="edge"><title>27&#45;&gt;47</title>
<path fill="none" stroke="black" d="M10082.5,-504.233C10095.9,-495.037 10112.7,-483.51 10127.2,-473.536"/>
<polygon fill="black" stroke="black" points="10129.2,-476.417 10135.4,-467.873 10125.2,-470.645 10129.2,-476.417"/>
</g>
<!-- 28&#45;&gt;15 -->
<g id="edge168" class="edge"><title>28&#45;&gt;15</title>
<path fill="none" stroke="black" d="M10538.2,-431.907C10541.8,-421.568 10546.4,-408.09 10550,-396 10564.2,-349.233 10578.4,-294.092 10586.4,-261.986"/>
<polygon fill="black" stroke="black" points="10589.9,-262.575 10588.9,-252.026 10583.1,-260.888 10589.9,-262.575"/>
</g>
<!-- 28&#45;&gt;29 -->
<g id="edge166" class="edge"><title>28&#45;&gt;29</title>
<path fill="none" stroke="black" d="M10556,-432.153C10592.3,-406.639 10661.3,-358.154 10701.9,-329.6"/>
<polygon fill="black" stroke="black" points="10703.9,-332.439 10710.1,-323.825 10699.9,-326.713 10703.9,-332.439"/>
</g>
<!-- 28&#45;&gt;44 -->
<g id="edge167" class="edge"><title>28&#45;&gt;44</title>
<path fill="none" stroke="black" d="M10453.4,-435.337C10386.7,-423.752 10290.9,-407.123 10220.8,-394.934"/>
<polygon fill="black" stroke="black" points="10221.1,-391.432 10210.6,-393.169 10219.9,-398.328 10221.1,-391.432"/>
</g>
<!-- 29&#45;&gt;10 -->
<g id="edge179" class="edge"><title>29&#45;&gt;10</title>
<path fill="none" stroke="black" d="M10739.4,-288.014C10744.6,-267.944 10749.3,-234.897 10731,-216 10709.2,-193.461 10313.6,-175.906 10093.6,-167.84"/>
<polygon fill="black" stroke="black" points="10093.7,-164.342 10083.6,-167.475 10093.4,-171.337 10093.7,-164.342"/>
</g>
<!-- 29&#45;&gt;15 -->
<g id="edge180" class="edge"><title>29&#45;&gt;15</title>
<path fill="none" stroke="black" d="M10700.6,-288.411C10681,-278.691 10656.1,-266.322 10635.2,-255.936"/>
<polygon fill="black" stroke="black" points="10636.7,-252.782 10626.2,-251.47 10633.6,-259.052 10636.7,-252.782"/>
</g>
<!-- 29&#45;&gt;49 -->
<g id="edge181" class="edge"><title>29&#45;&gt;49</title>
<path fill="none" stroke="black" d="M10633.2,-294.292C10510.5,-281.254 10304.2,-259.341 10179.7,-246.12"/>
<polygon fill="black" stroke="black" points="10179.7,-242.601 10169.4,-245.026 10179,-249.562 10179.7,-242.601"/>
</g>
<!-- 30&#45;&gt;6 -->
<g id="edge64" class="edge"><title>30&#45;&gt;6</title>
<path fill="none" stroke="black" d="M7050.82,-433.804C7025.87,-425.71 6998.72,-413.653 6978.03,-396 6915.83,-342.931 6889.34,-280.158 6940.03,-216 7013.03,-123.593 7078.6,-161.682 7195.03,-144 7383.1,-115.438 8703.08,-97.2153 9100.85,-92.3265"/>
<polygon fill="black" stroke="black" points="9100.97,-95.8253 9110.93,-92.203 9100.89,-88.8259 9100.97,-95.8253"/>
</g>
<!-- 30&#45;&gt;7 -->
<g id="edge65" class="edge"><title>30&#45;&gt;7</title>
<path fill="none" stroke="black" d="M7257.21,-442.477C7547.93,-428.755 8218.07,-397.123 8487.14,-384.423"/>
<polygon fill="black" stroke="black" points="8487.5,-387.91 8497.32,-383.942 8487.17,-380.918 8487.5,-387.91"/>
</g>
<!-- 30&#45;&gt;12 -->
<g id="edge73" class="edge"><title>30&#45;&gt;12</title>
<path fill="none" stroke="black" d="M7078.6,-432.467C7059.35,-423.42 7036.72,-410.988 7019.03,-396 6955.21,-341.924 6909.25,-279.215 6964.03,-216 6993.9,-181.528 7102.76,-168.949 7194.56,-164.606"/>
<polygon fill="black" stroke="black" points="7194.98,-168.091 7204.81,-164.151 7194.67,-161.098 7194.98,-168.091"/>
</g>
<!-- 30&#45;&gt;16 -->
<g id="edge71" class="edge"><title>30&#45;&gt;16</title>
<path fill="none" stroke="black" d="M7264.78,-444.871C7345.79,-439.161 7435.32,-425.997 7461.03,-396 7471.44,-383.851 7468.86,-373.952 7461.03,-360 7445.99,-333.213 7417.06,-350.787 7402.03,-324 7377.46,-280.232 7397.04,-248.8 7435.03,-216 7456.44,-197.516 7483.99,-185.469 7511.14,-177.621"/>
<polygon fill="black" stroke="black" points="7512.38,-180.912 7521.11,-174.916 7510.54,-174.156 7512.38,-180.912"/>
</g>
<!-- 30&#45;&gt;17 -->
<g id="edge72" class="edge"><title>30&#45;&gt;17</title>
<path fill="none" stroke="black" d="M7109.83,-431.837C7100.72,-412.208 7090.34,-380.188 7107.03,-360 7161.23,-294.431 7212.75,-345.614 7295.03,-324 7343.56,-311.253 7354,-302.525 7402.03,-288 7443.26,-275.53 7489.79,-262.945 7527.26,-253.17"/>
<polygon fill="black" stroke="black" points="7528.29,-256.52 7537.08,-250.618 7526.53,-249.745 7528.29,-256.52"/>
</g>
<!-- 30&#45;&gt;25 -->
<g id="edge63" class="edge"><title>30&#45;&gt;25</title>
<path fill="none" stroke="black" d="M7027.52,-435.627C6946.76,-423.825 6829.08,-406.627 6744.62,-394.284"/>
<polygon fill="black" stroke="black" points="6744.89,-390.786 6734.49,-392.804 6743.87,-397.713 6744.89,-390.786"/>
</g>
<!-- 30&#45;&gt;34 -->
<g id="edge69" class="edge"><title>30&#45;&gt;34</title>
<path fill="none" stroke="black" d="M7084.61,-432.408C7070.57,-423.685 7055.82,-411.538 7048.03,-396 7040.86,-381.697 7039.36,-373.447 7048.03,-360 7058.18,-344.266 7074.25,-333.152 7091.27,-325.32"/>
<polygon fill="black" stroke="black" points="7092.95,-328.413 7100.8,-321.298 7090.22,-321.964 7092.95,-328.413"/>
</g>
<!-- 30&#45;&gt;35 -->
<g id="edge70" class="edge"><title>30&#45;&gt;35</title>
<path fill="none" stroke="black" d="M7261.42,-443.7C7360.11,-440.124 7494.55,-435.448 7613.03,-432 7949.2,-422.216 8794.13,-450.363 9126.03,-396 9179.3,-387.274 9189.48,-372.336 9242.03,-360 9319.35,-341.851 9408.37,-327.893 9474.15,-318.868"/>
<polygon fill="black" stroke="black" points="9474.65,-322.332 9484.09,-317.518 9473.71,-315.396 9474.65,-322.332"/>
</g>
<!-- 30&#45;&gt;40 -->
<g id="edge75" class="edge"><title>30&#45;&gt;40</title>
<path fill="none" stroke="black" d="M7245.39,-439.904C7332.62,-431.85 7439.71,-417.91 7479.03,-396 7533.86,-365.446 7515.79,-319.596 7570.03,-288 7645.43,-244.076 7680.39,-280.014 7763.03,-252 7796.54,-240.641 7799.76,-224.797 7834.03,-216 7971.85,-180.619 8917.6,-167.864 9282.15,-164.228"/>
<polygon fill="black" stroke="black" points="9282.28,-167.727 9292.24,-164.129 9282.21,-160.728 9282.28,-167.727"/>
</g>
<!-- 43 -->
<g id="node44" class="node"><title>43</title>
<ellipse fill="paleturquoise" stroke="paleturquoise" cx="7159.03" cy="-234" rx="152.85" ry="18"/>
<text text-anchor="middle" x="7159.03" y="-229.8" font-family="Times,serif" font-size="14.00">k8s.io/kubernetes/pkg/util/validation</text>
</g>
<!-- 30&#45;&gt;43 -->
<g id="edge74" class="edge"><title>30&#45;&gt;43</title>
<path fill="none" stroke="black" d="M7079.54,-432.46C7064.2,-423.92 7048.14,-411.899 7039.03,-396 7015.14,-354.33 7008.57,-328.087 7035.03,-288 7045.15,-272.668 7060.72,-261.756 7077.44,-253.994"/>
<polygon fill="black" stroke="black" points="7078.99,-257.137 7086.82,-249.998 7076.25,-250.696 7078.99,-257.137"/>
</g>
<!-- 30&#45;&gt;45 -->
<g id="edge67" class="edge"><title>30&#45;&gt;45</title>
<path fill="none" stroke="black" d="M7120.87,-431.74C7124.13,-410.738 7133.03,-376.095 7157.03,-360 7215.5,-320.792 9620.66,-325.991 9691.03,-324 9782.52,-321.411 9885.69,-317.004 9964.48,-313.325"/>
<polygon fill="black" stroke="black" points="9965.11,-316.799 9974.94,-312.834 9964.78,-309.807 9965.11,-316.799"/>
</g>
<!-- 30&#45;&gt;48 -->
<g id="edge66" class="edge"><title>30&#45;&gt;48</title>
<path fill="none" stroke="black" d="M7114.12,-431.991C7109.48,-411.898 7105.66,-378.83 7124.03,-360 7141.68,-341.907 7448.5,-323.498 7636.2,-313.859"/>
<polygon fill="black" stroke="black" points="7636.62,-317.341 7646.43,-313.335 7636.27,-310.35 7636.62,-317.341"/>
</g>
<!-- 51 -->
<g id="node52" class="node"><title>51</title>
<ellipse fill="paleturquoise" stroke="paleturquoise" cx="7309.03" cy="-378" rx="142.936" ry="18"/>
<text text-anchor="middle" x="7309.03" y="-373.8" font-family="Times,serif" font-size="14.00">k8s.io/kubernetes/pkg/capabilities</text>
</g>
<!-- 30&#45;&gt;51 -->
<g id="edge68" class="edge"><title>30&#45;&gt;51</title>
<path fill="none" stroke="black" d="M7163.1,-432.765C7190.67,-422.605 7226.38,-409.449 7255.57,-398.695"/>
<polygon fill="black" stroke="black" points="7257.03,-401.889 7265.2,-395.147 7254.61,-395.32 7257.03,-401.889"/>
</g>
<!-- 31&#45;&gt;7 -->
<g id="edge105" class="edge"><title>31&#45;&gt;7</title>
<path fill="none" stroke="black" d="M7902.2,-438.596C8063.2,-424.886 8343.75,-400.995 8496.16,-388.016"/>
<polygon fill="black" stroke="black" points="8496.79,-391.475 8506.46,-387.139 8496.2,-384.5 8496.79,-391.475"/>
</g>
<!-- 31&#45;&gt;9 -->
<g id="edge107" class="edge"><title>31&#45;&gt;9</title>
<path fill="none" stroke="black" d="M7938.02,-449.746C8270.67,-450.313 9021.36,-445.952 9126.03,-396 9154.1,-382.605 9176.24,-353.933 9189.66,-332.734"/>
<polygon fill="black" stroke="black" points="9192.66,-334.535 9194.86,-324.172 9186.68,-330.898 9192.66,-334.535"/>
</g>
<!-- 31&#45;&gt;10 -->
<g id="edge108" class="edge"><title>31&#45;&gt;10</title>
<path fill="none" stroke="black" d="M7761.01,-431.911C7735.54,-409.256 7691.44,-370.873 7673.03,-360 7635.22,-337.674 7605.78,-360.266 7581.03,-324 7572.01,-310.785 7570.54,-300.084 7581.03,-288 7618.25,-245.109 7782.16,-275.114 7834.03,-252 7856.8,-241.855 7853.7,-224.761 7877.03,-216 7965,-182.973 9474.11,-183.094 9568.03,-180 9648.3,-177.355 9738.03,-173.4 9810.25,-169.97"/>
<polygon fill="black" stroke="black" points="9810.5,-173.463 9820.32,-169.49 9810.16,-166.471 9810.5,-173.463"/>
</g>
<!-- 31&#45;&gt;12 -->
<g id="edge111" class="edge"><title>31&#45;&gt;12</title>
<path fill="none" stroke="black" d="M7752.53,-432.18C7715.41,-409.642 7651.05,-371.179 7626.03,-360 7579.06,-339.017 7560.7,-349.511 7516.03,-324 7450.37,-286.503 7387.22,-222.919 7355.06,-187.929"/>
<polygon fill="black" stroke="black" points="7357.25,-185.139 7347.94,-180.094 7352.07,-189.848 7357.25,-185.139"/>
</g>
<!-- 31&#45;&gt;34 -->
<g id="edge109" class="edge"><title>31&#45;&gt;34</title>
<path fill="none" stroke="black" d="M7741.55,-432.537C7682.15,-407.145 7574.45,-361.201 7570.03,-360 7476.52,-334.574 7367.44,-321.19 7286.05,-314.238"/>
<polygon fill="black" stroke="black" points="7286.02,-310.724 7275.77,-313.381 7285.44,-317.699 7286.02,-310.724"/>
</g>
<!-- 31&#45;&gt;35 -->
<g id="edge110" class="edge"><title>31&#45;&gt;35</title>
<path fill="none" stroke="black" d="M7936.86,-447.842C8260.86,-444.707 8994.45,-433.57 9242.03,-396 9340.52,-381.054 9451.76,-347.112 9516.1,-325.73"/>
<polygon fill="black" stroke="black" points="9517.26,-329.034 9525.63,-322.541 9515.03,-322.396 9517.26,-329.034"/>
</g>
<!-- 31&#45;&gt;48 -->
<g id="edge106" class="edge"><title>31&#45;&gt;48</title>
<path fill="none" stroke="black" d="M7780.03,-431.871C7780.03,-407.67 7780.03,-363.211 7780.03,-334.393"/>
<polygon fill="black" stroke="black" points="7783.53,-334.189 7780.03,-324.189 7776.53,-334.189 7783.53,-334.189"/>
</g>
<!-- 31&#45;&gt;50 -->
<g id="edge112" class="edge"><title>31&#45;&gt;50</title>
<path fill="none" stroke="black" d="M7773.36,-431.885C7764.61,-411.686 7747.33,-378.514 7722.03,-360 7673.65,-324.597 7628.33,-371.715 7592.03,-324 7582.34,-311.266 7581.44,-299.996 7592.03,-288 7593.35,-286.498 7786.48,-262.773 7911.29,-247.579"/>
<polygon fill="black" stroke="black" points="7911.77,-251.047 7921.27,-246.364 7910.92,-244.098 7911.77,-251.047"/>
</g>
<!-- 32&#45;&gt;6 -->
<g id="edge186" class="edge"><title>32&#45;&gt;6</title>
<path fill="none" stroke="black" d="M9326.08,-593.287C8874.83,-592.264 7740.47,-578.598 7613.03,-468 7562.58,-424.222 7579.69,-390.091 7570.03,-324 7567.72,-308.168 7559.81,-300.307 7570.03,-288 7625.79,-220.881 7680.73,-280.995 7763.03,-252 7794.91,-240.767 7798.65,-228.573 7830.03,-216 7941.73,-171.242 7972.2,-162.953 8091.03,-144 8283.07,-113.371 8856.53,-98.3128 9101.29,-93.1426"/>
<polygon fill="black" stroke="black" points="9101.71,-96.6348 9111.64,-92.9259 9101.56,-89.6363 9101.71,-96.6348"/>
</g>
<!-- 32&#45;&gt;7 -->
<g id="edge187" class="edge"><title>32&#45;&gt;7</title>
<path fill="none" stroke="black" d="M9348.8,-585.282C9254.58,-578.289 9133.93,-565.034 9029.03,-540 8940.38,-518.845 8922.31,-500.139 8837.03,-468 8773.63,-444.107 8700.67,-416.45 8653.08,-398.388"/>
<polygon fill="black" stroke="black" points="8654.21,-395.073 8643.62,-394.796 8651.72,-401.617 8654.21,-395.073"/>
</g>
<!-- 32&#45;&gt;12 -->
<g id="edge195" class="edge"><title>32&#45;&gt;12</title>
<path fill="none" stroke="black" d="M9330,-590.246C8857.92,-582.74 7617.96,-561.071 7580.03,-540 7538.11,-516.715 7502.27,-384.467 7461.03,-360 7379.32,-311.524 7114.25,-376.441 7035.03,-324 7004.86,-304.027 7005.73,-287.122 6997.03,-252 6993.18,-236.469 6986.63,-228.163 6997.03,-216 7011.59,-198.962 7127.04,-183.494 7218.6,-173.725"/>
<polygon fill="black" stroke="black" points="7219.21,-177.18 7228.79,-172.65 7218.48,-170.218 7219.21,-177.18"/>
</g>
<!-- 32&#45;&gt;15 -->
<g id="edge194" class="edge"><title>32&#45;&gt;15</title>
<path fill="none" stroke="black" d="M9535.16,-576.16C9597.94,-534.032 9766.64,-420.527 9906.03,-324 9928.84,-308.204 9930.96,-297.485 9957.03,-288 10003.4,-271.125 10293.4,-252.062 10465.4,-242.034"/>
<polygon fill="black" stroke="black" points="10465.7,-245.52 10475.5,-241.446 10465.3,-238.531 10465.7,-245.52"/>
</g>
<!-- 32&#45;&gt;28 -->
<g id="edge188" class="edge"><title>32&#45;&gt;28</title>
<path fill="none" stroke="black" d="M9686.21,-588.715C9827.17,-583.088 10029.4,-570.079 10204,-540 10300.7,-523.35 10410.1,-490.802 10475,-470.019"/>
<polygon fill="black" stroke="black" points="10476.1,-473.314 10484.6,-466.915 10474,-466.652 10476.1,-473.314"/>
</g>
<!-- 32&#45;&gt;29 -->
<g id="edge189" class="edge"><title>32&#45;&gt;29</title>
<path fill="none" stroke="black" d="M9612.23,-579.01C9652.73,-570.998 9698.88,-558.681 9738.03,-540 9855.5,-483.953 9847.47,-406.527 9969.03,-360 10026.1,-338.165 10394.5,-320.398 10598.5,-312.088"/>
<polygon fill="black" stroke="black" points="10598.9,-315.577 10608.7,-311.675 10598.6,-308.583 10598.9,-315.577"/>
</g>
<!-- 32&#45;&gt;31 -->
<g id="edge192" class="edge"><title>32&#45;&gt;31</title>
<path fill="none" stroke="black" d="M9329.93,-590.292C9105.39,-585.608 8710.07,-573.06 8373.03,-540 8193.58,-522.398 7985.51,-487.874 7869.68,-467.384"/>
<polygon fill="black" stroke="black" points="7870.25,-463.93 7859.8,-465.629 7869.03,-470.822 7870.25,-463.93"/>
</g>
<!-- 32&#45;&gt;44 -->
<g id="edge190" class="edge"><title>32&#45;&gt;44</title>
<path fill="none" stroke="black" d="M9665.72,-584.374C9725.1,-577.096 9792.35,-563.88 9850.03,-540 9925.27,-508.852 9926.86,-471.569 9998.03,-432 10021.2,-419.112 10048.2,-407.658 10071.6,-398.724"/>
<polygon fill="black" stroke="black" points="10072.9,-401.966 10081,-395.178 10070.5,-395.412 10072.9,-401.966"/>
</g>
<!-- 32&#45;&gt;45 -->
<g id="edge191" class="edge"><title>32&#45;&gt;45</title>
<path fill="none" stroke="black" d="M9593.11,-577.919C9626.96,-569.686 9665.66,-557.5 9698.03,-540 9807.95,-480.565 9803,-417.342 9914.03,-360 9944.93,-344.044 9981.38,-332.126 10013.2,-323.675"/>
<polygon fill="black" stroke="black" points="10014.1,-327.053 10022.9,-321.163 10012.4,-320.276 10014.1,-327.053"/>
</g>
<!-- 72 -->
<g id="node73" class="node"><title>72</title>
<ellipse fill="paleturquoise" stroke="paleturquoise" cx="9229.03" cy="-522" rx="190.997" ry="18"/>
<text text-anchor="middle" x="9229.03" y="-517.8" font-family="Times,serif" font-size="14.00">k8s.io/kubernetes/pkg/apis/extensions/v1beta1</text>
</g>
<!-- 32&#45;&gt;72 -->
<g id="edge193" class="edge"><title>32&#45;&gt;72</title>
<path fill="none" stroke="black" d="M9445.91,-577.028C9403.45,-566.449 9347.6,-552.538 9303.22,-541.481"/>
<polygon fill="black" stroke="black" points="9303.9,-538.045 9293.35,-539.024 9302.21,-544.838 9303.9,-538.045"/>
</g>
<!-- 33&#45;&gt;15 -->
<g id="edge78" class="edge"><title>33&#45;&gt;15</title>
<path fill="none" stroke="black" d="M11104.7,-506.752C11126.3,-498.807 11146.6,-486.622 11160,-468 11169.4,-455.029 11167,-446.384 11160,-432 11113.8,-337.066 11068.7,-328.043 10971,-288 10895,-256.861 10804,-243.45 10730.4,-237.9"/>
<polygon fill="black" stroke="black" points="10730.3,-234.388 10720.1,-237.168 10729.8,-241.37 10730.3,-234.388"/>
</g>
<!-- 34&#45;&gt;12 -->
<g id="edge184" class="edge"><title>34&#45;&gt;12</title>
<path fill="none" stroke="black" d="M7252.03,-293.374C7277.83,-285.688 7303.76,-272.981 7321.03,-252 7335.07,-234.936 7337.24,-209.482 7336.38,-190.161"/>
<polygon fill="black" stroke="black" points="7339.87,-189.868 7335.65,-180.15 7332.89,-190.38 7339.87,-189.868"/>
</g>
<!-- 34&#45;&gt;17 -->
<g id="edge183" class="edge"><title>34&#45;&gt;17</title>
<path fill="none" stroke="black" d="M7243.88,-292.283C7316.5,-280.57 7424.45,-263.157 7502.27,-250.607"/>
<polygon fill="black" stroke="black" points="7503.25,-253.994 7512.56,-248.947 7502.13,-247.084 7503.25,-253.994"/>
</g>
<!-- 34&#45;&gt;43 -->
<g id="edge185" class="edge"><title>34&#45;&gt;43</title>
<path fill="none" stroke="black" d="M7163.55,-287.697C7162.89,-279.983 7162.09,-270.712 7161.35,-262.112"/>
<polygon fill="black" stroke="black" points="7164.84,-261.769 7160.5,-252.104 7157.86,-262.367 7164.84,-261.769"/>
</g>
<!-- 35&#45;&gt;1 -->
<g id="edge137" class="edge"><title>35&#45;&gt;1</title>
<path fill="none" stroke="black" d="M9675.55,-300.037C9753.35,-296.458 9861.77,-291.636 9957.03,-288 10473.2,-268.298 11081.2,-249.84 11390,-240.802"/>
<polygon fill="black" stroke="black" points="11390.5,-244.289 11400.4,-240.498 11390.3,-237.292 11390.5,-244.289"/>
</g>
<!-- 35&#45;&gt;6 -->
<g id="edge133" class="edge"><title>35&#45;&gt;6</title>
<path fill="none" stroke="black" d="M9487.82,-293.761C9395.61,-280.807 9257.7,-260.246 9249.03,-252 9212.58,-217.348 9209.69,-154.356 9211.45,-118.294"/>
<polygon fill="black" stroke="black" points="9214.96,-118.233 9212.12,-108.028 9207.98,-117.781 9214.96,-118.233"/>
</g>
<!-- 35&#45;&gt;12 -->
<g id="edge141" class="edge"><title>35&#45;&gt;12</title>
<path fill="none" stroke="black" d="M9487.69,-293.837C9473.14,-291.881 9458.14,-289.873 9444.03,-288 9321.4,-271.73 9286.23,-288.497 9168.03,-252 9134.22,-241.562 9131.35,-224.606 9097.03,-216 8921.75,-172.045 7651.27,-193.064 7471.03,-180 7458.18,-179.068 7444.68,-177.786 7431.37,-176.339"/>
<polygon fill="black" stroke="black" points="7431.57,-172.84 7421.24,-175.204 7430.79,-179.796 7431.57,-172.84"/>
</g>
<!-- 35&#45;&gt;14 -->
<g id="edge136" class="edge"><title>35&#45;&gt;14</title>
<path fill="none" stroke="black" d="M9624.01,-290.24C9664.29,-279.225 9719.48,-264.135 9761.99,-252.51"/>
<polygon fill="black" stroke="black" points="9762.96,-255.874 9771.68,-249.86 9761.12,-249.121 9762.96,-255.874"/>
</g>
<!-- 35&#45;&gt;42 -->
<g id="edge134" class="edge"><title>35&#45;&gt;42</title>
<path fill="none" stroke="black" d="M9488.39,-293.724C9473.63,-291.76 9458.38,-289.778 9444.03,-288 9317.32,-272.294 9171.1,-256.072 9076.07,-245.781"/>
<polygon fill="black" stroke="black" points="9076.2,-242.275 9065.88,-244.68 9075.45,-249.235 9076.2,-242.275"/>
</g>
<!-- 35&#45;&gt;49 -->
<g id="edge140" class="edge"><title>35&#45;&gt;49</title>
<path fill="none" stroke="black" d="M9651.73,-293.675C9741.55,-281.225 9885.67,-261.249 9980.35,-248.124"/>
<polygon fill="black" stroke="black" points="9981.08,-251.557 9990.5,-246.717 9980.11,-244.623 9981.08,-251.557"/>
</g>
<!-- 35&#45;&gt;56 -->
<g id="edge132" class="edge"><title>35&#45;&gt;56</title>
<path fill="none" stroke="black" d="M9487.74,-293.715C9387.1,-279.76 9228.48,-257.207 9216.03,-252 9191.43,-241.712 9193.07,-225.157 9168.03,-216 9098.18,-190.46 8644.38,-174.059 8401.28,-166.996"/>
<polygon fill="black" stroke="black" points="8401.03,-163.488 8390.94,-166.698 8400.83,-170.485 8401.03,-163.488"/>
</g>
<!-- 69 -->
<g id="node70" class="node"><title>69</title>
<ellipse fill="paleturquoise" stroke="paleturquoise" cx="8743.03" cy="-234" rx="101.349" ry="18"/>
<text text-anchor="middle" x="8743.03" y="-229.8" font-family="Times,serif" font-size="14.00">github.com/spf13/pflag</text>
</g>
<!-- 35&#45;&gt;69 -->
<g id="edge138" class="edge"><title>35&#45;&gt;69</title>
<path fill="none" stroke="black" d="M9490.48,-293.368C9475.09,-291.373 9459.08,-289.471 9444.03,-288 9182.13,-262.39 9114.68,-280.126 8853.03,-252 8843.62,-250.988 8833.78,-249.741 8824.03,-248.386"/>
<polygon fill="black" stroke="black" points="8824.3,-244.891 8813.91,-246.94 8823.31,-251.82 8824.3,-244.891"/>
</g>
<!-- 71 -->
<g id="node72" class="node"><title>71</title>
<ellipse fill="paleturquoise" stroke="paleturquoise" cx="9366.03" cy="-234" rx="107.739" ry="18"/>
<text text-anchor="middle" x="9366.03" y="-229.8" font-family="Times,serif" font-size="14.00">github.com/juju/ratelimit</text>
</g>
<!-- 35&#45;&gt;71 -->
<g id="edge135" class="edge"><title>35&#45;&gt;71</title>
<path fill="none" stroke="black" d="M9524.76,-289.465C9494.12,-278.952 9453.47,-265.004 9420.98,-253.855"/>
<polygon fill="black" stroke="black" points="9421.77,-250.427 9411.18,-250.492 9419.5,-257.048 9421.77,-250.427"/>
</g>
<!-- 74 -->
<g id="node75" class="node"><title>74</title>
<ellipse fill="paleturquoise" stroke="paleturquoise" cx="9594.03" cy="-234" rx="102.493" ry="18"/>
<text text-anchor="middle" x="9594.03" y="-229.8" font-family="Times,serif" font-size="14.00">golang.org/x/crypto/ssh</text>
</g>
<!-- 35&#45;&gt;74 -->
<g id="edge139" class="edge"><title>35&#45;&gt;74</title>
<path fill="none" stroke="black" d="M9575.96,-287.697C9578.64,-279.898 9581.86,-270.509 9584.83,-261.829"/>
<polygon fill="black" stroke="black" points="9588.23,-262.699 9588.17,-252.104 9581.61,-260.429 9588.23,-262.699"/>
</g>
<!-- 37&#45;&gt;1 -->
<g id="edge113" class="edge"><title>37&#45;&gt;1</title>
<path fill="none" stroke="black" d="M11506.7,-577.732C11526.9,-569.597 11548,-557.531 11562,-540 11587.3,-508.303 11582,-491.542 11582,-451 11582,-451 11582,-451 11582,-377 11582,-336.897 11586,-290.58 11589,-262.04"/>
<polygon fill="black" stroke="black" points="11592.5,-262.336 11590.1,-252.022 11585.5,-261.596 11592.5,-262.336"/>
</g>
<!-- 38&#45;&gt;6 -->
<g id="edge196" class="edge"><title>38&#45;&gt;6</title>
<path fill="none" stroke="black" d="M10920.1,-359.755C10919.4,-340.909 10916.1,-310.416 10903,-288 10853.1,-202.485 10825.6,-179.27 10733,-144 10587,-88.3364 9482.71,-121.65 9327.03,-108 9316.77,-107.1 9306.03,-105.867 9295.41,-104.471"/>
<polygon fill="black" stroke="black" points="9295.68,-100.976 9285.3,-103.09 9294.74,-107.911 9295.68,-100.976"/>
</g>
<!-- 38&#45;&gt;15 -->
<g id="edge197" class="edge"><title>38&#45;&gt;15</title>
<path fill="none" stroke="black" d="M10916.3,-359.961C10910.8,-339.518 10898.7,-305.781 10875,-288 10848.4,-268.009 10772.7,-254.446 10706.5,-246.049"/>
<polygon fill="black" stroke="black" points="10706.7,-242.551 10696.4,-244.796 10705.8,-249.498 10706.7,-242.551"/>
</g>
<!-- 38&#45;&gt;35 -->
<g id="edge198" class="edge"><title>38&#45;&gt;35</title>
<path fill="none" stroke="black" d="M10824.4,-366.747C10798.9,-364.268 10771.5,-361.814 10746,-360 10719.8,-358.132 9977.9,-325.111 9686.2,-312.155"/>
<polygon fill="black" stroke="black" points="9686.16,-308.65 9676.02,-311.703 9685.85,-315.643 9686.16,-308.65"/>
</g>
<!-- 39&#45;&gt;15 -->
<g id="edge199" class="edge"><title>39&#45;&gt;15</title>
<path fill="none" stroke="black" d="M11013.3,-432.5C11027.8,-423.855 11042.9,-411.742 11051,-396 11058.3,-381.769 11059.5,-373.564 11051,-360 11013.7,-300.318 10822.3,-264.628 10699,-247.485"/>
<polygon fill="black" stroke="black" points="10699.2,-243.973 10688.8,-246.083 10698.2,-250.908 10699.2,-243.973"/>
</g>
<!-- 39&#45;&gt;38 -->
<g id="edge200" class="edge"><title>39&#45;&gt;38</title>
<path fill="none" stroke="black" d="M10963.2,-432.055C10956.4,-423.668 10948,-413.376 10940.5,-404.096"/>
<polygon fill="black" stroke="black" points="10943.1,-401.82 10934.1,-396.275 10937.7,-406.24 10943.1,-401.82"/>
</g>
<!-- 40&#45;&gt;6 -->
<g id="edge41" class="edge"><title>40&#45;&gt;6</title>
<path fill="none" stroke="black" d="M9377.15,-145.116C9345.17,-134.506 9302.99,-120.514 9269.54,-109.417"/>
<polygon fill="black" stroke="black" points="9270.5,-106.048 9259.91,-106.221 9268.3,-112.691 9270.5,-106.048"/>
</g>
<!-- 41 -->
<g id="node42" class="node"><title>41</title>
<ellipse fill="paleturquoise" stroke="paleturquoise" cx="9442.03" cy="-90" rx="106.026" ry="18"/>
<text text-anchor="middle" x="9442.03" y="-85.8" font-family="Times,serif" font-size="14.00">github.com/ghodss/yaml</text>
</g>
<!-- 40&#45;&gt;41 -->
<g id="edge40" class="edge"><title>40&#45;&gt;41</title>
<path fill="none" stroke="black" d="M9429.23,-143.697C9431.13,-135.898 9433.41,-126.509 9435.51,-117.829"/>
<polygon fill="black" stroke="black" points="9438.92,-118.648 9437.88,-108.104 9432.11,-116.996 9438.92,-118.648"/>
</g>
<!-- 80 -->
<g id="node81" class="node"><title>80</title>
<ellipse fill="paleturquoise" stroke="paleturquoise" cx="9442.03" cy="-18" rx="79.3425" ry="18"/>
<text text-anchor="middle" x="9442.03" y="-13.8" font-family="Times,serif" font-size="14.00">gopkg.in/yaml.v2</text>
</g>
<!-- 41&#45;&gt;80 -->
<g id="edge182" class="edge"><title>41&#45;&gt;80</title>
<path fill="none" stroke="black" d="M9442.03,-71.6966C9442.03,-63.9827 9442.03,-54.7125 9442.03,-46.1124"/>
<polygon fill="black" stroke="black" points="9445.53,-46.1043 9442.03,-36.1043 9438.53,-46.1044 9445.53,-46.1043"/>
</g>
<!-- 44&#45;&gt;6 -->
<g id="edge79" class="edge"><title>44&#45;&gt;6</title>
<path fill="none" stroke="black" d="M10224.7,-364.008C10271.9,-355.433 10321.8,-342.352 10336,-324 10385.1,-260.804 10391.6,-201.568 10336,-144 10297.1,-103.637 9382.88,-113.181 9327.03,-108 9316.85,-107.056 9306.19,-105.803 9295.66,-104.404"/>
<polygon fill="black" stroke="black" points="9296,-100.918 9285.61,-103.023 9295.04,-107.853 9296,-100.918"/>
</g>
<!-- 44&#45;&gt;45 -->
<g id="edge80" class="edge"><title>44&#45;&gt;45</title>
<path fill="none" stroke="black" d="M10119.9,-359.697C10115.6,-351.644 10110.5,-341.894 10105.8,-332.982"/>
<polygon fill="black" stroke="black" points="10108.8,-331.31 10101.1,-324.104 10102.6,-334.581 10108.8,-331.31"/>
</g>
<!-- 46&#45;&gt;7 -->
<g id="edge142" class="edge"><title>46&#45;&gt;7</title>
<path fill="none" stroke="black" d="M9407.04,-437.361C9390.76,-435.413 9373.89,-433.53 9358.03,-432 9126.55,-409.673 9068,-412.425 8836.03,-396 8795.1,-393.102 8750.15,-389.853 8710.68,-386.977"/>
<polygon fill="black" stroke="black" points="8710.74,-383.472 8700.51,-386.235 8710.23,-390.453 8710.74,-383.472"/>
</g>
<!-- 46&#45;&gt;9 -->
<g id="edge145" class="edge"><title>46&#45;&gt;9</title>
<path fill="none" stroke="black" d="M9452.68,-432.99C9427.25,-423.035 9394.43,-409.58 9366.03,-396 9322.1,-374.992 9273.34,-347.621 9240.9,-328.81"/>
<polygon fill="black" stroke="black" points="9242.6,-325.752 9232.2,-323.744 9239.08,-331.801 9242.6,-325.752"/>
</g>
<!-- 46&#45;&gt;10 -->
<g id="edge146" class="edge"><title>46&#45;&gt;10</title>
<path fill="none" stroke="black" d="M9537.58,-433.096C9561.73,-423.474 9592.2,-410.318 9618.03,-396 9642.61,-382.371 9645.69,-374.063 9670.03,-360 9702.39,-341.301 9713.35,-342.143 9746.03,-324 9771.9,-309.637 9774.04,-297.6 9802.03,-288 9886.66,-258.971 10142.7,-318.032 10203,-252 10247.3,-203.618 10166.7,-181.535 10084.9,-171.457"/>
<polygon fill="black" stroke="black" points="10085.3,-167.976 10074.9,-170.287 10084.4,-174.928 10085.3,-167.976"/>
</g>
<!-- 46&#45;&gt;15 -->
<g id="edge147" class="edge"><title>46&#45;&gt;15</title>
<path fill="none" stroke="black" d="M9548.81,-433.732C9581.38,-423.991 9623.54,-410.502 9660.03,-396 9711.76,-375.442 9832.24,-302.326 9886.03,-288 9940.3,-273.545 10276.6,-252.761 10465.1,-242.021"/>
<polygon fill="black" stroke="black" points="10465.6,-245.5 10475.4,-241.438 10465.2,-238.511 10465.6,-245.5"/>
</g>
<!-- 46&#45;&gt;35 -->
<g id="edge149" class="edge"><title>46&#45;&gt;35</title>
<path fill="none" stroke="black" d="M9504.08,-431.871C9517.03,-407.35 9540.96,-362.032 9556.16,-333.259"/>
<polygon fill="black" stroke="black" points="9559.38,-334.666 9560.95,-324.189 9553.19,-331.397 9559.38,-334.666"/>
</g>
<!-- 46&#45;&gt;44 -->
<g id="edge143" class="edge"><title>46&#45;&gt;44</title>
<path fill="none" stroke="black" d="M9589.95,-438.52C9702.67,-426.074 9890.69,-405.315 10012.2,-391.895"/>
<polygon fill="black" stroke="black" points="10012.8,-395.357 10022.3,-390.781 10012,-388.4 10012.8,-395.357"/>
</g>
<!-- 46&#45;&gt;48 -->
<g id="edge144" class="edge"><title>46&#45;&gt;48</title>
<path fill="none" stroke="black" d="M9373.66,-446.956C9122.65,-442.106 8563,-427.84 8482.03,-396 8458.83,-386.879 8462.11,-369.397 8439.03,-360 8341.6,-320.34 8071.86,-332.762 7967.03,-324 7946.28,-322.265 7924.24,-320.338 7902.84,-318.422"/>
<polygon fill="black" stroke="black" points="7903.01,-314.923 7892.74,-317.513 7902.38,-321.894 7903.01,-314.923"/>
</g>
<!-- 46&#45;&gt;49 -->
<g id="edge148" class="edge"><title>46&#45;&gt;49</title>
<path fill="none" stroke="black" d="M9519.31,-432.158C9546.34,-413.665 9591.55,-383.479 9632.03,-360 9692.56,-324.897 9705.7,-310.281 9772.03,-288 9809.8,-275.311 9906.5,-259.406 9980.59,-248.346"/>
<polygon fill="black" stroke="black" points="9981.51,-251.748 9990.88,-246.818 9980.48,-244.824 9981.51,-251.748"/>
</g>
<!-- 46&#45;&gt;50 -->
<g id="edge150" class="edge"><title>46&#45;&gt;50</title>
<path fill="none" stroke="black" d="M9488.11,-431.851C9473.11,-397.273 9433.98,-319.783 9373.03,-288 9346.17,-273.993 8488,-248.339 8149.96,-238.749"/>
<polygon fill="black" stroke="black" points="8149.96,-235.247 8139.87,-238.463 8149.76,-242.245 8149.96,-235.247"/>
</g>
<!-- 47&#45;&gt;6 -->
<g id="edge53" class="edge"><title>47&#45;&gt;6</title>
<path fill="none" stroke="black" d="M10247.7,-435.694C10295,-426.716 10347,-413.338 10363,-396 10439.1,-313.823 10454.2,-210.495 10364,-144 10317.6,-109.776 9384.43,-113.297 9327.03,-108 9316.85,-107.061 9306.19,-105.811 9295.65,-104.413"/>
<polygon fill="black" stroke="black" points="9296,-100.927 9285.61,-103.033 9295.04,-107.862 9296,-100.927"/>
</g>
<!-- 47&#45;&gt;7 -->
<g id="edge54" class="edge"><title>47&#45;&gt;7</title>
<path fill="none" stroke="black" d="M10021.8,-444.946C9780.83,-437.55 9268.4,-420.353 8836.03,-396 8794.42,-393.656 8748.68,-390.47 8708.77,-387.489"/>
<polygon fill="black" stroke="black" points="8708.99,-383.996 8698.76,-386.736 8708.46,-390.976 8708.99,-383.996"/>
</g>
<!-- 47&#45;&gt;9 -->
<g id="edge57" class="edge"><title>47&#45;&gt;9</title>
<path fill="none" stroke="black" d="M10068.6,-436.076C9993.95,-425.464 9885.63,-409.965 9791.03,-396 9619.99,-370.751 9421.08,-340.38 9304.25,-322.439"/>
<polygon fill="black" stroke="black" points="9304.67,-318.962 9294.25,-320.903 9303.6,-325.881 9304.67,-318.962"/>
</g>
<!-- 47&#45;&gt;10 -->
<g id="edge58" class="edge"><title>47&#45;&gt;10</title>
<path fill="none" stroke="black" d="M10240.2,-434.964C10281.9,-425.869 10326.6,-412.619 10339,-396 10380.6,-340.402 10363,-284.233 10274,-216 10244,-192.943 10157.9,-179.554 10081.9,-172.003"/>
<polygon fill="black" stroke="black" points="10082,-168.498 10071.7,-171.021 10081.3,-175.466 10082,-168.498"/>
</g>
<!-- 47&#45;&gt;15 -->
<g id="edge59" class="edge"><title>47&#45;&gt;15</title>
<path fill="none" stroke="black" d="M10291.9,-442.708C10340,-435.671 10393,-422.011 10436,-396 10488.5,-364.242 10478,-330.705 10522,-288 10533.3,-277.04 10547,-266.37 10559.2,-257.511"/>
<polygon fill="black" stroke="black" points="10561.3,-260.318 10567.5,-251.686 10557.3,-254.603 10561.3,-260.318"/>
</g>
<!-- 47&#45;&gt;35 -->
<g id="edge61" class="edge"><title>47&#45;&gt;35</title>
<path fill="none" stroke="black" d="M10096.9,-433.804C9985.54,-407.003 9755.12,-351.546 9639.45,-323.708"/>
<polygon fill="black" stroke="black" points="9640.18,-320.283 9629.64,-321.346 9638.54,-327.089 9640.18,-320.283"/>
</g>
<!-- 47&#45;&gt;44 -->
<g id="edge55" class="edge"><title>47&#45;&gt;44</title>
<path fill="none" stroke="black" d="M10152.4,-431.697C10148.8,-423.728 10144.6,-414.1 10140.7,-405.264"/>
<polygon fill="black" stroke="black" points="10143.9,-403.831 10136.6,-396.104 10137.5,-406.665 10143.9,-403.831"/>
</g>
<!-- 47&#45;&gt;48 -->
<g id="edge56" class="edge"><title>47&#45;&gt;48</title>
<path fill="none" stroke="black" d="M10046.6,-438.907C9797.2,-416.759 9216.01,-365.428 9126.03,-360 8664.81,-332.179 8548.62,-344.775 8087.03,-324 8031.8,-321.514 7971,-318.257 7918.19,-315.26"/>
<polygon fill="black" stroke="black" points="7918.27,-311.758 7908.08,-314.684 7917.87,-318.747 7918.27,-311.758"/>
</g>
<!-- 47&#45;&gt;49 -->
<g id="edge60" class="edge"><title>47&#45;&gt;49</title>
<path fill="none" stroke="black" d="M10260.1,-437.046C10284.2,-429.197 10307.2,-416.484 10322,-396 10331.4,-383.046 10327.6,-375 10322,-360 10307.3,-320.411 10295.6,-310.769 10260,-288 10231.6,-269.798 10196.8,-257.707 10165.1,-249.74"/>
<polygon fill="black" stroke="black" points="10165.9,-246.334 10155.3,-247.398 10164.2,-253.14 10165.9,-246.334"/>
</g>
<!-- 47&#45;&gt;50 -->
<g id="edge62" class="edge"><title>47&#45;&gt;50</title>
<path fill="none" stroke="black" d="M10235.4,-434.524C10256.3,-426.683 10276.6,-414.604 10289,-396 10297.9,-382.709 10294.6,-375 10289,-360 10287.2,-355.051 10231.8,-290.254 10227,-288 10146.9,-250.172 8721.58,-254.218 8633.03,-252 8466.53,-247.83 8274.82,-242.469 8149.63,-238.893"/>
<polygon fill="black" stroke="black" points="8149.7,-235.394 8139.61,-238.607 8149.5,-242.391 8149.7,-235.394"/>
</g>
<!-- 48&#45;&gt;50 -->
<g id="edge119" class="edge"><title>48&#45;&gt;50</title>
<path fill="none" stroke="black" d="M7833.06,-289.203C7868.73,-278.58 7915.87,-264.537 7953.23,-253.408"/>
<polygon fill="black" stroke="black" points="7954.42,-256.707 7963,-250.498 7952.42,-249.999 7954.42,-256.707"/>
</g>
<!-- 48&#45;&gt;69 -->
<g id="edge118" class="edge"><title>48&#45;&gt;69</title>
<path fill="none" stroke="black" d="M7902.48,-296.099C8094.43,-282.147 8462.6,-255.384 8641.06,-242.412"/>
<polygon fill="black" stroke="black" points="8641.51,-245.888 8651.23,-241.673 8641.01,-238.907 8641.51,-245.888"/>
</g>
<!-- 54 -->
<g id="node55" class="node"><title>54</title>
<ellipse fill="paleturquoise" stroke="paleturquoise" cx="5359.03" cy="-234" rx="374.845" ry="18"/>
<text text-anchor="middle" x="5359.03" y="-229.8" font-family="Times,serif" font-size="14.00">github.com/fsouza/go&#45;dockerclient/external/github.com/opencontainers/runc/libcontainer/user</text>
</g>
<!-- 55&#45;&gt;20 -->
<g id="edge77" class="edge"><title>55&#45;&gt;20</title>
<path fill="none" stroke="black" d="M925.146,-287.909C910.804,-279.332 896.021,-267.433 888.03,-252 880.672,-237.792 880.672,-230.208 888.03,-216 894.519,-203.468 905.487,-193.266 917.061,-185.28"/>
<polygon fill="black" stroke="black" points="919.003,-188.193 925.541,-179.856 915.231,-182.297 919.003,-188.193"/>
</g>
<!-- 57 -->
<g id="node58" class="node"><title>57</title>
<ellipse fill="paleturquoise" stroke="paleturquoise" cx="12293" cy="-90" rx="121.598" ry="18"/>
<text text-anchor="middle" x="12293" y="-85.8" font-family="Times,serif" font-size="14.00">bitbucket.org/ww/goautoneg</text>
</g>
<!-- 58 -->
<g id="node59" class="node"><title>58</title>
<ellipse fill="paleturquoise" stroke="paleturquoise" cx="5800.03" cy="-738" rx="194.51" ry="18"/>
<text text-anchor="middle" x="5800.03" y="-733.8" font-family="Times,serif" font-size="14.00">github.com/openshift/origin/pkg/dockerregistry</text>
</g>
<!-- 58&#45;&gt;3 -->
<g id="edge83" class="edge"><title>58&#45;&gt;3</title>
<path fill="none" stroke="black" d="M5824.03,-719.966C5893.05,-670.986 6092.1,-529.722 6170.63,-473.996"/>
<polygon fill="black" stroke="black" points="6173.02,-476.587 6179.15,-467.945 6168.97,-470.878 6173.02,-476.587"/>
</g>
<!-- 58&#45;&gt;5 -->
<g id="edge81" class="edge"><title>58&#45;&gt;5</title>
<path fill="none" stroke="black" d="M5631.87,-728.865C5357.55,-713.319 4844.03,-673.705 4844.03,-595 4844.03,-595 4844.03,-595 4844.03,-521 4844.03,-446.745 4349.92,-404.069 4101.78,-387.318"/>
<polygon fill="black" stroke="black" points="4101.82,-383.813 4091.61,-386.636 4101.35,-390.797 4101.82,-383.813"/>
</g>
<!-- 58&#45;&gt;6 -->
<g id="edge82" class="edge"><title>58&#45;&gt;6</title>
<path fill="none" stroke="black" d="M5792.34,-719.907C5781.24,-693.623 5762.03,-641.447 5762.03,-595 5762.03,-595 5762.03,-595 5762.03,-233 5762.03,-55.6438 5974.97,-165.427 6151.03,-144 6447.44,-107.925 8580.92,-94.3568 9100.28,-91.5691"/>
<polygon fill="black" stroke="black" points="9100.42,-95.0685 9110.4,-91.515 9100.38,-88.0686 9100.42,-95.0685"/>
</g>
<!-- 58&#45;&gt;24 -->
<g id="edge84" class="edge"><title>58&#45;&gt;24</title>
<path fill="none" stroke="black" d="M5989.28,-733.747C6675.91,-721.943 9030.46,-681.467 9695.7,-670.031"/>
<polygon fill="black" stroke="black" points="9695.91,-673.528 9705.85,-669.857 9695.79,-666.529 9695.91,-673.528"/>
</g>
<!-- 58&#45;&gt;35 -->
<g id="edge85" class="edge"><title>58&#45;&gt;35</title>
<path fill="none" stroke="black" d="M5994.85,-737.373C6717.79,-738.319 9246.35,-737.627 10051,-684 10316.4,-666.317 10412,-740.07 10645,-612 10718.2,-571.776 10744.8,-501.881 10699,-432 10661.1,-374.12 10627.8,-378.263 10561,-360 10540.2,-354.291 9942.23,-324.925 9685.41,-312.531"/>
<polygon fill="black" stroke="black" points="9685.46,-309.029 9675.3,-312.043 9685.12,-316.021 9685.46,-309.029"/>
</g>
<!-- 59&#45;&gt;2 -->
<g id="edge86" class="edge"><title>59&#45;&gt;2</title>
<path fill="none" stroke="black" d="M3963.03,-287.697C3963.03,-279.983 3963.03,-270.712 3963.03,-262.112"/>
<polygon fill="black" stroke="black" points="3966.53,-262.104 3963.03,-252.104 3959.53,-262.104 3966.53,-262.104"/>
</g>
<!-- 60 -->
<g id="node61" class="node"><title>60</title>
<ellipse fill="paleturquoise" stroke="paleturquoise" cx="4639.03" cy="-234" rx="326.915" ry="18"/>
<text text-anchor="middle" x="4639.03" y="-229.8" font-family="Times,serif" font-size="14.00">github.com/fsouza/go&#45;dockerclient/external/github.com/docker/docker/pkg/ulimit</text>
</g>
<!-- 59&#45;&gt;60 -->
<g id="edge87" class="edge"><title>59&#45;&gt;60</title>
<path fill="none" stroke="black" d="M4106.81,-290.112C4217.16,-278.685 4369.32,-262.929 4482.69,-251.189"/>
<polygon fill="black" stroke="black" points="4483.26,-254.649 4492.84,-250.138 4482.54,-247.686 4483.26,-254.649"/>
</g>
<!-- 61 -->
<g id="node62" class="node"><title>61</title>
<ellipse fill="paleturquoise" stroke="paleturquoise" cx="3298.03" cy="-234" rx="315.863" ry="18"/>
<text text-anchor="middle" x="3298.03" y="-229.8" font-family="Times,serif" font-size="14.00">github.com/fsouza/go&#45;dockerclient/external/github.com/docker/docker/volume</text>
</g>
<!-- 59&#45;&gt;61 -->
<g id="edge88" class="edge"><title>59&#45;&gt;61</title>
<path fill="none" stroke="black" d="M3821.19,-290.069C3712.42,-278.62 3562.54,-262.843 3451.07,-251.11"/>
<polygon fill="black" stroke="black" points="3451.4,-247.625 3441.09,-250.059 3450.67,-254.586 3451.4,-247.625"/>
</g>
<!-- 64 -->
<g id="node65" class="node"><title>64</title>
<ellipse fill="paleturquoise" stroke="paleturquoise" cx="12670" cy="-90" rx="237.876" ry="18"/>
<text text-anchor="middle" x="12670" y="-85.8" font-family="Times,serif" font-size="14.00">github.com/matttproud/golang_protobuf_extensions/pbutil</text>
</g>
<!-- 64&#45;&gt;22 -->
<g id="edge104" class="edge"><title>64&#45;&gt;22</title>
<path fill="none" stroke="black" d="M12573.1,-73.5515C12499.6,-61.8232 12399,-45.7823 12325.9,-34.1324"/>
<polygon fill="black" stroke="black" points="12326.2,-30.637 12315.8,-32.5186 12325.1,-37.5496 12326.2,-30.637"/>
</g>
<!-- 65 -->
<g id="node66" class="node"><title>65</title>
<ellipse fill="paleturquoise" stroke="paleturquoise" cx="328.03" cy="-162" rx="328.059" ry="18"/>
<text text-anchor="middle" x="328.03" y="-157.8" font-family="Times,serif" font-size="14.00">github.com/fsouza/go&#45;dockerclient/external/github.com/docker/docker/pkg/ioutils</text>
</g>
<!-- 66 -->
<g id="node67" class="node"><title>66</title>
<ellipse fill="paleturquoise" stroke="paleturquoise" cx="1261.03" cy="-234" rx="330.909" ry="18"/>
<text text-anchor="middle" x="1261.03" y="-229.8" font-family="Times,serif" font-size="14.00">github.com/fsouza/go&#45;dockerclient/external/github.com/docker/docker/pkg/system</text>
</g>
<!-- 67&#45;&gt;54 -->
<g id="edge114" class="edge"><title>67&#45;&gt;54</title>
<path fill="none" stroke="black" d="M5075.78,-288.588C5131.51,-278.045 5203.99,-264.332 5261.68,-253.417"/>
<polygon fill="black" stroke="black" points="5262.37,-256.85 5271.54,-251.552 5261.07,-249.972 5262.37,-256.85"/>
</g>
<!-- 70&#45;&gt;18 -->
<g id="edge120" class="edge"><title>70&#45;&gt;18</title>
<path fill="none" stroke="black" d="M6739.32,-287.697C6737.67,-279.983 6735.68,-270.712 6733.84,-262.112"/>
<polygon fill="black" stroke="black" points="6737.21,-261.149 6731.69,-252.104 6730.37,-262.616 6737.21,-261.149"/>
</g>
<!-- 72&#45;&gt;7 -->
<g id="edge123" class="edge"><title>72&#45;&gt;7</title>
<path fill="none" stroke="black" d="M9159.23,-505.193C9039.23,-478.016 8795.06,-422.716 8673.75,-395.243"/>
<polygon fill="black" stroke="black" points="8674.34,-391.788 8663.81,-392.993 8672.79,-398.615 8674.34,-391.788"/>
</g>
<!-- 72&#45;&gt;9 -->
<g id="edge125" class="edge"><title>72&#45;&gt;9</title>
<path fill="none" stroke="black" d="M9227.03,-503.849C9222.7,-466.832 9212.46,-379.181 9207.23,-334.386"/>
<polygon fill="black" stroke="black" points="9210.68,-333.759 9206.04,-324.232 9203.73,-334.571 9210.68,-333.759"/>
</g>
<!-- 72&#45;&gt;10 -->
<g id="edge128" class="edge"><title>72&#45;&gt;10</title>
<path fill="none" stroke="black" d="M9243.78,-503.831C9277.77,-463.816 9359.75,-364.675 9373.03,-324 9378,-308.79 9382.64,-300.794 9373.03,-288 9338.57,-242.112 9283.49,-297.888 9249.03,-252 9239.42,-239.206 9238.15,-227.733 9249.03,-216 9267.71,-195.85 9607.54,-177.785 9806.71,-168.869"/>
<polygon fill="black" stroke="black" points="9807.14,-172.354 9816.97,-168.412 9806.83,-165.361 9807.14,-172.354"/>
</g>
<!-- 72&#45;&gt;15 -->
<g id="edge129" class="edge"><title>72&#45;&gt;15</title>
<path fill="none" stroke="black" d="M9406.32,-515.221C9476.85,-508.387 9557.59,-494.733 9627.03,-468 9706.07,-437.573 9710.64,-402.263 9784.03,-360 9816.42,-341.349 9826.83,-341.172 9860.03,-324 9889.02,-309.005 9892.81,-297.511 9924.03,-288 9974.31,-272.681 10286.2,-252.622 10465.8,-242.119"/>
<polygon fill="black" stroke="black" points="10466.1,-245.609 10475.8,-241.533 10465.7,-238.621 10466.1,-245.609"/>
</g>
<!-- 72&#45;&gt;31 -->
<g id="edge127" class="edge"><title>72&#45;&gt;31</title>
<path fill="none" stroke="black" d="M9046.45,-516.696C8798.45,-510.101 8341.33,-495.295 7952.03,-468 7935.39,-466.833 7917.87,-465.372 7900.63,-463.798"/>
<polygon fill="black" stroke="black" points="7900.8,-460.299 7890.52,-462.86 7900.15,-467.269 7900.8,-460.299"/>
</g>
<!-- 72&#45;&gt;35 -->
<g id="edge130" class="edge"><title>72&#45;&gt;35</title>
<path fill="none" stroke="black" d="M9254.01,-503.943C9280.77,-485.784 9324.58,-456.364 9363.03,-432 9421.84,-394.739 9491.32,-353.299 9532.97,-328.73"/>
<polygon fill="black" stroke="black" points="9534.83,-331.694 9541.67,-323.603 9531.28,-325.663 9534.83,-331.694"/>
</g>
<!-- 72&#45;&gt;46 -->
<g id="edge126" class="edge"><title>72&#45;&gt;46</title>
<path fill="none" stroke="black" d="M9290.06,-504.941C9331.32,-494.081 9385.82,-479.74 9428.24,-468.575"/>
<polygon fill="black" stroke="black" points="9429.15,-471.957 9437.93,-466.027 9427.37,-465.187 9429.15,-471.957"/>
</g>
<!-- 72&#45;&gt;48 -->
<g id="edge124" class="edge"><title>72&#45;&gt;48</title>
<path fill="none" stroke="black" d="M9122.06,-507.03C9043.22,-496.613 8933.39,-481.851 8837.03,-468 8482.29,-417.006 8061.41,-351.353 7875.93,-322.158"/>
<polygon fill="black" stroke="black" points="7876.35,-318.682 7865.93,-320.584 7875.27,-325.597 7876.35,-318.682"/>
</g>
<!-- 72&#45;&gt;50 -->
<g id="edge131" class="edge"><title>72&#45;&gt;50</title>
<path fill="none" stroke="black" d="M9078.97,-510.808C8952.62,-501.61 8767.23,-486.671 8606.03,-468 8551.31,-461.662 7661.04,-365.683 7625.03,-324 7614.57,-311.893 7614.51,-300.051 7625.03,-288 7629.75,-282.59 7796.58,-261.416 7910.49,-247.524"/>
<polygon fill="black" stroke="black" points="7911.15,-250.969 7920.65,-246.286 7910.3,-244.021 7911.15,-250.969"/>
</g>
<!-- 73 -->
<g id="node74" class="node"><title>73</title>
<ellipse fill="paleturquoise" stroke="paleturquoise" cx="1945.03" cy="-234" rx="334.984" ry="18"/>
<text text-anchor="middle" x="1945.03" y="-229.8" font-family="Times,serif" font-size="14.00">github.com/fsouza/go&#45;dockerclient/external/github.com/docker/docker/pkg/promise</text>
</g>
<!-- 75&#45;&gt;19 -->
<g id="edge175" class="edge"><title>75&#45;&gt;19</title>
<path fill="none" stroke="black" d="M1926.19,-290.813C2075.89,-278.959 2288.77,-262.102 2441.34,-250.021"/>
<polygon fill="black" stroke="black" points="2442.06,-253.474 2451.76,-249.196 2441.51,-246.496 2442.06,-253.474"/>
</g>
<!-- 75&#45;&gt;20 -->
<g id="edge174" class="edge"><title>75&#45;&gt;20</title>
<path fill="none" stroke="black" d="M1507.3,-293.534C1267.01,-281.459 931.102,-262.739 921.03,-252 903.874,-233.709 920.197,-207.135 937.249,-187.789"/>
<polygon fill="black" stroke="black" points="940.014,-189.955 944.253,-180.245 934.884,-185.193 940.014,-189.955"/>
</g>
<!-- 75&#45;&gt;66 -->
<g id="edge178" class="edge"><title>75&#45;&gt;66</title>
<path fill="none" stroke="black" d="M1636.14,-289.028C1560.4,-278.119 1460.05,-263.666 1382.21,-252.454"/>
<polygon fill="black" stroke="black" points="1382.26,-248.925 1371.86,-250.964 1381.26,-255.853 1382.26,-248.925"/>
</g>
<!-- 75&#45;&gt;73 -->
<g id="edge177" class="edge"><title>75&#45;&gt;73</title>
<path fill="none" stroke="black" d="M1794.71,-288.144C1822.67,-278.258 1858.19,-265.702 1887.67,-255.277"/>
<polygon fill="black" stroke="black" points="1889.16,-258.464 1897.42,-251.831 1886.83,-251.864 1889.16,-258.464"/>
</g>
<!-- 76 -->
<g id="node77" class="node"><title>76</title>
<ellipse fill="paleturquoise" stroke="paleturquoise" cx="389.03" cy="-234" rx="324.614" ry="18"/>
<text text-anchor="middle" x="389.03" y="-229.8" font-family="Times,serif" font-size="14.00">github.com/fsouza/go&#45;dockerclient/external/github.com/docker/docker/pkg/pools</text>
</g>
<!-- 75&#45;&gt;76 -->
<g id="edge176" class="edge"><title>75&#45;&gt;76</title>
<path fill="none" stroke="black" d="M1515.51,-293.066C1268.26,-280.321 878.306,-260.22 628.169,-247.327"/>
<polygon fill="black" stroke="black" points="628.016,-243.814 617.849,-246.795 627.655,-250.805 628.016,-243.814"/>
</g>
<!-- 76&#45;&gt;65 -->
<g id="edge156" class="edge"><title>76&#45;&gt;65</title>
<path fill="none" stroke="black" d="M373.951,-215.697C366.638,-207.305 357.72,-197.07 349.694,-187.861"/>
<polygon fill="black" stroke="black" points="352.143,-185.344 342.935,-180.104 346.866,-189.943 352.143,-185.344"/>
</g>
<!-- 78&#45;&gt;21 -->
<g id="edge164" class="edge"><title>78&#45;&gt;21</title>
<path fill="none" stroke="black" d="M11975.7,-147.045C11896.4,-135.309 11783.2,-118.554 11701.2,-106.423"/>
<polygon fill="black" stroke="black" points="11701.6,-102.932 11691.2,-104.93 11700.5,-109.856 11701.6,-102.932"/>
</g>
<!-- 78&#45;&gt;22 -->
<g id="edge162" class="edge"><title>78&#45;&gt;22</title>
<path fill="none" stroke="black" d="M11943.6,-150.022C11887.1,-142.237 11829.4,-129.263 11812,-108 11801.9,-95.6001 11801.4,-84.0026 11812,-72 11830.8,-50.7264 11979.9,-35.8092 12095,-27.335"/>
<polygon fill="black" stroke="black" points="12095.6,-30.8007 12105.3,-26.5853 12095,-23.819 12095.6,-30.8007"/>
</g>
<!-- 78&#45;&gt;23 -->
<g id="edge165" class="edge"><title>78&#45;&gt;23</title>
<path fill="none" stroke="black" d="M12049.9,-144.055C12039.4,-135.179 12026.4,-124.169 12014.9,-114.483"/>
<polygon fill="black" stroke="black" points="12017.1,-111.803 12007.2,-108.032 12012.6,-117.154 12017.1,-111.803"/>
</g>
<!-- 78&#45;&gt;57 -->
<g id="edge161" class="edge"><title>78&#45;&gt;57</title>
<path fill="none" stroke="black" d="M12121.5,-144.853C12155.1,-134.297 12199.1,-120.481 12234.1,-109.486"/>
<polygon fill="black" stroke="black" points="12235.3,-112.799 12243.8,-106.465 12233.2,-106.121 12235.3,-112.799"/>
</g>
<!-- 78&#45;&gt;64 -->
<g id="edge163" class="edge"><title>78&#45;&gt;64</title>
<path fill="none" stroke="black" d="M12179.4,-148.242C12279.9,-136.512 12429.3,-119.09 12536.7,-106.55"/>
<polygon fill="black" stroke="black" points="12537.2,-110.025 12546.7,-105.39 12536.3,-103.072 12537.2,-110.025"/>
</g>
</g>
</svg>
