<?xml version="1.0" encoding="UTF-8" standalone="no"?>
<!DOCTYPE svg PUBLIC "-//W3C//DTD SVG 1.1//EN"
 "http://www.w3.org/Graphics/SVG/1.1/DTD/svg11.dtd">
<!-- Generated by graphviz version 2.38.0 (20140413.2041)
 -->
<!-- Title: godep Pages: 1 -->
<svg width="6469pt" height="836pt"
 viewBox="0.00 0.00 6468.76 836.00" xmlns="http://www.w3.org/2000/svg" xmlns:xlink="http://www.w3.org/1999/xlink">
<g id="graph0" class="graph" transform="scale(1 1) rotate(0) translate(4 832)">
<title>godep</title>
<polygon fill="white" stroke="none" points="-4,4 -4,-832 6464.76,-832 6464.76,4 -4,4"/>
<!-- 0 -->
<g id="node1" class="node"><title>0</title>
<ellipse fill="paleturquoise" stroke="paleturquoise" cx="1434" cy="-306" rx="105.923" ry="18"/>
<text text-anchor="middle" x="1434" y="-301.8" font-family="Times,serif" font-size="14.00">golang.org/x/net/context</text>
</g>
<!-- 1 -->
<g id="node2" class="node"><title>1</title>
<ellipse fill="paleturquoise" stroke="paleturquoise" cx="1977" cy="-234" rx="119.246" ry="18"/>
<text text-anchor="middle" x="1977" y="-229.8" font-family="Times,serif" font-size="14.00">k8s.io/kubernetes/pkg/types</text>
</g>
<!-- 2 -->
<g id="node3" class="node"><title>2</title>
<ellipse fill="paleturquoise" stroke="paleturquoise" cx="1692" cy="-306" rx="134.273" ry="18"/>
<text text-anchor="middle" x="1692" y="-301.8" font-family="Times,serif" font-size="14.00">k8s.io/kubernetes/pkg/auth/user</text>
</g>
<!-- 3 -->
<g id="node4" class="node"><title>3</title>
<ellipse fill="paleturquoise" stroke="paleturquoise" cx="2750" cy="-234" rx="102.493" ry="18"/>
<text text-anchor="middle" x="2750" y="-229.8" font-family="Times,serif" font-size="14.00">golang.org/x/crypto/ssh</text>
</g>
<!-- 4 -->
<g id="node5" class="node"><title>4</title>
<ellipse fill="paleturquoise" stroke="paleturquoise" cx="3826" cy="-378" rx="142.936" ry="18"/>
<text text-anchor="middle" x="3826" y="-373.8" font-family="Times,serif" font-size="14.00">k8s.io/kubernetes/pkg/capabilities</text>
</g>
<!-- 5 -->
<g id="node6" class="node"><title>5</title>
<ellipse fill="paleturquoise" stroke="paleturquoise" cx="585" cy="-522" rx="193.83" ry="18"/>
<text text-anchor="middle" x="585" y="-517.8" font-family="Times,serif" font-size="14.00">k8s.io/kubernetes/pkg/conversion/queryparams</text>
</g>
<!-- 6 -->
<g id="node7" class="node"><title>6</title>
<ellipse fill="paleturquoise" stroke="paleturquoise" cx="756" cy="-234" rx="128.556" ry="18"/>
<text text-anchor="middle" x="756" y="-229.8" font-family="Times,serif" font-size="14.00">k8s.io/kubernetes/pkg/runtime</text>
</g>
<!-- 5&#45;&gt;6 -->
<g id="edge1" class="edge"><title>5&#45;&gt;6</title>
<path fill="none" stroke="black" d="M430.038,-511.185C368.618,-503.77 308.056,-490.771 289,-468 278.732,-455.73 283.144,-446.89 289,-432 321.109,-350.361 346.437,-328.987 424,-288 460.87,-268.517 560.013,-254.271 640.426,-245.486"/>
<polygon fill="black" stroke="black" points="641.066,-248.938 650.635,-244.389 640.318,-241.978 641.066,-248.938"/>
</g>
<!-- 9 -->
<g id="node10" class="node"><title>9</title>
<ellipse fill="paleturquoise" stroke="paleturquoise" cx="1076" cy="-162" rx="141.22" ry="18"/>
<text text-anchor="middle" x="1076" y="-157.8" font-family="Times,serif" font-size="14.00">k8s.io/kubernetes/pkg/conversion</text>
</g>
<!-- 6&#45;&gt;9 -->
<g id="edge2" class="edge"><title>6&#45;&gt;9</title>
<path fill="none" stroke="black" d="M822.304,-218.496C873.489,-207.299 944.426,-191.782 998.279,-180.001"/>
<polygon fill="black" stroke="black" points="999.106,-183.403 1008.13,-177.847 997.61,-176.565 999.106,-183.403"/>
</g>
<!-- 10 -->
<g id="node11" class="node"><title>10</title>
<ellipse fill="paleturquoise" stroke="paleturquoise" cx="749" cy="-162" rx="130.299" ry="18"/>
<text text-anchor="middle" x="749" y="-157.8" font-family="Times,serif" font-size="14.00">k8s.io/kubernetes/pkg/util/json</text>
</g>
<!-- 6&#45;&gt;10 -->
<g id="edge3" class="edge"><title>6&#45;&gt;10</title>
<path fill="none" stroke="black" d="M754.27,-215.697C753.498,-207.983 752.571,-198.712 751.711,-190.112"/>
<polygon fill="black" stroke="black" points="755.188,-189.706 750.71,-180.104 748.223,-190.403 755.188,-189.706"/>
</g>
<!-- 11 -->
<g id="node12" class="node"><title>11</title>
<ellipse fill="paleturquoise" stroke="paleturquoise" cx="3746" cy="-162" rx="128.57" ry="18"/>
<text text-anchor="middle" x="3746" y="-157.8" font-family="Times,serif" font-size="14.00">k8s.io/kubernetes/pkg/util/sets</text>
</g>
<!-- 6&#45;&gt;11 -->
<g id="edge4" class="edge"><title>6&#45;&gt;11</title>
<path fill="none" stroke="black" d="M872.8,-226.294C938.382,-222.747 1021.73,-218.599 1096,-216 1347.35,-207.205 3102.02,-174.779 3609.08,-165.497"/>
<polygon fill="black" stroke="black" points="3609.44,-168.992 3619.37,-165.309 3609.31,-161.993 3609.44,-168.992"/>
</g>
<!-- 12 -->
<g id="node13" class="node"><title>12</title>
<ellipse fill="paleturquoise" stroke="paleturquoise" cx="1485" cy="-162" rx="133.728" ry="18"/>
<text text-anchor="middle" x="1485" y="-157.8" font-family="Times,serif" font-size="14.00">k8s.io/kubernetes/pkg/util/yaml</text>
</g>
<!-- 6&#45;&gt;12 -->
<g id="edge5" class="edge"><title>6&#45;&gt;12</title>
<path fill="none" stroke="black" d="M858.902,-223.119C993.625,-210.183 1229.12,-187.57 1369.71,-174.07"/>
<polygon fill="black" stroke="black" points="1370.05,-177.554 1379.67,-173.114 1369.38,-170.586 1370.05,-177.554"/>
</g>
<!-- 7 -->
<g id="node8" class="node"><title>7</title>
<ellipse fill="paleturquoise" stroke="paleturquoise" cx="2978" cy="-234" rx="107.739" ry="18"/>
<text text-anchor="middle" x="2978" y="-229.8" font-family="Times,serif" font-size="14.00">github.com/juju/ratelimit</text>
</g>
<!-- 8 -->
<g id="node9" class="node"><title>8</title>
<ellipse fill="paleturquoise" stroke="paleturquoise" cx="5523" cy="-162" rx="141.799" ry="18"/>
<text text-anchor="middle" x="5523" y="-157.8" font-family="Times,serif" font-size="14.00">github.com/beorn7/perks/quantile</text>
</g>
<!-- 53 -->
<g id="node54" class="node"><title>53</title>
<ellipse fill="paleturquoise" stroke="paleturquoise" cx="1036" cy="-90" rx="179.914" ry="18"/>
<text text-anchor="middle" x="1036" y="-85.8" font-family="Times,serif" font-size="14.00">k8s.io/kubernetes/third_party/forked/reflect</text>
</g>
<!-- 9&#45;&gt;53 -->
<g id="edge71" class="edge"><title>9&#45;&gt;53</title>
<path fill="none" stroke="black" d="M1066.11,-143.697C1061.51,-135.644 1055.94,-125.894 1050.85,-116.982"/>
<polygon fill="black" stroke="black" points="1053.77,-115.05 1045.77,-108.104 1047.7,-118.523 1053.77,-115.05"/>
</g>
<!-- 13 -->
<g id="node14" class="node"><title>13</title>
<ellipse fill="paleturquoise" stroke="paleturquoise" cx="1565" cy="-90" rx="106.026" ry="18"/>
<text text-anchor="middle" x="1565" y="-85.8" font-family="Times,serif" font-size="14.00">github.com/ghodss/yaml</text>
</g>
<!-- 12&#45;&gt;13 -->
<g id="edge131" class="edge"><title>12&#45;&gt;13</title>
<path fill="none" stroke="black" d="M1504.37,-144.055C1514.49,-135.199 1527.04,-124.219 1538.09,-114.549"/>
<polygon fill="black" stroke="black" points="1540.59,-117.008 1545.81,-107.789 1535.98,-111.74 1540.59,-117.008"/>
</g>
<!-- 32 -->
<g id="node33" class="node"><title>32</title>
<ellipse fill="paleturquoise" stroke="paleturquoise" cx="1337" cy="-90" rx="103.66" ry="18"/>
<text text-anchor="middle" x="1337" y="-85.8" font-family="Times,serif" font-size="14.00">github.com/golang/glog</text>
</g>
<!-- 12&#45;&gt;32 -->
<g id="edge132" class="edge"><title>12&#45;&gt;32</title>
<path fill="none" stroke="black" d="M1450.3,-144.588C1429.37,-134.688 1402.53,-121.992 1380.22,-111.443"/>
<polygon fill="black" stroke="black" points="1381.51,-108.179 1370.97,-107.068 1378.51,-114.507 1381.51,-108.179"/>
</g>
<!-- 14 -->
<g id="node15" class="node"><title>14</title>
<ellipse fill="paleturquoise" stroke="paleturquoise" cx="1565" cy="-18" rx="79.3425" ry="18"/>
<text text-anchor="middle" x="1565" y="-13.8" font-family="Times,serif" font-size="14.00">gopkg.in/yaml.v2</text>
</g>
<!-- 13&#45;&gt;14 -->
<g id="edge6" class="edge"><title>13&#45;&gt;14</title>
<path fill="none" stroke="black" d="M1565,-71.6966C1565,-63.9827 1565,-54.7125 1565,-46.1124"/>
<polygon fill="black" stroke="black" points="1568.5,-46.1043 1565,-36.1043 1561.5,-46.1044 1568.5,-46.1043"/>
</g>
<!-- 15 -->
<g id="node16" class="node"><title>15</title>
<ellipse fill="paleturquoise" stroke="paleturquoise" cx="4542" cy="-162" rx="136.637" ry="18"/>
<text text-anchor="middle" x="4542" y="-157.8" font-family="Times,serif" font-size="14.00">k8s.io/kubernetes/pkg/util/errors</text>
</g>
<!-- 16 -->
<g id="node17" class="node"><title>16</title>
<ellipse fill="paleturquoise" stroke="paleturquoise" cx="5852" cy="-162" rx="169.029" ry="18"/>
<text text-anchor="middle" x="5852" y="-157.8" font-family="Times,serif" font-size="14.00">github.com/prometheus/common/expfmt</text>
</g>
<!-- 17 -->
<g id="node18" class="node"><title>17</title>
<ellipse fill="paleturquoise" stroke="paleturquoise" cx="5475" cy="-90" rx="121.598" ry="18"/>
<text text-anchor="middle" x="5475" y="-85.8" font-family="Times,serif" font-size="14.00">bitbucket.org/ww/goautoneg</text>
</g>
<!-- 16&#45;&gt;17 -->
<g id="edge7" class="edge"><title>16&#45;&gt;17</title>
<path fill="none" stroke="black" d="M5771.59,-146.069C5708.57,-134.368 5621.21,-118.147 5557.63,-106.342"/>
<polygon fill="black" stroke="black" points="5558.11,-102.871 5547.64,-104.487 5556.83,-109.754 5558.11,-102.871"/>
</g>
<!-- 18 -->
<g id="node19" class="node"><title>18</title>
<ellipse fill="paleturquoise" stroke="paleturquoise" cx="6064" cy="-18" rx="142.968" ry="18"/>
<text text-anchor="middle" x="6064" y="-13.8" font-family="Times,serif" font-size="14.00">github.com/golang/protobuf/proto</text>
</g>
<!-- 16&#45;&gt;18 -->
<g id="edge8" class="edge"><title>16&#45;&gt;18</title>
<path fill="none" stroke="black" d="M5734.29,-149.049C5714.19,-147.211 5693.5,-145.447 5674,-144 5636.27,-141.201 5020.03,-135.448 4994,-108 4982.99,-96.3911 4982.97,-83.5902 4994,-72 5025.15,-39.274 5625.52,-25.6928 5913.02,-21.0482"/>
<polygon fill="black" stroke="black" points="5913.17,-24.5463 5923.11,-20.8867 5913.05,-17.5472 5913.17,-24.5463"/>
</g>
<!-- 19 -->
<g id="node20" class="node"><title>19</title>
<ellipse fill="paleturquoise" stroke="paleturquoise" cx="5852" cy="-90" rx="237.876" ry="18"/>
<text text-anchor="middle" x="5852" y="-85.8" font-family="Times,serif" font-size="14.00">github.com/matttproud/golang_protobuf_extensions/pbutil</text>
</g>
<!-- 16&#45;&gt;19 -->
<g id="edge9" class="edge"><title>16&#45;&gt;19</title>
<path fill="none" stroke="black" d="M5852,-143.697C5852,-135.983 5852,-126.712 5852,-118.112"/>
<polygon fill="black" stroke="black" points="5855.5,-118.104 5852,-108.104 5848.5,-118.104 5855.5,-118.104"/>
</g>
<!-- 20 -->
<g id="node21" class="node"><title>20</title>
<ellipse fill="paleturquoise" stroke="paleturquoise" cx="6276" cy="-90" rx="167.883" ry="18"/>
<text text-anchor="middle" x="6276" y="-85.8" font-family="Times,serif" font-size="14.00">github.com/prometheus/client_model/go</text>
</g>
<!-- 16&#45;&gt;20 -->
<g id="edge10" class="edge"><title>16&#45;&gt;20</title>
<path fill="none" stroke="black" d="M5939.34,-146.581C6009.03,-135.075 6106.6,-118.967 6178.77,-107.053"/>
<polygon fill="black" stroke="black" points="6179.48,-110.483 6188.77,-105.4 6178.34,-103.576 6179.48,-110.483"/>
</g>
<!-- 21 -->
<g id="node22" class="node"><title>21</title>
<ellipse fill="paleturquoise" stroke="paleturquoise" cx="5169" cy="-90" rx="165.6" ry="18"/>
<text text-anchor="middle" x="5169" y="-85.8" font-family="Times,serif" font-size="14.00">github.com/prometheus/common/model</text>
</g>
<!-- 16&#45;&gt;21 -->
<g id="edge11" class="edge"><title>16&#45;&gt;21</title>
<path fill="none" stroke="black" d="M5734.98,-149.006C5612.5,-136.453 5420.85,-116.812 5295.09,-103.923"/>
<polygon fill="black" stroke="black" points="5295.32,-100.428 5285.02,-102.89 5294.61,-107.392 5295.32,-100.428"/>
</g>
<!-- 19&#45;&gt;18 -->
<g id="edge42" class="edge"><title>19&#45;&gt;18</title>
<path fill="none" stroke="black" d="M5902.51,-72.3222C5933.59,-62.0609 5973.53,-48.8735 6005.91,-38.1807"/>
<polygon fill="black" stroke="black" points="6007.3,-41.4074 6015.7,-34.9484 6005.11,-34.7603 6007.3,-41.4074"/>
</g>
<!-- 20&#45;&gt;18 -->
<g id="edge137" class="edge"><title>20&#45;&gt;18</title>
<path fill="none" stroke="black" d="M6226.83,-72.7646C6195.68,-62.4796 6155.24,-49.1252 6122.45,-38.299"/>
<polygon fill="black" stroke="black" points="6123.13,-34.8384 6112.54,-35.0265 6120.94,-41.4855 6123.13,-34.8384"/>
</g>
<!-- 22 -->
<g id="node23" class="node"><title>22</title>
<ellipse fill="paleturquoise" stroke="paleturquoise" cx="2154" cy="-378" rx="110.578" ry="18"/>
<text text-anchor="middle" x="2154" y="-373.8" font-family="Times,serif" font-size="14.00">k8s.io/kubernetes/pkg/api</text>
</g>
<!-- 22&#45;&gt;0 -->
<g id="edge13" class="edge"><title>22&#45;&gt;0</title>
<path fill="none" stroke="black" d="M2054.52,-370.105C1934.48,-361.366 1726.62,-344.89 1549,-324 1539.3,-322.86 1529.17,-321.543 1519.1,-320.158"/>
<polygon fill="black" stroke="black" points="1519.46,-316.675 1509.07,-318.754 1518.49,-323.607 1519.46,-316.675"/>
</g>
<!-- 22&#45;&gt;1 -->
<g id="edge22" class="edge"><title>22&#45;&gt;1</title>
<path fill="none" stroke="black" d="M2187.21,-360.762C2201.28,-351.986 2216.2,-339.697 2224,-324 2231.12,-309.673 2234.06,-300.444 2224,-288 2213.89,-275.488 2134.24,-259.909 2068.07,-248.889"/>
<polygon fill="black" stroke="black" points="2068.44,-245.402 2058,-247.228 2067.3,-252.308 2068.44,-245.402"/>
</g>
<!-- 22&#45;&gt;2 -->
<g id="edge17" class="edge"><title>22&#45;&gt;2</title>
<path fill="none" stroke="black" d="M2076.15,-365.205C1996.5,-353.136 1872.63,-334.368 1787.19,-321.423"/>
<polygon fill="black" stroke="black" points="1787.64,-317.952 1777.23,-319.914 1786.59,-324.873 1787.64,-317.952"/>
</g>
<!-- 22&#45;&gt;6 -->
<g id="edge21" class="edge"><title>22&#45;&gt;6</title>
<path fill="none" stroke="black" d="M2050.64,-371.6C1995.46,-365.321 1927.82,-352.011 1873,-324 1852.28,-313.414 1856.39,-297.139 1835,-288 1750.71,-251.991 1165.97,-240.071 894.239,-236.448"/>
<polygon fill="black" stroke="black" points="893.959,-232.944 883.913,-236.313 893.867,-239.944 893.959,-232.944"/>
</g>
<!-- 22&#45;&gt;9 -->
<g id="edge18" class="edge"><title>22&#45;&gt;9</title>
<path fill="none" stroke="black" d="M2049.12,-372.189C1832.29,-361.991 1352.07,-337.988 1319,-324 1253.22,-296.175 1260.11,-254.569 1200,-216 1179.32,-202.73 1154.75,-191.431 1132.96,-182.719"/>
<polygon fill="black" stroke="black" points="1134.07,-179.398 1123.49,-179.023 1131.53,-185.919 1134.07,-179.398"/>
</g>
<!-- 22&#45;&gt;11 -->
<g id="edge25" class="edge"><title>22&#45;&gt;11</title>
<path fill="none" stroke="black" d="M2165.55,-360.058C2177.42,-340.339 2191.85,-307.94 2174,-288 2125.53,-233.864 1897.47,-306.136 1849,-252 1838.33,-240.08 1837.85,-227.471 1849,-216 1864.34,-200.222 3176.63,-173.842 3609.32,-165.565"/>
<polygon fill="black" stroke="black" points="3609.45,-169.063 3619.38,-165.372 3609.32,-162.064 3609.45,-169.063"/>
</g>
<!-- 23 -->
<g id="node24" class="node"><title>23</title>
<ellipse fill="paleturquoise" stroke="paleturquoise" cx="2620" cy="-162" rx="147.581" ry="18"/>
<text text-anchor="middle" x="2620" y="-157.8" font-family="Times,serif" font-size="14.00">github.com/davecgh/go&#45;spew/spew</text>
</g>
<!-- 22&#45;&gt;23 -->
<g id="edge12" class="edge"><title>22&#45;&gt;23</title>
<path fill="none" stroke="black" d="M2159.82,-359.845C2165.38,-339.921 2170.57,-307.323 2153,-288 2102.34,-232.271 1866.35,-308.013 1816,-252 1805.3,-240.101 1805.06,-227.68 1816,-216 1859.11,-169.958 2240.52,-162.484 2462.17,-162.088"/>
<polygon fill="black" stroke="black" points="2462.28,-165.588 2472.28,-162.074 2462.27,-158.588 2462.28,-165.588"/>
</g>
<!-- 24 -->
<g id="node25" class="node"><title>24</title>
<ellipse fill="paleturquoise" stroke="paleturquoise" cx="760" cy="-306" rx="131.983" ry="18"/>
<text text-anchor="middle" x="760" y="-301.8" font-family="Times,serif" font-size="14.00">k8s.io/kubernetes/pkg/api/meta</text>
</g>
<!-- 22&#45;&gt;24 -->
<g id="edge14" class="edge"><title>22&#45;&gt;24</title>
<path fill="none" stroke="black" d="M2050.08,-371.782C1800.39,-359.244 1167.06,-327.441 891.471,-313.602"/>
<polygon fill="black" stroke="black" points="891.582,-310.103 881.419,-313.097 891.231,-317.094 891.582,-310.103"/>
</g>
<!-- 25 -->
<g id="node26" class="node"><title>25</title>
<ellipse fill="paleturquoise" stroke="paleturquoise" cx="2612" cy="-306" rx="145.849" ry="18"/>
<text text-anchor="middle" x="2612" y="-301.8" font-family="Times,serif" font-size="14.00">k8s.io/kubernetes/pkg/api/resource</text>
</g>
<!-- 22&#45;&gt;25 -->
<g id="edge15" class="edge"><title>22&#45;&gt;25</title>
<path fill="none" stroke="black" d="M2231.69,-365.125C2309.56,-353.225 2429.67,-334.867 2514.03,-321.974"/>
<polygon fill="black" stroke="black" points="2514.77,-325.4 2524.13,-320.43 2513.72,-318.481 2514.77,-325.4"/>
</g>
<!-- 26 -->
<g id="node27" class="node"><title>26</title>
<ellipse fill="paleturquoise" stroke="paleturquoise" cx="3525" cy="-306" rx="160.342" ry="18"/>
<text text-anchor="middle" x="3525" y="-301.8" font-family="Times,serif" font-size="14.00">k8s.io/kubernetes/pkg/api/unversioned</text>
</g>
<!-- 22&#45;&gt;26 -->
<g id="edge16" class="edge"><title>22&#45;&gt;26</title>
<path fill="none" stroke="black" d="M2256.7,-371.202C2319.22,-367.753 2400.7,-363.402 2473,-360 2864.89,-341.561 2963.64,-351.531 3355,-324 3370.8,-322.888 3387.41,-321.5 3403.81,-320"/>
<polygon fill="black" stroke="black" points="3404.34,-323.465 3413.97,-319.053 3403.69,-316.495 3404.34,-323.465"/>
</g>
<!-- 27 -->
<g id="node28" class="node"><title>27</title>
<ellipse fill="paleturquoise" stroke="paleturquoise" cx="224" cy="-306" rx="120.386" ry="18"/>
<text text-anchor="middle" x="224" y="-301.8" font-family="Times,serif" font-size="14.00">k8s.io/kubernetes/pkg/fields</text>
</g>
<!-- 22&#45;&gt;27 -->
<g id="edge19" class="edge"><title>22&#45;&gt;27</title>
<path fill="none" stroke="black" d="M2046.52,-373.603C1796.21,-365.624 1154.9,-344.783 619,-324 528.087,-320.474 425.424,-316.042 347.552,-312.587"/>
<polygon fill="black" stroke="black" points="347.362,-309.076 337.216,-312.128 347.051,-316.069 347.362,-309.076"/>
</g>
<!-- 28 -->
<g id="node29" class="node"><title>28</title>
<ellipse fill="paleturquoise" stroke="paleturquoise" cx="4234" cy="-306" rx="121.03" ry="18"/>
<text text-anchor="middle" x="4234" y="-301.8" font-family="Times,serif" font-size="14.00">k8s.io/kubernetes/pkg/labels</text>
</g>
<!-- 22&#45;&gt;28 -->
<g id="edge20" class="edge"><title>22&#45;&gt;28</title>
<path fill="none" stroke="black" d="M2261.09,-373.396C2612.36,-361.574 3728.7,-324.005 4107.13,-311.27"/>
<polygon fill="black" stroke="black" points="4107.42,-314.762 4117.29,-310.928 4107.18,-307.766 4107.42,-314.762"/>
</g>
<!-- 29 -->
<g id="node30" class="node"><title>29</title>
<ellipse fill="paleturquoise" stroke="paleturquoise" cx="2926" cy="-306" rx="111.739" ry="18"/>
<text text-anchor="middle" x="2926" y="-301.8" font-family="Times,serif" font-size="14.00">k8s.io/kubernetes/pkg/util</text>
</g>
<!-- 22&#45;&gt;29 -->
<g id="edge23" class="edge"><title>22&#45;&gt;29</title>
<path fill="none" stroke="black" d="M2250.67,-369.251C2371.51,-359.424 2584.65,-341.629 2767,-324 2786.38,-322.126 2807.08,-320.003 2826.92,-317.907"/>
<polygon fill="black" stroke="black" points="2827.32,-321.385 2836.89,-316.849 2826.58,-314.424 2827.32,-321.385"/>
</g>
<!-- 30 -->
<g id="node31" class="node"><title>30</title>
<ellipse fill="paleturquoise" stroke="paleturquoise" cx="2013" cy="-306" rx="131.423" ry="18"/>
<text text-anchor="middle" x="2013" y="-301.8" font-family="Times,serif" font-size="14.00">k8s.io/kubernetes/pkg/util/rand</text>
</g>
<!-- 22&#45;&gt;30 -->
<g id="edge24" class="edge"><title>22&#45;&gt;30</title>
<path fill="none" stroke="black" d="M2121.3,-360.765C2101.74,-351.054 2076.67,-338.608 2055.58,-328.137"/>
<polygon fill="black" stroke="black" points="2057.02,-324.945 2046.5,-323.633 2053.91,-331.215 2057.02,-324.945"/>
</g>
<!-- 31 -->
<g id="node32" class="node"><title>31</title>
<ellipse fill="paleturquoise" stroke="paleturquoise" cx="2243" cy="-234" rx="128.529" ry="18"/>
<text text-anchor="middle" x="2243" y="-229.8" font-family="Times,serif" font-size="14.00">speter.net/go/exp/math/dec/inf</text>
</g>
<!-- 22&#45;&gt;31 -->
<g id="edge26" class="edge"><title>22&#45;&gt;31</title>
<path fill="none" stroke="black" d="M2211.14,-362.516C2230.73,-354.521 2250.57,-342.346 2262,-324 2273.81,-305.045 2266.79,-279.887 2258.12,-261.155"/>
<polygon fill="black" stroke="black" points="2261.15,-259.381 2253.54,-252.012 2254.89,-262.52 2261.15,-259.381"/>
</g>
<!-- 24&#45;&gt;1 -->
<g id="edge41" class="edge"><title>24&#45;&gt;1</title>
<path fill="none" stroke="black" d="M878.907,-298.161C1111.55,-284.779 1624.48,-255.277 1857.55,-241.87"/>
<polygon fill="black" stroke="black" points="1857.98,-245.352 1867.76,-241.283 1857.58,-238.363 1857.98,-245.352"/>
</g>
<!-- 24&#45;&gt;6 -->
<g id="edge40" class="edge"><title>24&#45;&gt;6</title>
<path fill="none" stroke="black" d="M759.011,-287.697C758.57,-279.983 758.041,-270.712 757.549,-262.112"/>
<polygon fill="black" stroke="black" points="761.042,-261.888 756.977,-252.104 754.054,-262.288 761.042,-261.888"/>
</g>
<!-- 24&#45;&gt;9 -->
<g id="edge39" class="edge"><title>24&#45;&gt;9</title>
<path fill="none" stroke="black" d="M803.201,-288.898C829.633,-278.804 864.019,-265.236 894,-252 942.884,-230.42 997.845,-203.108 1034.45,-184.469"/>
<polygon fill="black" stroke="black" points="1036.5,-187.355 1043.81,-179.69 1033.31,-181.121 1036.5,-187.355"/>
</g>
<!-- 25&#45;&gt;31 -->
<g id="edge136" class="edge"><title>25&#45;&gt;31</title>
<path fill="none" stroke="black" d="M2535.99,-290.581C2474.81,-278.975 2388.95,-262.686 2325.98,-250.742"/>
<polygon fill="black" stroke="black" points="2326.56,-247.289 2316.08,-248.864 2325.25,-254.166 2326.56,-247.289"/>
</g>
<!-- 36 -->
<g id="node37" class="node"><title>36</title>
<ellipse fill="paleturquoise" stroke="paleturquoise" cx="2491" cy="-234" rx="101.349" ry="18"/>
<text text-anchor="middle" x="2491" y="-229.8" font-family="Times,serif" font-size="14.00">github.com/spf13/pflag</text>
</g>
<!-- 25&#45;&gt;36 -->
<g id="edge135" class="edge"><title>25&#45;&gt;36</title>
<path fill="none" stroke="black" d="M2583.02,-288.233C2566.59,-278.727 2545.85,-266.731 2528.22,-256.534"/>
<polygon fill="black" stroke="black" points="2529.74,-253.366 2519.33,-251.388 2526.23,-259.426 2529.74,-253.366"/>
</g>
<!-- 33 -->
<g id="node34" class="node"><title>33</title>
<ellipse fill="paleturquoise" stroke="paleturquoise" cx="3572" cy="-234" rx="112.869" ry="18"/>
<text text-anchor="middle" x="3572" y="-229.8" font-family="Times,serif" font-size="14.00">github.com/google/gofuzz</text>
</g>
<!-- 26&#45;&gt;33 -->
<g id="edge150" class="edge"><title>26&#45;&gt;33</title>
<path fill="none" stroke="black" d="M3536.62,-287.697C3542.14,-279.474 3548.85,-269.483 3554.93,-260.421"/>
<polygon fill="black" stroke="black" points="3557.85,-262.358 3560.52,-252.104 3552.04,-258.456 3557.85,-262.358"/>
</g>
<!-- 28&#45;&gt;11 -->
<g id="edge73" class="edge"><title>28&#45;&gt;11</title>
<path fill="none" stroke="black" d="M4243.32,-287.937C4252.75,-268.101 4263.62,-235.589 4246,-216 4221.78,-189.073 4018.8,-174.783 3879.03,-168.063"/>
<polygon fill="black" stroke="black" points="3878.81,-164.549 3868.66,-167.573 3878.48,-171.541 3878.81,-164.549"/>
</g>
<!-- 42 -->
<g id="node43" class="node"><title>42</title>
<ellipse fill="paleturquoise" stroke="paleturquoise" cx="4084" cy="-234" rx="152.85" ry="18"/>
<text text-anchor="middle" x="4084" y="-229.8" font-family="Times,serif" font-size="14.00">k8s.io/kubernetes/pkg/util/validation</text>
</g>
<!-- 28&#45;&gt;42 -->
<g id="edge74" class="edge"><title>28&#45;&gt;42</title>
<path fill="none" stroke="black" d="M4198.83,-288.588C4177.92,-278.829 4151.19,-266.354 4128.78,-255.896"/>
<polygon fill="black" stroke="black" points="4130.01,-252.609 4119.47,-251.552 4127.05,-258.952 4130.01,-252.609"/>
</g>
<!-- 54 -->
<g id="node55" class="node"><title>54</title>
<ellipse fill="paleturquoise" stroke="paleturquoise" cx="4448" cy="-234" rx="154.531" ry="18"/>
<text text-anchor="middle" x="4448" y="-229.8" font-family="Times,serif" font-size="14.00">k8s.io/kubernetes/pkg/util/fielderrors</text>
</g>
<!-- 28&#45;&gt;54 -->
<g id="edge72" class="edge"><title>28&#45;&gt;54</title>
<path fill="none" stroke="black" d="M4281.76,-289.378C4313.38,-279.036 4355.07,-265.397 4388.79,-254.367"/>
<polygon fill="black" stroke="black" points="4390.11,-257.618 4398.53,-251.182 4387.94,-250.964 4390.11,-257.618"/>
</g>
<!-- 29&#45;&gt;1 -->
<g id="edge35" class="edge"><title>29&#45;&gt;1</title>
<path fill="none" stroke="black" d="M2838.19,-294.783C2815.05,-292.318 2790.11,-289.862 2767,-288 2473.3,-264.329 2398.38,-279.417 2105,-252 2093.69,-250.943 2081.85,-249.639 2070.12,-248.227"/>
<polygon fill="black" stroke="black" points="2070.22,-244.712 2059.86,-246.961 2069.36,-251.659 2070.22,-244.712"/>
</g>
<!-- 29&#45;&gt;3 -->
<g id="edge34" class="edge"><title>29&#45;&gt;3</title>
<path fill="none" stroke="black" d="M2886.06,-289.116C2860.21,-278.832 2826.36,-265.372 2798.9,-254.449"/>
<polygon fill="black" stroke="black" points="2800.06,-251.144 2789.48,-250.701 2797.47,-257.648 2800.06,-251.144"/>
</g>
<!-- 29&#45;&gt;7 -->
<g id="edge30" class="edge"><title>29&#45;&gt;7</title>
<path fill="none" stroke="black" d="M2938.59,-288.055C2944.76,-279.753 2952.31,-269.584 2959.15,-260.378"/>
<polygon fill="black" stroke="black" points="2962.01,-262.39 2965.17,-252.275 2956.39,-258.216 2962.01,-262.39"/>
</g>
<!-- 29&#45;&gt;11 -->
<g id="edge36" class="edge"><title>29&#45;&gt;11</title>
<path fill="none" stroke="black" d="M3015.68,-295.282C3154.23,-280.244 3404.76,-252.954 3407,-252 3429.92,-242.216 3427.42,-226.551 3450,-216 3502.65,-191.399 3565.49,-178.171 3619.69,-171.077"/>
<polygon fill="black" stroke="black" points="3620.22,-174.539 3629.7,-169.823 3619.35,-167.593 3620.22,-174.539"/>
</g>
<!-- 29&#45;&gt;23 -->
<g id="edge27" class="edge"><title>29&#45;&gt;23</title>
<path fill="none" stroke="black" d="M2848.8,-292.911C2766.41,-279.682 2646.58,-259.375 2639,-252 2622.68,-236.126 2618.71,-209.923 2618.36,-190.049"/>
<polygon fill="black" stroke="black" points="2621.86,-190.082 2618.47,-180.043 2614.86,-190.004 2621.86,-190.082"/>
</g>
<!-- 29&#45;&gt;32 -->
<g id="edge28" class="edge"><title>29&#45;&gt;32</title>
<path fill="none" stroke="black" d="M3014.52,-295.022C3133.47,-281.409 3330.71,-258.014 3336,-252 3346.56,-239.983 3346.57,-228.015 3336,-216 3170.57,-27.8982 3026.74,-163.421 2777,-144 2188.78,-98.2569 2037.7,-159.983 1450,-108 1439.74,-107.093 1429,-105.854 1418.39,-104.456"/>
<polygon fill="black" stroke="black" points="1418.66,-100.961 1408.27,-103.073 1417.71,-107.896 1418.66,-100.961"/>
</g>
<!-- 29&#45;&gt;33 -->
<g id="edge29" class="edge"><title>29&#45;&gt;33</title>
<path fill="none" stroke="black" d="M3015.96,-295.273C3038.5,-292.866 3062.63,-290.314 3085,-288 3244.94,-271.452 3285.29,-270.67 3445,-252 3456.28,-250.682 3468.11,-249.213 3479.82,-247.707"/>
<polygon fill="black" stroke="black" points="3480.6,-251.135 3490.07,-246.376 3479.7,-244.193 3480.6,-251.135"/>
</g>
<!-- 34 -->
<g id="node35" class="node"><title>34</title>
<ellipse fill="paleturquoise" stroke="paleturquoise" cx="3215" cy="-234" rx="111.747" ry="18"/>
<text text-anchor="middle" x="3215" y="-229.8" font-family="Times,serif" font-size="14.00">github.com/pborman/uuid</text>
</g>
<!-- 29&#45;&gt;34 -->
<g id="edge31" class="edge"><title>29&#45;&gt;34</title>
<path fill="none" stroke="black" d="M2985.18,-290.666C3031.84,-279.364 3096.98,-263.585 3146.01,-251.711"/>
<polygon fill="black" stroke="black" points="3147,-255.071 3155.9,-249.315 3145.36,-248.268 3147,-255.071"/>
</g>
<!-- 35 -->
<g id="node36" class="node"><title>35</title>
<ellipse fill="paleturquoise" stroke="paleturquoise" cx="5470" cy="-234" rx="205.466" ry="18"/>
<text text-anchor="middle" x="5470" y="-229.8" font-family="Times,serif" font-size="14.00">github.com/prometheus/client_golang/prometheus</text>
</g>
<!-- 29&#45;&gt;35 -->
<g id="edge32" class="edge"><title>29&#45;&gt;35</title>
<path fill="none" stroke="black" d="M3011.7,-294.439C3035.41,-291.898 3061.17,-289.491 3085,-288 3950.57,-233.847 4169.1,-276.974 5036,-252 5116.16,-249.691 5204.62,-246.366 5280.65,-243.269"/>
<polygon fill="black" stroke="black" points="5280.96,-246.759 5290.81,-242.853 5280.68,-239.765 5280.96,-246.759"/>
</g>
<!-- 29&#45;&gt;36 -->
<g id="edge33" class="edge"><title>29&#45;&gt;36</title>
<path fill="none" stroke="black" d="M2849.73,-292.727C2772.39,-280.281 2653.06,-261.079 2573.54,-248.282"/>
<polygon fill="black" stroke="black" points="2573.99,-244.81 2563.56,-246.676 2572.88,-251.721 2573.99,-244.81"/>
</g>
<!-- 35&#45;&gt;8 -->
<g id="edge115" class="edge"><title>35&#45;&gt;8</title>
<path fill="none" stroke="black" d="M5483.1,-215.697C5489.39,-207.389 5497.05,-197.277 5503.96,-188.141"/>
<polygon fill="black" stroke="black" points="5506.8,-190.19 5510.05,-180.104 5501.22,-185.964 5506.8,-190.19"/>
</g>
<!-- 35&#45;&gt;16 -->
<g id="edge118" class="edge"><title>35&#45;&gt;16</title>
<path fill="none" stroke="black" d="M5554.3,-217.552C5615.62,-206.316 5698.54,-191.121 5761.29,-179.622"/>
<polygon fill="black" stroke="black" points="5761.98,-183.055 5771.18,-177.809 5760.72,-176.169 5761.98,-183.055"/>
</g>
<!-- 35&#45;&gt;18 -->
<g id="edge116" class="edge"><title>35&#45;&gt;18</title>
<path fill="none" stroke="black" d="M5640.31,-223.896C5908.09,-207.759 6402.52,-169.885 6453,-108 6463.11,-95.6016 6463.52,-84.0532 6453,-72 6422.13,-36.6356 6311.85,-23.984 6216.56,-19.8415"/>
<polygon fill="black" stroke="black" points="6216.64,-16.3419 6206.5,-19.4331 6216.35,-23.3361 6216.64,-16.3419"/>
</g>
<!-- 35&#45;&gt;20 -->
<g id="edge117" class="edge"><title>35&#45;&gt;20</title>
<path fill="none" stroke="black" d="M5659.49,-226.971C5768.85,-220.543 5908.39,-207.29 6030,-180 6101.87,-163.871 6181.42,-132.456 6230.06,-111.598"/>
<polygon fill="black" stroke="black" points="6231.58,-114.756 6239.37,-107.575 6228.8,-108.33 6231.58,-114.756"/>
</g>
<!-- 40 -->
<g id="node41" class="node"><title>40</title>
<ellipse fill="paleturquoise" stroke="paleturquoise" cx="5234" cy="-162" rx="129.118" ry="18"/>
<text text-anchor="middle" x="5234" y="-157.8" font-family="Times,serif" font-size="14.00">github.com/prometheus/procfs</text>
</g>
<!-- 35&#45;&gt;40 -->
<g id="edge119" class="edge"><title>35&#45;&gt;40</title>
<path fill="none" stroke="black" d="M5414.67,-216.588C5379.15,-206.053 5332.96,-192.353 5296.18,-181.442"/>
<polygon fill="black" stroke="black" points="5297.14,-178.076 5286.55,-178.588 5295.15,-184.787 5297.14,-178.076"/>
</g>
<!-- 37 -->
<g id="node38" class="node"><title>37</title>
<ellipse fill="paleturquoise" stroke="paleturquoise" cx="4861" cy="-378" rx="165.547" ry="18"/>
<text text-anchor="middle" x="4861" y="-373.8" font-family="Times,serif" font-size="14.00">github.com/emicklei/go&#45;restful/swagger</text>
</g>
<!-- 38 -->
<g id="node39" class="node"><title>38</title>
<ellipse fill="paleturquoise" stroke="paleturquoise" cx="4896" cy="-306" rx="130.836" ry="18"/>
<text text-anchor="middle" x="4896" y="-301.8" font-family="Times,serif" font-size="14.00">github.com/emicklei/go&#45;restful</text>
</g>
<!-- 37&#45;&gt;38 -->
<g id="edge37" class="edge"><title>37&#45;&gt;38</title>
<path fill="none" stroke="black" d="M4869.65,-359.697C4873.64,-351.728 4878.45,-342.1 4882.87,-333.264"/>
<polygon fill="black" stroke="black" points="4886.11,-334.614 4887.45,-324.104 4879.85,-331.483 4886.11,-334.614"/>
</g>
<!-- 39 -->
<g id="node40" class="node"><title>39</title>
<ellipse fill="paleturquoise" stroke="paleturquoise" cx="4881" cy="-234" rx="145.884" ry="18"/>
<text text-anchor="middle" x="4881" y="-229.8" font-family="Times,serif" font-size="14.00">github.com/emicklei/go&#45;restful/log</text>
</g>
<!-- 37&#45;&gt;39 -->
<g id="edge38" class="edge"><title>37&#45;&gt;39</title>
<path fill="none" stroke="black" d="M4802.92,-361.074C4784.7,-353.043 4766.6,-341.217 4756,-324 4747.61,-310.374 4747.17,-301.34 4756,-288 4766.27,-272.495 4782.08,-261.514 4799.04,-253.739"/>
<polygon fill="black" stroke="black" points="4800.69,-256.842 4808.55,-249.742 4797.98,-250.389 4800.69,-256.842"/>
</g>
<!-- 38&#45;&gt;39 -->
<g id="edge133" class="edge"><title>38&#45;&gt;39</title>
<path fill="none" stroke="black" d="M4892.29,-287.697C4890.64,-279.983 4888.65,-270.712 4886.81,-262.112"/>
<polygon fill="black" stroke="black" points="4890.18,-261.149 4884.67,-252.104 4883.34,-262.616 4890.18,-261.149"/>
</g>
<!-- 41 -->
<g id="node42" class="node"><title>41</title>
<ellipse fill="paleturquoise" stroke="paleturquoise" cx="3273" cy="-594" rx="130.857" ry="18"/>
<text text-anchor="middle" x="3273" y="-589.8" font-family="Times,serif" font-size="14.00">k8s.io/kubernetes/pkg/util/wait</text>
</g>
<!-- 43 -->
<g id="node44" class="node"><title>43</title>
<ellipse fill="paleturquoise" stroke="paleturquoise" cx="922" cy="-450" rx="133.705" ry="18"/>
<text text-anchor="middle" x="922" y="-445.8" font-family="Times,serif" font-size="14.00">k8s.io/kubernetes/pkg/api/latest</text>
</g>
<!-- 43&#45;&gt;6 -->
<g id="edge45" class="edge"><title>43&#45;&gt;6</title>
<path fill="none" stroke="black" d="M881.134,-432.823C799.327,-400.347 622.887,-329.808 619,-324 610.101,-310.703 609.955,-301.198 619,-288 630.47,-271.264 648.043,-259.811 666.817,-251.975"/>
<polygon fill="black" stroke="black" points="668.322,-255.146 676.412,-248.304 665.821,-248.608 668.322,-255.146"/>
</g>
<!-- 43&#45;&gt;24 -->
<g id="edge43" class="edge"><title>43&#45;&gt;24</title>
<path fill="none" stroke="black" d="M886.299,-432.507C868.339,-423.236 846.864,-410.597 830,-396 808.572,-377.452 789.079,-351.569 776.137,-332.495"/>
<polygon fill="black" stroke="black" points="778.945,-330.397 770.499,-324.001 773.113,-334.268 778.945,-330.397"/>
</g>
<!-- 44 -->
<g id="node45" class="node"><title>44</title>
<ellipse fill="paleturquoise" stroke="paleturquoise" cx="1441" cy="-378" rx="151.084" ry="18"/>
<text text-anchor="middle" x="1441" y="-373.8" font-family="Times,serif" font-size="14.00">k8s.io/kubernetes/pkg/api/registered</text>
</g>
<!-- 43&#45;&gt;44 -->
<g id="edge44" class="edge"><title>43&#45;&gt;44</title>
<path fill="none" stroke="black" d="M1012.7,-436.767C1102.41,-424.667 1239.68,-406.154 1334.52,-393.362"/>
<polygon fill="black" stroke="black" points="1335.27,-396.792 1344.71,-391.987 1334.33,-389.855 1335.27,-396.792"/>
</g>
<!-- 44&#45;&gt;32 -->
<g id="edge83" class="edge"><title>44&#45;&gt;32</title>
<path fill="none" stroke="black" d="M1352.51,-363.346C1308.23,-354.52 1261.27,-341.408 1248,-324 1199.17,-259.949 1223.77,-210.644 1269,-144 1277.12,-132.041 1288.78,-121.563 1300.17,-113.15"/>
<polygon fill="black" stroke="black" points="1302.19,-116.011 1308.36,-107.398 1298.16,-110.284 1302.19,-116.011"/>
</g>
<!-- 46 -->
<g id="node47" class="node"><title>46</title>
<ellipse fill="paleturquoise" stroke="paleturquoise" cx="3220" cy="-306" rx="126.204" ry="18"/>
<text text-anchor="middle" x="3220" y="-301.8" font-family="Times,serif" font-size="14.00">k8s.io/kubernetes/pkg/api/util</text>
</g>
<!-- 44&#45;&gt;46 -->
<g id="edge84" class="edge"><title>44&#45;&gt;46</title>
<path fill="none" stroke="black" d="M1585.79,-372.761C1953.39,-361.921 2903.81,-333.388 3047,-324 3068.54,-322.587 3091.56,-320.637 3113.54,-318.559"/>
<polygon fill="black" stroke="black" points="3113.94,-322.037 3123.56,-317.597 3113.27,-315.069 3113.94,-322.037"/>
</g>
<!-- 45 -->
<g id="node46" class="node"><title>45</title>
<ellipse fill="paleturquoise" stroke="paleturquoise" cx="2612" cy="-594" rx="184.066" ry="18"/>
<text text-anchor="middle" x="2612" y="-589.8" font-family="Times,serif" font-size="14.00">k8s.io/kubernetes/pkg/apis/extensions/install</text>
</g>
<!-- 45&#45;&gt;6 -->
<g id="edge54" class="edge"><title>45&#45;&gt;6</title>
<path fill="none" stroke="black" d="M2428.69,-592.325C2064.69,-590.109 1262.4,-580.62 990,-540 982.402,-538.867 729.518,-472.065 723,-468 714.042,-462.413 602.634,-333.912 599,-324 593.492,-308.978 589.669,-300.998 599,-288 612.152,-269.678 631.974,-257.608 653.145,-249.678"/>
<polygon fill="black" stroke="black" points="654.297,-252.983 662.616,-246.423 652.021,-246.363 654.297,-252.983"/>
</g>
<!-- 45&#45;&gt;11 -->
<g id="edge55" class="edge"><title>45&#45;&gt;11</title>
<path fill="none" stroke="black" d="M2720.78,-579.403C2793.08,-569.804 2890.01,-555.861 2975,-540 3116.6,-513.574 3153.38,-510.533 3291,-468 3416.06,-429.35 3439.3,-396.529 3565,-360 3646.27,-336.38 3690.92,-382.587 3752,-324 3787.07,-290.364 3778.88,-263.576 3769,-216 3767.12,-206.965 3763.63,-197.579 3759.91,-189.261"/>
<polygon fill="black" stroke="black" points="3763,-187.598 3755.54,-180.072 3756.68,-190.606 3763,-187.598"/>
</g>
<!-- 45&#45;&gt;22 -->
<g id="edge47" class="edge"><title>45&#45;&gt;22</title>
<path fill="none" stroke="black" d="M2517.45,-578.505C2401.57,-558.752 2214.9,-519.821 2169,-468 2154.27,-451.373 2151.26,-425.872 2151.5,-406.422"/>
<polygon fill="black" stroke="black" points="2155,-406.469 2151.91,-396.334 2148,-406.182 2155,-406.469"/>
</g>
<!-- 45&#45;&gt;24 -->
<g id="edge49" class="edge"><title>45&#45;&gt;24</title>
<path fill="none" stroke="black" d="M2433.77,-589.47C2145.82,-583.05 1590.85,-567.521 1396,-540 1261.08,-520.944 1215.36,-537.229 1098,-468 1079.31,-456.972 1084.04,-442.416 1065,-432 983.074,-387.188 938.455,-443.403 858,-396 840.298,-385.57 843.695,-374.359 829,-360 818.046,-349.296 804.945,-338.758 793.117,-329.932"/>
<polygon fill="black" stroke="black" points="794.915,-326.911 784.777,-323.831 790.781,-332.56 794.915,-326.911"/>
</g>
<!-- 45&#45;&gt;32 -->
<g id="edge46" class="edge"><title>45&#45;&gt;32</title>
<path fill="none" stroke="black" d="M2753.99,-582.522C2847.89,-574.246 2973.42,-560.605 3083,-540 3205.48,-516.97 3234.71,-504.059 3354,-468 3356.98,-467.1 3775.49,-325.837 3778,-324 3852.92,-269.167 3949.16,-210.132 3884,-144 3836.54,-95.8342 1517.39,-113.542 1450,-108 1439.66,-107.15 1428.83,-105.938 1418.14,-104.547"/>
<polygon fill="black" stroke="black" points="1418.34,-101.041 1407.96,-103.165 1417.4,-107.978 1418.34,-101.041"/>
</g>
<!-- 45&#45;&gt;43 -->
<g id="edge48" class="edge"><title>45&#45;&gt;43</title>
<path fill="none" stroke="black" d="M2429.27,-591.863C2048.97,-588.75 1197.06,-577.623 1070,-540 1024.67,-526.576 979.028,-495.922 950.66,-474.357"/>
<polygon fill="black" stroke="black" points="952.48,-471.339 942.43,-467.985 948.194,-476.875 952.48,-471.339"/>
</g>
<!-- 45&#45;&gt;44 -->
<g id="edge50" class="edge"><title>45&#45;&gt;44</title>
<path fill="none" stroke="black" d="M2499.63,-579.674C2422,-569.972 2316.48,-555.806 2224,-540 1963.16,-495.42 1656.5,-427.932 1516.98,-396.392"/>
<polygon fill="black" stroke="black" points="1517.76,-392.979 1507.23,-394.184 1516.21,-399.806 1517.76,-392.979"/>
</g>
<!-- 45&#45;&gt;46 -->
<g id="edge51" class="edge"><title>45&#45;&gt;46</title>
<path fill="none" stroke="black" d="M2697.24,-577.93C2733.72,-569.595 2776.09,-557.329 2812,-540 2884.37,-505.076 2888.16,-473.447 2957,-432 3028.3,-389.075 3116.65,-349.668 3170.64,-327.004"/>
<polygon fill="black" stroke="black" points="3172.1,-330.186 3179.98,-323.105 3169.41,-323.726 3172.1,-330.186"/>
</g>
<!-- 47 -->
<g id="node48" class="node"><title>47</title>
<ellipse fill="paleturquoise" stroke="paleturquoise" cx="3124" cy="-450" rx="157.988" ry="18"/>
<text text-anchor="middle" x="3124" y="-445.8" font-family="Times,serif" font-size="14.00">k8s.io/kubernetes/pkg/apis/extensions</text>
</g>
<!-- 45&#45;&gt;47 -->
<g id="edge52" class="edge"><title>45&#45;&gt;47</title>
<path fill="none" stroke="black" d="M2723.48,-579.607C2781.09,-571.143 2852.1,-558.289 2914,-540 2974.19,-522.215 3040.36,-492.332 3082.02,-472.152"/>
<polygon fill="black" stroke="black" points="3083.59,-475.282 3091.04,-467.75 3080.52,-468.991 3083.59,-475.282"/>
</g>
<!-- 48 -->
<g id="node49" class="node"><title>48</title>
<ellipse fill="paleturquoise" stroke="paleturquoise" cx="2612" cy="-522" rx="190.997" ry="18"/>
<text text-anchor="middle" x="2612" y="-517.8" font-family="Times,serif" font-size="14.00">k8s.io/kubernetes/pkg/apis/extensions/v1beta1</text>
</g>
<!-- 45&#45;&gt;48 -->
<g id="edge53" class="edge"><title>45&#45;&gt;48</title>
<path fill="none" stroke="black" d="M2612,-575.697C2612,-567.983 2612,-558.712 2612,-550.112"/>
<polygon fill="black" stroke="black" points="2615.5,-550.104 2612,-540.104 2608.5,-550.104 2615.5,-550.104"/>
</g>
<!-- 47&#45;&gt;9 -->
<g id="edge78" class="edge"><title>47&#45;&gt;9</title>
<path fill="none" stroke="black" d="M3192.93,-433.793C3227.91,-424.897 3270.59,-412.205 3307,-396 3334.72,-383.665 3336.32,-369.896 3365,-360 3434.53,-336.012 3644.9,-378.761 3694,-324 3726.04,-288.261 3727.68,-250.2 3694,-216 3648.15,-169.445 1407.29,-182.584 1342,-180 1297.17,-178.226 1248.15,-175.357 1204.54,-172.477"/>
<polygon fill="black" stroke="black" points="1204.66,-168.978 1194.45,-171.805 1204.19,-175.962 1204.66,-168.978"/>
</g>
<!-- 47&#45;&gt;11 -->
<g id="edge81" class="edge"><title>47&#45;&gt;11</title>
<path fill="none" stroke="black" d="M3193.35,-433.791C3241.51,-423.218 3307.17,-408.784 3365,-396 3437.02,-380.079 3454.69,-374.536 3527,-360 3571.27,-351.1 3696.05,-356.885 3727,-324 3760.83,-288.059 3757.23,-225.812 3751.6,-190.163"/>
<polygon fill="black" stroke="black" points="3755,-189.261 3749.83,-180.012 3748.1,-190.465 3755,-189.261"/>
</g>
<!-- 47&#45;&gt;22 -->
<g id="edge75" class="edge"><title>47&#45;&gt;22</title>
<path fill="none" stroke="black" d="M2994.69,-439.668C2801.94,-425.759 2442.73,-399.836 2262.71,-386.845"/>
<polygon fill="black" stroke="black" points="2262.92,-383.351 2252.69,-386.122 2262.42,-390.333 2262.92,-383.351"/>
</g>
<!-- 47&#45;&gt;25 -->
<g id="edge76" class="edge"><title>47&#45;&gt;25</title>
<path fill="none" stroke="black" d="M2990.95,-440.279C2923.92,-433.069 2842.19,-419.928 2772,-396 2725.04,-379.991 2675.86,-350.417 2644.63,-329.771"/>
<polygon fill="black" stroke="black" points="2646.18,-326.597 2635.92,-323.94 2642.28,-332.413 2646.18,-326.597"/>
</g>
<!-- 47&#45;&gt;26 -->
<g id="edge77" class="edge"><title>47&#45;&gt;26</title>
<path fill="none" stroke="black" d="M3160.04,-432.364C3201.98,-413.373 3273.61,-382.088 3337,-360 3374.61,-346.894 3417.29,-334.657 3452.46,-325.251"/>
<polygon fill="black" stroke="black" points="3453.4,-328.622 3462.17,-322.675 3451.61,-321.856 3453.4,-328.622"/>
</g>
<!-- 47&#45;&gt;28 -->
<g id="edge79" class="edge"><title>47&#45;&gt;28</title>
<path fill="none" stroke="black" d="M3203.46,-434.449C3310.18,-415.296 3505.86,-381.537 3674,-360 3827.26,-340.369 4005,-324.758 4118.4,-315.697"/>
<polygon fill="black" stroke="black" points="4118.8,-319.177 4128.49,-314.895 4118.25,-312.199 4118.8,-319.177"/>
</g>
<!-- 47&#45;&gt;29 -->
<g id="edge80" class="edge"><title>47&#45;&gt;29</title>
<path fill="none" stroke="black" d="M3100.51,-432.153C3065.01,-406.692 2997.61,-358.356 2957.76,-329.78"/>
<polygon fill="black" stroke="black" points="2959.63,-326.809 2949.46,-323.825 2955.55,-332.497 2959.63,-326.809"/>
</g>
<!-- 47&#45;&gt;31 -->
<g id="edge82" class="edge"><title>47&#45;&gt;31</title>
<path fill="none" stroke="black" d="M3064.65,-433.233C2998.06,-413.896 2888.47,-377.023 2805,-324 2785.36,-311.526 2788.19,-297.607 2767,-288 2688.54,-252.425 2466.65,-261.268 2381,-252 2369.28,-250.732 2357.01,-249.329 2344.83,-247.889"/>
<polygon fill="black" stroke="black" points="2344.98,-244.382 2334.63,-246.673 2344.15,-251.333 2344.98,-244.382"/>
</g>
<!-- 48&#45;&gt;6 -->
<g id="edge126" class="edge"><title>48&#45;&gt;6</title>
<path fill="none" stroke="black" d="M2586.42,-504.154C2557.68,-485.524 2509.36,-455.092 2466,-432 2330.84,-360.027 2301.93,-323.588 2153,-288 2032.93,-259.309 1221.34,-242.746 893.229,-237.156"/>
<polygon fill="black" stroke="black" points="893.246,-233.656 883.188,-236.986 893.128,-240.655 893.246,-233.656"/>
</g>
<!-- 48&#45;&gt;9 -->
<g id="edge125" class="edge"><title>48&#45;&gt;9</title>
<path fill="none" stroke="black" d="M2649.82,-504.255C2673.23,-493.867 2703.88,-480.216 2731,-468 2871.72,-404.603 2919.01,-410.25 3047,-324 3066.29,-310.999 3064.06,-298.128 3085,-288 3189.48,-237.477 3417.32,-298.8 3336,-216 3297.18,-176.476 1397.35,-182.267 1342,-180 1297.28,-178.168 1248.39,-175.294 1204.85,-172.427"/>
<polygon fill="black" stroke="black" points="1204.99,-168.928 1194.78,-171.757 1204.53,-175.913 1204.99,-168.928"/>
</g>
<!-- 48&#45;&gt;22 -->
<g id="edge120" class="edge"><title>48&#45;&gt;22</title>
<path fill="none" stroke="black" d="M2439.2,-514.293C2345.16,-507.636 2240.37,-494.382 2202,-468 2180.84,-453.449 2168.19,-426.467 2161.23,-406.012"/>
<polygon fill="black" stroke="black" points="2164.52,-404.786 2158.18,-396.294 2157.84,-406.884 2164.52,-404.786"/>
</g>
<!-- 48&#45;&gt;25 -->
<g id="edge121" class="edge"><title>48&#45;&gt;25</title>
<path fill="none" stroke="black" d="M2612,-503.849C2612,-466.832 2612,-379.181 2612,-334.386"/>
<polygon fill="black" stroke="black" points="2615.5,-334.232 2612,-324.232 2608.5,-334.232 2615.5,-334.232"/>
</g>
<!-- 48&#45;&gt;26 -->
<g id="edge122" class="edge"><title>48&#45;&gt;26</title>
<path fill="none" stroke="black" d="M2710.47,-506.534C2760.69,-497.83 2822.32,-485.086 2876,-468 2913.54,-456.051 2919.75,-444.825 2957,-432 3081.75,-389.046 3116.13,-388.281 3245,-360 3306.98,-346.398 3377.15,-333.121 3431.73,-323.258"/>
<polygon fill="black" stroke="black" points="3432.52,-326.673 3441.74,-321.457 3431.28,-319.784 3432.52,-326.673"/>
</g>
<!-- 48&#45;&gt;29 -->
<g id="edge127" class="edge"><title>48&#45;&gt;29</title>
<path fill="none" stroke="black" d="M2636.79,-504.064C2679.78,-474.707 2770.92,-412.477 2848,-360 2862.79,-349.928 2879.17,-338.794 2893.09,-329.341"/>
<polygon fill="black" stroke="black" points="2895.09,-332.211 2901.4,-323.698 2891.16,-326.421 2895.09,-332.211"/>
</g>
<!-- 48&#45;&gt;31 -->
<g id="edge128" class="edge"><title>48&#45;&gt;31</title>
<path fill="none" stroke="black" d="M2598.29,-503.872C2573.25,-473.142 2517.65,-407.431 2463,-360 2420.54,-323.15 2407.87,-315.79 2359,-288 2337.8,-275.946 2313.37,-264.454 2292.42,-255.272"/>
<polygon fill="black" stroke="black" points="2293.63,-251.981 2283.06,-251.222 2290.85,-258.405 2293.63,-251.981"/>
</g>
<!-- 48&#45;&gt;47 -->
<g id="edge124" class="edge"><title>48&#45;&gt;47</title>
<path fill="none" stroke="black" d="M2715.61,-506.834C2803.25,-494.852 2928.36,-477.747 3016.97,-465.634"/>
<polygon fill="black" stroke="black" points="3017.61,-469.078 3027.04,-464.256 3016.66,-462.143 3017.61,-469.078"/>
</g>
<!-- 50 -->
<g id="node51" class="node"><title>50</title>
<ellipse fill="paleturquoise" stroke="paleturquoise" cx="2334" cy="-450" rx="122.759" ry="18"/>
<text text-anchor="middle" x="2334" y="-445.8" font-family="Times,serif" font-size="14.00">k8s.io/kubernetes/pkg/api/v1</text>
</g>
<!-- 48&#45;&gt;50 -->
<g id="edge123" class="edge"><title>48&#45;&gt;50</title>
<path fill="none" stroke="black" d="M2548.22,-504.941C2504.85,-494.021 2447.5,-479.58 2403.06,-468.389"/>
<polygon fill="black" stroke="black" points="2403.76,-464.956 2393.21,-465.908 2402.05,-471.744 2403.76,-464.956"/>
</g>
<!-- 49 -->
<g id="node50" class="node"><title>49</title>
<ellipse fill="paleturquoise" stroke="paleturquoise" cx="496" cy="-378" rx="121.594" ry="18"/>
<text text-anchor="middle" x="496" y="-373.8" font-family="Times,serif" font-size="14.00">k8s.io/kubernetes/pkg/watch</text>
</g>
<!-- 49&#45;&gt;6 -->
<g id="edge57" class="edge"><title>49&#45;&gt;6</title>
<path fill="none" stroke="black" d="M493.46,-359.805C491.556,-339.843 491.841,-307.209 510,-288 528.934,-267.971 588.962,-254.811 644.977,-246.614"/>
<polygon fill="black" stroke="black" points="645.604,-250.06 655.014,-245.191 644.621,-243.129 645.604,-250.06"/>
</g>
<!-- 49&#45;&gt;29 -->
<g id="edge58" class="edge"><title>49&#45;&gt;29</title>
<path fill="none" stroke="black" d="M612.349,-372.446C710.795,-368.71 855.619,-363.485 982,-360 1775.19,-338.13 1975.1,-374.226 2767,-324 2787.48,-322.701 2809.38,-320.736 2830.18,-318.596"/>
<polygon fill="black" stroke="black" points="2830.72,-322.06 2840.3,-317.534 2829.99,-315.098 2830.72,-322.06"/>
</g>
<!-- 49&#45;&gt;32 -->
<g id="edge56" class="edge"><title>49&#45;&gt;32</title>
<path fill="none" stroke="black" d="M491.119,-359.695C486.823,-341.328 482.461,-311.736 491,-288 519.103,-209.876 535.952,-181.551 610,-144 732.098,-82.0826 1088.85,-122.287 1225,-108 1234.68,-106.984 1244.81,-105.725 1254.84,-104.356"/>
<polygon fill="black" stroke="black" points="1255.41,-107.81 1264.83,-102.954 1254.44,-100.878 1255.41,-107.81"/>
</g>
<!-- 50&#45;&gt;1 -->
<g id="edge65" class="edge"><title>50&#45;&gt;1</title>
<path fill="none" stroke="black" d="M2329.42,-431.928C2319.51,-398.527 2292.8,-324.612 2242,-288 2227.6,-277.618 2137.56,-260.982 2066.38,-249.118"/>
<polygon fill="black" stroke="black" points="2066.91,-245.658 2056.47,-247.477 2065.77,-252.564 2066.91,-245.658"/>
</g>
<!-- 50&#45;&gt;6 -->
<g id="edge64" class="edge"><title>50&#45;&gt;6</title>
<path fill="none" stroke="black" d="M2211.31,-448.51C2041.25,-446.316 1743.58,-436.567 1644,-396 1620.92,-386.597 1624.05,-369.485 1601,-360 1512.53,-323.595 1266.63,-338.036 1172,-324 1048.57,-305.693 906.864,-272.785 824.77,-252.522"/>
<polygon fill="black" stroke="black" points="825.362,-249.064 814.814,-250.055 823.678,-255.858 825.362,-249.064"/>
</g>
<!-- 50&#45;&gt;9 -->
<g id="edge63" class="edge"><title>50&#45;&gt;9</title>
<path fill="none" stroke="black" d="M2247.72,-437.121C2116.13,-419.201 1857.33,-384.723 1637,-360 1471.93,-341.478 1417.93,-388.841 1265,-324 1192.69,-293.34 1127.56,-224.757 1096.03,-187.771"/>
<polygon fill="black" stroke="black" points="1098.57,-185.359 1089.46,-179.952 1093.21,-189.86 1098.57,-185.359"/>
</g>
<!-- 50&#45;&gt;22 -->
<g id="edge59" class="edge"><title>50&#45;&gt;22</title>
<path fill="none" stroke="black" d="M2292.7,-432.941C2266.43,-422.722 2232.23,-409.422 2204.36,-398.585"/>
<polygon fill="black" stroke="black" points="2205.38,-395.226 2194.79,-394.864 2202.84,-401.75 2205.38,-395.226"/>
</g>
<!-- 50&#45;&gt;25 -->
<g id="edge61" class="edge"><title>50&#45;&gt;25</title>
<path fill="none" stroke="black" d="M2366.16,-432.572C2416.66,-406.777 2514.54,-356.782 2570.35,-328.273"/>
<polygon fill="black" stroke="black" points="2571.95,-331.385 2579.27,-323.719 2568.77,-325.151 2571.95,-331.385"/>
</g>
<!-- 50&#45;&gt;26 -->
<g id="edge62" class="edge"><title>50&#45;&gt;26</title>
<path fill="none" stroke="black" d="M2414.13,-436.349C2533.35,-417.822 2764.58,-383.018 2962,-360 3136.22,-339.688 3180.4,-340.727 3355,-324 3369.65,-322.596 3385.01,-321.098 3400.26,-319.594"/>
<polygon fill="black" stroke="black" points="3400.64,-323.073 3410.25,-318.606 3399.95,-316.107 3400.64,-323.073"/>
</g>
<!-- 50&#45;&gt;29 -->
<g id="edge66" class="edge"><title>50&#45;&gt;29</title>
<path fill="none" stroke="black" d="M2383.51,-433.438C2444.92,-414.484 2552.99,-382.248 2647,-360 2711.59,-344.715 2785.4,-330.849 2840.87,-321.137"/>
<polygon fill="black" stroke="black" points="2841.76,-324.535 2851.01,-319.372 2840.56,-317.639 2841.76,-324.535"/>
</g>
<!-- 50&#45;&gt;31 -->
<g id="edge67" class="edge"><title>50&#45;&gt;31</title>
<path fill="none" stroke="black" d="M2340.02,-431.549C2349.67,-400.306 2364.9,-333.81 2338,-288 2329.68,-273.839 2316.06,-263.183 2301.69,-255.285"/>
<polygon fill="black" stroke="black" points="2303.19,-252.121 2292.68,-250.717 2300.02,-258.363 2303.19,-252.121"/>
</g>
<!-- 50&#45;&gt;44 -->
<g id="edge60" class="edge"><title>50&#45;&gt;44</title>
<path fill="none" stroke="black" d="M2223.84,-442.013C2081.18,-432.727 1824.86,-415.237 1606,-396 1590.94,-394.676 1575.12,-393.18 1559.48,-391.639"/>
<polygon fill="black" stroke="black" points="1559.53,-388.127 1549.24,-390.621 1558.84,-395.093 1559.53,-388.127"/>
</g>
<!-- 51 -->
<g id="node52" class="node"><title>51</title>
<ellipse fill="paleturquoise" stroke="paleturquoise" cx="4529" cy="-810" rx="176.549" ry="18"/>
<text text-anchor="middle" x="4529" y="-805.8" font-family="Times,serif" font-size="14.00">github.com/openshift/origin/pkg/controller</text>
</g>
<!-- 51&#45;&gt;26 -->
<g id="edge68" class="edge"><title>51&#45;&gt;26</title>
<path fill="none" stroke="black" d="M4604.27,-793.699C4740.52,-762.846 5005.14,-686.558 4906,-576 4896.77,-565.713 3930.56,-470.65 3917,-468 3802.26,-445.575 3770.59,-444.032 3664,-396 3624.16,-378.047 3582.46,-349.902 3555.26,-330.077"/>
<polygon fill="black" stroke="black" points="3557.08,-327.073 3546.95,-323.957 3552.92,-332.708 3557.08,-327.073"/>
</g>
<!-- 51&#45;&gt;29 -->
<g id="edge70" class="edge"><title>51&#45;&gt;29</title>
<path fill="none" stroke="black" d="M4487.53,-792.429C4326.15,-728.475 3723.62,-494.602 3210,-360 3145.58,-343.117 3071.58,-329.49 3015.28,-320.283"/>
<polygon fill="black" stroke="black" points="3015.76,-316.816 3005.33,-318.672 3014.64,-323.726 3015.76,-316.816"/>
</g>
<!-- 52 -->
<g id="node53" class="node"><title>52</title>
<ellipse fill="paleturquoise" stroke="paleturquoise" cx="363" cy="-738" rx="144.704" ry="18"/>
<text text-anchor="middle" x="363" y="-733.8" font-family="Times,serif" font-size="14.00">k8s.io/kubernetes/pkg/client/cache</text>
</g>
<!-- 51&#45;&gt;52 -->
<g id="edge69" class="edge"><title>51&#45;&gt;52</title>
<path fill="none" stroke="black" d="M4356.61,-806.103C3673.53,-794.626 1162.7,-752.437 515.824,-741.568"/>
<polygon fill="black" stroke="black" points="515.565,-738.063 505.508,-741.395 515.447,-745.062 515.565,-738.063"/>
</g>
<!-- 52&#45;&gt;6 -->
<g id="edge111" class="edge"><title>52&#45;&gt;6</title>
<path fill="none" stroke="black" d="M231.747,-730.288C141.547,-717.748 38,-683.975 38,-595 38,-595 38,-595 38,-377 38,-335.533 33.5315,-313.793 66,-288 108.195,-254.479 430.157,-241.912 619.018,-237.392"/>
<polygon fill="black" stroke="black" points="619.11,-240.891 629.025,-237.157 618.946,-233.893 619.11,-240.891"/>
</g>
<!-- 52&#45;&gt;11 -->
<g id="edge113" class="edge"><title>52&#45;&gt;11</title>
<path fill="none" stroke="black" d="M507.334,-736.413C1240.9,-733.282 4529.49,-717.427 4743,-684 4850.5,-667.169 4897.32,-686.107 4977,-612 5108.88,-489.34 5201.19,-331.497 5063,-216 5040.56,-197.243 4213.51,-174.632 3881.7,-166.294"/>
<polygon fill="black" stroke="black" points="3881.63,-162.791 3871.55,-166.039 3881.45,-169.789 3881.63,-162.791"/>
</g>
<!-- 52&#45;&gt;22 -->
<g id="edge104" class="edge"><title>52&#45;&gt;22</title>
<path fill="none" stroke="black" d="M357.788,-719.774C345.811,-676.274 321.752,-561.381 382,-504 426.397,-461.716 1423.9,-473.049 1485,-468 1541.39,-463.341 1893.53,-415.047 2063.03,-391.616"/>
<polygon fill="black" stroke="black" points="2063.51,-395.083 2072.94,-390.246 2062.55,-388.149 2063.51,-395.083"/>
</g>
<!-- 52&#45;&gt;24 -->
<g id="edge106" class="edge"><title>52&#45;&gt;24</title>
<path fill="none" stroke="black" d="M289.848,-722.376C263.002,-714.352 233.666,-702.194 211,-684 174.738,-654.893 156,-641.499 156,-595 156,-595 156,-595 156,-521 156,-475.41 173.303,-462.707 207,-432 264.039,-380.022 290.846,-381.362 365,-360 451.696,-335.025 552.555,-321.742 630.655,-314.719"/>
<polygon fill="black" stroke="black" points="631.377,-318.17 641.033,-313.811 630.766,-311.196 631.377,-318.17"/>
</g>
<!-- 52&#45;&gt;27 -->
<g id="edge109" class="edge"><title>52&#45;&gt;27</title>
<path fill="none" stroke="black" d="M254.798,-726.019C174.906,-711.222 80,-676.493 80,-595 80,-595 80,-595 80,-449 80,-392.738 136.42,-351.273 178.629,-328.125"/>
<polygon fill="black" stroke="black" points="180.473,-331.109 187.663,-323.327 177.189,-324.927 180.473,-331.109"/>
</g>
<!-- 52&#45;&gt;28 -->
<g id="edge110" class="edge"><title>52&#45;&gt;28</title>
<path fill="none" stroke="black" d="M507.476,-736.304C1156.06,-732.626 3782.55,-711.655 4136,-612 4203.72,-592.905 4240.26,-600.012 4277,-540 4318.82,-471.685 4295.27,-435.316 4268,-360 4264.52,-350.387 4259.05,-340.725 4253.5,-332.333"/>
<polygon fill="black" stroke="black" points="4256.36,-330.311 4247.77,-324.101 4250.61,-334.309 4256.36,-330.311"/>
</g>
<!-- 52&#45;&gt;29 -->
<g id="edge112" class="edge"><title>52&#45;&gt;29</title>
<path fill="none" stroke="black" d="M353.999,-719.853C349.166,-709.72 343.666,-696.47 341,-684 324.225,-605.531 296.419,-558.836 355,-504 393.41,-468.046 537.146,-476.898 589,-468 673.709,-453.463 694.241,-446.238 779,-432 996.509,-395.463 1050.24,-378.686 1270,-360 1933.13,-303.616 2102.89,-367.414 2767,-324 2787.35,-322.669 2809.12,-320.702 2829.82,-318.573"/>
<polygon fill="black" stroke="black" points="2830.3,-322.042 2839.88,-317.517 2829.57,-315.08 2830.3,-322.042"/>
</g>
<!-- 52&#45;&gt;32 -->
<g id="edge103" class="edge"><title>52&#45;&gt;32</title>
<path fill="none" stroke="black" d="M245.897,-727.352C171.339,-719.278 83.1317,-705.547 52,-684 14.33,-657.928 0,-640.812 0,-595 0,-595 0,-595 0,-233 0,-125.399 1122.76,-118.461 1225,-108 1234.76,-107.002 1244.97,-105.747 1255.08,-104.374"/>
<polygon fill="black" stroke="black" points="1255.72,-107.819 1265.13,-102.966 1254.75,-100.886 1255.72,-107.819"/>
</g>
<!-- 52&#45;&gt;47 -->
<g id="edge107" class="edge"><title>52&#45;&gt;47</title>
<path fill="none" stroke="black" d="M507.74,-737.131C987.313,-737.088 2521.72,-733.025 3014,-684 3193.31,-666.143 3297.45,-750.27 3413,-612 3476.22,-536.356 3324.75,-489.772 3218.06,-467.284"/>
<polygon fill="black" stroke="black" points="3218.7,-463.844 3208.2,-465.248 3217.29,-470.699 3218.7,-463.844"/>
</g>
<!-- 52&#45;&gt;49 -->
<g id="edge114" class="edge"><title>52&#45;&gt;49</title>
<path fill="none" stroke="black" d="M316.373,-720.836C266.35,-700.172 194,-659.19 194,-595 194,-595 194,-595 194,-521 194,-435.871 293.486,-401.685 378.257,-388.006"/>
<polygon fill="black" stroke="black" points="378.895,-391.449 388.25,-386.476 377.836,-384.53 378.895,-391.449"/>
</g>
<!-- 55 -->
<g id="node56" class="node"><title>55</title>
<ellipse fill="paleturquoise" stroke="paleturquoise" cx="4465" cy="-378" rx="135.976" ry="18"/>
<text text-anchor="middle" x="4465" y="-373.8" font-family="Times,serif" font-size="14.00">k8s.io/kubernetes/pkg/api/errors</text>
</g>
<!-- 52&#45;&gt;55 -->
<g id="edge105" class="edge"><title>52&#45;&gt;55</title>
<path fill="none" stroke="black" d="M507.615,-736.566C1193.39,-734.315 4101.3,-722.56 4505,-684 4711.42,-664.283 4963,-802.363 4963,-595 4963,-595 4963,-595 4963,-521 4963,-442.947 4733.9,-405.449 4586.48,-389.4"/>
<polygon fill="black" stroke="black" points="4586.77,-385.911 4576.45,-388.327 4586.02,-392.871 4586.77,-385.911"/>
</g>
<!-- 58 -->
<g id="node59" class="node"><title>58</title>
<ellipse fill="paleturquoise" stroke="paleturquoise" cx="2835" cy="-666" rx="170.15" ry="18"/>
<text text-anchor="middle" x="2835" y="-661.8" font-family="Times,serif" font-size="14.00">k8s.io/kubernetes/pkg/client/unversioned</text>
</g>
<!-- 52&#45;&gt;58 -->
<g id="edge108" class="edge"><title>52&#45;&gt;58</title>
<path fill="none" stroke="black" d="M502.541,-733.049C926.501,-721.043 2198.78,-685.016 2663.03,-671.87"/>
<polygon fill="black" stroke="black" points="2663.28,-675.364 2673.18,-671.582 2663.08,-668.367 2663.28,-675.364"/>
</g>
<!-- 54&#45;&gt;15 -->
<g id="edge149" class="edge"><title>54&#45;&gt;15</title>
<path fill="none" stroke="black" d="M4470.75,-216.055C4482.88,-207.027 4497.97,-195.792 4511.13,-185.987"/>
<polygon fill="black" stroke="black" points="4513.52,-188.569 4519.45,-179.789 4509.34,-182.955 4513.52,-188.569"/>
</g>
<!-- 54&#45;&gt;23 -->
<g id="edge148" class="edge"><title>54&#45;&gt;23</title>
<path fill="none" stroke="black" d="M4331.38,-222.158C4303.43,-219.844 4273.67,-217.614 4246,-216 3706.45,-184.524 3065.01,-170.491 2775.47,-165.411"/>
<polygon fill="black" stroke="black" points="2775.38,-161.909 2765.32,-165.234 2775.25,-168.907 2775.38,-161.909"/>
</g>
<!-- 55&#45;&gt;6 -->
<g id="edge86" class="edge"><title>55&#45;&gt;6</title>
<path fill="none" stroke="black" d="M4452.23,-359.962C4434.96,-338.496 4401.94,-302.642 4364,-288 4298.82,-262.844 1918.86,-253.043 1849,-252 1505,-246.863 1100.11,-240.477 893.067,-237.186"/>
<polygon fill="black" stroke="black" points="893.109,-233.687 883.054,-237.027 892.997,-240.686 893.109,-233.687"/>
</g>
<!-- 55&#45;&gt;15 -->
<g id="edge87" class="edge"><title>55&#45;&gt;15</title>
<path fill="none" stroke="black" d="M4497.76,-360.413C4533.45,-340.277 4588.59,-302.629 4612,-252 4618.71,-237.477 4619.12,-230.327 4612,-216 4605.84,-203.6 4595.23,-193.327 4584.11,-185.232"/>
<polygon fill="black" stroke="black" points="4585.82,-182.164 4575.58,-179.468 4581.91,-187.965 4585.82,-182.164"/>
</g>
<!-- 55&#45;&gt;26 -->
<g id="edge85" class="edge"><title>55&#45;&gt;26</title>
<path fill="none" stroke="black" d="M4349.74,-368.417C4176.92,-355.547 3851.12,-331.285 3664.91,-317.419"/>
<polygon fill="black" stroke="black" points="3665.01,-313.917 3654.78,-316.664 3664.49,-320.897 3665.01,-313.917"/>
</g>
<!-- 55&#45;&gt;54 -->
<g id="edge88" class="edge"><title>55&#45;&gt;54</title>
<path fill="none" stroke="black" d="M4462.95,-359.871C4460.05,-335.67 4454.73,-291.211 4451.28,-262.393"/>
<polygon fill="black" stroke="black" points="4454.72,-261.702 4450.06,-252.189 4447.77,-262.534 4454.72,-261.702"/>
</g>
<!-- 56 -->
<g id="node57" class="node"><title>56</title>
<ellipse fill="paleturquoise" stroke="paleturquoise" cx="4078" cy="-450" rx="151.689" ry="18"/>
<text text-anchor="middle" x="4078" y="-445.8" font-family="Times,serif" font-size="14.00">k8s.io/kubernetes/pkg/api/validation</text>
</g>
<!-- 56&#45;&gt;4 -->
<g id="edge94" class="edge"><title>56&#45;&gt;4</title>
<path fill="none" stroke="black" d="M4021.45,-433.291C3983.11,-422.64 3932.29,-408.524 3892.08,-397.356"/>
<polygon fill="black" stroke="black" points="3892.94,-393.961 3882.36,-394.657 3891.06,-400.706 3892.94,-393.961"/>
</g>
<!-- 56&#45;&gt;11 -->
<g id="edge99" class="edge"><title>56&#45;&gt;11</title>
<path fill="none" stroke="black" d="M4081.93,-431.962C4085.33,-413.024 4087.89,-382.189 4075,-360 4058.44,-331.496 3870.55,-229.165 3786.37,-184.316"/>
<polygon fill="black" stroke="black" points="3787.82,-181.127 3777.35,-179.521 3784.54,-187.307 3787.82,-181.127"/>
</g>
<!-- 56&#45;&gt;12 -->
<g id="edge101" class="edge"><title>56&#45;&gt;12</title>
<path fill="none" stroke="black" d="M3948.75,-440.487C3837.53,-431.81 3692.15,-416.688 3674,-396 3663.45,-383.973 3667.07,-374.421 3674,-360 3685.1,-336.915 3707.74,-347.007 3719,-324 3740.09,-280.881 3753.54,-250.343 3720,-216 3710.82,-206.6 2116.57,-175.153 1626.58,-165.706"/>
<polygon fill="black" stroke="black" points="1626.34,-162.201 1616.27,-165.508 1626.2,-169.2 1626.34,-162.201"/>
</g>
<!-- 56&#45;&gt;15 -->
<g id="edge97" class="edge"><title>56&#45;&gt;15</title>
<path fill="none" stroke="black" d="M4205.95,-440.231C4358.73,-429.176 4595.61,-409.935 4610,-396 4667.78,-340.031 4668.4,-286.136 4629,-216 4621.4,-202.466 4608.78,-191.982 4595.48,-184.047"/>
<polygon fill="black" stroke="black" points="4597.14,-180.963 4586.69,-179.195 4593.75,-187.091 4597.14,-180.963"/>
</g>
<!-- 56&#45;&gt;22 -->
<g id="edge91" class="edge"><title>56&#45;&gt;22</title>
<path fill="none" stroke="black" d="M3935.35,-443.81C3569.99,-430.517 2605.78,-395.437 2270.72,-383.247"/>
<polygon fill="black" stroke="black" points="2270.63,-379.741 2260.51,-382.875 2270.37,-386.736 2270.63,-379.741"/>
</g>
<!-- 56&#45;&gt;25 -->
<g id="edge92" class="edge"><title>56&#45;&gt;25</title>
<path fill="none" stroke="black" d="M4054.93,-432.195C4041.65,-422.177 4024.9,-408.927 4011,-396 3995.1,-381.22 3997.73,-369.044 3978,-360 3859.46,-305.67 2935.17,-331.724 2805,-324 2781.57,-322.61 2756.57,-320.714 2732.6,-318.692"/>
<polygon fill="black" stroke="black" points="2732.66,-315.185 2722.4,-317.819 2732.07,-322.159 2732.66,-315.185"/>
</g>
<!-- 56&#45;&gt;28 -->
<g id="edge95" class="edge"><title>56&#45;&gt;28</title>
<path fill="none" stroke="black" d="M4110.46,-432.235C4127.11,-422.807 4147.15,-410.109 4163,-396 4184.15,-377.164 4203.87,-351.527 4217.14,-332.606"/>
<polygon fill="black" stroke="black" points="4220.15,-334.399 4222.93,-324.175 4214.38,-330.434 4220.15,-334.399"/>
</g>
<!-- 56&#45;&gt;29 -->
<g id="edge96" class="edge"><title>56&#45;&gt;29</title>
<path fill="none" stroke="black" d="M4067.62,-431.867C4052.98,-408.341 4026.34,-368.027 4011,-360 3919.77,-312.253 3187.69,-331.478 3085,-324 3064.89,-322.536 3043.4,-320.535 3022.92,-318.419"/>
<polygon fill="black" stroke="black" points="3023.28,-314.936 3012.97,-317.373 3022.55,-321.898 3023.28,-314.936"/>
</g>
<!-- 56&#45;&gt;32 -->
<g id="edge90" class="edge"><title>56&#45;&gt;32</title>
<path fill="none" stroke="black" d="M4218.48,-443.14C4373.53,-435.518 4605.71,-420.235 4639,-396 4685.12,-362.426 4728.11,-184.563 4688,-144 4656.38,-112.022 1494.83,-111.604 1450,-108 1439.66,-107.169 1428.83,-105.968 1418.14,-104.583"/>
<polygon fill="black" stroke="black" points="1418.33,-101.077 1407.96,-103.205 1417.4,-108.014 1418.33,-101.077"/>
</g>
<!-- 56&#45;&gt;37 -->
<g id="edge89" class="edge"><title>56&#45;&gt;37</title>
<path fill="none" stroke="black" d="M4197.01,-438.769C4318.65,-428.258 4513.03,-411.314 4681,-396 4697.05,-394.537 4713.9,-392.977 4730.59,-391.417"/>
<polygon fill="black" stroke="black" points="4731.32,-394.864 4740.95,-390.447 4730.67,-387.895 4731.32,-394.864"/>
</g>
<!-- 56&#45;&gt;42 -->
<g id="edge100" class="edge"><title>56&#45;&gt;42</title>
<path fill="none" stroke="black" d="M4098.78,-432.168C4108.75,-422.722 4119.68,-410.028 4125,-396 4130.68,-381.041 4129.18,-375.446 4125,-360 4120.17,-342.119 4110.78,-341.239 4104,-324 4096.14,-304.011 4091,-280.223 4087.9,-262.271"/>
<polygon fill="black" stroke="black" points="4091.32,-261.502 4086.26,-252.191 4084.41,-262.623 4091.32,-261.502"/>
</g>
<!-- 56&#45;&gt;46 -->
<g id="edge93" class="edge"><title>56&#45;&gt;46</title>
<path fill="none" stroke="black" d="M4077.83,-431.671C4076.59,-410.935 4071.06,-376.903 4049,-360 3987.8,-313.102 3432.8,-330.786 3356,-324 3343.75,-322.918 3330.9,-321.579 3318.2,-320.133"/>
<polygon fill="black" stroke="black" points="3318.39,-316.632 3308.06,-318.952 3317.58,-323.585 3318.39,-316.632"/>
</g>
<!-- 56&#45;&gt;54 -->
<g id="edge98" class="edge"><title>56&#45;&gt;54</title>
<path fill="none" stroke="black" d="M4130.83,-433.063C4190.83,-413.403 4289.99,-376.076 4364,-324 4389.54,-306.027 4413.45,-279.349 4429.17,-259.89"/>
<polygon fill="black" stroke="black" points="4431.93,-262.05 4435.39,-252.038 4426.44,-257.703 4431.93,-262.05"/>
</g>
<!-- 57 -->
<g id="node58" class="node"><title>57</title>
<ellipse fill="paleturquoise" stroke="paleturquoise" cx="4753" cy="-522" rx="127.332" ry="18"/>
<text text-anchor="middle" x="4753" y="-517.8" font-family="Times,serif" font-size="14.00">k8s.io/kubernetes/pkg/version</text>
</g>
<!-- 57&#45;&gt;35 -->
<g id="edge102" class="edge"><title>57&#45;&gt;35</title>
<path fill="none" stroke="black" d="M4848.84,-510.15C4919.75,-500.881 5009.43,-486.174 5042,-468 5079.65,-446.995 5079.11,-428.878 5107,-396 5146.69,-349.205 5140.49,-319.741 5193,-288 5225.7,-268.237 5264.19,-255.598 5301.92,-247.576"/>
<polygon fill="black" stroke="black" points="5302.9,-250.948 5312.01,-245.534 5301.51,-244.087 5302.9,-250.948"/>
</g>
<!-- 58&#45;&gt;5 -->
<g id="edge164" class="edge"><title>58&#45;&gt;5</title>
<path fill="none" stroke="black" d="M2665.56,-664.34C2131.04,-661.858 513.255,-651.123 475,-612 463.814,-600.56 466.489,-589.548 475,-576 483.918,-561.804 497.824,-551.321 512.785,-543.611"/>
<polygon fill="black" stroke="black" points="514.656,-546.598 522.202,-539.161 511.665,-540.27 514.656,-546.598"/>
</g>
<!-- 58&#45;&gt;6 -->
<g id="edge167" class="edge"><title>58&#45;&gt;6</title>
<path fill="none" stroke="black" d="M2665.09,-664.656C2126.35,-663.13 485.494,-654.96 380,-612 202.381,-539.669 -35.0784,-428.926 95,-288 129.654,-250.456 434.089,-239.496 617.492,-236.304"/>
<polygon fill="black" stroke="black" points="617.822,-239.799 627.761,-236.131 617.704,-232.8 617.822,-239.799"/>
</g>
<!-- 58&#45;&gt;11 -->
<g id="edge169" class="edge"><title>58&#45;&gt;11</title>
<path fill="none" stroke="black" d="M2991.71,-658.937C3078.2,-655.627 3187.53,-651.501 3285,-648 3402.44,-643.782 4228.3,-641.699 4342,-612 4443.16,-585.575 4452.71,-539.659 4551,-504 4758.6,-428.685 4897.85,-568.291 5036,-396 5086.04,-333.586 5091.4,-273.718 5036,-216 5016.22,-195.386 4209.2,-173.979 3881.85,-166.126"/>
<polygon fill="black" stroke="black" points="3881.91,-162.626 3871.83,-165.886 3881.74,-169.624 3881.91,-162.626"/>
</g>
<!-- 58&#45;&gt;22 -->
<g id="edge154" class="edge"><title>58&#45;&gt;22</title>
<path fill="none" stroke="black" d="M2697.26,-655.353C2615.55,-647.679 2510.4,-634.388 2419,-612 2329.27,-590.021 2302.14,-589.285 2224,-540 2185.19,-515.52 2167.85,-510.273 2150,-468 2141.75,-448.466 2143.48,-424.33 2146.87,-406.123"/>
<polygon fill="black" stroke="black" points="2150.33,-406.678 2149,-396.168 2143.49,-405.217 2150.33,-406.678"/>
</g>
<!-- 58&#45;&gt;24 -->
<g id="edge158" class="edge"><title>58&#45;&gt;24</title>
<path fill="none" stroke="black" d="M2674.73,-659.883C2287.57,-646.598 1309.76,-607.279 990,-540 965.759,-534.9 794.571,-487.266 779,-468 748.217,-429.911 750.502,-369.221 755.124,-334.25"/>
<polygon fill="black" stroke="black" points="758.599,-334.68 756.6,-324.276 751.674,-333.656 758.599,-334.68"/>
</g>
<!-- 58&#45;&gt;26 -->
<g id="edge159" class="edge"><title>58&#45;&gt;26</title>
<path fill="none" stroke="black" d="M2993.62,-659.476C3153.48,-652.487 3381.04,-638.088 3413,-612 3503.62,-538.019 3438.67,-465.601 3489,-360 3493.48,-350.61 3499.49,-341.008 3505.31,-332.602"/>
<polygon fill="black" stroke="black" points="3508.26,-334.499 3511.24,-324.333 3502.57,-330.418 3508.26,-334.499"/>
</g>
<!-- 58&#45;&gt;27 -->
<g id="edge165" class="edge"><title>58&#45;&gt;27</title>
<path fill="none" stroke="black" d="M2665.53,-664.127C2140.08,-661.037 567.28,-648.753 464,-612 365.836,-577.068 339.48,-552.845 279,-468 249.606,-426.764 234.915,-368.55 228.417,-334.594"/>
<polygon fill="black" stroke="black" points="231.81,-333.691 226.587,-324.473 224.922,-334.937 231.81,-333.691"/>
</g>
<!-- 58&#45;&gt;28 -->
<g id="edge166" class="edge"><title>58&#45;&gt;28</title>
<path fill="none" stroke="black" d="M3005.12,-665.487C3383.77,-664.312 4263,-648.115 4263,-523 4263,-523 4263,-523 4263,-449 4263,-408.215 4251.37,-362.148 4242.84,-333.84"/>
<polygon fill="black" stroke="black" points="4246.18,-332.769 4239.87,-324.257 4239.49,-334.845 4246.18,-332.769"/>
</g>
<!-- 58&#45;&gt;29 -->
<g id="edge168" class="edge"><title>58&#45;&gt;29</title>
<path fill="none" stroke="black" d="M2891.61,-648.995C3003.18,-616.185 3244.7,-538.443 3291,-468 3299.79,-454.63 3300.3,-445.018 3291,-432 3257.06,-384.497 3100.08,-343.724 3003.38,-322.545"/>
<polygon fill="black" stroke="black" points="3003.86,-319.068 2993.35,-320.37 3002.38,-325.909 3003.86,-319.068"/>
</g>
<!-- 58&#45;&gt;32 -->
<g id="edge152" class="edge"><title>58&#45;&gt;32</title>
<path fill="none" stroke="black" d="M3003.57,-663.507C3379.97,-659.564 4266.22,-646.687 4398,-612 4431.45,-603.195 4436.07,-591.486 4467,-576 4533.12,-542.892 4545.77,-523.867 4617,-504 4777,-459.375 4838.78,-538.892 4989,-468 5029.93,-448.686 5036.5,-434.049 5061,-396 5079.5,-367.266 5081.9,-357.628 5088,-324 5096.79,-275.521 5100.08,-248.447 5063,-216 4942.51,-110.552 4869.22,-160.961 4710,-144 3989.59,-67.2584 2172.16,-166.029 1450,-108 1439.48,-107.154 1428.45,-105.926 1417.58,-104.51"/>
<polygon fill="black" stroke="black" points="1418.03,-101.04 1407.65,-103.163 1417.09,-107.977 1418.03,-101.04"/>
</g>
<!-- 58&#45;&gt;37 -->
<g id="edge151" class="edge"><title>58&#45;&gt;37</title>
<path fill="none" stroke="black" d="M3002.08,-662.562C3375.58,-656.627 4250.07,-639.837 4308,-612 4365.09,-584.566 4347.59,-538.051 4401,-504 4500.3,-440.695 4542.32,-462.74 4656,-432 4700,-420.102 4749.47,-407.296 4788.79,-397.253"/>
<polygon fill="black" stroke="black" points="4789.73,-400.625 4798.55,-394.762 4788,-393.842 4789.73,-400.625"/>
</g>
<!-- 58&#45;&gt;41 -->
<g id="edge170" class="edge"><title>58&#45;&gt;41</title>
<path fill="none" stroke="black" d="M2924.69,-650.666C2999.54,-638.703 3105.79,-621.722 3181.22,-609.668"/>
<polygon fill="black" stroke="black" points="3181.87,-613.109 3191.19,-608.075 3180.76,-606.197 3181.87,-613.109"/>
</g>
<!-- 58&#45;&gt;43 -->
<g id="edge157" class="edge"><title>58&#45;&gt;43</title>
<path fill="none" stroke="black" d="M2665.61,-664.284C2136.22,-661.647 545.659,-650.526 508,-612 496.816,-600.558 497.432,-588.013 508,-576 549.435,-528.896 729.223,-561.928 788,-540 828.611,-524.85 869.232,-495.357 894.925,-474.481"/>
<polygon fill="black" stroke="black" points="897.245,-477.104 902.723,-468.035 892.785,-471.709 897.245,-477.104"/>
</g>
<!-- 58&#45;&gt;45 -->
<g id="edge162" class="edge"><title>58&#45;&gt;45</title>
<path fill="none" stroke="black" d="M2783.28,-648.765C2750.72,-638.546 2708.52,-625.296 2674.15,-614.508"/>
<polygon fill="black" stroke="black" points="2674.8,-611.045 2664.21,-611.39 2672.71,-617.724 2674.8,-611.045"/>
</g>
<!-- 58&#45;&gt;47 -->
<g id="edge161" class="edge"><title>58&#45;&gt;47</title>
<path fill="none" stroke="black" d="M2858.16,-647.849C2909.87,-609.563 3034.71,-517.115 3093.03,-473.936"/>
<polygon fill="black" stroke="black" points="3095.18,-476.699 3101.13,-467.935 3091.01,-471.074 3095.18,-476.699"/>
</g>
<!-- 58&#45;&gt;49 -->
<g id="edge172" class="edge"><title>58&#45;&gt;49</title>
<path fill="none" stroke="black" d="M2665.74,-664.143C2209.85,-661.328 985.245,-650.233 907,-612 851.116,-584.693 871.464,-535.784 818,-504 745.623,-460.972 708.033,-504.177 632,-468 609.493,-457.291 609.465,-446.227 589,-432 572.649,-420.633 553.693,-409.496 537.176,-400.388"/>
<polygon fill="black" stroke="black" points="538.74,-397.254 528.283,-395.548 535.393,-403.403 538.74,-397.254"/>
</g>
<!-- 58&#45;&gt;55 -->
<g id="edge155" class="edge"><title>58&#45;&gt;55</title>
<path fill="none" stroke="black" d="M3003.61,-663.443C3372.9,-659.402 4224.61,-646.391 4277,-612 4351.12,-563.344 4301.37,-495.735 4363,-432 4376.17,-418.383 4393.59,-407.577 4410.31,-399.37"/>
<polygon fill="black" stroke="black" points="4411.92,-402.483 4419.49,-395.077 4408.95,-396.142 4411.92,-402.483"/>
</g>
<!-- 58&#45;&gt;56 -->
<g id="edge160" class="edge"><title>58&#45;&gt;56</title>
<path fill="none" stroke="black" d="M2990,-658.537C3114.04,-651.691 3292.08,-638.102 3446,-612 3658.93,-575.891 3905.42,-504.21 4017.24,-470.012"/>
<polygon fill="black" stroke="black" points="4018.46,-473.299 4027,-467.02 4016.41,-466.607 4018.46,-473.299"/>
</g>
<!-- 58&#45;&gt;57 -->
<g id="edge171" class="edge"><title>58&#45;&gt;57</title>
<path fill="none" stroke="black" d="M3005.06,-665.259C3364.29,-664.861 4190.09,-658.701 4467,-612 4478.46,-610.067 4613.5,-567.395 4693.85,-541.85"/>
<polygon fill="black" stroke="black" points="4695.38,-545.038 4703.85,-538.671 4693.26,-538.367 4695.38,-545.038"/>
</g>
<!-- 59 -->
<g id="node60" class="node"><title>59</title>
<ellipse fill="paleturquoise" stroke="paleturquoise" cx="439" cy="-450" rx="140.653" ry="18"/>
<text text-anchor="middle" x="439" y="-445.8" font-family="Times,serif" font-size="14.00">k8s.io/kubernetes/pkg/watch/json</text>
</g>
<!-- 58&#45;&gt;59 -->
<g id="edge173" class="edge"><title>58&#45;&gt;59</title>
<path fill="none" stroke="black" d="M2665.23,-664.424C2202.45,-662.322 948.05,-652.866 869,-612 815.701,-584.446 839.493,-534.797 788,-504 767.701,-491.86 644.973,-475.088 550.732,-463.686"/>
<polygon fill="black" stroke="black" points="550.897,-460.18 540.55,-462.461 550.061,-467.13 550.897,-460.18"/>
</g>
<!-- 60 -->
<g id="node61" class="node"><title>60</title>
<ellipse fill="paleturquoise" stroke="paleturquoise" cx="4746" cy="-594" rx="151.1" ry="18"/>
<text text-anchor="middle" x="4746" y="-589.8" font-family="Times,serif" font-size="14.00">k8s.io/kubernetes/pkg/client/metrics</text>
</g>
<!-- 58&#45;&gt;60 -->
<g id="edge163" class="edge"><title>58&#45;&gt;60</title>
<path fill="none" stroke="black" d="M3000.71,-661.865C3300.85,-655.713 3954.39,-640.146 4505,-612 4540.08,-610.207 4577.99,-607.768 4613.13,-605.298"/>
<polygon fill="black" stroke="black" points="4613.73,-608.765 4623.45,-604.566 4613.23,-601.782 4613.73,-608.765"/>
</g>
<!-- 61 -->
<g id="node62" class="node"><title>61</title>
<ellipse fill="paleturquoise" stroke="paleturquoise" cx="1542" cy="-522" rx="136.656" ry="18"/>
<text text-anchor="middle" x="1542" y="-517.8" font-family="Times,serif" font-size="14.00">k8s.io/kubernetes/pkg/api/install</text>
</g>
<!-- 58&#45;&gt;61 -->
<g id="edge156" class="edge"><title>58&#45;&gt;61</title>
<path fill="none" stroke="black" d="M2677.68,-659.115C2519.83,-652.082 2269.94,-637.876 2055,-612 1900.99,-593.459 1722.94,-559.783 1622.28,-539.595"/>
<polygon fill="black" stroke="black" points="1622.69,-536.105 1612.19,-537.564 1621.3,-542.968 1622.69,-536.105"/>
</g>
<!-- 63 -->
<g id="node64" class="node"><title>63</title>
<ellipse fill="paleturquoise" stroke="paleturquoise" cx="667" cy="-594" rx="149.907" ry="18"/>
<text text-anchor="middle" x="667" y="-589.8" font-family="Times,serif" font-size="14.00">github.com/google/cadvisor/info/v1</text>
</g>
<!-- 58&#45;&gt;63 -->
<g id="edge153" class="edge"><title>58&#45;&gt;63</title>
<path fill="none" stroke="black" d="M2665.23,-664.906C2319.61,-663.746 1509.55,-656.076 831,-612 814.915,-610.955 797.97,-609.547 781.323,-607.987"/>
<polygon fill="black" stroke="black" points="781.296,-604.468 771.007,-606.997 780.627,-611.436 781.296,-604.468"/>
</g>
<!-- 59&#45;&gt;6 -->
<g id="edge129" class="edge"><title>59&#45;&gt;6</title>
<path fill="none" stroke="black" d="M402.776,-432.5C388.264,-423.855 373.089,-411.742 365,-396 357.688,-381.769 356.969,-373.839 365,-360 367.023,-356.513 487.225,-289.414 491,-288 542.281,-268.799 601.882,-256.09 651.559,-247.944"/>
<polygon fill="black" stroke="black" points="652.358,-251.361 661.679,-246.324 651.252,-244.448 652.358,-251.361"/>
</g>
<!-- 59&#45;&gt;49 -->
<g id="edge130" class="edge"><title>59&#45;&gt;49</title>
<path fill="none" stroke="black" d="M452.798,-432.055C459.628,-423.668 468.008,-413.376 475.564,-404.096"/>
<polygon fill="black" stroke="black" points="478.333,-406.24 481.933,-396.275 472.905,-401.82 478.333,-406.24"/>
</g>
<!-- 60&#45;&gt;35 -->
<g id="edge134" class="edge"><title>60&#45;&gt;35</title>
<path fill="none" stroke="black" d="M4790.51,-576.692C4818.76,-566.293 4856.07,-552.475 4889,-540 4971.89,-508.596 4995.22,-506.648 5075,-468 5213.86,-400.727 5368.85,-301.779 5435.97,-257.667"/>
<polygon fill="black" stroke="black" points="5438.04,-260.491 5444.47,-252.065 5434.19,-254.646 5438.04,-260.491"/>
</g>
<!-- 61&#45;&gt;6 -->
<g id="edge146" class="edge"><title>61&#45;&gt;6</title>
<path fill="none" stroke="black" d="M1411.11,-516.576C1208.29,-509.02 835.451,-492.078 779,-468 713.303,-439.979 715.724,-404.678 660,-360 638.354,-342.645 621.764,-348.634 609,-324 601.639,-309.794 599.803,-301.093 609,-288 621.318,-270.465 640.03,-258.705 660.017,-250.826"/>
<polygon fill="black" stroke="black" points="661.373,-254.057 669.589,-247.367 658.994,-247.474 661.373,-254.057"/>
</g>
<!-- 61&#45;&gt;11 -->
<g id="edge147" class="edge"><title>61&#45;&gt;11</title>
<path fill="none" stroke="black" d="M1433.46,-510.991C1333.66,-500.853 1198.31,-484.373 1179,-468 1117.87,-416.165 1109.71,-343.009 1168,-288 1257.36,-203.674 3086.39,-172.083 3608.16,-164.767"/>
<polygon fill="black" stroke="black" points="3608.42,-168.264 3618.37,-164.624 3608.32,-161.264 3608.42,-168.264"/>
</g>
<!-- 61&#45;&gt;22 -->
<g id="edge139" class="edge"><title>61&#45;&gt;22</title>
<path fill="none" stroke="black" d="M1606.34,-506.072C1721.86,-479.268 1963.53,-423.193 2083.43,-395.374"/>
<polygon fill="black" stroke="black" points="2084.3,-398.766 2093.25,-393.096 2082.71,-391.947 2084.3,-398.766"/>
</g>
<!-- 61&#45;&gt;24 -->
<g id="edge141" class="edge"><title>61&#45;&gt;24</title>
<path fill="none" stroke="black" d="M1427.52,-512.136C1329.13,-503.342 1195.51,-488.253 1146,-468 1121.32,-457.904 1122.41,-442.738 1098,-432 1018.53,-397.041 985.471,-430.959 906,-396 881.591,-385.262 880.456,-374.382 858,-360 840.246,-348.629 819.844,-337.333 802.268,-328.109"/>
<polygon fill="black" stroke="black" points="803.851,-324.988 793.363,-323.485 800.625,-331.2 803.851,-324.988"/>
</g>
<!-- 61&#45;&gt;32 -->
<g id="edge138" class="edge"><title>61&#45;&gt;32</title>
<path fill="none" stroke="black" d="M1558.3,-503.887C1586.7,-472.012 1638.77,-402.899 1601,-360 1517.5,-265.168 1402.5,-418.832 1319,-324 1267.94,-266.005 1302.81,-165.343 1324.02,-117.597"/>
<polygon fill="black" stroke="black" points="1327.32,-118.795 1328.3,-108.246 1320.96,-115.881 1327.32,-118.795"/>
</g>
<!-- 61&#45;&gt;43 -->
<g id="edge140" class="edge"><title>61&#45;&gt;43</title>
<path fill="none" stroke="black" d="M1441.7,-509.675C1329.05,-496.958 1146.87,-476.389 1030.85,-463.29"/>
<polygon fill="black" stroke="black" points="1031.21,-459.808 1020.88,-462.164 1030.42,-466.763 1031.21,-459.808"/>
</g>
<!-- 61&#45;&gt;44 -->
<g id="edge142" class="edge"><title>61&#45;&gt;44</title>
<path fill="none" stroke="black" d="M1531.89,-503.856C1520.93,-485.624 1502.65,-456.145 1485,-432 1478.15,-422.635 1470.18,-412.758 1462.91,-404.101"/>
<polygon fill="black" stroke="black" points="1465.37,-401.585 1456.22,-396.232 1460.03,-406.118 1465.37,-401.585"/>
</g>
<!-- 61&#45;&gt;46 -->
<g id="edge143" class="edge"><title>61&#45;&gt;46</title>
<path fill="none" stroke="black" d="M1679.08,-521.424C1860.28,-520.097 2188.95,-511.146 2466,-468 2656.44,-438.341 2697.28,-399.147 2886,-360 2964.47,-343.724 3054.21,-329.737 3120.9,-320.225"/>
<polygon fill="black" stroke="black" points="3121.57,-323.665 3130.98,-318.796 3120.59,-316.734 3121.57,-323.665"/>
</g>
<!-- 61&#45;&gt;50 -->
<g id="edge144" class="edge"><title>61&#45;&gt;50</title>
<path fill="none" stroke="black" d="M1652.12,-511.267C1802.32,-497.992 2070.02,-474.332 2221.46,-460.947"/>
<polygon fill="black" stroke="black" points="2222.06,-464.407 2231.71,-460.04 2221.45,-457.434 2222.06,-464.407"/>
</g>
<!-- 62 -->
<g id="node63" class="node"><title>62</title>
<ellipse fill="paleturquoise" stroke="paleturquoise" cx="1332" cy="-450" rx="143.587" ry="18"/>
<text text-anchor="middle" x="1332" y="-445.8" font-family="Times,serif" font-size="14.00">k8s.io/kubernetes/pkg/api/v1beta3</text>
</g>
<!-- 61&#45;&gt;62 -->
<g id="edge145" class="edge"><title>61&#45;&gt;62</title>
<path fill="none" stroke="black" d="M1494.35,-505.116C1463.29,-494.763 1422.57,-481.19 1389.68,-470.228"/>
<polygon fill="black" stroke="black" points="1390.78,-466.905 1380.19,-467.064 1388.57,-473.546 1390.78,-466.905"/>
</g>
<!-- 62&#45;&gt;1 -->
<g id="edge181" class="edge"><title>62&#45;&gt;1</title>
<path fill="none" stroke="black" d="M1233.11,-436.778C1209.36,-428.929 1186.65,-416.283 1172,-396 1142.21,-354.748 1167.36,-315.762 1210,-288 1262.11,-254.073 1644.79,-241.455 1849.15,-237.101"/>
<polygon fill="black" stroke="black" points="1849.42,-240.596 1859.35,-236.887 1849.28,-233.597 1849.42,-240.596"/>
</g>
<!-- 62&#45;&gt;6 -->
<g id="edge180" class="edge"><title>62&#45;&gt;6</title>
<path fill="none" stroke="black" d="M1227.49,-437.622C1151.49,-428.16 1055.88,-413.45 1020,-396 955.769,-364.765 962.124,-324.948 901,-288 876.898,-273.431 848.153,-261.893 822.637,-253.352"/>
<polygon fill="black" stroke="black" points="823.625,-249.993 813.032,-250.225 821.458,-256.649 823.625,-249.993"/>
</g>
<!-- 62&#45;&gt;9 -->
<g id="edge179" class="edge"><title>62&#45;&gt;9</title>
<path fill="none" stroke="black" d="M1233.9,-436.681C1205.83,-428.929 1177.15,-416.359 1156,-396 1097.41,-339.612 1081.72,-238.469 1077.53,-190.146"/>
<polygon fill="black" stroke="black" points="1081.01,-189.834 1076.76,-180.131 1074.03,-190.369 1081.01,-189.834"/>
</g>
<!-- 62&#45;&gt;22 -->
<g id="edge175" class="edge"><title>62&#45;&gt;22</title>
<path fill="none" stroke="black" d="M1435.65,-437.436C1453.76,-435.533 1472.42,-433.647 1490,-432 1685.26,-413.707 1913.2,-396.392 2044.84,-386.787"/>
<polygon fill="black" stroke="black" points="2045.21,-390.27 2054.93,-386.052 2044.7,-383.288 2045.21,-390.27"/>
</g>
<!-- 62&#45;&gt;25 -->
<g id="edge177" class="edge"><title>62&#45;&gt;25</title>
<path fill="none" stroke="black" d="M1289.25,-432.691C1273.35,-424.289 1256.99,-412.308 1248,-396 1240.27,-381.989 1236.91,-371.531 1248,-360 1249.31,-358.641 2112.39,-325.879 2464.79,-312.557"/>
<polygon fill="black" stroke="black" points="2464.95,-316.053 2474.81,-312.178 2464.68,-309.058 2464.95,-316.053"/>
</g>
<!-- 62&#45;&gt;26 -->
<g id="edge178" class="edge"><title>62&#45;&gt;26</title>
<path fill="none" stroke="black" d="M1464.3,-442.885C1646.65,-434.154 1985.44,-416.843 2274,-396 2455.56,-382.885 2500.42,-372.864 2682,-360 2980.79,-338.833 3056.34,-346.909 3355,-324 3370.55,-322.807 3386.89,-321.387 3403.03,-319.883"/>
<polygon fill="black" stroke="black" points="3403.42,-323.362 3413.05,-318.938 3402.76,-316.393 3403.42,-323.362"/>
</g>
<!-- 62&#45;&gt;29 -->
<g id="edge182" class="edge"><title>62&#45;&gt;29</title>
<path fill="none" stroke="black" d="M1310.26,-431.925C1288.26,-412.672 1260.23,-381.283 1281,-360 1309.84,-330.452 2725.8,-326.697 2767,-324 2787.35,-322.668 2809.12,-320.7 2829.82,-318.571"/>
<polygon fill="black" stroke="black" points="2830.3,-322.039 2839.88,-317.515 2829.57,-315.078 2830.3,-322.039"/>
</g>
<!-- 62&#45;&gt;31 -->
<g id="edge183" class="edge"><title>62&#45;&gt;31</title>
<path fill="none" stroke="black" d="M1281.82,-433.048C1264.49,-424.86 1246.95,-412.937 1237,-396 1206.48,-344.03 1263.1,-310.531 1319,-288 1400.09,-255.316 2017.88,-259.35 2105,-252 2117.43,-250.951 2130.47,-249.633 2143.36,-248.197"/>
<polygon fill="black" stroke="black" points="2144.11,-251.634 2153.65,-247.023 2143.32,-244.679 2144.11,-251.634"/>
</g>
<!-- 62&#45;&gt;32 -->
<g id="edge174" class="edge"><title>62&#45;&gt;32</title>
<path fill="none" stroke="black" d="M1236.59,-436.451C1199.85,-428.66 1158.68,-416.119 1125,-396 1002.49,-322.811 831.311,-250.773 926,-144 970.404,-93.9288 1158.69,-117.023 1225,-108 1233.94,-106.783 1243.28,-105.456 1252.58,-104.097"/>
<polygon fill="black" stroke="black" points="1253.26,-107.536 1262.64,-102.615 1252.24,-100.61 1253.26,-107.536"/>
</g>
<!-- 62&#45;&gt;44 -->
<g id="edge176" class="edge"><title>62&#45;&gt;44</title>
<path fill="none" stroke="black" d="M1358.11,-432.233C1372.43,-423.037 1390.38,-411.51 1405.91,-401.536"/>
<polygon fill="black" stroke="black" points="1408.2,-404.221 1414.73,-395.873 1404.42,-398.331 1408.2,-404.221"/>
</g>
</g>
</svg>
