<?xml version="1.0" encoding="UTF-8" standalone="no"?>
<!DOCTYPE svg PUBLIC "-//W3C//DTD SVG 1.1//EN"
 "http://www.w3.org/Graphics/SVG/1.1/DTD/svg11.dtd">
<!-- Generated by graphviz version 2.38.0 (20140413.2041)
 -->
<!-- Title: godep Pages: 1 -->
<svg width="4214pt" height="548pt"
 viewBox="0.00 0.00 4213.99 548.00" xmlns="http://www.w3.org/2000/svg" xmlns:xlink="http://www.w3.org/1999/xlink">
<g id="graph0" class="graph" transform="scale(1 1) rotate(0) translate(4 544)">
<title>godep</title>
<polygon fill="white" stroke="none" points="-4,4 -4,-544 4209.99,-544 4209.99,4 -4,4"/>
<!-- 0 -->
<g id="node1" class="node"><title>0</title>
<ellipse fill="paleturquoise" stroke="paleturquoise" cx="3147.8" cy="-18" rx="79.3425" ry="18"/>
<text text-anchor="middle" x="3147.8" y="-13.8" font-family="Times,serif" font-size="14.00">gopkg.in/yaml.v2</text>
</g>
<!-- 1 -->
<g id="node2" class="node"><title>1</title>
<ellipse fill="paleturquoise" stroke="paleturquoise" cx="2660.8" cy="-234" rx="119.246" ry="18"/>
<text text-anchor="middle" x="2660.8" y="-229.8" font-family="Times,serif" font-size="14.00">k8s.io/kubernetes/pkg/types</text>
</g>
<!-- 2 -->
<g id="node3" class="node"><title>2</title>
<ellipse fill="paleturquoise" stroke="paleturquoise" cx="1507.8" cy="-234" rx="205.466" ry="18"/>
<text text-anchor="middle" x="1507.8" y="-229.8" font-family="Times,serif" font-size="14.00">github.com/prometheus/client_golang/prometheus</text>
</g>
<!-- 3 -->
<g id="node4" class="node"><title>3</title>
<ellipse fill="paleturquoise" stroke="paleturquoise" cx="1953.8" cy="-162" rx="141.799" ry="18"/>
<text text-anchor="middle" x="1953.8" y="-157.8" font-family="Times,serif" font-size="14.00">github.com/beorn7/perks/quantile</text>
</g>
<!-- 2&#45;&gt;3 -->
<g id="edge1" class="edge"><title>2&#45;&gt;3</title>
<path fill="none" stroke="black" d="M1603.2,-218.026C1678.51,-206.207 1783.07,-189.795 1858.38,-177.976"/>
<polygon fill="black" stroke="black" points="1859.01,-181.42 1868.35,-176.412 1857.92,-174.505 1859.01,-181.42"/>
</g>
<!-- 4 -->
<g id="node5" class="node"><title>4</title>
<ellipse fill="paleturquoise" stroke="paleturquoise" cx="1099.8" cy="-18" rx="142.968" ry="18"/>
<text text-anchor="middle" x="1099.8" y="-13.8" font-family="Times,serif" font-size="14.00">github.com/golang/protobuf/proto</text>
</g>
<!-- 2&#45;&gt;4 -->
<g id="edge2" class="edge"><title>2&#45;&gt;4</title>
<path fill="none" stroke="black" d="M1511.78,-215.844C1518.29,-182.955 1526.96,-110.854 1488.8,-72 1455.9,-38.5089 1345.78,-25.7145 1251.06,-21.0406"/>
<polygon fill="black" stroke="black" points="1251.22,-17.5442 1241.07,-20.5743 1250.9,-24.5366 1251.22,-17.5442"/>
</g>
<!-- 5 -->
<g id="node6" class="node"><title>5</title>
<ellipse fill="paleturquoise" stroke="paleturquoise" cx="1311.8" cy="-90" rx="167.883" ry="18"/>
<text text-anchor="middle" x="1311.8" y="-85.8" font-family="Times,serif" font-size="14.00">github.com/prometheus/client_model/go</text>
</g>
<!-- 2&#45;&gt;5 -->
<g id="edge3" class="edge"><title>2&#45;&gt;5</title>
<path fill="none" stroke="black" d="M1484.16,-215.871C1449.04,-190.429 1383.02,-142.597 1343.67,-114.087"/>
<polygon fill="black" stroke="black" points="1345.37,-111.001 1335.22,-107.968 1341.27,-116.67 1345.37,-111.001"/>
</g>
<!-- 6 -->
<g id="node7" class="node"><title>6</title>
<ellipse fill="paleturquoise" stroke="paleturquoise" cx="754.8" cy="-162" rx="169.029" ry="18"/>
<text text-anchor="middle" x="754.8" y="-157.8" font-family="Times,serif" font-size="14.00">github.com/prometheus/common/expfmt</text>
</g>
<!-- 2&#45;&gt;6 -->
<g id="edge4" class="edge"><title>2&#45;&gt;6</title>
<path fill="none" stroke="black" d="M1372.31,-220.405C1235.06,-207.646 1024.1,-188.034 887.763,-175.36"/>
<polygon fill="black" stroke="black" points="887.951,-171.863 877.67,-174.422 887.303,-178.833 887.951,-171.863"/>
</g>
<!-- 7 -->
<g id="node8" class="node"><title>7</title>
<ellipse fill="paleturquoise" stroke="paleturquoise" cx="1664.8" cy="-162" rx="129.118" ry="18"/>
<text text-anchor="middle" x="1664.8" y="-157.8" font-family="Times,serif" font-size="14.00">github.com/prometheus/procfs</text>
</g>
<!-- 2&#45;&gt;7 -->
<g id="edge5" class="edge"><title>2&#45;&gt;7</title>
<path fill="none" stroke="black" d="M1545.41,-216.233C1567.41,-206.422 1595.37,-193.958 1618.69,-183.557"/>
<polygon fill="black" stroke="black" points="1620.33,-186.657 1628.04,-179.388 1617.48,-180.264 1620.33,-186.657"/>
</g>
<!-- 5&#45;&gt;4 -->
<g id="edge36" class="edge"><title>5&#45;&gt;4</title>
<path fill="none" stroke="black" d="M1262.63,-72.7646C1231.48,-62.4796 1191.04,-49.1252 1158.25,-38.299"/>
<polygon fill="black" stroke="black" points="1158.93,-34.8384 1148.34,-35.0265 1156.74,-41.4855 1158.93,-34.8384"/>
</g>
<!-- 6&#45;&gt;4 -->
<g id="edge7" class="edge"><title>6&#45;&gt;4</title>
<path fill="none" stroke="black" d="M689.776,-145.347C670.72,-137.411 652.009,-125.573 640.8,-108 632.195,-94.5107 630.155,-83.945 640.8,-72 661.893,-48.3307 831.984,-33.6828 959,-25.9407"/>
<polygon fill="black" stroke="black" points="959.448,-29.4202 969.22,-25.3268 959.028,-22.4327 959.448,-29.4202"/>
</g>
<!-- 6&#45;&gt;5 -->
<g id="edge9" class="edge"><title>6&#45;&gt;5</title>
<path fill="none" stroke="black" d="M859.567,-147.834C955.691,-135.753 1097.79,-117.895 1196.97,-105.431"/>
<polygon fill="black" stroke="black" points="1197.54,-108.886 1207.03,-104.167 1196.67,-101.941 1197.54,-108.886"/>
</g>
<!-- 8 -->
<g id="node9" class="node"><title>8</title>
<ellipse fill="paleturquoise" stroke="paleturquoise" cx="165.8" cy="-90" rx="165.6" ry="18"/>
<text text-anchor="middle" x="165.8" y="-85.8" font-family="Times,serif" font-size="14.00">github.com/prometheus/common/model</text>
</g>
<!-- 6&#45;&gt;8 -->
<g id="edge10" class="edge"><title>6&#45;&gt;8</title>
<path fill="none" stroke="black" d="M646.425,-148.12C543.426,-135.879 388.959,-117.521 283.107,-104.941"/>
<polygon fill="black" stroke="black" points="283.361,-101.447 273.018,-103.742 282.535,-108.398 283.361,-101.447"/>
</g>
<!-- 10 -->
<g id="node11" class="node"><title>10</title>
<ellipse fill="paleturquoise" stroke="paleturquoise" cx="471.8" cy="-90" rx="121.598" ry="18"/>
<text text-anchor="middle" x="471.8" y="-85.8" font-family="Times,serif" font-size="14.00">bitbucket.org/ww/goautoneg</text>
</g>
<!-- 6&#45;&gt;10 -->
<g id="edge6" class="edge"><title>6&#45;&gt;10</title>
<path fill="none" stroke="black" d="M691.289,-145.291C646.804,-134.287 587.365,-119.585 541.561,-108.255"/>
<polygon fill="black" stroke="black" points="542.258,-104.822 531.71,-105.819 540.577,-111.618 542.258,-104.822"/>
</g>
<!-- 11 -->
<g id="node12" class="node"><title>11</title>
<ellipse fill="paleturquoise" stroke="paleturquoise" cx="887.8" cy="-90" rx="237.876" ry="18"/>
<text text-anchor="middle" x="887.8" y="-85.8" font-family="Times,serif" font-size="14.00">github.com/matttproud/golang_protobuf_extensions/pbutil</text>
</g>
<!-- 6&#45;&gt;11 -->
<g id="edge8" class="edge"><title>6&#45;&gt;11</title>
<path fill="none" stroke="black" d="M786.656,-144.233C804.702,-134.736 827.469,-122.753 846.831,-112.562"/>
<polygon fill="black" stroke="black" points="848.523,-115.627 855.742,-107.873 845.263,-109.433 848.523,-115.627"/>
</g>
<!-- 9 -->
<g id="node10" class="node"><title>9</title>
<ellipse fill="paleturquoise" stroke="paleturquoise" cx="2794.8" cy="-306" rx="105.923" ry="18"/>
<text text-anchor="middle" x="2794.8" y="-301.8" font-family="Times,serif" font-size="14.00">golang.org/x/net/context</text>
</g>
<!-- 11&#45;&gt;4 -->
<g id="edge43" class="edge"><title>11&#45;&gt;4</title>
<path fill="none" stroke="black" d="M938.31,-72.3222C969.387,-62.0609 1009.33,-48.8735 1041.71,-38.1807"/>
<polygon fill="black" stroke="black" points="1043.1,-41.4074 1051.5,-34.9484 1040.91,-34.7603 1043.1,-41.4074"/>
</g>
<!-- 12 -->
<g id="node13" class="node"><title>12</title>
<ellipse fill="paleturquoise" stroke="paleturquoise" cx="3015.8" cy="-234" rx="128.556" ry="18"/>
<text text-anchor="middle" x="3015.8" y="-229.8" font-family="Times,serif" font-size="14.00">k8s.io/kubernetes/pkg/runtime</text>
</g>
<!-- 13 -->
<g id="node14" class="node"><title>13</title>
<ellipse fill="paleturquoise" stroke="paleturquoise" cx="3446.8" cy="-162" rx="141.22" ry="18"/>
<text text-anchor="middle" x="3446.8" y="-157.8" font-family="Times,serif" font-size="14.00">k8s.io/kubernetes/pkg/conversion</text>
</g>
<!-- 12&#45;&gt;13 -->
<g id="edge11" class="edge"><title>12&#45;&gt;13</title>
<path fill="none" stroke="black" d="M3096.36,-219.916C3169.23,-208.081 3276.54,-190.652 3353.19,-178.203"/>
<polygon fill="black" stroke="black" points="3354.02,-181.615 3363.33,-176.557 3352.89,-174.706 3354.02,-181.615"/>
</g>
<!-- 14 -->
<g id="node15" class="node"><title>14</title>
<ellipse fill="paleturquoise" stroke="paleturquoise" cx="2871.8" cy="-162" rx="130.299" ry="18"/>
<text text-anchor="middle" x="2871.8" y="-157.8" font-family="Times,serif" font-size="14.00">k8s.io/kubernetes/pkg/util/json</text>
</g>
<!-- 12&#45;&gt;14 -->
<g id="edge12" class="edge"><title>12&#45;&gt;14</title>
<path fill="none" stroke="black" d="M2982.04,-216.588C2962.05,-206.873 2936.53,-194.465 2915.07,-184.036"/>
<polygon fill="black" stroke="black" points="2916.37,-180.776 2905.85,-179.552 2913.31,-187.071 2916.37,-180.776"/>
</g>
<!-- 15 -->
<g id="node16" class="node"><title>15</title>
<ellipse fill="paleturquoise" stroke="paleturquoise" cx="2594.8" cy="-162" rx="128.57" ry="18"/>
<text text-anchor="middle" x="2594.8" y="-157.8" font-family="Times,serif" font-size="14.00">k8s.io/kubernetes/pkg/util/sets</text>
</g>
<!-- 12&#45;&gt;15 -->
<g id="edge13" class="edge"><title>12&#45;&gt;15</title>
<path fill="none" stroke="black" d="M2936.12,-219.751C2864.4,-207.827 2759.12,-190.321 2684.48,-177.911"/>
<polygon fill="black" stroke="black" points="2684.59,-174.382 2674.16,-176.195 2683.45,-181.287 2684.59,-174.382"/>
</g>
<!-- 16 -->
<g id="node17" class="node"><title>16</title>
<ellipse fill="paleturquoise" stroke="paleturquoise" cx="3153.8" cy="-162" rx="133.728" ry="18"/>
<text text-anchor="middle" x="3153.8" y="-157.8" font-family="Times,serif" font-size="14.00">k8s.io/kubernetes/pkg/util/yaml</text>
</g>
<!-- 12&#45;&gt;16 -->
<g id="edge14" class="edge"><title>12&#45;&gt;16</title>
<path fill="none" stroke="black" d="M3048.5,-216.411C3067.58,-206.734 3091.83,-194.433 3112.25,-184.076"/>
<polygon fill="black" stroke="black" points="3114,-187.115 3121.33,-179.47 3110.83,-180.872 3114,-187.115"/>
</g>
<!-- 18 -->
<g id="node19" class="node"><title>18</title>
<ellipse fill="paleturquoise" stroke="paleturquoise" cx="3451.8" cy="-90" rx="179.914" ry="18"/>
<text text-anchor="middle" x="3451.8" y="-85.8" font-family="Times,serif" font-size="14.00">k8s.io/kubernetes/third_party/forked/reflect</text>
</g>
<!-- 13&#45;&gt;18 -->
<g id="edge16" class="edge"><title>13&#45;&gt;18</title>
<path fill="none" stroke="black" d="M3448.04,-143.697C3448.59,-135.983 3449.25,-126.712 3449.86,-118.112"/>
<polygon fill="black" stroke="black" points="3453.36,-118.328 3450.58,-108.104 3446.37,-117.83 3453.36,-118.328"/>
</g>
<!-- 22 -->
<g id="node23" class="node"><title>22</title>
<ellipse fill="paleturquoise" stroke="paleturquoise" cx="2681.8" cy="-90" rx="103.66" ry="18"/>
<text text-anchor="middle" x="2681.8" y="-85.8" font-family="Times,serif" font-size="14.00">github.com/golang/glog</text>
</g>
<!-- 16&#45;&gt;22 -->
<g id="edge38" class="edge"><title>16&#45;&gt;22</title>
<path fill="none" stroke="black" d="M3067.5,-148.202C2982.38,-135.577 2853,-116.39 2767.93,-103.774"/>
<polygon fill="black" stroke="black" points="2768.19,-100.274 2757.78,-102.269 2767.16,-107.198 2768.19,-100.274"/>
</g>
<!-- 29 -->
<g id="node30" class="node"><title>29</title>
<ellipse fill="paleturquoise" stroke="paleturquoise" cx="3147.8" cy="-90" rx="106.026" ry="18"/>
<text text-anchor="middle" x="3147.8" y="-85.8" font-family="Times,serif" font-size="14.00">github.com/ghodss/yaml</text>
</g>
<!-- 16&#45;&gt;29 -->
<g id="edge37" class="edge"><title>16&#45;&gt;29</title>
<path fill="none" stroke="black" d="M3152.32,-143.697C3151.66,-135.983 3150.86,-126.712 3150.12,-118.112"/>
<polygon fill="black" stroke="black" points="3153.61,-117.769 3149.27,-108.104 3146.63,-118.367 3153.61,-117.769"/>
</g>
<!-- 17 -->
<g id="node18" class="node"><title>17</title>
<ellipse fill="paleturquoise" stroke="paleturquoise" cx="3753.8" cy="-162" rx="147.581" ry="18"/>
<text text-anchor="middle" x="3753.8" y="-157.8" font-family="Times,serif" font-size="14.00">github.com/davecgh/go&#45;spew/spew</text>
</g>
<!-- 19 -->
<g id="node20" class="node"><title>19</title>
<ellipse fill="paleturquoise" stroke="paleturquoise" cx="4055.8" cy="-162" rx="136.637" ry="18"/>
<text text-anchor="middle" x="4055.8" y="-157.8" font-family="Times,serif" font-size="14.00">k8s.io/kubernetes/pkg/util/errors</text>
</g>
<!-- 20 -->
<g id="node21" class="node"><title>20</title>
<ellipse fill="paleturquoise" stroke="paleturquoise" cx="1718.8" cy="-378" rx="170.19" ry="18"/>
<text text-anchor="middle" x="1718.8" y="-373.8" font-family="Times,serif" font-size="14.00">github.com/openshift/origin/pkg/auth/api</text>
</g>
<!-- 21 -->
<g id="node22" class="node"><title>21</title>
<ellipse fill="paleturquoise" stroke="paleturquoise" cx="1251.8" cy="-306" rx="134.273" ry="18"/>
<text text-anchor="middle" x="1251.8" y="-301.8" font-family="Times,serif" font-size="14.00">k8s.io/kubernetes/pkg/auth/user</text>
</g>
<!-- 20&#45;&gt;21 -->
<g id="edge15" class="edge"><title>20&#45;&gt;21</title>
<path fill="none" stroke="black" d="M1625.14,-362.961C1544.7,-350.904 1429.22,-333.595 1348.05,-321.427"/>
<polygon fill="black" stroke="black" points="1348.24,-317.916 1337.83,-319.895 1347.2,-324.839 1348.24,-317.916"/>
</g>
<!-- 23 -->
<g id="node24" class="node"><title>23</title>
<ellipse fill="paleturquoise" stroke="paleturquoise" cx="1926.8" cy="-306" rx="145.849" ry="18"/>
<text text-anchor="middle" x="1926.8" y="-301.8" font-family="Times,serif" font-size="14.00">k8s.io/kubernetes/pkg/api/resource</text>
</g>
<!-- 24 -->
<g id="node25" class="node"><title>24</title>
<ellipse fill="paleturquoise" stroke="paleturquoise" cx="1182.8" cy="-234" rx="101.349" ry="18"/>
<text text-anchor="middle" x="1182.8" y="-229.8" font-family="Times,serif" font-size="14.00">github.com/spf13/pflag</text>
</g>
<!-- 23&#45;&gt;24 -->
<g id="edge17" class="edge"><title>23&#45;&gt;24</title>
<path fill="none" stroke="black" d="M1822.27,-293.44C1803.8,-291.526 1784.74,-289.636 1766.8,-288 1556.84,-268.86 1503.26,-275.976 1293.8,-252 1284.31,-250.914 1274.39,-249.621 1264.55,-248.24"/>
<polygon fill="black" stroke="black" points="1264.74,-244.732 1254.35,-246.775 1263.75,-251.661 1264.74,-244.732"/>
</g>
<!-- 25 -->
<g id="node26" class="node"><title>25</title>
<ellipse fill="paleturquoise" stroke="paleturquoise" cx="691.8" cy="-234" rx="128.529" ry="18"/>
<text text-anchor="middle" x="691.8" y="-229.8" font-family="Times,serif" font-size="14.00">speter.net/go/exp/math/dec/inf</text>
</g>
<!-- 23&#45;&gt;25 -->
<g id="edge18" class="edge"><title>23&#45;&gt;25</title>
<path fill="none" stroke="black" d="M1824.47,-293.089C1805.32,-291.155 1785.47,-289.348 1766.8,-288 1350.69,-257.943 1244.63,-285.718 828.8,-252 816.453,-250.999 803.508,-249.709 790.709,-248.288"/>
<polygon fill="black" stroke="black" points="790.822,-244.778 780.49,-247.123 790.029,-251.733 790.822,-244.778"/>
</g>
<!-- 26 -->
<g id="node27" class="node"><title>26</title>
<ellipse fill="paleturquoise" stroke="paleturquoise" cx="3429.8" cy="-234" rx="152.85" ry="18"/>
<text text-anchor="middle" x="3429.8" y="-229.8" font-family="Times,serif" font-size="14.00">k8s.io/kubernetes/pkg/util/validation</text>
</g>
<!-- 27 -->
<g id="node28" class="node"><title>27</title>
<ellipse fill="paleturquoise" stroke="paleturquoise" cx="1842.8" cy="-234" rx="111.747" ry="18"/>
<text text-anchor="middle" x="1842.8" y="-229.8" font-family="Times,serif" font-size="14.00">github.com/pborman/uuid</text>
</g>
<!-- 28 -->
<g id="node29" class="node"><title>28</title>
<ellipse fill="paleturquoise" stroke="paleturquoise" cx="3050.8" cy="-306" rx="131.983" ry="18"/>
<text text-anchor="middle" x="3050.8" y="-301.8" font-family="Times,serif" font-size="14.00">k8s.io/kubernetes/pkg/api/meta</text>
</g>
<!-- 28&#45;&gt;1 -->
<g id="edge21" class="edge"><title>28&#45;&gt;1</title>
<path fill="none" stroke="black" d="M2974.21,-291.254C2907.93,-279.357 2812.27,-262.186 2744.09,-249.95"/>
<polygon fill="black" stroke="black" points="2744.7,-246.503 2734.24,-248.181 2743.46,-253.393 2744.7,-246.503"/>
</g>
<!-- 28&#45;&gt;12 -->
<g id="edge20" class="edge"><title>28&#45;&gt;12</title>
<path fill="none" stroke="black" d="M3042.15,-287.697C3038.16,-279.728 3033.35,-270.1 3028.93,-261.264"/>
<polygon fill="black" stroke="black" points="3031.95,-259.483 3024.35,-252.104 3025.69,-262.614 3031.95,-259.483"/>
</g>
<!-- 28&#45;&gt;13 -->
<g id="edge19" class="edge"><title>28&#45;&gt;13</title>
<path fill="none" stroke="black" d="M3082.99,-288.436C3127.31,-265.805 3205.02,-226.793 3234.8,-216 3276.39,-200.923 3324.09,-188.584 3363.69,-179.617"/>
<polygon fill="black" stroke="black" points="3364.58,-183.005 3373.57,-177.411 3363.05,-176.173 3364.58,-183.005"/>
</g>
<!-- 29&#45;&gt;0 -->
<g id="edge22" class="edge"><title>29&#45;&gt;0</title>
<path fill="none" stroke="black" d="M3147.8,-71.6966C3147.8,-63.9827 3147.8,-54.7125 3147.8,-46.1124"/>
<polygon fill="black" stroke="black" points="3151.3,-46.1043 3147.8,-36.1043 3144.3,-46.1044 3151.3,-46.1043"/>
</g>
<!-- 30 -->
<g id="node31" class="node"><title>30</title>
<ellipse fill="paleturquoise" stroke="paleturquoise" cx="950.8" cy="-234" rx="112.869" ry="18"/>
<text text-anchor="middle" x="950.8" y="-229.8" font-family="Times,serif" font-size="14.00">github.com/google/gofuzz</text>
</g>
<!-- 31 -->
<g id="node32" class="node"><title>31</title>
<ellipse fill="paleturquoise" stroke="paleturquoise" cx="4085.8" cy="-306" rx="120.386" ry="18"/>
<text text-anchor="middle" x="4085.8" y="-301.8" font-family="Times,serif" font-size="14.00">k8s.io/kubernetes/pkg/fields</text>
</g>
<!-- 32 -->
<g id="node33" class="node"><title>32</title>
<ellipse fill="paleturquoise" stroke="paleturquoise" cx="3413.8" cy="-306" rx="121.03" ry="18"/>
<text text-anchor="middle" x="3413.8" y="-301.8" font-family="Times,serif" font-size="14.00">k8s.io/kubernetes/pkg/labels</text>
</g>
<!-- 32&#45;&gt;15 -->
<g id="edge24" class="edge"><title>32&#45;&gt;15</title>
<path fill="none" stroke="black" d="M3310.93,-296.421C3167.05,-284.177 2918.66,-262.062 2877.8,-252 2836.37,-241.797 2829.23,-229.646 2788.8,-216 2748.89,-202.527 2703.5,-189.981 2666.67,-180.481"/>
<polygon fill="black" stroke="black" points="2667.07,-176.972 2656.52,-177.884 2665.34,-183.753 2667.07,-176.972"/>
</g>
<!-- 32&#45;&gt;26 -->
<g id="edge25" class="edge"><title>32&#45;&gt;26</title>
<path fill="none" stroke="black" d="M3417.75,-287.697C3419.52,-279.983 3421.64,-270.712 3423.6,-262.112"/>
<polygon fill="black" stroke="black" points="3427.07,-262.633 3425.89,-252.104 3420.25,-261.073 3427.07,-262.633"/>
</g>
<!-- 33 -->
<g id="node34" class="node"><title>33</title>
<ellipse fill="paleturquoise" stroke="paleturquoise" cx="3754.8" cy="-234" rx="154.531" ry="18"/>
<text text-anchor="middle" x="3754.8" y="-229.8" font-family="Times,serif" font-size="14.00">k8s.io/kubernetes/pkg/util/fielderrors</text>
</g>
<!-- 32&#45;&gt;33 -->
<g id="edge23" class="edge"><title>32&#45;&gt;33</title>
<path fill="none" stroke="black" d="M3481.99,-291.003C3536.74,-279.763 3613.83,-263.939 3672.1,-251.977"/>
<polygon fill="black" stroke="black" points="3672.92,-255.38 3682.02,-249.941 3671.52,-248.523 3672.92,-255.38"/>
</g>
<!-- 33&#45;&gt;17 -->
<g id="edge44" class="edge"><title>33&#45;&gt;17</title>
<path fill="none" stroke="black" d="M3754.55,-215.697C3754.44,-207.983 3754.31,-198.712 3754.19,-190.112"/>
<polygon fill="black" stroke="black" points="3757.69,-190.053 3754.04,-180.104 3750.69,-190.153 3757.69,-190.053"/>
</g>
<!-- 33&#45;&gt;19 -->
<g id="edge45" class="edge"><title>33&#45;&gt;19</title>
<path fill="none" stroke="black" d="M3820.86,-217.638C3868.37,-206.587 3932.5,-191.675 3981.75,-180.221"/>
<polygon fill="black" stroke="black" points="3982.76,-183.58 3991.71,-177.906 3981.17,-176.762 3982.76,-183.58"/>
</g>
<!-- 34 -->
<g id="node35" class="node"><title>34</title>
<ellipse fill="paleturquoise" stroke="paleturquoise" cx="2202.8" cy="-306" rx="111.739" ry="18"/>
<text text-anchor="middle" x="2202.8" y="-301.8" font-family="Times,serif" font-size="14.00">k8s.io/kubernetes/pkg/util</text>
</g>
<!-- 34&#45;&gt;1 -->
<g id="edge34" class="edge"><title>34&#45;&gt;1</title>
<path fill="none" stroke="black" d="M2280.75,-293.086C2360.87,-280.841 2485.51,-261.792 2570.02,-248.875"/>
<polygon fill="black" stroke="black" points="2570.76,-252.302 2580.12,-247.331 2569.71,-245.382 2570.76,-252.302"/>
</g>
<!-- 34&#45;&gt;2 -->
<g id="edge31" class="edge"><title>34&#45;&gt;2</title>
<path fill="none" stroke="black" d="M2123.46,-293.304C2109.59,-291.416 2095.29,-289.569 2081.8,-288 1940.9,-271.606 1780.06,-257.118 1664.55,-247.452"/>
<polygon fill="black" stroke="black" points="1664.83,-243.962 1654.57,-246.619 1664.24,-250.938 1664.83,-243.962"/>
</g>
<!-- 34&#45;&gt;15 -->
<g id="edge35" class="edge"><title>34&#45;&gt;15</title>
<path fill="none" stroke="black" d="M2278.16,-292.641C2339.71,-281.872 2421.32,-265.853 2451.8,-252 2476.08,-240.966 2477.44,-230.529 2499.8,-216 2516.9,-204.887 2536.48,-193.718 2553.41,-184.518"/>
<polygon fill="black" stroke="black" points="2555.36,-187.443 2562.5,-179.622 2552.04,-181.279 2555.36,-187.443"/>
</g>
<!-- 34&#45;&gt;17 -->
<g id="edge26" class="edge"><title>34&#45;&gt;17</title>
<path fill="none" stroke="black" d="M2290.19,-294.687C2313.44,-292.209 2338.55,-289.77 2361.8,-288 2713.15,-261.257 2806.86,-313.575 3153.8,-252 3206.12,-242.715 3215.8,-226.933 3267.8,-216 3270.06,-215.525 3494.27,-191.157 3637.33,-175.632"/>
<polygon fill="black" stroke="black" points="3637.92,-179.088 3647.48,-174.53 3637.16,-172.129 3637.92,-179.088"/>
</g>
<!-- 34&#45;&gt;22 -->
<g id="edge27" class="edge"><title>34&#45;&gt;22</title>
<path fill="none" stroke="black" d="M2283.04,-293.448C2335.83,-284.355 2398.74,-270.188 2418.8,-252 2456.49,-217.819 2418.95,-178.006 2456.8,-144 2476.96,-125.885 2538.5,-112.129 2592.13,-103.177"/>
<polygon fill="black" stroke="black" points="2592.74,-106.625 2602.04,-101.561 2591.61,-99.7162 2592.74,-106.625"/>
</g>
<!-- 34&#45;&gt;24 -->
<g id="edge32" class="edge"><title>34&#45;&gt;24</title>
<path fill="none" stroke="black" d="M2125.14,-292.99C2110.76,-291.079 2095.85,-289.305 2081.8,-288 1732.71,-255.576 1642.68,-286.586 1293.8,-252 1283.98,-251.026 1273.7,-249.773 1263.53,-248.389"/>
<polygon fill="black" stroke="black" points="1263.81,-244.893 1253.42,-246.966 1262.83,-251.825 1263.81,-244.893"/>
</g>
<!-- 34&#45;&gt;27 -->
<g id="edge30" class="edge"><title>34&#45;&gt;27</title>
<path fill="none" stroke="black" d="M2134.24,-291.669C2073.43,-279.846 1984.66,-262.584 1921.08,-250.222"/>
<polygon fill="black" stroke="black" points="1921.59,-246.755 1911.11,-248.282 1920.25,-253.626 1921.59,-246.755"/>
</g>
<!-- 34&#45;&gt;30 -->
<g id="edge28" class="edge"><title>34&#45;&gt;30</title>
<path fill="none" stroke="black" d="M2125.8,-292.961C2111.22,-291.027 2096.06,-289.253 2081.8,-288 1634.79,-248.731 1519.83,-291.016 1072.8,-252 1061.76,-251.036 1050.19,-249.766 1038.76,-248.353"/>
<polygon fill="black" stroke="black" points="1039.13,-244.872 1028.76,-247.079 1038.24,-251.816 1039.13,-244.872"/>
</g>
<!-- 35 -->
<g id="node36" class="node"><title>35</title>
<ellipse fill="paleturquoise" stroke="paleturquoise" cx="2079.8" cy="-234" rx="107.739" ry="18"/>
<text text-anchor="middle" x="2079.8" y="-229.8" font-family="Times,serif" font-size="14.00">github.com/juju/ratelimit</text>
</g>
<!-- 34&#45;&gt;35 -->
<g id="edge29" class="edge"><title>34&#45;&gt;35</title>
<path fill="none" stroke="black" d="M2173.96,-288.588C2157.27,-279.091 2136.06,-267.02 2118,-256.741"/>
<polygon fill="black" stroke="black" points="2119.31,-253.456 2108.88,-251.552 2115.84,-259.54 2119.31,-253.456"/>
</g>
<!-- 36 -->
<g id="node37" class="node"><title>36</title>
<ellipse fill="paleturquoise" stroke="paleturquoise" cx="2307.8" cy="-234" rx="102.493" ry="18"/>
<text text-anchor="middle" x="2307.8" y="-229.8" font-family="Times,serif" font-size="14.00">golang.org/x/crypto/ssh</text>
</g>
<!-- 34&#45;&gt;36 -->
<g id="edge33" class="edge"><title>34&#45;&gt;36</title>
<path fill="none" stroke="black" d="M2227.68,-288.411C2241.67,-279.083 2259.33,-267.316 2274.5,-257.203"/>
<polygon fill="black" stroke="black" points="2276.72,-259.929 2283.09,-251.47 2272.83,-254.105 2276.72,-259.929"/>
</g>
<!-- 37 -->
<g id="node38" class="node"><title>37</title>
<ellipse fill="paleturquoise" stroke="paleturquoise" cx="2501.8" cy="-306" rx="131.423" ry="18"/>
<text text-anchor="middle" x="2501.8" y="-301.8" font-family="Times,serif" font-size="14.00">k8s.io/kubernetes/pkg/util/rand</text>
</g>
<!-- 38 -->
<g id="node39" class="node"><title>38</title>
<ellipse fill="paleturquoise" stroke="paleturquoise" cx="2002.8" cy="-450" rx="169.607" ry="18"/>
<text text-anchor="middle" x="2002.8" y="-445.8" font-family="Times,serif" font-size="14.00">github.com/openshift/origin/pkg/user/api</text>
</g>
<!-- 38&#45;&gt;31 -->
<g id="edge41" class="edge"><title>38&#45;&gt;31</title>
<path fill="none" stroke="black" d="M2156.55,-442.393C2486.1,-427.517 3284.75,-387.641 3951.8,-324 3964.14,-322.823 3977.1,-321.406 3989.9,-319.9"/>
<polygon fill="black" stroke="black" points="3990.59,-323.342 4000.11,-318.676 3989.76,-316.391 3990.59,-323.342"/>
</g>
<!-- 39 -->
<g id="node40" class="node"><title>39</title>
<ellipse fill="paleturquoise" stroke="paleturquoise" cx="2580.8" cy="-378" rx="110.578" ry="18"/>
<text text-anchor="middle" x="2580.8" y="-373.8" font-family="Times,serif" font-size="14.00">k8s.io/kubernetes/pkg/api</text>
</g>
<!-- 38&#45;&gt;39 -->
<g id="edge39" class="edge"><title>38&#45;&gt;39</title>
<path fill="none" stroke="black" d="M2109.82,-436.038C2217.36,-423.015 2381.57,-403.129 2484.95,-390.608"/>
<polygon fill="black" stroke="black" points="2485.57,-394.059 2495.07,-389.382 2484.72,-387.11 2485.57,-394.059"/>
</g>
<!-- 40 -->
<g id="node41" class="node"><title>40</title>
<ellipse fill="paleturquoise" stroke="paleturquoise" cx="1564.8" cy="-306" rx="160.342" ry="18"/>
<text text-anchor="middle" x="1564.8" y="-301.8" font-family="Times,serif" font-size="14.00">k8s.io/kubernetes/pkg/api/unversioned</text>
</g>
<!-- 38&#45;&gt;40 -->
<g id="edge40" class="edge"><title>38&#45;&gt;40</title>
<path fill="none" stroke="black" d="M1988.04,-431.72C1969.31,-411.034 1934.93,-377.052 1897.8,-360 1861.26,-343.221 1768.04,-329.188 1689.5,-319.785"/>
<polygon fill="black" stroke="black" points="1689.85,-316.302 1679.51,-318.604 1689.03,-323.254 1689.85,-316.302"/>
</g>
<!-- 39&#45;&gt;1 -->
<g id="edge56" class="edge"><title>39&#45;&gt;1</title>
<path fill="none" stroke="black" d="M2606.91,-360.296C2619.31,-351.053 2633.25,-338.501 2641.8,-324 2652.87,-305.229 2657.53,-280.85 2659.47,-262.354"/>
<polygon fill="black" stroke="black" points="2662.97,-262.49 2660.32,-252.231 2655.99,-261.9 2662.97,-262.49"/>
</g>
<!-- 39&#45;&gt;9 -->
<g id="edge47" class="edge"><title>39&#45;&gt;9</title>
<path fill="none" stroke="black" d="M2627.76,-361.638C2660.35,-350.979 2703.92,-336.727 2738.39,-325.451"/>
<polygon fill="black" stroke="black" points="2739.9,-328.641 2748.31,-322.205 2737.72,-321.988 2739.9,-328.641"/>
</g>
<!-- 39&#45;&gt;12 -->
<g id="edge55" class="edge"><title>39&#45;&gt;12</title>
<path fill="none" stroke="black" d="M2690.41,-375.355C2857.13,-371.701 3158.67,-360.123 3191.8,-324 3225.17,-287.604 3165.09,-263.97 3106.25,-250.27"/>
<polygon fill="black" stroke="black" points="3106.98,-246.845 3096.45,-248.073 3105.44,-253.676 3106.98,-246.845"/>
</g>
<!-- 39&#45;&gt;13 -->
<g id="edge52" class="edge"><title>39&#45;&gt;13</title>
<path fill="none" stroke="black" d="M2687.97,-373.502C2856.14,-367.192 3167.32,-351.894 3209.8,-324 3255.34,-294.095 3225.53,-250.382 3267.8,-216 3289.74,-198.149 3317.53,-186.309 3344.63,-178.457"/>
<polygon fill="black" stroke="black" points="3345.84,-181.753 3354.57,-175.741 3344,-175.001 3345.84,-181.753"/>
</g>
<!-- 39&#45;&gt;15 -->
<g id="edge59" class="edge"><title>39&#45;&gt;15</title>
<path fill="none" stroke="black" d="M2493.57,-366.941C2439.92,-358.757 2378.37,-345.059 2361.8,-324 2295.39,-239.598 2430.57,-283.487 2489.8,-252 2492.03,-250.816 2537.02,-212.451 2567.38,-186.483"/>
<polygon fill="black" stroke="black" points="2569.81,-189.015 2575.13,-179.854 2565.26,-183.696 2569.81,-189.015"/>
</g>
<!-- 39&#45;&gt;17 -->
<g id="edge46" class="edge"><title>39&#45;&gt;17</title>
<path fill="none" stroke="black" d="M2687.04,-372.963C2901.74,-364.506 3380.73,-344.05 3543.8,-324 3712.24,-303.29 3810.7,-382.829 3918.8,-252 3947.73,-216.983 3896.08,-193.694 3843.11,-179.754"/>
<polygon fill="black" stroke="black" points="3843.77,-176.312 3833.22,-177.259 3842.06,-183.1 3843.77,-176.312"/>
</g>
<!-- 39&#45;&gt;21 -->
<g id="edge51" class="edge"><title>39&#45;&gt;21</title>
<path fill="none" stroke="black" d="M2471.99,-374.782C2263.08,-369.936 1791.43,-356.158 1395.8,-324 1382.7,-322.936 1368.96,-321.598 1355.38,-320.144"/>
<polygon fill="black" stroke="black" points="1355.36,-316.621 1345.04,-319.012 1354.6,-323.58 1355.36,-316.621"/>
</g>
<!-- 39&#45;&gt;23 -->
<g id="edge49" class="edge"><title>39&#45;&gt;23</title>
<path fill="none" stroke="black" d="M2490.64,-367.518C2390.7,-356.985 2224.72,-339.427 2081.8,-324 2068.93,-322.611 2055.46,-321.148 2042.07,-319.686"/>
<polygon fill="black" stroke="black" points="2042.17,-316.177 2031.85,-318.571 2041.41,-323.136 2042.17,-316.177"/>
</g>
<!-- 39&#45;&gt;25 -->
<g id="edge60" class="edge"><title>39&#45;&gt;25</title>
<path fill="none" stroke="black" d="M2472.83,-374.001C2267.25,-367.696 1834.4,-351.347 1771.8,-324 1750.48,-314.686 1755.24,-297.04 1733.8,-288 1641.07,-248.897 929.1,-260.203 828.8,-252 816.454,-250.99 803.509,-249.695 790.71,-248.271"/>
<polygon fill="black" stroke="black" points="790.824,-244.762 780.491,-247.105 790.03,-251.717 790.824,-244.762"/>
</g>
<!-- 39&#45;&gt;28 -->
<g id="edge48" class="edge"><title>39&#45;&gt;28</title>
<path fill="none" stroke="black" d="M2659.47,-365.284C2740.87,-353.16 2868.07,-334.215 2955.21,-321.237"/>
<polygon fill="black" stroke="black" points="2955.73,-324.698 2965.1,-319.763 2954.7,-317.775 2955.73,-324.698"/>
</g>
<!-- 39&#45;&gt;31 -->
<g id="edge53" class="edge"><title>39&#45;&gt;31</title>
<path fill="none" stroke="black" d="M2690.74,-376.013C2923.65,-373.205 3483.84,-362.654 3951.8,-324 3964.56,-322.946 3977.97,-321.569 3991.17,-320.054"/>
<polygon fill="black" stroke="black" points="3991.69,-323.517 4001.21,-318.872 3990.87,-316.565 3991.69,-323.517"/>
</g>
<!-- 39&#45;&gt;32 -->
<g id="edge54" class="edge"><title>39&#45;&gt;32</title>
<path fill="none" stroke="black" d="M2680.86,-370.311C2813.87,-361.17 3056.2,-343.652 3262.8,-324 3278.68,-322.49 3295.47,-320.745 3311.87,-318.96"/>
<polygon fill="black" stroke="black" points="3312.46,-322.417 3322.02,-317.846 3311.7,-315.459 3312.46,-322.417"/>
</g>
<!-- 39&#45;&gt;34 -->
<g id="edge57" class="edge"><title>39&#45;&gt;34</title>
<path fill="none" stroke="black" d="M2510.59,-363.998C2446.21,-352.076 2350.91,-334.428 2283.44,-321.933"/>
<polygon fill="black" stroke="black" points="2283.75,-318.431 2273.28,-320.051 2282.47,-325.314 2283.75,-318.431"/>
</g>
<!-- 39&#45;&gt;37 -->
<g id="edge58" class="edge"><title>39&#45;&gt;37</title>
<path fill="none" stroke="black" d="M2561.68,-360.055C2551.75,-351.264 2539.47,-340.38 2528.62,-330.763"/>
<polygon fill="black" stroke="black" points="2530.83,-328.044 2521.02,-324.032 2526.18,-333.283 2530.83,-328.044"/>
</g>
<!-- 39&#45;&gt;40 -->
<g id="edge50" class="edge"><title>39&#45;&gt;40</title>
<path fill="none" stroke="black" d="M2477.34,-371.641C2318.42,-363.148 2004.7,-345.352 1738.8,-324 1722.76,-322.712 1705.91,-321.229 1689.27,-319.687"/>
<polygon fill="black" stroke="black" points="1689.22,-316.167 1678.94,-318.72 1688.57,-323.137 1689.22,-316.167"/>
</g>
<!-- 40&#45;&gt;30 -->
<g id="edge42" class="edge"><title>40&#45;&gt;30</title>
<path fill="none" stroke="black" d="M1451.64,-293.224C1329.71,-280.46 1143.62,-260.747 1072.8,-252 1062.67,-250.749 1052.07,-249.373 1041.54,-247.962"/>
<polygon fill="black" stroke="black" points="1041.85,-244.473 1031.47,-246.602 1040.91,-251.41 1041.85,-244.473"/>
</g>
<!-- 41 -->
<g id="node42" class="node"><title>41</title>
<ellipse fill="paleturquoise" stroke="paleturquoise" cx="1874.8" cy="-522" rx="155.142" ry="18"/>
<text text-anchor="middle" x="1874.8" y="-517.8" font-family="Times,serif" font-size="14.00">github.com/openshift/origin/pkg/user</text>
</g>
<!-- 41&#45;&gt;20 -->
<g id="edge61" class="edge"><title>41&#45;&gt;20</title>
<path fill="none" stroke="black" d="M1855.98,-503.871C1828.34,-478.711 1776.64,-431.654 1745.21,-403.042"/>
<polygon fill="black" stroke="black" points="1747.43,-400.332 1737.68,-396.189 1742.72,-405.509 1747.43,-400.332"/>
</g>
<!-- 41&#45;&gt;38 -->
<g id="edge62" class="edge"><title>41&#45;&gt;38</title>
<path fill="none" stroke="black" d="M1905.46,-504.233C1922.75,-494.779 1944.54,-482.862 1963.12,-472.701"/>
<polygon fill="black" stroke="black" points="1964.85,-475.742 1971.95,-467.873 1961.49,-469.6 1964.85,-475.742"/>
</g>
</g>
</svg>
