<?xml version="1.0" encoding="UTF-8" standalone="no"?>
<!DOCTYPE svg PUBLIC "-//W3C//DTD SVG 1.1//EN"
 "http://www.w3.org/Graphics/SVG/1.1/DTD/svg11.dtd">
<!-- Generated by graphviz version 2.38.0 (20140413.2041)
 -->
<!-- Title: godep Pages: 1 -->
<svg width="2989pt" height="404pt"
 viewBox="0.00 0.00 2988.71 404.00" xmlns="http://www.w3.org/2000/svg" xmlns:xlink="http://www.w3.org/1999/xlink">
<g id="graph0" class="graph" transform="scale(1 1) rotate(0) translate(4 400)">
<title>godep</title>
<polygon fill="white" stroke="none" points="-4,4 -4,-400 2984.71,-400 2984.71,4 -4,4"/>
<!-- 0 -->
<g id="node1" class="node"><title>0</title>
<ellipse fill="paleturquoise" stroke="paleturquoise" cx="691.765" cy="-306" rx="103.055" ry="18"/>
<text text-anchor="middle" x="691.765" y="-301.8" font-family="Times,serif" font-size="14.00">github.com/spf13/cobra</text>
</g>
<!-- 1 -->
<g id="node2" class="node"><title>1</title>
<ellipse fill="paleturquoise" stroke="paleturquoise" cx="187.765" cy="-234" rx="181.222" ry="18"/>
<text text-anchor="middle" x="187.765" y="-229.8" font-family="Times,serif" font-size="14.00">github.com/cpuguy83/go&#45;md2man/md2man</text>
</g>
<!-- 0&#45;&gt;1 -->
<g id="edge1" class="edge"><title>0&#45;&gt;1</title>
<path fill="none" stroke="black" d="M613.844,-294.178C529.381,-282.447 393.897,-263.629 298.421,-250.369"/>
<polygon fill="black" stroke="black" points="298.825,-246.891 288.439,-248.982 297.862,-253.825 298.825,-246.891"/>
</g>
<!-- 2 -->
<g id="node3" class="node"><title>2</title>
<ellipse fill="paleturquoise" stroke="paleturquoise" cx="549.765" cy="-234" rx="163.188" ry="18"/>
<text text-anchor="middle" x="549.765" y="-229.8" font-family="Times,serif" font-size="14.00">github.com/inconshreveable/mousetrap</text>
</g>
<!-- 0&#45;&gt;2 -->
<g id="edge2" class="edge"><title>0&#45;&gt;2</title>
<path fill="none" stroke="black" d="M658.831,-288.765C639.133,-279.054 613.885,-266.608 592.644,-256.137"/>
<polygon fill="black" stroke="black" points="594.024,-252.916 583.507,-251.633 590.929,-259.194 594.024,-252.916"/>
</g>
<!-- 3 -->
<g id="node4" class="node"><title>3</title>
<ellipse fill="paleturquoise" stroke="paleturquoise" cx="832.765" cy="-234" rx="101.349" ry="18"/>
<text text-anchor="middle" x="832.765" y="-229.8" font-family="Times,serif" font-size="14.00">github.com/spf13/pflag</text>
</g>
<!-- 0&#45;&gt;3 -->
<g id="edge3" class="edge"><title>0&#45;&gt;3</title>
<path fill="none" stroke="black" d="M724.468,-288.765C744.311,-278.914 769.825,-266.247 791.104,-255.683"/>
<polygon fill="black" stroke="black" points="792.839,-258.729 800.24,-251.147 789.727,-252.459 792.839,-258.729"/>
</g>
<!-- 19 -->
<g id="node20" class="node"><title>19</title>
<ellipse fill="paleturquoise" stroke="paleturquoise" cx="187.765" cy="-162" rx="135.413" ry="18"/>
<text text-anchor="middle" x="187.765" y="-157.8" font-family="Times,serif" font-size="14.00">github.com/russross/blackfriday</text>
</g>
<!-- 1&#45;&gt;19 -->
<g id="edge26" class="edge"><title>1&#45;&gt;19</title>
<path fill="none" stroke="black" d="M187.765,-215.697C187.765,-207.983 187.765,-198.712 187.765,-190.112"/>
<polygon fill="black" stroke="black" points="191.265,-190.104 187.765,-180.104 184.265,-190.104 191.265,-190.104"/>
</g>
<!-- 4 -->
<g id="node5" class="node"><title>4</title>
<ellipse fill="paleturquoise" stroke="paleturquoise" cx="1491.77" cy="-378" rx="167.323" ry="18"/>
<text text-anchor="middle" x="1491.77" y="-373.8" font-family="Times,serif" font-size="14.00">github.com/openshift/origin/pkg/version</text>
</g>
<!-- 4&#45;&gt;0 -->
<g id="edge6" class="edge"><title>4&#45;&gt;0</title>
<path fill="none" stroke="black" d="M1366.33,-366.024C1207.65,-352.14 937.583,-328.509 791.947,-315.766"/>
<polygon fill="black" stroke="black" points="791.946,-312.253 781.679,-314.867 791.336,-319.226 791.946,-312.253"/>
</g>
<!-- 5 -->
<g id="node6" class="node"><title>5</title>
<ellipse fill="paleturquoise" stroke="paleturquoise" cx="1405.77" cy="-306" rx="132.546" ry="18"/>
<text text-anchor="middle" x="1405.77" y="-301.8" font-family="Times,serif" font-size="14.00">github.com/coreos/etcd/version</text>
</g>
<!-- 4&#45;&gt;5 -->
<g id="edge4" class="edge"><title>4&#45;&gt;5</title>
<path fill="none" stroke="black" d="M1470.95,-360.055C1459.96,-351.113 1446.31,-340.005 1434.35,-330.268"/>
<polygon fill="black" stroke="black" points="1436.36,-327.387 1426.39,-323.789 1431.94,-332.816 1436.36,-327.387"/>
</g>
<!-- 6 -->
<g id="node7" class="node"><title>6</title>
<ellipse fill="paleturquoise" stroke="paleturquoise" cx="1770.77" cy="-234" rx="205.466" ry="18"/>
<text text-anchor="middle" x="1770.77" y="-229.8" font-family="Times,serif" font-size="14.00">github.com/prometheus/client_golang/prometheus</text>
</g>
<!-- 4&#45;&gt;6 -->
<g id="edge5" class="edge"><title>4&#45;&gt;6</title>
<path fill="none" stroke="black" d="M1512.77,-360.073C1537.63,-340.666 1580.82,-308.853 1621.77,-288 1647.91,-274.684 1678.2,-263.249 1704.61,-254.445"/>
<polygon fill="black" stroke="black" points="1705.73,-257.759 1714.15,-251.322 1703.56,-251.107 1705.73,-257.759"/>
</g>
<!-- 7 -->
<g id="node8" class="node"><title>7</title>
<ellipse fill="paleturquoise" stroke="paleturquoise" cx="1757.77" cy="-306" rx="127.332" ry="18"/>
<text text-anchor="middle" x="1757.77" y="-301.8" font-family="Times,serif" font-size="14.00">k8s.io/kubernetes/pkg/version</text>
</g>
<!-- 4&#45;&gt;7 -->
<g id="edge7" class="edge"><title>4&#45;&gt;7</title>
<path fill="none" stroke="black" d="M1552.12,-361.116C1593.36,-350.263 1648.05,-335.874 1690.65,-324.661"/>
<polygon fill="black" stroke="black" points="1691.6,-328.031 1700.38,-322.101 1689.82,-321.262 1691.6,-328.031"/>
</g>
<!-- 8 -->
<g id="node9" class="node"><title>8</title>
<ellipse fill="paleturquoise" stroke="paleturquoise" cx="1098.77" cy="-234" rx="147.028" ry="18"/>
<text text-anchor="middle" x="1098.77" y="-229.8" font-family="Times,serif" font-size="14.00">github.com/coreos/etcd/pkg/fileutil</text>
</g>
<!-- 5&#45;&gt;8 -->
<g id="edge8" class="edge"><title>5&#45;&gt;8</title>
<path fill="none" stroke="black" d="M1341.03,-290.24C1292.55,-279.185 1226.05,-264.023 1174.99,-252.381"/>
<polygon fill="black" stroke="black" points="1175.53,-248.912 1165,-250.102 1173.97,-255.737 1175.53,-248.912"/>
</g>
<!-- 9 -->
<g id="node10" class="node"><title>9</title>
<ellipse fill="paleturquoise" stroke="paleturquoise" cx="1405.77" cy="-234" rx="141.797" ry="18"/>
<text text-anchor="middle" x="1405.77" y="-229.8" font-family="Times,serif" font-size="14.00">github.com/coreos/etcd/pkg/types</text>
</g>
<!-- 5&#45;&gt;9 -->
<g id="edge9" class="edge"><title>5&#45;&gt;9</title>
<path fill="none" stroke="black" d="M1405.77,-287.697C1405.77,-279.983 1405.77,-270.712 1405.77,-262.112"/>
<polygon fill="black" stroke="black" points="1409.27,-262.104 1405.77,-252.104 1402.27,-262.104 1409.27,-262.104"/>
</g>
<!-- 10 -->
<g id="node11" class="node"><title>10</title>
<ellipse fill="paleturquoise" stroke="paleturquoise" cx="1303.77" cy="-162" rx="141.799" ry="18"/>
<text text-anchor="middle" x="1303.77" y="-157.8" font-family="Times,serif" font-size="14.00">github.com/beorn7/perks/quantile</text>
</g>
<!-- 6&#45;&gt;10 -->
<g id="edge20" class="edge"><title>6&#45;&gt;10</title>
<path fill="none" stroke="black" d="M1672.01,-218.198C1592.44,-206.27 1481.12,-189.584 1401.75,-177.687"/>
<polygon fill="black" stroke="black" points="1402.16,-174.209 1391.75,-176.188 1401.12,-181.132 1402.16,-174.209"/>
</g>
<!-- 12 -->
<g id="node13" class="node"><title>12</title>
<ellipse fill="paleturquoise" stroke="paleturquoise" cx="2124.77" cy="-18" rx="142.968" ry="18"/>
<text text-anchor="middle" x="2124.77" y="-13.8" font-family="Times,serif" font-size="14.00">github.com/golang/protobuf/proto</text>
</g>
<!-- 6&#45;&gt;12 -->
<g id="edge21" class="edge"><title>6&#45;&gt;12</title>
<path fill="none" stroke="black" d="M1689.47,-217.424C1585.32,-194.089 1425.75,-144.868 1492.77,-72 1524.68,-37.2923 1796.86,-25.3026 1973.48,-21.1681"/>
<polygon fill="black" stroke="black" points="1973.73,-24.6632 1983.65,-20.9361 1973.57,-17.6651 1973.73,-24.6632"/>
</g>
<!-- 13 -->
<g id="node14" class="node"><title>13</title>
<ellipse fill="paleturquoise" stroke="paleturquoise" cx="1861.77" cy="-162" rx="169.029" ry="18"/>
<text text-anchor="middle" x="1861.77" y="-157.8" font-family="Times,serif" font-size="14.00">github.com/prometheus/common/expfmt</text>
</g>
<!-- 6&#45;&gt;13 -->
<g id="edge23" class="edge"><title>6&#45;&gt;13</title>
<path fill="none" stroke="black" d="M1792.79,-216.055C1804.44,-207.093 1818.92,-195.957 1831.6,-186.204"/>
<polygon fill="black" stroke="black" points="1833.83,-188.903 1839.62,-180.032 1829.56,-183.355 1833.83,-188.903"/>
</g>
<!-- 16 -->
<g id="node17" class="node"><title>16</title>
<ellipse fill="paleturquoise" stroke="paleturquoise" cx="2812.77" cy="-90" rx="167.883" ry="18"/>
<text text-anchor="middle" x="2812.77" y="-85.8" font-family="Times,serif" font-size="14.00">github.com/prometheus/client_model/go</text>
</g>
<!-- 6&#45;&gt;16 -->
<g id="edge22" class="edge"><title>6&#45;&gt;16</title>
<path fill="none" stroke="black" d="M1910.52,-220.719C1953.67,-212.983 2000.22,-200.412 2039.77,-180 2060.44,-169.33 2056.44,-153.303 2077.77,-144 2191.66,-94.3099 2511.91,-117.941 2635.77,-108 2651.56,-106.732 2668.15,-105.289 2684.56,-103.792"/>
<polygon fill="black" stroke="black" points="2685.11,-107.256 2694.75,-102.853 2684.47,-100.285 2685.11,-107.256"/>
</g>
<!-- 21 -->
<g id="node22" class="node"><title>21</title>
<ellipse fill="paleturquoise" stroke="paleturquoise" cx="2215.77" cy="-162" rx="129.118" ry="18"/>
<text text-anchor="middle" x="2215.77" y="-157.8" font-family="Times,serif" font-size="14.00">github.com/prometheus/procfs</text>
</g>
<!-- 6&#45;&gt;21 -->
<g id="edge24" class="edge"><title>6&#45;&gt;21</title>
<path fill="none" stroke="black" d="M1865.96,-218.026C1942.07,-206.053 2048.14,-189.368 2123.48,-177.517"/>
<polygon fill="black" stroke="black" points="2124.1,-180.962 2133.44,-175.951 2123.01,-174.047 2124.1,-180.962"/>
</g>
<!-- 7&#45;&gt;6 -->
<g id="edge19" class="edge"><title>7&#45;&gt;6</title>
<path fill="none" stroke="black" d="M1760.98,-287.697C1762.41,-279.983 1764.13,-270.712 1765.73,-262.112"/>
<polygon fill="black" stroke="black" points="1769.2,-262.575 1767.59,-252.104 1762.32,-261.297 1769.2,-262.575"/>
</g>
<!-- 17 -->
<g id="node18" class="node"><title>17</title>
<ellipse fill="paleturquoise" stroke="paleturquoise" cx="1007.77" cy="-162" rx="136.646" ry="18"/>
<text text-anchor="middle" x="1007.77" y="-157.8" font-family="Times,serif" font-size="14.00">github.com/coreos/pkg/capnslog</text>
</g>
<!-- 8&#45;&gt;17 -->
<g id="edge16" class="edge"><title>8&#45;&gt;17</title>
<path fill="none" stroke="black" d="M1076.74,-216.055C1065,-207.027 1050.39,-195.792 1037.65,-185.987"/>
<polygon fill="black" stroke="black" points="1039.65,-183.112 1029.59,-179.789 1035.38,-188.66 1039.65,-183.112"/>
</g>
<!-- 11 -->
<g id="node12" class="node"><title>11</title>
<ellipse fill="paleturquoise" stroke="paleturquoise" cx="1667.77" cy="-90" rx="165.6" ry="18"/>
<text text-anchor="middle" x="1667.77" y="-85.8" font-family="Times,serif" font-size="14.00">github.com/prometheus/common/model</text>
</g>
<!-- 13&#45;&gt;11 -->
<g id="edge14" class="edge"><title>13&#45;&gt;11</title>
<path fill="none" stroke="black" d="M1816.28,-144.588C1788.41,-134.531 1752.54,-121.59 1723.04,-110.945"/>
<polygon fill="black" stroke="black" points="1723.89,-107.532 1713.3,-107.43 1721.52,-114.117 1723.89,-107.532"/>
</g>
<!-- 13&#45;&gt;12 -->
<g id="edge11" class="edge"><title>13&#45;&gt;12</title>
<path fill="none" stroke="black" d="M1860.33,-143.703C1859.67,-123.643 1861.92,-90.9143 1880.77,-72 1899.52,-53.1739 1956.29,-40.2231 2010.35,-31.8384"/>
<polygon fill="black" stroke="black" points="2011.04,-35.2748 2020.41,-30.3256 2010,-28.3527 2011.04,-35.2748"/>
</g>
<!-- 14 -->
<g id="node15" class="node"><title>14</title>
<ellipse fill="paleturquoise" stroke="paleturquoise" cx="2011.77" cy="-90" rx="121.598" ry="18"/>
<text text-anchor="middle" x="2011.77" y="-85.8" font-family="Times,serif" font-size="14.00">bitbucket.org/ww/goautoneg</text>
</g>
<!-- 13&#45;&gt;14 -->
<g id="edge10" class="edge"><title>13&#45;&gt;14</title>
<path fill="none" stroke="black" d="M1897.69,-144.233C1918.7,-134.43 1945.38,-121.979 1967.66,-111.584"/>
<polygon fill="black" stroke="black" points="1969.32,-114.669 1976.91,-107.268 1966.36,-108.325 1969.32,-114.669"/>
</g>
<!-- 15 -->
<g id="node16" class="node"><title>15</title>
<ellipse fill="paleturquoise" stroke="paleturquoise" cx="2388.77" cy="-90" rx="237.876" ry="18"/>
<text text-anchor="middle" x="2388.77" y="-85.8" font-family="Times,serif" font-size="14.00">github.com/matttproud/golang_protobuf_extensions/pbutil</text>
</g>
<!-- 13&#45;&gt;15 -->
<g id="edge12" class="edge"><title>13&#45;&gt;15</title>
<path fill="none" stroke="black" d="M1963.06,-147.545C2049.61,-136.049 2174.36,-119.48 2266.45,-107.247"/>
<polygon fill="black" stroke="black" points="2266.93,-110.714 2276.38,-105.927 2266.01,-103.774 2266.93,-110.714"/>
</g>
<!-- 13&#45;&gt;16 -->
<g id="edge13" class="edge"><title>13&#45;&gt;16</title>
<path fill="none" stroke="black" d="M1981.81,-149.298C2002.79,-147.411 2024.4,-145.565 2044.77,-144 2307.14,-123.827 2373.42,-128.583 2635.77,-108 2651.69,-106.75 2668.42,-105.311 2684.96,-103.81"/>
<polygon fill="black" stroke="black" points="2685.59,-107.267 2695.23,-102.868 2684.95,-100.296 2685.59,-107.267"/>
</g>
<!-- 15&#45;&gt;12 -->
<g id="edge15" class="edge"><title>15&#45;&gt;12</title>
<path fill="none" stroke="black" d="M2326.87,-72.5881C2286.66,-61.926 2234.22,-48.0219 2192.83,-37.0486"/>
<polygon fill="black" stroke="black" points="2193.67,-33.6491 2183.11,-34.4691 2191.87,-40.4152 2193.67,-33.6491"/>
</g>
<!-- 16&#45;&gt;12 -->
<g id="edge25" class="edge"><title>16&#45;&gt;12</title>
<path fill="none" stroke="black" d="M2695.67,-77.0858C2569.15,-64.2138 2368.73,-43.822 2242.12,-30.94"/>
<polygon fill="black" stroke="black" points="2242.3,-27.4405 2232,-29.9102 2241.59,-34.4046 2242.3,-27.4405"/>
</g>
<!-- 18 -->
<g id="node19" class="node"><title>18</title>
<ellipse fill="paleturquoise" stroke="paleturquoise" cx="1007.77" cy="-90" rx="159.775" ry="18"/>
<text text-anchor="middle" x="1007.77" y="-85.8" font-family="Times,serif" font-size="14.00">github.com/coreos/go&#45;systemd/journal</text>
</g>
<!-- 17&#45;&gt;18 -->
<g id="edge17" class="edge"><title>17&#45;&gt;18</title>
<path fill="none" stroke="black" d="M1007.77,-143.697C1007.77,-135.983 1007.77,-126.712 1007.77,-118.112"/>
<polygon fill="black" stroke="black" points="1011.27,-118.104 1007.77,-108.104 1004.27,-118.104 1011.27,-118.104"/>
</g>
<!-- 20 -->
<g id="node21" class="node"><title>20</title>
<ellipse fill="paleturquoise" stroke="paleturquoise" cx="187.765" cy="-90" rx="187.531" ry="18"/>
<text text-anchor="middle" x="187.765" y="-85.8" font-family="Times,serif" font-size="14.00">github.com/shurcooL/sanitized_anchor_name</text>
</g>
<!-- 19&#45;&gt;20 -->
<g id="edge18" class="edge"><title>19&#45;&gt;20</title>
<path fill="none" stroke="black" d="M187.765,-143.697C187.765,-135.983 187.765,-126.712 187.765,-118.112"/>
<polygon fill="black" stroke="black" points="191.265,-118.104 187.765,-108.104 184.265,-118.104 191.265,-118.104"/>
</g>
</g>
</svg>
