<?xml version="1.0" encoding="UTF-8" standalone="no"?>
<!DOCTYPE svg PUBLIC "-//W3C//DTD SVG 1.1//EN"
 "http://www.w3.org/Graphics/SVG/1.1/DTD/svg11.dtd">
<!-- Generated by graphviz version 2.38.0 (20140413.2041)
 -->
<!-- Title: godep Pages: 1 -->
<svg width="3968pt" height="620pt"
 viewBox="0.00 0.00 3967.52 620.00" xmlns="http://www.w3.org/2000/svg" xmlns:xlink="http://www.w3.org/1999/xlink">
<g id="graph0" class="graph" transform="scale(1 1) rotate(0) translate(4 616)">
<title>godep</title>
<polygon fill="white" stroke="none" points="-4,4 -4,-616 3963.52,-616 3963.52,4 -4,4"/>
<!-- 0 -->
<g id="node1" class="node"><title>0</title>
<ellipse fill="paleturquoise" stroke="paleturquoise" cx="617.707" cy="-90" rx="106.026" ry="18"/>
<text text-anchor="middle" x="617.707" y="-85.8" font-family="Times,serif" font-size="14.00">github.com/ghodss/yaml</text>
</g>
<!-- 1 -->
<g id="node2" class="node"><title>1</title>
<ellipse fill="paleturquoise" stroke="paleturquoise" cx="617.707" cy="-18" rx="79.3425" ry="18"/>
<text text-anchor="middle" x="617.707" y="-13.8" font-family="Times,serif" font-size="14.00">gopkg.in/yaml.v2</text>
</g>
<!-- 0&#45;&gt;1 -->
<g id="edge1" class="edge"><title>0&#45;&gt;1</title>
<path fill="none" stroke="black" d="M617.707,-71.6966C617.707,-63.9827 617.707,-54.7125 617.707,-46.1124"/>
<polygon fill="black" stroke="black" points="621.207,-46.1043 617.707,-36.1043 614.207,-46.1044 621.207,-46.1043"/>
</g>
<!-- 2 -->
<g id="node3" class="node"><title>2</title>
<ellipse fill="paleturquoise" stroke="paleturquoise" cx="1288.71" cy="-90" rx="103.66" ry="18"/>
<text text-anchor="middle" x="1288.71" y="-85.8" font-family="Times,serif" font-size="14.00">github.com/golang/glog</text>
</g>
<!-- 3 -->
<g id="node4" class="node"><title>3</title>
<ellipse fill="paleturquoise" stroke="paleturquoise" cx="1706.71" cy="-234" rx="112.869" ry="18"/>
<text text-anchor="middle" x="1706.71" y="-229.8" font-family="Times,serif" font-size="14.00">github.com/google/gofuzz</text>
</g>
<!-- 4 -->
<g id="node5" class="node"><title>4</title>
<ellipse fill="paleturquoise" stroke="paleturquoise" cx="2853.71" cy="-234" rx="205.466" ry="18"/>
<text text-anchor="middle" x="2853.71" y="-229.8" font-family="Times,serif" font-size="14.00">github.com/prometheus/client_golang/prometheus</text>
</g>
<!-- 5 -->
<g id="node6" class="node"><title>5</title>
<ellipse fill="paleturquoise" stroke="paleturquoise" cx="2486.71" cy="-162" rx="141.799" ry="18"/>
<text text-anchor="middle" x="2486.71" y="-157.8" font-family="Times,serif" font-size="14.00">github.com/beorn7/perks/quantile</text>
</g>
<!-- 4&#45;&gt;5 -->
<g id="edge2" class="edge"><title>4&#45;&gt;5</title>
<path fill="none" stroke="black" d="M2772.26,-217.465C2712.65,-206.095 2631.97,-190.706 2571.57,-179.187"/>
<polygon fill="black" stroke="black" points="2572.16,-175.736 2561.68,-177.3 2570.85,-182.612 2572.16,-175.736"/>
</g>
<!-- 6 -->
<g id="node7" class="node"><title>6</title>
<ellipse fill="paleturquoise" stroke="paleturquoise" cx="2565.71" cy="-18" rx="142.968" ry="18"/>
<text text-anchor="middle" x="2565.71" y="-13.8" font-family="Times,serif" font-size="14.00">github.com/golang/protobuf/proto</text>
</g>
<!-- 4&#45;&gt;6 -->
<g id="edge3" class="edge"><title>4&#45;&gt;6</title>
<path fill="none" stroke="black" d="M2991.31,-220.605C3120.4,-208.413 3295.49,-190.19 3307.71,-180 3345.32,-148.621 3363.12,-107.817 3329.71,-72 3289.02,-28.3907 2930.02,-19.8764 2718.92,-18.6842"/>
<polygon fill="black" stroke="black" points="2718.69,-15.1831 2708.67,-18.6314 2718.66,-22.183 2718.69,-15.1831"/>
</g>
<!-- 7 -->
<g id="node8" class="node"><title>7</title>
<ellipse fill="paleturquoise" stroke="paleturquoise" cx="2008.71" cy="-90" rx="167.883" ry="18"/>
<text text-anchor="middle" x="2008.71" y="-85.8" font-family="Times,serif" font-size="14.00">github.com/prometheus/client_model/go</text>
</g>
<!-- 4&#45;&gt;7 -->
<g id="edge4" class="edge"><title>4&#45;&gt;7</title>
<path fill="none" stroke="black" d="M2772.47,-217.345C2740.91,-209.123 2705.3,-197.098 2675.71,-180 2655.56,-168.362 2658.96,-153.464 2637.71,-144 2545.66,-103.012 2286.08,-116.817 2185.71,-108 2170.44,-106.659 2154.45,-105.2 2138.58,-103.717"/>
<polygon fill="black" stroke="black" points="2138.45,-100.191 2128.17,-102.741 2137.8,-107.16 2138.45,-100.191"/>
</g>
<!-- 8 -->
<g id="node9" class="node"><title>8</title>
<ellipse fill="paleturquoise" stroke="paleturquoise" cx="2853.71" cy="-162" rx="169.029" ry="18"/>
<text text-anchor="middle" x="2853.71" y="-157.8" font-family="Times,serif" font-size="14.00">github.com/prometheus/common/expfmt</text>
</g>
<!-- 4&#45;&gt;8 -->
<g id="edge5" class="edge"><title>4&#45;&gt;8</title>
<path fill="none" stroke="black" d="M2853.71,-215.697C2853.71,-207.983 2853.71,-198.712 2853.71,-190.112"/>
<polygon fill="black" stroke="black" points="2857.21,-190.104 2853.71,-180.104 2850.21,-190.104 2857.21,-190.104"/>
</g>
<!-- 9 -->
<g id="node10" class="node"><title>9</title>
<ellipse fill="paleturquoise" stroke="paleturquoise" cx="3169.71" cy="-162" rx="129.118" ry="18"/>
<text text-anchor="middle" x="3169.71" y="-157.8" font-family="Times,serif" font-size="14.00">github.com/prometheus/procfs</text>
</g>
<!-- 4&#45;&gt;9 -->
<g id="edge6" class="edge"><title>4&#45;&gt;9</title>
<path fill="none" stroke="black" d="M2925.41,-217.116C2975.69,-205.979 3042.78,-191.117 3093.93,-179.786"/>
<polygon fill="black" stroke="black" points="3094.93,-183.149 3103.94,-177.569 3093.42,-176.314 3094.93,-183.149"/>
</g>
<!-- 7&#45;&gt;6 -->
<g id="edge53" class="edge"><title>7&#45;&gt;6</title>
<path fill="none" stroke="black" d="M2113.15,-75.8746C2211.67,-63.4932 2358.7,-45.0158 2458.21,-32.51"/>
<polygon fill="black" stroke="black" points="2458.8,-35.9628 2468.29,-31.2432 2457.93,-29.0175 2458.8,-35.9628"/>
</g>
<!-- 8&#45;&gt;6 -->
<g id="edge8" class="edge"><title>8&#45;&gt;6</title>
<path fill="none" stroke="black" d="M2798.45,-144.905C2772.79,-136.096 2742.53,-123.738 2717.71,-108 2698.06,-95.5441 2698.95,-85.0742 2679.71,-72 2660.77,-59.1345 2638.21,-47.9143 2618.18,-39.151"/>
<polygon fill="black" stroke="black" points="2619.45,-35.8868 2608.88,-35.1755 2616.7,-42.3237 2619.45,-35.8868"/>
</g>
<!-- 8&#45;&gt;7 -->
<g id="edge10" class="edge"><title>8&#45;&gt;7</title>
<path fill="none" stroke="black" d="M2732.66,-149.436C2711.99,-147.553 2690.74,-145.674 2670.71,-144 2455.31,-126.003 2401.08,-126.334 2185.71,-108 2170.17,-106.677 2153.87,-105.215 2137.72,-103.719"/>
<polygon fill="black" stroke="black" points="2137.97,-100.227 2127.69,-102.784 2137.32,-107.197 2137.97,-100.227"/>
</g>
<!-- 10 -->
<g id="node11" class="node"><title>10</title>
<ellipse fill="paleturquoise" stroke="paleturquoise" cx="2848.71" cy="-90" rx="121.598" ry="18"/>
<text text-anchor="middle" x="2848.71" y="-85.8" font-family="Times,serif" font-size="14.00">bitbucket.org/ww/goautoneg</text>
</g>
<!-- 8&#45;&gt;10 -->
<g id="edge7" class="edge"><title>8&#45;&gt;10</title>
<path fill="none" stroke="black" d="M2852.47,-143.697C2851.92,-135.983 2851.26,-126.712 2850.64,-118.112"/>
<polygon fill="black" stroke="black" points="2854.13,-117.83 2849.93,-108.104 2847.15,-118.328 2854.13,-117.83"/>
</g>
<!-- 11 -->
<g id="node12" class="node"><title>11</title>
<ellipse fill="paleturquoise" stroke="paleturquoise" cx="2432.71" cy="-90" rx="237.876" ry="18"/>
<text text-anchor="middle" x="2432.71" y="-85.8" font-family="Times,serif" font-size="14.00">github.com/matttproud/golang_protobuf_extensions/pbutil</text>
</g>
<!-- 8&#45;&gt;11 -->
<g id="edge9" class="edge"><title>8&#45;&gt;11</title>
<path fill="none" stroke="black" d="M2766.73,-146.538C2699.95,-135.435 2607.5,-120.063 2536.79,-108.306"/>
<polygon fill="black" stroke="black" points="2536.96,-104.786 2526.52,-106.598 2535.81,-111.691 2536.96,-104.786"/>
</g>
<!-- 12 -->
<g id="node13" class="node"><title>12</title>
<ellipse fill="paleturquoise" stroke="paleturquoise" cx="3154.71" cy="-90" rx="165.6" ry="18"/>
<text text-anchor="middle" x="3154.71" y="-85.8" font-family="Times,serif" font-size="14.00">github.com/prometheus/common/model</text>
</g>
<!-- 8&#45;&gt;12 -->
<g id="edge11" class="edge"><title>8&#45;&gt;12</title>
<path fill="none" stroke="black" d="M2920.51,-145.465C2967.17,-134.612 3029.58,-120.099 3078.24,-108.783"/>
<polygon fill="black" stroke="black" points="3079.14,-112.166 3088.09,-106.492 3077.56,-105.348 3079.14,-112.166"/>
</g>
<!-- 11&#45;&gt;6 -->
<g id="edge80" class="edge"><title>11&#45;&gt;6</title>
<path fill="none" stroke="black" d="M2464.9,-72.055C2482.95,-62.5539 2505.65,-50.6085 2524.93,-40.4591"/>
<polygon fill="black" stroke="black" points="2526.59,-43.5437 2533.81,-35.789 2523.33,-37.3493 2526.59,-43.5437"/>
</g>
<!-- 13 -->
<g id="node14" class="node"><title>13</title>
<ellipse fill="paleturquoise" stroke="paleturquoise" cx="1332.71" cy="-306" rx="105.923" ry="18"/>
<text text-anchor="middle" x="1332.71" y="-301.8" font-family="Times,serif" font-size="14.00">golang.org/x/net/context</text>
</g>
<!-- 14 -->
<g id="node15" class="node"><title>14</title>
<ellipse fill="paleturquoise" stroke="paleturquoise" cx="179.707" cy="-90" rx="179.914" ry="18"/>
<text text-anchor="middle" x="179.707" y="-85.8" font-family="Times,serif" font-size="14.00">k8s.io/kubernetes/third_party/forked/reflect</text>
</g>
<!-- 15 -->
<g id="node16" class="node"><title>15</title>
<ellipse fill="paleturquoise" stroke="paleturquoise" cx="1565.71" cy="-162" rx="128.57" ry="18"/>
<text text-anchor="middle" x="1565.71" y="-157.8" font-family="Times,serif" font-size="14.00">k8s.io/kubernetes/pkg/util/sets</text>
</g>
<!-- 16 -->
<g id="node17" class="node"><title>16</title>
<ellipse fill="paleturquoise" stroke="paleturquoise" cx="931.707" cy="-234" rx="128.529" ry="18"/>
<text text-anchor="middle" x="931.707" y="-229.8" font-family="Times,serif" font-size="14.00">speter.net/go/exp/math/dec/inf</text>
</g>
<!-- 17 -->
<g id="node18" class="node"><title>17</title>
<ellipse fill="paleturquoise" stroke="paleturquoise" cx="2221.71" cy="-306" rx="160.342" ry="18"/>
<text text-anchor="middle" x="2221.71" y="-301.8" font-family="Times,serif" font-size="14.00">k8s.io/kubernetes/pkg/api/unversioned</text>
</g>
<!-- 17&#45;&gt;3 -->
<g id="edge12" class="edge"><title>17&#45;&gt;3</title>
<path fill="none" stroke="black" d="M2123.93,-291.71C2030.72,-279.04 1891.36,-260.098 1799.75,-247.646"/>
<polygon fill="black" stroke="black" points="1800.03,-244.153 1789.65,-246.274 1799.09,-251.089 1800.03,-244.153"/>
</g>
<!-- 18 -->
<g id="node19" class="node"><title>18</title>
<ellipse fill="paleturquoise" stroke="paleturquoise" cx="2549.71" cy="-306" rx="111.739" ry="18"/>
<text text-anchor="middle" x="2549.71" y="-301.8" font-family="Times,serif" font-size="14.00">k8s.io/kubernetes/pkg/util</text>
</g>
<!-- 18&#45;&gt;2 -->
<g id="edge14" class="edge"><title>18&#45;&gt;2</title>
<path fill="none" stroke="black" d="M2559.61,-287.935C2569.67,-268.097 2581.46,-235.582 2563.71,-216 2544,-194.265 1690.14,-123.404 1390.96,-99.1945"/>
<polygon fill="black" stroke="black" points="1390.81,-95.6705 1380.56,-98.3532 1390.24,-102.648 1390.81,-95.6705"/>
</g>
<!-- 18&#45;&gt;3 -->
<g id="edge15" class="edge"><title>18&#45;&gt;3</title>
<path fill="none" stroke="black" d="M2470.16,-293.369C2454.77,-291.374 2438.75,-289.472 2423.71,-288 2162.25,-262.42 2095.18,-277.444 1833.71,-252 1821.94,-250.855 1809.59,-249.454 1797.41,-247.951"/>
<polygon fill="black" stroke="black" points="1797.59,-244.446 1787.23,-246.668 1796.71,-251.391 1797.59,-244.446"/>
</g>
<!-- 18&#45;&gt;4 -->
<g id="edge18" class="edge"><title>18&#45;&gt;4</title>
<path fill="none" stroke="black" d="M2610.86,-290.919C2657.92,-280.083 2723.32,-265.022 2774.4,-253.26"/>
<polygon fill="black" stroke="black" points="2775.46,-256.609 2784.42,-250.954 2773.89,-249.788 2775.46,-256.609"/>
</g>
<!-- 18&#45;&gt;15 -->
<g id="edge22" class="edge"><title>18&#45;&gt;15</title>
<path fill="none" stroke="black" d="M2469.82,-293.369C2454.53,-291.386 2438.64,-289.488 2423.71,-288 2300.28,-275.7 1980.39,-301.608 1866.71,-252 1845.38,-242.695 1849.36,-226.715 1828.71,-216 1784.99,-193.317 1732.52,-180.33 1685.98,-172.899"/>
<polygon fill="black" stroke="black" points="1686.25,-169.4 1675.84,-171.352 1685.19,-176.32 1686.25,-169.4"/>
</g>
<!-- 19 -->
<g id="node20" class="node"><title>19</title>
<ellipse fill="paleturquoise" stroke="paleturquoise" cx="3520.71" cy="-162" rx="147.581" ry="18"/>
<text text-anchor="middle" x="3520.71" y="-157.8" font-family="Times,serif" font-size="14.00">github.com/davecgh/go&#45;spew/spew</text>
</g>
<!-- 18&#45;&gt;19 -->
<g id="edge13" class="edge"><title>18&#45;&gt;19</title>
<path fill="none" stroke="black" d="M2657.85,-301.368C2787.48,-295.73 2996.19,-282.195 3067.71,-252 3090.67,-242.306 3087.88,-225.999 3110.71,-216 3124.27,-210.059 3290.8,-189.745 3407.39,-176.063"/>
<polygon fill="black" stroke="black" points="3407.93,-179.524 3417.46,-174.884 3407.12,-172.571 3407.93,-179.524"/>
</g>
<!-- 20 -->
<g id="node21" class="node"><title>20</title>
<ellipse fill="paleturquoise" stroke="paleturquoise" cx="1983.71" cy="-234" rx="107.739" ry="18"/>
<text text-anchor="middle" x="1983.71" y="-229.8" font-family="Times,serif" font-size="14.00">github.com/juju/ratelimit</text>
</g>
<!-- 18&#45;&gt;20 -->
<g id="edge16" class="edge"><title>18&#45;&gt;20</title>
<path fill="none" stroke="black" d="M2468.07,-293.701C2453.31,-291.74 2438.06,-289.765 2423.71,-288 2279.9,-270.312 2243.41,-270.507 2099.71,-252 2090.34,-250.794 2080.56,-249.467 2070.83,-248.102"/>
<polygon fill="black" stroke="black" points="2071.11,-244.607 2060.72,-246.67 2070.13,-251.538 2071.11,-244.607"/>
</g>
<!-- 21 -->
<g id="node22" class="node"><title>21</title>
<ellipse fill="paleturquoise" stroke="paleturquoise" cx="2220.71" cy="-234" rx="111.747" ry="18"/>
<text text-anchor="middle" x="2220.71" y="-229.8" font-family="Times,serif" font-size="14.00">github.com/pborman/uuid</text>
</g>
<!-- 18&#45;&gt;21 -->
<g id="edge17" class="edge"><title>18&#45;&gt;21</title>
<path fill="none" stroke="black" d="M2485.1,-291.254C2430.55,-279.647 2352.41,-263.023 2295.23,-250.856"/>
<polygon fill="black" stroke="black" points="2295.68,-247.373 2285.17,-248.715 2294.22,-254.219 2295.68,-247.373"/>
</g>
<!-- 22 -->
<g id="node23" class="node"><title>22</title>
<ellipse fill="paleturquoise" stroke="paleturquoise" cx="1436.71" cy="-234" rx="101.349" ry="18"/>
<text text-anchor="middle" x="1436.71" y="-229.8" font-family="Times,serif" font-size="14.00">github.com/spf13/pflag</text>
</g>
<!-- 18&#45;&gt;22 -->
<g id="edge19" class="edge"><title>18&#45;&gt;22</title>
<path fill="none" stroke="black" d="M2470.85,-293.237C2455.26,-291.228 2438.99,-289.356 2423.71,-288 2051.94,-255.013 1956.79,-281.314 1584.71,-252 1565.82,-250.512 1545.63,-248.485 1526.43,-246.348"/>
<polygon fill="black" stroke="black" points="1526.82,-242.869 1516.49,-245.222 1526.03,-249.825 1526.82,-242.869"/>
</g>
<!-- 23 -->
<g id="node24" class="node"><title>23</title>
<ellipse fill="paleturquoise" stroke="paleturquoise" cx="2452.71" cy="-234" rx="102.493" ry="18"/>
<text text-anchor="middle" x="2452.71" y="-229.8" font-family="Times,serif" font-size="14.00">golang.org/x/crypto/ssh</text>
</g>
<!-- 18&#45;&gt;23 -->
<g id="edge20" class="edge"><title>18&#45;&gt;23</title>
<path fill="none" stroke="black" d="M2526.23,-288.055C2513.5,-278.874 2497.62,-267.41 2483.87,-257.49"/>
<polygon fill="black" stroke="black" points="2485.79,-254.561 2475.64,-251.547 2481.7,-260.238 2485.79,-254.561"/>
</g>
<!-- 24 -->
<g id="node25" class="node"><title>24</title>
<ellipse fill="paleturquoise" stroke="paleturquoise" cx="1197.71" cy="-234" rx="119.246" ry="18"/>
<text text-anchor="middle" x="1197.71" y="-229.8" font-family="Times,serif" font-size="14.00">k8s.io/kubernetes/pkg/types</text>
</g>
<!-- 18&#45;&gt;24 -->
<g id="edge21" class="edge"><title>18&#45;&gt;24</title>
<path fill="none" stroke="black" d="M2471.2,-293.158C2455.5,-291.143 2439.1,-289.288 2423.71,-288 1937.59,-247.335 1812.89,-291.916 1326.71,-252 1314.83,-251.025 1302.38,-249.731 1290.09,-248.29"/>
<polygon fill="black" stroke="black" points="1290.16,-244.773 1279.81,-247.048 1289.32,-251.723 1290.16,-244.773"/>
</g>
<!-- 25 -->
<g id="node26" class="node"><title>25</title>
<ellipse fill="paleturquoise" stroke="paleturquoise" cx="1250.71" cy="-450" rx="157.988" ry="18"/>
<text text-anchor="middle" x="1250.71" y="-445.8" font-family="Times,serif" font-size="14.00">k8s.io/kubernetes/pkg/apis/extensions</text>
</g>
<!-- 25&#45;&gt;15 -->
<g id="edge29" class="edge"><title>25&#45;&gt;15</title>
<path fill="none" stroke="black" d="M1155.16,-435.663C989.556,-408.926 677.544,-340.411 793.707,-216 815.127,-193.058 1216.79,-175.364 1432.04,-167.485"/>
<polygon fill="black" stroke="black" points="1432.28,-170.978 1442.15,-167.117 1432.03,-163.983 1432.28,-170.978"/>
</g>
<!-- 25&#45;&gt;16 -->
<g id="edge30" class="edge"><title>25&#45;&gt;16</title>
<path fill="none" stroke="black" d="M1096.47,-446.006C898.886,-438.533 572.899,-412.703 497.707,-324 487.361,-311.795 487.101,-299.98 497.707,-288 503.092,-281.917 695.454,-260.259 822.248,-246.583"/>
<polygon fill="black" stroke="black" points="822.832,-250.04 832.4,-245.49 822.082,-243.081 822.832,-250.04"/>
</g>
<!-- 25&#45;&gt;17 -->
<g id="edge25" class="edge"><title>25&#45;&gt;17</title>
<path fill="none" stroke="black" d="M1335.43,-434.746C1389.11,-425.144 1459.84,-411.442 1521.71,-396 1574.91,-382.72 1585.88,-370.466 1639.71,-360 1818.4,-325.252 1866.45,-340.851 2047.71,-324 2063.22,-322.557 2079.52,-321.01 2095.65,-319.457"/>
<polygon fill="black" stroke="black" points="2096.05,-322.935 2105.66,-318.49 2095.37,-315.967 2096.05,-322.935"/>
</g>
<!-- 25&#45;&gt;18 -->
<g id="edge28" class="edge"><title>25&#45;&gt;18</title>
<path fill="none" stroke="black" d="M1352.04,-436.163C1420.82,-426.773 1513.64,-412.773 1594.71,-396 1656.78,-383.157 1670.08,-369.78 1732.71,-360 2022.08,-314.808 2098.78,-347.576 2390.71,-324 2410.47,-322.404 2431.59,-320.375 2451.76,-318.279"/>
<polygon fill="black" stroke="black" points="2452.31,-321.74 2461.89,-317.212 2451.58,-314.778 2452.31,-321.74"/>
</g>
<!-- 26 -->
<g id="node27" class="node"><title>26</title>
<ellipse fill="paleturquoise" stroke="paleturquoise" cx="1401.71" cy="-378" rx="110.578" ry="18"/>
<text text-anchor="middle" x="1401.71" y="-373.8" font-family="Times,serif" font-size="14.00">k8s.io/kubernetes/pkg/api</text>
</g>
<!-- 25&#45;&gt;26 -->
<g id="edge23" class="edge"><title>25&#45;&gt;26</title>
<path fill="none" stroke="black" d="M1286.49,-432.411C1307.88,-422.497 1335.21,-409.828 1357.88,-399.317"/>
<polygon fill="black" stroke="black" points="1359.36,-402.489 1366.96,-395.108 1356.41,-396.139 1359.36,-402.489"/>
</g>
<!-- 27 -->
<g id="node28" class="node"><title>27</title>
<ellipse fill="paleturquoise" stroke="paleturquoise" cx="1024.71" cy="-306" rx="145.849" ry="18"/>
<text text-anchor="middle" x="1024.71" y="-301.8" font-family="Times,serif" font-size="14.00">k8s.io/kubernetes/pkg/api/resource</text>
</g>
<!-- 25&#45;&gt;27 -->
<g id="edge24" class="edge"><title>25&#45;&gt;27</title>
<path fill="none" stroke="black" d="M1223.89,-432.153C1183.12,-406.532 1105.47,-357.748 1060.11,-329.243"/>
<polygon fill="black" stroke="black" points="1061.81,-326.182 1051.48,-323.825 1058.09,-332.109 1061.81,-326.182"/>
</g>
<!-- 28 -->
<g id="node29" class="node"><title>28</title>
<ellipse fill="paleturquoise" stroke="paleturquoise" cx="179.707" cy="-162" rx="141.22" ry="18"/>
<text text-anchor="middle" x="179.707" y="-157.8" font-family="Times,serif" font-size="14.00">k8s.io/kubernetes/pkg/conversion</text>
</g>
<!-- 25&#45;&gt;28 -->
<g id="edge26" class="edge"><title>25&#45;&gt;28</title>
<path fill="none" stroke="black" d="M1104.8,-443.102C820.996,-430.107 216.976,-394.413 155.707,-324 122.981,-286.39 146.756,-224.159 164.701,-189.101"/>
<polygon fill="black" stroke="black" points="167.949,-190.449 169.557,-179.977 161.769,-187.161 167.949,-190.449"/>
</g>
<!-- 29 -->
<g id="node30" class="node"><title>29</title>
<ellipse fill="paleturquoise" stroke="paleturquoise" cx="3273.71" cy="-306" rx="121.03" ry="18"/>
<text text-anchor="middle" x="3273.71" y="-301.8" font-family="Times,serif" font-size="14.00">k8s.io/kubernetes/pkg/labels</text>
</g>
<!-- 25&#45;&gt;29 -->
<g id="edge27" class="edge"><title>25&#45;&gt;29</title>
<path fill="none" stroke="black" d="M1351.07,-436.08C1508.85,-416.295 1824.68,-378.812 2093.71,-360 2557.29,-327.584 2675.47,-361.069 3138.71,-324 3151.65,-322.964 3165.27,-321.589 3178.66,-320.068"/>
<polygon fill="black" stroke="black" points="3179.32,-323.515 3188.85,-318.88 3178.51,-316.562 3179.32,-323.515"/>
</g>
<!-- 26&#45;&gt;13 -->
<g id="edge64" class="edge"><title>26&#45;&gt;13</title>
<path fill="none" stroke="black" d="M1385,-360.055C1376.44,-351.371 1365.87,-340.644 1356.48,-331.114"/>
<polygon fill="black" stroke="black" points="1358.77,-328.454 1349.26,-323.789 1353.78,-333.368 1358.77,-328.454"/>
</g>
<!-- 26&#45;&gt;15 -->
<g id="edge76" class="edge"><title>26&#45;&gt;15</title>
<path fill="none" stroke="black" d="M1478.35,-364.959C1491.46,-363.131 1504.96,-361.394 1517.71,-360 1572.75,-353.982 1977,-364.54 2014.71,-324 2025.6,-312.285 2025.54,-299.776 2014.71,-288 1949.79,-217.424 1656.67,-315.372 1584.71,-252 1567.52,-236.865 1563.7,-210.336 1563.63,-190.169"/>
<polygon fill="black" stroke="black" points="1567.13,-190.102 1563.89,-180.014 1560.13,-189.919 1567.13,-190.102"/>
</g>
<!-- 26&#45;&gt;16 -->
<g id="edge77" class="edge"><title>26&#45;&gt;16</title>
<path fill="none" stroke="black" d="M1293.84,-373.857C1146.57,-368.435 897.583,-354.792 869.707,-324 850.94,-303.271 874.804,-276.645 898.158,-257.937"/>
<polygon fill="black" stroke="black" points="900.521,-260.536 906.327,-251.673 896.262,-254.981 900.521,-260.536"/>
</g>
<!-- 26&#45;&gt;17 -->
<g id="edge67" class="edge"><title>26&#45;&gt;17</title>
<path fill="none" stroke="black" d="M1494.85,-368.19C1524.23,-365.478 1556.82,-362.54 1586.71,-360 1791.48,-342.597 1842.98,-341.993 2047.71,-324 2063.48,-322.614 2080.05,-321.086 2096.44,-319.533"/>
<polygon fill="black" stroke="black" points="2096.99,-322.997 2106.61,-318.563 2096.33,-316.028 2096.99,-322.997"/>
</g>
<!-- 26&#45;&gt;18 -->
<g id="edge74" class="edge"><title>26&#45;&gt;18</title>
<path fill="none" stroke="black" d="M1499.23,-369.517C1542.28,-366.347 1593.5,-362.758 1639.71,-360 1973.27,-340.095 2057.54,-349.774 2390.71,-324 2410.6,-322.461 2431.85,-320.447 2452.13,-318.345"/>
<polygon fill="black" stroke="black" points="2452.74,-321.801 2462.32,-317.274 2452,-314.839 2452.74,-321.801"/>
</g>
<!-- 26&#45;&gt;19 -->
<g id="edge63" class="edge"><title>26&#45;&gt;19</title>
<path fill="none" stroke="black" d="M1502.71,-370.663C1559.67,-367.219 1632.14,-363.053 1696.71,-360 2129.41,-339.538 2239.72,-367.617 2670.71,-324 2864.8,-304.357 2927.94,-336.644 3103.71,-252 3125.26,-241.623 3122.03,-226.106 3143.71,-216 3167.19,-205.054 3303.3,-187.637 3405.29,-175.78"/>
<polygon fill="black" stroke="black" points="3405.83,-179.241 3415.36,-174.615 3405.02,-172.288 3405.83,-179.241"/>
</g>
<!-- 26&#45;&gt;24 -->
<g id="edge73" class="edge"><title>26&#45;&gt;24</title>
<path fill="none" stroke="black" d="M1305.88,-369.005C1273.9,-361.707 1240.62,-348.315 1217.71,-324 1202.22,-307.565 1197.78,-281.826 1196.89,-262.247"/>
<polygon fill="black" stroke="black" points="1200.38,-262.038 1196.71,-252.101 1193.38,-262.162 1200.38,-262.038"/>
</g>
<!-- 26&#45;&gt;27 -->
<g id="edge66" class="edge"><title>26&#45;&gt;27</title>
<path fill="none" stroke="black" d="M1331.68,-363.998C1269.6,-352.471 1178.69,-335.591 1111.91,-323.192"/>
<polygon fill="black" stroke="black" points="1112.29,-319.703 1101.82,-321.319 1111.02,-326.586 1112.29,-319.703"/>
</g>
<!-- 26&#45;&gt;28 -->
<g id="edge69" class="edge"><title>26&#45;&gt;28</title>
<path fill="none" stroke="black" d="M1291.46,-376.311C997.727,-373.936 215.898,-363.881 177.707,-324 143.657,-288.444 157.403,-225.612 169.297,-189.861"/>
<polygon fill="black" stroke="black" points="172.708,-190.713 172.718,-180.118 166.103,-188.394 172.708,-190.713"/>
</g>
<!-- 26&#45;&gt;29 -->
<g id="edge71" class="edge"><title>26&#45;&gt;29</title>
<path fill="none" stroke="black" d="M1503.82,-371.076C1569.23,-367.45 1655.95,-362.953 1732.71,-360 2357.34,-335.967 2515.39,-371.108 3138.71,-324 3151.75,-323.014 3165.47,-321.659 3178.96,-320.141"/>
<polygon fill="black" stroke="black" points="3179.69,-323.58 3189.22,-318.951 3178.88,-316.627 3179.69,-323.58"/>
</g>
<!-- 33 -->
<g id="node34" class="node"><title>33</title>
<ellipse fill="paleturquoise" stroke="paleturquoise" cx="1587.71" cy="-306" rx="131.423" ry="18"/>
<text text-anchor="middle" x="1587.71" y="-301.8" font-family="Times,serif" font-size="14.00">k8s.io/kubernetes/pkg/util/rand</text>
</g>
<!-- 26&#45;&gt;33 -->
<g id="edge75" class="edge"><title>26&#45;&gt;33</title>
<path fill="none" stroke="black" d="M1443.45,-361.291C1470.59,-351.078 1506.19,-337.678 1535.24,-326.747"/>
<polygon fill="black" stroke="black" points="1536.69,-329.941 1544.81,-323.142 1534.22,-323.389 1536.69,-329.941"/>
</g>
<!-- 37 -->
<g id="node38" class="node"><title>37</title>
<ellipse fill="paleturquoise" stroke="paleturquoise" cx="318.707" cy="-306" rx="131.983" ry="18"/>
<text text-anchor="middle" x="318.707" y="-301.8" font-family="Times,serif" font-size="14.00">k8s.io/kubernetes/pkg/api/meta</text>
</g>
<!-- 26&#45;&gt;37 -->
<g id="edge65" class="edge"><title>26&#45;&gt;37</title>
<path fill="none" stroke="black" d="M1297.22,-372.103C1128.81,-363.932 786.915,-346.204 497.707,-324 476.249,-322.353 453.367,-320.36 431.383,-318.327"/>
<polygon fill="black" stroke="black" points="431.636,-314.835 421.354,-317.391 430.986,-321.805 431.636,-314.835"/>
</g>
<!-- 38 -->
<g id="node39" class="node"><title>38</title>
<ellipse fill="paleturquoise" stroke="paleturquoise" cx="617.707" cy="-234" rx="128.556" ry="18"/>
<text text-anchor="middle" x="617.707" y="-229.8" font-family="Times,serif" font-size="14.00">k8s.io/kubernetes/pkg/runtime</text>
</g>
<!-- 26&#45;&gt;38 -->
<g id="edge72" class="edge"><title>26&#45;&gt;38</title>
<path fill="none" stroke="black" d="M1293.2,-374.497C1182.84,-370.067 1007.51,-357.821 859.707,-324 840.614,-319.631 734.52,-279.639 669.306,-254.773"/>
<polygon fill="black" stroke="black" points="670.194,-251.366 659.603,-251.07 667.698,-257.906 670.194,-251.366"/>
</g>
<!-- 41 -->
<g id="node42" class="node"><title>41</title>
<ellipse fill="paleturquoise" stroke="paleturquoise" cx="626.707" cy="-306" rx="120.386" ry="18"/>
<text text-anchor="middle" x="626.707" y="-301.8" font-family="Times,serif" font-size="14.00">k8s.io/kubernetes/pkg/fields</text>
</g>
<!-- 26&#45;&gt;41 -->
<g id="edge70" class="edge"><title>26&#45;&gt;41</title>
<path fill="none" stroke="black" d="M1306.12,-368.921C1187.18,-358.794 977.896,-340.73 798.707,-324 777.686,-322.037 755.228,-319.87 733.711,-317.758"/>
<polygon fill="black" stroke="black" points="733.862,-314.256 723.568,-316.759 733.177,-321.222 733.862,-314.256"/>
</g>
<!-- 42 -->
<g id="node43" class="node"><title>42</title>
<ellipse fill="paleturquoise" stroke="paleturquoise" cx="1871.71" cy="-306" rx="134.273" ry="18"/>
<text text-anchor="middle" x="1871.71" y="-301.8" font-family="Times,serif" font-size="14.00">k8s.io/kubernetes/pkg/auth/user</text>
</g>
<!-- 26&#45;&gt;42 -->
<g id="edge68" class="edge"><title>26&#45;&gt;42</title>
<path fill="none" stroke="black" d="M1480.37,-365.284C1561.65,-353.179 1688.58,-334.274 1775.71,-321.297"/>
<polygon fill="black" stroke="black" points="1776.23,-324.758 1785.61,-319.823 1775.2,-317.835 1776.23,-324.758"/>
</g>
<!-- 27&#45;&gt;16 -->
<g id="edge49" class="edge"><title>27&#45;&gt;16</title>
<path fill="none" stroke="black" d="M1002.19,-288.055C990.199,-279.027 975.273,-267.792 962.247,-257.987"/>
<polygon fill="black" stroke="black" points="964.107,-255.006 954.012,-251.789 959.897,-260.599 964.107,-255.006"/>
</g>
<!-- 27&#45;&gt;22 -->
<g id="edge48" class="edge"><title>27&#45;&gt;22</title>
<path fill="none" stroke="black" d="M1106.6,-291.087C1179.1,-278.768 1284.31,-260.892 1356.35,-248.653"/>
<polygon fill="black" stroke="black" points="1357.02,-252.09 1366.29,-246.964 1355.84,-245.189 1357.02,-252.09"/>
</g>
<!-- 28&#45;&gt;14 -->
<g id="edge47" class="edge"><title>28&#45;&gt;14</title>
<path fill="none" stroke="black" d="M179.707,-143.697C179.707,-135.983 179.707,-126.712 179.707,-118.112"/>
<polygon fill="black" stroke="black" points="183.207,-118.104 179.707,-108.104 176.207,-118.104 183.207,-118.104"/>
</g>
<!-- 29&#45;&gt;15 -->
<g id="edge51" class="edge"><title>29&#45;&gt;15</title>
<path fill="none" stroke="black" d="M3158.46,-300.307C3002.93,-293.125 2734.43,-277.492 2639.71,-252 2603.62,-242.287 2599.94,-225.164 2563.71,-216 2405.21,-175.915 1939.26,-166.125 1704.4,-163.75"/>
<polygon fill="black" stroke="black" points="1704.11,-160.247 1694.08,-163.649 1704.04,-167.247 1704.11,-160.247"/>
</g>
<!-- 30 -->
<g id="node31" class="node"><title>30</title>
<ellipse fill="paleturquoise" stroke="paleturquoise" cx="3630.71" cy="-234" rx="154.531" ry="18"/>
<text text-anchor="middle" x="3630.71" y="-229.8" font-family="Times,serif" font-size="14.00">k8s.io/kubernetes/pkg/util/fielderrors</text>
</g>
<!-- 29&#45;&gt;30 -->
<g id="edge50" class="edge"><title>29&#45;&gt;30</title>
<path fill="none" stroke="black" d="M3343.81,-291.254C3401.61,-279.92 3483.82,-263.801 3545.43,-251.72"/>
<polygon fill="black" stroke="black" points="3546.38,-255.101 3555.52,-249.742 3545.04,-248.232 3546.38,-255.101"/>
</g>
<!-- 32 -->
<g id="node33" class="node"><title>32</title>
<ellipse fill="paleturquoise" stroke="paleturquoise" cx="3305.71" cy="-234" rx="152.85" ry="18"/>
<text text-anchor="middle" x="3305.71" y="-229.8" font-family="Times,serif" font-size="14.00">k8s.io/kubernetes/pkg/util/validation</text>
</g>
<!-- 29&#45;&gt;32 -->
<g id="edge52" class="edge"><title>29&#45;&gt;32</title>
<path fill="none" stroke="black" d="M3281.62,-287.697C3285.26,-279.728 3289.66,-270.1 3293.7,-261.264"/>
<polygon fill="black" stroke="black" points="3296.91,-262.654 3297.89,-252.104 3290.55,-259.744 3296.91,-262.654"/>
</g>
<!-- 30&#45;&gt;19 -->
<g id="edge31" class="edge"><title>30&#45;&gt;19</title>
<path fill="none" stroke="black" d="M3604.36,-216.233C3589.77,-206.951 3571.45,-195.294 3555.68,-185.257"/>
<polygon fill="black" stroke="black" points="3557.54,-182.289 3547.22,-179.873 3553.78,-188.194 3557.54,-182.289"/>
</g>
<!-- 31 -->
<g id="node32" class="node"><title>31</title>
<ellipse fill="paleturquoise" stroke="paleturquoise" cx="3822.71" cy="-162" rx="136.637" ry="18"/>
<text text-anchor="middle" x="3822.71" y="-157.8" font-family="Times,serif" font-size="14.00">k8s.io/kubernetes/pkg/util/errors</text>
</g>
<!-- 30&#45;&gt;31 -->
<g id="edge32" class="edge"><title>30&#45;&gt;31</title>
<path fill="none" stroke="black" d="M3675.72,-216.588C3703.6,-206.422 3739.57,-193.31 3768.95,-182.6"/>
<polygon fill="black" stroke="black" points="3770.44,-185.781 3778.64,-179.068 3768.04,-179.205 3770.44,-185.781"/>
</g>
<!-- 34 -->
<g id="node35" class="node"><title>34</title>
<ellipse fill="paleturquoise" stroke="paleturquoise" cx="1644.71" cy="-594" rx="151.73" ry="18"/>
<text text-anchor="middle" x="1644.71" y="-589.8" font-family="Times,serif" font-size="14.00">github.com/openshift/origin/pkg/util</text>
</g>
<!-- 34&#45;&gt;26 -->
<g id="edge34" class="edge"><title>34&#45;&gt;26</title>
<path fill="none" stroke="black" d="M1645.1,-575.905C1644.69,-556.632 1641.38,-525.225 1625.71,-504 1585.69,-449.814 1514.77,-416.022 1463.43,-397.441"/>
<polygon fill="black" stroke="black" points="1464.35,-394.057 1453.76,-394.037 1462.03,-400.659 1464.35,-394.057"/>
</g>
<!-- 34&#45;&gt;29 -->
<g id="edge37" class="edge"><title>34&#45;&gt;29</title>
<path fill="none" stroke="black" d="M1677.89,-576.335C1768.88,-531.568 2031.15,-408.8 2264.71,-360 2307.25,-351.11 2888.88,-324.21 3149.24,-312.521"/>
<polygon fill="black" stroke="black" points="3149.66,-316.006 3159.5,-312.061 3149.35,-309.013 3149.66,-316.006"/>
</g>
<!-- 34&#45;&gt;30 -->
<g id="edge39" class="edge"><title>34&#45;&gt;30</title>
<path fill="none" stroke="black" d="M1795.1,-591.198C2292.31,-584.262 3851.71,-554.277 3851.71,-451 3851.71,-451 3851.71,-451 3851.71,-377 3851.71,-308.711 3776.1,-271.726 3713.33,-252.789"/>
<polygon fill="black" stroke="black" points="3713.96,-249.327 3703.38,-249.903 3712.01,-256.05 3713.96,-249.327"/>
</g>
<!-- 35 -->
<g id="node36" class="node"><title>35</title>
<ellipse fill="paleturquoise" stroke="paleturquoise" cx="1436.71" cy="-522" rx="179.504" ry="18"/>
<text text-anchor="middle" x="1436.71" y="-517.8" font-family="Times,serif" font-size="14.00">github.com/openshift/origin/pkg/deploy/api</text>
</g>
<!-- 34&#45;&gt;35 -->
<g id="edge33" class="edge"><title>34&#45;&gt;35</title>
<path fill="none" stroke="black" d="M1596.73,-576.853C1566.5,-566.68 1527.27,-553.48 1495.23,-542.694"/>
<polygon fill="black" stroke="black" points="1496.12,-539.303 1485.53,-539.43 1493.89,-545.937 1496.12,-539.303"/>
</g>
<!-- 36 -->
<g id="node37" class="node"><title>36</title>
<ellipse fill="paleturquoise" stroke="paleturquoise" cx="2409.71" cy="-378" rx="135.976" ry="18"/>
<text text-anchor="middle" x="2409.71" y="-373.8" font-family="Times,serif" font-size="14.00">k8s.io/kubernetes/pkg/api/errors</text>
</g>
<!-- 34&#45;&gt;36 -->
<g id="edge35" class="edge"><title>34&#45;&gt;36</title>
<path fill="none" stroke="black" d="M1795.35,-591.518C1890.85,-586.885 2015.88,-573.923 2121.71,-540 2222.52,-507.685 2327.87,-438.122 2378.67,-401.931"/>
<polygon fill="black" stroke="black" points="2380.84,-404.676 2386.92,-395.998 2376.76,-398.991 2380.84,-404.676"/>
</g>
<!-- 34&#45;&gt;37 -->
<g id="edge36" class="edge"><title>34&#45;&gt;37</title>
<path fill="none" stroke="black" d="M1542.1,-580.727C1461.82,-570.781 1347.45,-555.856 1247.71,-540 1073.63,-512.329 1029.07,-509.284 857.707,-468 679.629,-425.098 473.166,-358.639 375.499,-326.17"/>
<polygon fill="black" stroke="black" points="376.42,-322.788 365.826,-322.948 374.207,-329.429 376.42,-322.788"/>
</g>
<!-- 34&#45;&gt;38 -->
<g id="edge38" class="edge"><title>34&#45;&gt;38</title>
<path fill="none" stroke="black" d="M1504.91,-586.879C1134.99,-569.762 158.707,-518.22 158.707,-451 158.707,-451 158.707,-451 158.707,-377 158.707,-336.553 147.843,-315.278 177.707,-288 200.672,-267.023 370.181,-251.4 491.94,-242.737"/>
<polygon fill="black" stroke="black" points="492.361,-246.216 502.091,-242.023 491.87,-239.233 492.361,-246.216"/>
</g>
<!-- 35&#45;&gt;17 -->
<g id="edge59" class="edge"><title>35&#45;&gt;17</title>
<path fill="none" stroke="black" d="M1495.71,-504.915C1638.59,-465.966 2002.5,-366.759 2153.96,-325.469"/>
<polygon fill="black" stroke="black" points="2154.9,-328.841 2163.62,-322.834 2153.05,-322.088 2154.9,-328.841"/>
</g>
<!-- 35&#45;&gt;18 -->
<g id="edge62" class="edge"><title>35&#45;&gt;18</title>
<path fill="none" stroke="black" d="M1523.8,-506.206C1578.55,-496.444 1650.53,-482.765 1713.71,-468 1830.46,-440.711 1858.5,-429.229 1973.71,-396 2027.21,-380.569 2039.17,-371.258 2093.71,-360 2127.61,-353.001 2325.53,-331.09 2449.22,-317.732"/>
<polygon fill="black" stroke="black" points="2449.9,-321.179 2459.47,-316.626 2449.15,-314.219 2449.9,-321.179"/>
</g>
<!-- 35&#45;&gt;25 -->
<g id="edge60" class="edge"><title>35&#45;&gt;25</title>
<path fill="none" stroke="black" d="M1392.63,-504.411C1366.01,-494.393 1331.91,-481.562 1303.82,-470.987"/>
<polygon fill="black" stroke="black" points="1304.74,-467.596 1294.15,-467.349 1302.27,-474.147 1304.74,-467.596"/>
</g>
<!-- 35&#45;&gt;26 -->
<g id="edge58" class="edge"><title>35&#45;&gt;26</title>
<path fill="none" stroke="black" d="M1433.48,-503.84C1430,-485.844 1424.08,-456.788 1417.71,-432 1415.49,-423.397 1412.79,-414.098 1410.25,-405.726"/>
<polygon fill="black" stroke="black" points="1413.56,-404.6 1407.26,-396.085 1406.87,-406.672 1413.56,-404.6"/>
</g>
<!-- 35&#45;&gt;41 -->
<g id="edge61" class="edge"><title>35&#45;&gt;41</title>
<path fill="none" stroke="black" d="M1286.25,-512.09C1145.55,-499.437 931.992,-468.985 760.707,-396 721.295,-379.207 681.002,-350.583 655.034,-330.336"/>
<polygon fill="black" stroke="black" points="657.141,-327.54 647.126,-324.083 652.799,-333.031 657.141,-327.54"/>
</g>
<!-- 36&#45;&gt;17 -->
<g id="edge54" class="edge"><title>36&#45;&gt;17</title>
<path fill="none" stroke="black" d="M2366.1,-360.765C2339.01,-350.677 2303.99,-337.637 2275.22,-326.925"/>
<polygon fill="black" stroke="black" points="2276.32,-323.599 2265.72,-323.39 2273.88,-330.159 2276.32,-323.599"/>
</g>
<!-- 36&#45;&gt;30 -->
<g id="edge57" class="edge"><title>36&#45;&gt;30</title>
<path fill="none" stroke="black" d="M2544.15,-375.143C2776.53,-371.046 3243.79,-358.665 3403.71,-324 3470.91,-309.433 3544.23,-277.517 3588.84,-256.134"/>
<polygon fill="black" stroke="black" points="3590.44,-259.25 3597.91,-251.742 3587.39,-252.95 3590.44,-259.25"/>
</g>
<!-- 36&#45;&gt;31 -->
<g id="edge56" class="edge"><title>36&#45;&gt;31</title>
<path fill="none" stroke="black" d="M2545.75,-377.558C2748.44,-376.733 3141.28,-368.744 3471.71,-324 3617.46,-304.264 3686.36,-351.462 3794.71,-252 3811.9,-236.215 3818.61,-210.001 3821.19,-190.1"/>
<polygon fill="black" stroke="black" points="3824.68,-190.384 3822.22,-180.079 3817.72,-189.67 3824.68,-190.384"/>
</g>
<!-- 36&#45;&gt;38 -->
<g id="edge55" class="edge"><title>36&#45;&gt;38</title>
<path fill="none" stroke="black" d="M2411.7,-359.778C2413,-339.151 2411.52,-305.229 2390.71,-288 2356.53,-259.704 838.001,-254.635 793.707,-252 771.783,-250.696 748.368,-248.793 726.007,-246.728"/>
<polygon fill="black" stroke="black" points="726.1,-243.221 715.816,-245.769 725.444,-250.19 726.1,-243.221"/>
</g>
<!-- 37&#45;&gt;24 -->
<g id="edge42" class="edge"><title>37&#45;&gt;24</title>
<path fill="none" stroke="black" d="M421.36,-294.685C446.33,-292.332 472.967,-289.953 497.707,-288 751.642,-267.956 816.19,-276.783 1069.71,-252 1080.92,-250.904 1092.67,-249.582 1104.31,-248.166"/>
<polygon fill="black" stroke="black" points="1105,-251.608 1114.49,-246.901 1104.13,-244.661 1105,-251.608"/>
</g>
<!-- 37&#45;&gt;28 -->
<g id="edge40" class="edge"><title>37&#45;&gt;28</title>
<path fill="none" stroke="black" d="M301.94,-287.871C277.415,-262.817 231.638,-216.052 203.597,-187.406"/>
<polygon fill="black" stroke="black" points="206.029,-184.887 196.533,-180.189 201.027,-189.784 206.029,-184.887"/>
</g>
<!-- 37&#45;&gt;38 -->
<g id="edge41" class="edge"><title>37&#45;&gt;38</title>
<path fill="none" stroke="black" d="M382.117,-290.155C429.767,-278.999 495.118,-263.7 544.905,-252.044"/>
<polygon fill="black" stroke="black" points="545.706,-255.451 554.645,-249.764 544.11,-248.635 545.706,-255.451"/>
</g>
<!-- 38&#45;&gt;15 -->
<g id="edge45" class="edge"><title>38&#45;&gt;15</title>
<path fill="none" stroke="black" d="M709.557,-221.357C726.547,-219.409 744.151,-217.528 760.707,-216 998.677,-194.036 1277.04,-177.806 1436.24,-169.424"/>
<polygon fill="black" stroke="black" points="1436.75,-172.902 1446.55,-168.883 1436.38,-165.911 1436.75,-172.902"/>
</g>
<!-- 38&#45;&gt;28 -->
<g id="edge43" class="edge"><title>38&#45;&gt;28</title>
<path fill="none" stroke="black" d="M536.349,-219.998C462.123,-208.135 352.422,-190.603 274.31,-178.119"/>
<polygon fill="black" stroke="black" points="274.413,-174.591 263.986,-176.469 273.309,-181.504 274.413,-174.591"/>
</g>
<!-- 39 -->
<g id="node40" class="node"><title>39</title>
<ellipse fill="paleturquoise" stroke="paleturquoise" cx="899.707" cy="-162" rx="130.299" ry="18"/>
<text text-anchor="middle" x="899.707" y="-157.8" font-family="Times,serif" font-size="14.00">k8s.io/kubernetes/pkg/util/json</text>
</g>
<!-- 38&#45;&gt;39 -->
<g id="edge44" class="edge"><title>38&#45;&gt;39</title>
<path fill="none" stroke="black" d="M677.857,-218.069C722.256,-207.048 782.809,-192.017 829.436,-180.443"/>
<polygon fill="black" stroke="black" points="830.301,-183.835 839.163,-178.029 828.615,-177.041 830.301,-183.835"/>
</g>
<!-- 40 -->
<g id="node41" class="node"><title>40</title>
<ellipse fill="paleturquoise" stroke="paleturquoise" cx="617.707" cy="-162" rx="133.728" ry="18"/>
<text text-anchor="middle" x="617.707" y="-157.8" font-family="Times,serif" font-size="14.00">k8s.io/kubernetes/pkg/util/yaml</text>
</g>
<!-- 38&#45;&gt;40 -->
<g id="edge46" class="edge"><title>38&#45;&gt;40</title>
<path fill="none" stroke="black" d="M617.707,-215.697C617.707,-207.983 617.707,-198.712 617.707,-190.112"/>
<polygon fill="black" stroke="black" points="621.207,-190.104 617.707,-180.104 614.207,-190.104 621.207,-190.104"/>
</g>
<!-- 40&#45;&gt;0 -->
<g id="edge78" class="edge"><title>40&#45;&gt;0</title>
<path fill="none" stroke="black" d="M617.707,-143.697C617.707,-135.983 617.707,-126.712 617.707,-118.112"/>
<polygon fill="black" stroke="black" points="621.207,-118.104 617.707,-108.104 614.207,-118.104 621.207,-118.104"/>
</g>
<!-- 40&#45;&gt;2 -->
<g id="edge79" class="edge"><title>40&#45;&gt;2</title>
<path fill="none" stroke="black" d="M713.445,-149.373C729.229,-147.527 745.422,-145.675 760.707,-144 910.195,-127.613 1083.72,-110.575 1189.85,-100.379"/>
<polygon fill="black" stroke="black" points="1190.28,-103.853 1199.9,-99.4141 1189.62,-96.8854 1190.28,-103.853"/>
</g>
</g>
</svg>
