<?xml version="1.0" encoding="UTF-8" standalone="no"?>
<!DOCTYPE svg PUBLIC "-//W3C//DTD SVG 1.1//EN"
 "http://www.w3.org/Graphics/SVG/1.1/DTD/svg11.dtd">
<!-- Generated by graphviz version 2.38.0 (20140413.2041)
 -->
<!-- Title: godep Pages: 1 -->
<svg width="4678pt" height="692pt"
 viewBox="0.00 0.00 4678.03 692.00" xmlns="http://www.w3.org/2000/svg" xmlns:xlink="http://www.w3.org/1999/xlink">
<g id="graph0" class="graph" transform="scale(1 1) rotate(0) translate(4 688)">
<title>godep</title>
<polygon fill="white" stroke="none" points="-4,4 -4,-688 4674.03,-688 4674.03,4 -4,4"/>
<!-- 0 -->
<g id="node1" class="node"><title>0</title>
<ellipse fill="paleturquoise" stroke="paleturquoise" cx="4386.61" cy="-162" rx="136.637" ry="18"/>
<text text-anchor="middle" x="4386.61" y="-157.8" font-family="Times,serif" font-size="14.00">k8s.io/kubernetes/pkg/util/errors</text>
</g>
<!-- 1 -->
<g id="node2" class="node"><title>1</title>
<ellipse fill="paleturquoise" stroke="paleturquoise" cx="3762.61" cy="-234" rx="205.466" ry="18"/>
<text text-anchor="middle" x="3762.61" y="-229.8" font-family="Times,serif" font-size="14.00">github.com/prometheus/client_golang/prometheus</text>
</g>
<!-- 2 -->
<g id="node3" class="node"><title>2</title>
<ellipse fill="paleturquoise" stroke="paleturquoise" cx="3344.61" cy="-162" rx="141.799" ry="18"/>
<text text-anchor="middle" x="3344.61" y="-157.8" font-family="Times,serif" font-size="14.00">github.com/beorn7/perks/quantile</text>
</g>
<!-- 1&#45;&gt;2 -->
<g id="edge1" class="edge"><title>1&#45;&gt;2</title>
<path fill="none" stroke="black" d="M3671.91,-217.811C3602.34,-206.16 3506.69,-190.142 3436.76,-178.431"/>
<polygon fill="black" stroke="black" points="3437.08,-174.936 3426.64,-176.736 3435.92,-181.839 3437.08,-174.936"/>
</g>
<!-- 3 -->
<g id="node4" class="node"><title>3</title>
<ellipse fill="paleturquoise" stroke="paleturquoise" cx="3527.61" cy="-18" rx="142.968" ry="18"/>
<text text-anchor="middle" x="3527.61" y="-13.8" font-family="Times,serif" font-size="14.00">github.com/golang/protobuf/proto</text>
</g>
<!-- 1&#45;&gt;3 -->
<g id="edge2" class="edge"><title>1&#45;&gt;3</title>
<path fill="none" stroke="black" d="M3800.4,-216.278C3821.92,-206.39 3849.17,-193.243 3872.61,-180 3898.05,-165.629 3901.13,-156.325 3927.61,-144 3978.1,-120.509 4014.38,-152.673 4047.61,-108 4057.16,-95.1633 4058.34,-83.8735 4047.61,-72 4022.83,-44.5645 3818.88,-30.5814 3673.91,-24.0414"/>
<polygon fill="black" stroke="black" points="3673.73,-20.5298 3663.58,-23.5833 3673.42,-27.5229 3673.73,-20.5298"/>
</g>
<!-- 4 -->
<g id="node5" class="node"><title>4</title>
<ellipse fill="paleturquoise" stroke="paleturquoise" cx="3870.61" cy="-90" rx="167.883" ry="18"/>
<text text-anchor="middle" x="3870.61" y="-85.8" font-family="Times,serif" font-size="14.00">github.com/prometheus/client_model/go</text>
</g>
<!-- 1&#45;&gt;4 -->
<g id="edge3" class="edge"><title>1&#45;&gt;4</title>
<path fill="none" stroke="black" d="M3806.11,-216.167C3822.69,-207.684 3840.3,-195.785 3851.61,-180 3864.53,-161.991 3868.99,-137.001 3870.39,-118.085"/>
<polygon fill="black" stroke="black" points="3873.89,-118.178 3870.9,-108.016 3866.9,-117.829 3873.89,-118.178"/>
</g>
<!-- 5 -->
<g id="node6" class="node"><title>5</title>
<ellipse fill="paleturquoise" stroke="paleturquoise" cx="3673.61" cy="-162" rx="169.029" ry="18"/>
<text text-anchor="middle" x="3673.61" y="-157.8" font-family="Times,serif" font-size="14.00">github.com/prometheus/common/expfmt</text>
</g>
<!-- 1&#45;&gt;5 -->
<g id="edge4" class="edge"><title>1&#45;&gt;5</title>
<path fill="none" stroke="black" d="M3741.07,-216.055C3729.78,-207.179 3715.79,-196.169 3703.47,-186.483"/>
<polygon fill="black" stroke="black" points="3705.29,-183.463 3695.27,-180.032 3700.96,-188.965 3705.29,-183.463"/>
</g>
<!-- 6 -->
<g id="node7" class="node"><title>6</title>
<ellipse fill="paleturquoise" stroke="paleturquoise" cx="3055.61" cy="-162" rx="129.118" ry="18"/>
<text text-anchor="middle" x="3055.61" y="-157.8" font-family="Times,serif" font-size="14.00">github.com/prometheus/procfs</text>
</g>
<!-- 1&#45;&gt;6 -->
<g id="edge5" class="edge"><title>1&#45;&gt;6</title>
<path fill="none" stroke="black" d="M3620.73,-220.962C3505.55,-210.906 3338.98,-195.72 3193.61,-180 3181.99,-178.743 3169.82,-177.353 3157.74,-175.925"/>
<polygon fill="black" stroke="black" points="3157.96,-172.427 3147.62,-174.719 3157.13,-179.378 3157.96,-172.427"/>
</g>
<!-- 4&#45;&gt;3 -->
<g id="edge39" class="edge"><title>4&#45;&gt;3</title>
<path fill="none" stroke="black" d="M3796.19,-73.811C3741.08,-62.564 3666.03,-47.2475 3609.27,-35.6644"/>
<polygon fill="black" stroke="black" points="3609.75,-32.1904 3599.25,-33.62 3608.35,-39.049 3609.75,-32.1904"/>
</g>
<!-- 5&#45;&gt;3 -->
<g id="edge7" class="edge"><title>5&#45;&gt;3</title>
<path fill="none" stroke="black" d="M3556.88,-148.916C3536.47,-147.072 3515.44,-145.339 3495.61,-144 3445.36,-140.604 2624.52,-144.319 2589.61,-108 2578.53,-96.4639 2578.62,-83.6285 2589.61,-72 2616.22,-43.8517 3119.82,-28.2947 3377.87,-22.1416"/>
<polygon fill="black" stroke="black" points="3378.17,-25.6357 3388.08,-21.9 3378,-18.6377 3378.17,-25.6357"/>
</g>
<!-- 5&#45;&gt;4 -->
<g id="edge9" class="edge"><title>5&#45;&gt;4</title>
<path fill="none" stroke="black" d="M3719.8,-144.588C3748.23,-134.488 3784.84,-121.478 3814.87,-110.806"/>
<polygon fill="black" stroke="black" points="3816.12,-114.076 3824.37,-107.43 3813.78,-107.48 3816.12,-114.076"/>
</g>
<!-- 7 -->
<g id="node8" class="node"><title>7</title>
<ellipse fill="paleturquoise" stroke="paleturquoise" cx="3562.61" cy="-90" rx="121.598" ry="18"/>
<text text-anchor="middle" x="3562.61" y="-85.8" font-family="Times,serif" font-size="14.00">bitbucket.org/ww/goautoneg</text>
</g>
<!-- 5&#45;&gt;7 -->
<g id="edge6" class="edge"><title>5&#45;&gt;7</title>
<path fill="none" stroke="black" d="M3646.74,-144.055C3632.02,-134.769 3613.59,-123.148 3597.74,-113.151"/>
<polygon fill="black" stroke="black" points="3599.56,-110.163 3589.24,-107.789 3595.83,-116.084 3599.56,-110.163"/>
</g>
<!-- 8 -->
<g id="node9" class="node"><title>8</title>
<ellipse fill="paleturquoise" stroke="paleturquoise" cx="3185.61" cy="-90" rx="237.876" ry="18"/>
<text text-anchor="middle" x="3185.61" y="-85.8" font-family="Times,serif" font-size="14.00">github.com/matttproud/golang_protobuf_extensions/pbutil</text>
</g>
<!-- 5&#45;&gt;8 -->
<g id="edge8" class="edge"><title>5&#45;&gt;8</title>
<path fill="none" stroke="black" d="M3577.2,-147.17C3497.93,-135.799 3385.36,-119.652 3301.24,-107.586"/>
<polygon fill="black" stroke="black" points="3301.53,-104.091 3291.13,-106.136 3300.53,-111.02 3301.53,-104.091"/>
</g>
<!-- 9 -->
<g id="node10" class="node"><title>9</title>
<ellipse fill="paleturquoise" stroke="paleturquoise" cx="2764.61" cy="-90" rx="165.6" ry="18"/>
<text text-anchor="middle" x="2764.61" y="-85.8" font-family="Times,serif" font-size="14.00">github.com/prometheus/common/model</text>
</g>
<!-- 5&#45;&gt;9 -->
<g id="edge10" class="edge"><title>5&#45;&gt;9</title>
<path fill="none" stroke="black" d="M3554.93,-149.154C3535.13,-147.325 3514.8,-145.536 3495.61,-144 3248.33,-124.205 3185.87,-128.064 2938.61,-108 2923.08,-106.74 2906.78,-105.301 2890.64,-103.806"/>
<polygon fill="black" stroke="black" points="2890.91,-100.316 2880.62,-102.869 2890.26,-107.285 2890.91,-100.316"/>
</g>
<!-- 8&#45;&gt;3 -->
<g id="edge84" class="edge"><title>8&#45;&gt;3</title>
<path fill="none" stroke="black" d="M3264.08,-72.9406C3318.56,-61.7879 3390.99,-46.9635 3446.13,-35.6782"/>
<polygon fill="black" stroke="black" points="3447.12,-39.0481 3456.21,-33.6139 3445.72,-32.1902 3447.12,-39.0481"/>
</g>
<!-- 10 -->
<g id="node11" class="node"><title>10</title>
<ellipse fill="paleturquoise" stroke="paleturquoise" cx="1476.61" cy="-378" rx="110.578" ry="18"/>
<text text-anchor="middle" x="1476.61" y="-373.8" font-family="Times,serif" font-size="14.00">k8s.io/kubernetes/pkg/api</text>
</g>
<!-- 11 -->
<g id="node12" class="node"><title>11</title>
<ellipse fill="paleturquoise" stroke="paleturquoise" cx="4084.61" cy="-162" rx="147.581" ry="18"/>
<text text-anchor="middle" x="4084.61" y="-157.8" font-family="Times,serif" font-size="14.00">github.com/davecgh/go&#45;spew/spew</text>
</g>
<!-- 10&#45;&gt;11 -->
<g id="edge11" class="edge"><title>10&#45;&gt;11</title>
<path fill="none" stroke="black" d="M1539.34,-363.085C1564.9,-354.988 1593.37,-342.588 1614.61,-324 1655.78,-287.986 1626.8,-244.293 1673.61,-216 1725.4,-184.701 3791.17,-182.703 3851.61,-180 3885.73,-178.475 3922.6,-176.114 3956.73,-173.633"/>
<polygon fill="black" stroke="black" points="3957.04,-177.12 3966.75,-172.895 3956.52,-170.139 3957.04,-177.12"/>
</g>
<!-- 12 -->
<g id="node13" class="node"><title>12</title>
<ellipse fill="paleturquoise" stroke="paleturquoise" cx="1481.61" cy="-306" rx="105.923" ry="18"/>
<text text-anchor="middle" x="1481.61" y="-301.8" font-family="Times,serif" font-size="14.00">golang.org/x/net/context</text>
</g>
<!-- 10&#45;&gt;12 -->
<g id="edge12" class="edge"><title>10&#45;&gt;12</title>
<path fill="none" stroke="black" d="M1477.85,-359.697C1478.4,-351.983 1479.06,-342.712 1479.68,-334.112"/>
<polygon fill="black" stroke="black" points="1483.17,-334.328 1480.39,-324.104 1476.19,-333.83 1483.17,-334.328"/>
</g>
<!-- 13 -->
<g id="node14" class="node"><title>13</title>
<ellipse fill="paleturquoise" stroke="paleturquoise" cx="287.614" cy="-306" rx="131.983" ry="18"/>
<text text-anchor="middle" x="287.614" y="-301.8" font-family="Times,serif" font-size="14.00">k8s.io/kubernetes/pkg/api/meta</text>
</g>
<!-- 10&#45;&gt;13 -->
<g id="edge13" class="edge"><title>10&#45;&gt;13</title>
<path fill="none" stroke="black" d="M1368.58,-374.011C1178.33,-368.196 771.224,-353.282 428.614,-324 415.889,-322.912 402.541,-321.569 389.343,-320.118"/>
<polygon fill="black" stroke="black" points="389.621,-316.627 379.293,-318.99 388.84,-323.583 389.621,-316.627"/>
</g>
<!-- 14 -->
<g id="node15" class="node"><title>14</title>
<ellipse fill="paleturquoise" stroke="paleturquoise" cx="1979.61" cy="-306" rx="145.849" ry="18"/>
<text text-anchor="middle" x="1979.61" y="-301.8" font-family="Times,serif" font-size="14.00">k8s.io/kubernetes/pkg/api/resource</text>
</g>
<!-- 10&#45;&gt;14 -->
<g id="edge14" class="edge"><title>10&#45;&gt;14</title>
<path fill="none" stroke="black" d="M1557.71,-365.714C1644.44,-353.644 1782.22,-334.47 1876.58,-321.339"/>
<polygon fill="black" stroke="black" points="1877.29,-324.773 1886.72,-319.928 1876.33,-317.84 1877.29,-324.773"/>
</g>
<!-- 15 -->
<g id="node16" class="node"><title>15</title>
<ellipse fill="paleturquoise" stroke="paleturquoise" cx="2564.61" cy="-306" rx="160.342" ry="18"/>
<text text-anchor="middle" x="2564.61" y="-301.8" font-family="Times,serif" font-size="14.00">k8s.io/kubernetes/pkg/api/unversioned</text>
</g>
<!-- 10&#45;&gt;15 -->
<g id="edge15" class="edge"><title>10&#45;&gt;15</title>
<path fill="none" stroke="black" d="M1554.84,-365.263C1570.31,-363.252 1586.45,-361.372 1601.61,-360 1952.99,-328.196 2042.73,-349.562 2394.61,-324 2410.29,-322.861 2426.77,-321.465 2443.03,-319.967"/>
<polygon fill="black" stroke="black" points="2443.5,-323.439 2453.13,-319.023 2442.84,-316.47 2443.5,-323.439"/>
</g>
<!-- 16 -->
<g id="node17" class="node"><title>16</title>
<ellipse fill="paleturquoise" stroke="paleturquoise" cx="867.614" cy="-306" rx="134.273" ry="18"/>
<text text-anchor="middle" x="867.614" y="-301.8" font-family="Times,serif" font-size="14.00">k8s.io/kubernetes/pkg/auth/user</text>
</g>
<!-- 10&#45;&gt;16 -->
<g id="edge16" class="edge"><title>10&#45;&gt;16</title>
<path fill="none" stroke="black" d="M1395.97,-365.689C1381.22,-363.719 1365.96,-361.744 1351.61,-360 1202.52,-341.879 1164.89,-340.569 1015.61,-324 1002.71,-322.568 989.174,-321.043 975.752,-319.518"/>
<polygon fill="black" stroke="black" points="975.854,-316.007 965.522,-318.353 975.062,-322.962 975.854,-316.007"/>
</g>
<!-- 17 -->
<g id="node18" class="node"><title>17</title>
<ellipse fill="paleturquoise" stroke="paleturquoise" cx="705.614" cy="-162" rx="141.22" ry="18"/>
<text text-anchor="middle" x="705.614" y="-157.8" font-family="Times,serif" font-size="14.00">k8s.io/kubernetes/pkg/conversion</text>
</g>
<!-- 10&#45;&gt;17 -->
<g id="edge17" class="edge"><title>10&#45;&gt;17</title>
<path fill="none" stroke="black" d="M1397.71,-365.321C1382.44,-363.329 1366.55,-361.442 1351.61,-360 1282.16,-353.293 775.418,-371.838 724.614,-324 688.433,-289.931 693.123,-226.267 699.517,-190.041"/>
<polygon fill="black" stroke="black" points="702.964,-190.652 701.423,-180.169 696.091,-189.325 702.964,-190.652"/>
</g>
<!-- 18 -->
<g id="node19" class="node"><title>18</title>
<ellipse fill="paleturquoise" stroke="paleturquoise" cx="557.614" cy="-306" rx="120.386" ry="18"/>
<text text-anchor="middle" x="557.614" y="-301.8" font-family="Times,serif" font-size="14.00">k8s.io/kubernetes/pkg/fields</text>
</g>
<!-- 10&#45;&gt;18 -->
<g id="edge18" class="edge"><title>10&#45;&gt;18</title>
<path fill="none" stroke="black" d="M1398.04,-365.33C1382.67,-363.325 1366.66,-361.431 1351.61,-360 1059.16,-332.183 984.185,-350.503 691.614,-324 679.175,-322.873 666.111,-321.479 653.222,-319.978"/>
<polygon fill="black" stroke="black" points="653.281,-316.461 642.937,-318.755 652.454,-323.412 653.281,-316.461"/>
</g>
<!-- 19 -->
<g id="node20" class="node"><title>19</title>
<ellipse fill="paleturquoise" stroke="paleturquoise" cx="2264.61" cy="-306" rx="121.03" ry="18"/>
<text text-anchor="middle" x="2264.61" y="-301.8" font-family="Times,serif" font-size="14.00">k8s.io/kubernetes/pkg/labels</text>
</g>
<!-- 10&#45;&gt;19 -->
<g id="edge19" class="edge"><title>10&#45;&gt;19</title>
<path fill="none" stroke="black" d="M1555.87,-365.398C1571.03,-363.412 1586.8,-361.506 1601.61,-360 1837.83,-335.988 1898.34,-347.405 2134.61,-324 2145.91,-322.881 2157.75,-321.552 2169.47,-320.138"/>
<polygon fill="black" stroke="black" points="2170.24,-323.57 2179.74,-318.877 2169.39,-316.623 2170.24,-323.57"/>
</g>
<!-- 20 -->
<g id="node21" class="node"><title>20</title>
<ellipse fill="paleturquoise" stroke="paleturquoise" cx="351.614" cy="-234" rx="128.556" ry="18"/>
<text text-anchor="middle" x="351.614" y="-229.8" font-family="Times,serif" font-size="14.00">k8s.io/kubernetes/pkg/runtime</text>
</g>
<!-- 10&#45;&gt;20 -->
<g id="edge20" class="edge"><title>10&#45;&gt;20</title>
<path fill="none" stroke="black" d="M1394.93,-365.772C1380.5,-363.823 1365.62,-361.834 1351.61,-360 1224.58,-343.367 1185.86,-368.218 1065.61,-324 1038.19,-313.917 1038.25,-297.464 1010.61,-288 917.281,-256.041 652.152,-243.104 488.028,-238.054"/>
<polygon fill="black" stroke="black" points="487.955,-234.55 477.854,-237.747 487.744,-241.547 487.955,-234.55"/>
</g>
<!-- 21 -->
<g id="node22" class="node"><title>21</title>
<ellipse fill="paleturquoise" stroke="paleturquoise" cx="1067.61" cy="-234" rx="119.246" ry="18"/>
<text text-anchor="middle" x="1067.61" y="-229.8" font-family="Times,serif" font-size="14.00">k8s.io/kubernetes/pkg/types</text>
</g>
<!-- 10&#45;&gt;21 -->
<g id="edge21" class="edge"><title>10&#45;&gt;21</title>
<path fill="none" stroke="black" d="M1394.58,-365.842C1380.26,-363.894 1365.5,-361.888 1351.61,-360 1292.73,-351.996 1130.19,-364.412 1086.61,-324 1069.92,-308.518 1066,-282.266 1065.76,-262.274"/>
<polygon fill="black" stroke="black" points="1069.26,-262.26 1065.94,-252.2 1062.26,-262.138 1069.26,-262.26"/>
</g>
<!-- 22 -->
<g id="node23" class="node"><title>22</title>
<ellipse fill="paleturquoise" stroke="paleturquoise" cx="2892.61" cy="-306" rx="111.739" ry="18"/>
<text text-anchor="middle" x="2892.61" y="-301.8" font-family="Times,serif" font-size="14.00">k8s.io/kubernetes/pkg/util</text>
</g>
<!-- 10&#45;&gt;22 -->
<g id="edge22" class="edge"><title>10&#45;&gt;22</title>
<path fill="none" stroke="black" d="M1585.62,-374.765C1803.81,-369.77 2309.68,-355.567 2733.61,-324 2753.72,-322.503 2775.21,-320.487 2795.69,-318.368"/>
<polygon fill="black" stroke="black" points="2796.07,-321.847 2805.64,-317.321 2795.33,-314.886 2796.07,-321.847"/>
</g>
<!-- 23 -->
<g id="node24" class="node"><title>23</title>
<ellipse fill="paleturquoise" stroke="paleturquoise" cx="1226.61" cy="-306" rx="131.423" ry="18"/>
<text text-anchor="middle" x="1226.61" y="-301.8" font-family="Times,serif" font-size="14.00">k8s.io/kubernetes/pkg/util/rand</text>
</g>
<!-- 10&#45;&gt;23 -->
<g id="edge23" class="edge"><title>10&#45;&gt;23</title>
<path fill="none" stroke="black" d="M1423.6,-362.155C1384.98,-351.343 1332.47,-336.639 1291.37,-325.132"/>
<polygon fill="black" stroke="black" points="1292.29,-321.755 1281.72,-322.429 1290.41,-328.496 1292.29,-321.755"/>
</g>
<!-- 24 -->
<g id="node25" class="node"><title>24</title>
<ellipse fill="paleturquoise" stroke="paleturquoise" cx="1616.61" cy="-162" rx="128.57" ry="18"/>
<text text-anchor="middle" x="1616.61" y="-157.8" font-family="Times,serif" font-size="14.00">k8s.io/kubernetes/pkg/util/sets</text>
</g>
<!-- 10&#45;&gt;24 -->
<g id="edge24" class="edge"><title>10&#45;&gt;24</title>
<path fill="none" stroke="black" d="M1540.3,-363.277C1561.66,-355.399 1583.4,-343.104 1596.61,-324 1610.29,-304.232 1598.86,-239.742 1602.61,-216 1603.99,-207.312 1606.19,-197.99 1608.45,-189.623"/>
<polygon fill="black" stroke="black" points="1611.82,-190.574 1611.18,-179.998 1605.09,-188.664 1611.82,-190.574"/>
</g>
<!-- 25 -->
<g id="node26" class="node"><title>25</title>
<ellipse fill="paleturquoise" stroke="paleturquoise" cx="1811.61" cy="-234" rx="128.529" ry="18"/>
<text text-anchor="middle" x="1811.61" y="-229.8" font-family="Times,serif" font-size="14.00">speter.net/go/exp/math/dec/inf</text>
</g>
<!-- 10&#45;&gt;25 -->
<g id="edge25" class="edge"><title>10&#45;&gt;25</title>
<path fill="none" stroke="black" d="M1552.28,-364.79C1625.4,-352.542 1727.42,-334.089 1743.61,-324 1768.09,-308.753 1787.03,-281.307 1798.63,-260.911"/>
<polygon fill="black" stroke="black" points="1801.72,-262.559 1803.44,-252.105 1795.57,-259.204 1801.72,-262.559"/>
</g>
<!-- 13&#45;&gt;17 -->
<g id="edge65" class="edge"><title>13&#45;&gt;17</title>
<path fill="none" stroke="black" d="M352.857,-290.238C392.745,-280.632 444.585,-267.108 489.614,-252 549.85,-231.79 617.248,-202.988 660.487,-183.677"/>
<polygon fill="black" stroke="black" points="662.179,-186.754 669.869,-179.466 659.313,-180.367 662.179,-186.754"/>
</g>
<!-- 13&#45;&gt;20 -->
<g id="edge66" class="edge"><title>13&#45;&gt;20</title>
<path fill="none" stroke="black" d="M303.107,-288.055C310.852,-279.583 320.375,-269.168 328.926,-259.815"/>
<polygon fill="black" stroke="black" points="331.655,-262.017 335.819,-252.275 326.489,-257.294 331.655,-262.017"/>
</g>
<!-- 13&#45;&gt;21 -->
<g id="edge67" class="edge"><title>13&#45;&gt;21</title>
<path fill="none" stroke="black" d="M381.228,-293.218C397.033,-291.371 413.283,-289.559 428.614,-288 611.381,-269.409 824.058,-252.762 952.13,-243.278"/>
<polygon fill="black" stroke="black" points="952.631,-246.751 962.346,-242.524 952.115,-239.77 952.631,-246.751"/>
</g>
<!-- 14&#45;&gt;25 -->
<g id="edge82" class="edge"><title>14&#45;&gt;25</title>
<path fill="none" stroke="black" d="M1940.23,-288.588C1916.23,-278.591 1885.4,-265.743 1859.94,-255.134"/>
<polygon fill="black" stroke="black" points="1861.04,-251.804 1850.47,-251.188 1858.35,-258.265 1861.04,-251.804"/>
</g>
<!-- 32 -->
<g id="node33" class="node"><title>32</title>
<ellipse fill="paleturquoise" stroke="paleturquoise" cx="2421.61" cy="-234" rx="101.349" ry="18"/>
<text text-anchor="middle" x="2421.61" y="-229.8" font-family="Times,serif" font-size="14.00">github.com/spf13/pflag</text>
</g>
<!-- 14&#45;&gt;32 -->
<g id="edge81" class="edge"><title>14&#45;&gt;32</title>
<path fill="none" stroke="black" d="M2065.36,-291.42C2144.17,-278.94 2260.25,-260.555 2338.28,-248.197"/>
<polygon fill="black" stroke="black" points="2339.23,-251.591 2348.56,-246.57 2338.13,-244.677 2339.23,-251.591"/>
</g>
<!-- 27 -->
<g id="node28" class="node"><title>27</title>
<ellipse fill="paleturquoise" stroke="paleturquoise" cx="2653.61" cy="-234" rx="112.869" ry="18"/>
<text text-anchor="middle" x="2653.61" y="-229.8" font-family="Times,serif" font-size="14.00">github.com/google/gofuzz</text>
</g>
<!-- 15&#45;&gt;27 -->
<g id="edge83" class="edge"><title>15&#45;&gt;27</title>
<path fill="none" stroke="black" d="M2586.16,-288.055C2597.64,-279.027 2611.92,-267.792 2624.39,-257.987"/>
<polygon fill="black" stroke="black" points="2626.57,-260.722 2632.27,-251.789 2622.24,-255.22 2626.57,-260.722"/>
</g>
<!-- 45 -->
<g id="node46" class="node"><title>45</title>
<ellipse fill="paleturquoise" stroke="paleturquoise" cx="705.614" cy="-90" rx="179.914" ry="18"/>
<text text-anchor="middle" x="705.614" y="-85.8" font-family="Times,serif" font-size="14.00">k8s.io/kubernetes/third_party/forked/reflect</text>
</g>
<!-- 17&#45;&gt;45 -->
<g id="edge68" class="edge"><title>17&#45;&gt;45</title>
<path fill="none" stroke="black" d="M705.614,-143.697C705.614,-135.983 705.614,-126.712 705.614,-118.112"/>
<polygon fill="black" stroke="black" points="709.114,-118.104 705.614,-108.104 702.114,-118.104 709.114,-118.104"/>
</g>
<!-- 19&#45;&gt;24 -->
<g id="edge27" class="edge"><title>19&#45;&gt;24</title>
<path fill="none" stroke="black" d="M2273.19,-287.833C2281.79,-267.898 2291.41,-235.29 2273.61,-216 2239.2,-178.699 1937,-167.644 1754.66,-164.372"/>
<polygon fill="black" stroke="black" points="1754.51,-160.869 1744.45,-164.195 1754.39,-167.868 1754.51,-160.869"/>
</g>
<!-- 28 -->
<g id="node29" class="node"><title>28</title>
<ellipse fill="paleturquoise" stroke="paleturquoise" cx="4216.61" cy="-234" rx="154.531" ry="18"/>
<text text-anchor="middle" x="4216.61" y="-229.8" font-family="Times,serif" font-size="14.00">k8s.io/kubernetes/pkg/util/fielderrors</text>
</g>
<!-- 19&#45;&gt;28 -->
<g id="edge26" class="edge"><title>19&#45;&gt;28</title>
<path fill="none" stroke="black" d="M2347.64,-292.875C2363.53,-290.936 2380.06,-289.183 2395.61,-288 3096.44,-234.699 3274.53,-284.84 3976.61,-252 4011.17,-250.384 4048.49,-248.034 4083.17,-245.594"/>
<polygon fill="black" stroke="black" points="4083.63,-249.07 4093.35,-244.869 4083.13,-242.088 4083.63,-249.07"/>
</g>
<!-- 29 -->
<g id="node30" class="node"><title>29</title>
<ellipse fill="paleturquoise" stroke="paleturquoise" cx="2111.61" cy="-234" rx="152.85" ry="18"/>
<text text-anchor="middle" x="2111.61" y="-229.8" font-family="Times,serif" font-size="14.00">k8s.io/kubernetes/pkg/util/validation</text>
</g>
<!-- 19&#45;&gt;29 -->
<g id="edge28" class="edge"><title>19&#45;&gt;29</title>
<path fill="none" stroke="black" d="M2229.13,-288.765C2207.64,-278.932 2180.01,-266.294 2156.95,-255.742"/>
<polygon fill="black" stroke="black" points="2158.25,-252.489 2147.7,-251.511 2155.34,-258.855 2158.25,-252.489"/>
</g>
<!-- 20&#45;&gt;17 -->
<g id="edge77" class="edge"><title>20&#45;&gt;17</title>
<path fill="none" stroke="black" d="M422.825,-218.919C480.584,-207.497 562.082,-191.382 622.76,-179.384"/>
<polygon fill="black" stroke="black" points="623.561,-182.793 632.693,-177.42 622.204,-175.926 623.561,-182.793"/>
</g>
<!-- 20&#45;&gt;24 -->
<g id="edge79" class="edge"><title>20&#45;&gt;24</title>
<path fill="none" stroke="black" d="M468.92,-226.509C706.643,-213.354 1243.46,-183.649 1489.31,-170.044"/>
<polygon fill="black" stroke="black" points="1489.58,-173.535 1499.37,-169.488 1489.19,-166.546 1489.58,-173.535"/>
</g>
<!-- 38 -->
<g id="node39" class="node"><title>38</title>
<ellipse fill="paleturquoise" stroke="paleturquoise" cx="133.614" cy="-162" rx="133.728" ry="18"/>
<text text-anchor="middle" x="133.614" y="-157.8" font-family="Times,serif" font-size="14.00">k8s.io/kubernetes/pkg/util/yaml</text>
</g>
<!-- 20&#45;&gt;38 -->
<g id="edge80" class="edge"><title>20&#45;&gt;38</title>
<path fill="none" stroke="black" d="M302.691,-217.291C270.128,-206.835 227.162,-193.038 192.692,-181.97"/>
<polygon fill="black" stroke="black" points="193.342,-178.503 182.751,-178.778 191.202,-185.168 193.342,-178.503"/>
</g>
<!-- 46 -->
<g id="node47" class="node"><title>46</title>
<ellipse fill="paleturquoise" stroke="paleturquoise" cx="415.614" cy="-162" rx="130.299" ry="18"/>
<text text-anchor="middle" x="415.614" y="-157.8" font-family="Times,serif" font-size="14.00">k8s.io/kubernetes/pkg/util/json</text>
</g>
<!-- 20&#45;&gt;46 -->
<g id="edge78" class="edge"><title>20&#45;&gt;46</title>
<path fill="none" stroke="black" d="M367.107,-216.055C374.852,-207.583 384.375,-197.168 392.926,-187.815"/>
<polygon fill="black" stroke="black" points="395.655,-190.017 399.819,-180.275 390.489,-185.294 395.655,-190.017"/>
</g>
<!-- 22&#45;&gt;1 -->
<g id="edge34" class="edge"><title>22&#45;&gt;1</title>
<path fill="none" stroke="black" d="M2990.3,-297.14C3140.17,-285.082 3428.21,-261.906 3607.03,-247.519"/>
<polygon fill="black" stroke="black" points="3607.36,-251.003 3617.05,-246.712 3606.8,-244.025 3607.36,-251.003"/>
</g>
<!-- 22&#45;&gt;11 -->
<g id="edge29" class="edge"><title>22&#45;&gt;11</title>
<path fill="none" stroke="black" d="M3003.69,-303.57C3261.99,-299.673 3887.84,-286.733 3976.61,-252 3999.83,-242.919 4000.4,-231.876 4019.61,-216 4031.45,-206.224 4044.56,-195.512 4055.88,-186.293"/>
<polygon fill="black" stroke="black" points="4058.22,-188.902 4063.77,-179.879 4053.81,-183.471 4058.22,-188.902"/>
</g>
<!-- 22&#45;&gt;21 -->
<g id="edge37" class="edge"><title>22&#45;&gt;21</title>
<path fill="none" stroke="black" d="M2814.11,-293.138C2798.41,-291.125 2782.01,-289.276 2766.61,-288 2688.65,-281.542 1573.96,-249.414 1193.66,-238.576"/>
<polygon fill="black" stroke="black" points="1193.54,-235.072 1183.45,-238.285 1193.35,-242.069 1193.54,-235.072"/>
</g>
<!-- 22&#45;&gt;24 -->
<g id="edge38" class="edge"><title>22&#45;&gt;24</title>
<path fill="none" stroke="black" d="M3002.54,-302.783C3161.92,-298.415 3441.62,-285.956 3472.61,-252 3483.4,-240.183 3483.77,-227.474 3472.61,-216 3442.73,-185.25 2179.68,-168.996 1754.58,-164.39"/>
<polygon fill="black" stroke="black" points="1754.42,-160.888 1744.39,-164.28 1754.35,-167.887 1754.42,-160.888"/>
</g>
<!-- 26 -->
<g id="node27" class="node"><title>26</title>
<ellipse fill="paleturquoise" stroke="paleturquoise" cx="2438.61" cy="-90" rx="103.66" ry="18"/>
<text text-anchor="middle" x="2438.61" y="-85.8" font-family="Times,serif" font-size="14.00">github.com/golang/glog</text>
</g>
<!-- 22&#45;&gt;26 -->
<g id="edge30" class="edge"><title>22&#45;&gt;26</title>
<path fill="none" stroke="black" d="M3003.09,-303.123C3167.13,-299.175 3459.36,-287.23 3491.61,-252 3502.42,-240.198 3502.57,-227.662 3491.61,-216 3447.86,-169.421 2981.03,-187.851 2917.61,-180 2771.22,-161.877 2601.99,-127.143 2508.98,-106.84"/>
<polygon fill="black" stroke="black" points="2509.63,-103.402 2499.12,-104.68 2508.14,-110.239 2509.63,-103.402"/>
</g>
<!-- 22&#45;&gt;27 -->
<g id="edge31" class="edge"><title>22&#45;&gt;27</title>
<path fill="none" stroke="black" d="M2841.34,-289.983C2804.29,-279.132 2754.09,-264.428 2714.92,-252.955"/>
<polygon fill="black" stroke="black" points="2715.79,-249.564 2705.21,-250.113 2713.83,-256.282 2715.79,-249.564"/>
</g>
<!-- 30 -->
<g id="node31" class="node"><title>30</title>
<ellipse fill="paleturquoise" stroke="paleturquoise" cx="3114.61" cy="-234" rx="107.739" ry="18"/>
<text text-anchor="middle" x="3114.61" y="-229.8" font-family="Times,serif" font-size="14.00">github.com/juju/ratelimit</text>
</g>
<!-- 22&#45;&gt;30 -->
<g id="edge32" class="edge"><title>22&#45;&gt;30</title>
<path fill="none" stroke="black" d="M2941.06,-289.725C2974.99,-279.024 3020.51,-264.672 3056.42,-253.35"/>
<polygon fill="black" stroke="black" points="3057.79,-256.588 3066.27,-250.243 3055.68,-249.912 3057.79,-256.588"/>
</g>
<!-- 31 -->
<g id="node32" class="node"><title>31</title>
<ellipse fill="paleturquoise" stroke="paleturquoise" cx="3351.61" cy="-234" rx="111.747" ry="18"/>
<text text-anchor="middle" x="3351.61" y="-229.8" font-family="Times,serif" font-size="14.00">github.com/pborman/uuid</text>
</g>
<!-- 22&#45;&gt;31 -->
<g id="edge33" class="edge"><title>22&#45;&gt;31</title>
<path fill="none" stroke="black" d="M2970.74,-293.086C3051.89,-280.71 3178.62,-261.382 3263.34,-248.462"/>
<polygon fill="black" stroke="black" points="3264.1,-251.886 3273.46,-246.919 3263.05,-244.966 3264.1,-251.886"/>
</g>
<!-- 22&#45;&gt;32 -->
<g id="edge35" class="edge"><title>22&#45;&gt;32</title>
<path fill="none" stroke="black" d="M2812.65,-293.437C2739.48,-282.815 2628.23,-266.558 2531.61,-252 2523.08,-250.713 2514.17,-249.358 2505.28,-247.997"/>
<polygon fill="black" stroke="black" points="2505.68,-244.519 2495.27,-246.462 2504.62,-251.438 2505.68,-244.519"/>
</g>
<!-- 33 -->
<g id="node34" class="node"><title>33</title>
<ellipse fill="paleturquoise" stroke="paleturquoise" cx="2886.61" cy="-234" rx="102.493" ry="18"/>
<text text-anchor="middle" x="2886.61" y="-229.8" font-family="Times,serif" font-size="14.00">golang.org/x/crypto/ssh</text>
</g>
<!-- 22&#45;&gt;33 -->
<g id="edge36" class="edge"><title>22&#45;&gt;33</title>
<path fill="none" stroke="black" d="M2891.13,-287.697C2890.47,-279.983 2889.68,-270.712 2888.94,-262.112"/>
<polygon fill="black" stroke="black" points="2892.42,-261.769 2888.08,-252.104 2885.45,-262.367 2892.42,-261.769"/>
</g>
<!-- 28&#45;&gt;0 -->
<g id="edge52" class="edge"><title>28&#45;&gt;0</title>
<path fill="none" stroke="black" d="M4256.47,-216.588C4280.66,-206.627 4311.73,-193.835 4337.44,-183.248"/>
<polygon fill="black" stroke="black" points="4339.09,-186.353 4347.01,-179.309 4336.43,-179.88 4339.09,-186.353"/>
</g>
<!-- 28&#45;&gt;11 -->
<g id="edge51" class="edge"><title>28&#45;&gt;11</title>
<path fill="none" stroke="black" d="M4185,-216.233C4166.96,-206.666 4144.16,-194.577 4124.85,-184.338"/>
<polygon fill="black" stroke="black" points="4126.45,-181.223 4115.97,-179.63 4123.17,-187.407 4126.45,-181.223"/>
</g>
<!-- 34 -->
<g id="node35" class="node"><title>34</title>
<ellipse fill="paleturquoise" stroke="paleturquoise" cx="601.614" cy="-450" rx="186.939" ry="18"/>
<text text-anchor="middle" x="601.614" y="-445.8" font-family="Times,serif" font-size="14.00">github.com/openshift/origin/pkg/template/api</text>
</g>
<!-- 34&#45;&gt;10 -->
<g id="edge40" class="edge"><title>34&#45;&gt;10</title>
<path fill="none" stroke="black" d="M740.26,-437.908C914.964,-423.932 1211.45,-400.213 1369.67,-387.556"/>
<polygon fill="black" stroke="black" points="1370.2,-391.025 1379.89,-386.738 1369.64,-384.047 1370.2,-391.025"/>
</g>
<!-- 34&#45;&gt;15 -->
<g id="edge41" class="edge"><title>34&#45;&gt;15</title>
<path fill="none" stroke="black" d="M768.979,-441.966C966.802,-433.216 1305.88,-416.852 1596.61,-396 1774.21,-383.262 2217.36,-340.859 2394.61,-324 2409.27,-322.606 2424.63,-321.114 2439.87,-319.614"/>
<polygon fill="black" stroke="black" points="2440.26,-323.093 2449.87,-318.628 2439.57,-316.127 2440.26,-323.093"/>
</g>
<!-- 34&#45;&gt;18 -->
<g id="edge42" class="edge"><title>34&#45;&gt;18</title>
<path fill="none" stroke="black" d="M596.307,-431.871C588.775,-407.564 574.91,-362.819 565.984,-334.013"/>
<polygon fill="black" stroke="black" points="569.243,-332.705 562.94,-324.189 562.557,-334.777 569.243,-332.705"/>
</g>
<!-- 34&#45;&gt;20 -->
<g id="edge43" class="edge"><title>34&#45;&gt;20</title>
<path fill="none" stroke="black" d="M497.158,-435.029C376.447,-416.491 188.922,-379.498 146.614,-324 114.004,-281.223 176.832,-258.676 241.294,-246.994"/>
<polygon fill="black" stroke="black" points="241.964,-250.43 251.222,-245.279 240.772,-243.532 241.964,-250.43"/>
</g>
<!-- 35 -->
<g id="node36" class="node"><title>35</title>
<ellipse fill="paleturquoise" stroke="paleturquoise" cx="4424.61" cy="-594" rx="211.259" ry="18"/>
<text text-anchor="middle" x="4424.61" y="-589.8" font-family="Times,serif" font-size="14.00">github.com/openshift/origin/pkg/template/generator</text>
</g>
<!-- 36 -->
<g id="node37" class="node"><title>36</title>
<ellipse fill="paleturquoise" stroke="paleturquoise" cx="1880.61" cy="-522" rx="179.504" ry="18"/>
<text text-anchor="middle" x="1880.61" y="-517.8" font-family="Times,serif" font-size="14.00">github.com/openshift/origin/pkg/deploy/api</text>
</g>
<!-- 36&#45;&gt;10 -->
<g id="edge44" class="edge"><title>36&#45;&gt;10</title>
<path fill="none" stroke="black" d="M1826.98,-504.755C1794.12,-494.609 1751.27,-481.036 1713.61,-468 1648.53,-445.469 1574.32,-417.173 1526.55,-398.613"/>
<polygon fill="black" stroke="black" points="1527.65,-395.286 1517.06,-394.921 1525.11,-401.81 1527.65,-395.286"/>
</g>
<!-- 36&#45;&gt;15 -->
<g id="edge45" class="edge"><title>36&#45;&gt;15</title>
<path fill="none" stroke="black" d="M1937.67,-504.872C1970.24,-495.177 2011.62,-482.023 2047.61,-468 2153.59,-426.713 2171.29,-394.672 2279.61,-360 2334.89,-342.308 2398.2,-329.801 2451.08,-321.397"/>
<polygon fill="black" stroke="black" points="2451.83,-324.822 2461.17,-319.823 2450.75,-317.906 2451.83,-324.822"/>
</g>
<!-- 36&#45;&gt;18 -->
<g id="edge47" class="edge"><title>36&#45;&gt;18</title>
<path fill="none" stroke="black" d="M1790.46,-506.417C1548.42,-467.266 886.482,-360.196 646.231,-321.334"/>
<polygon fill="black" stroke="black" points="646.572,-317.844 636.141,-319.702 645.454,-324.754 646.572,-317.844"/>
</g>
<!-- 36&#45;&gt;22 -->
<g id="edge48" class="edge"><title>36&#45;&gt;22</title>
<path fill="none" stroke="black" d="M1948.1,-505.247C2076.32,-475.499 2364.08,-409.595 2607.61,-360 2675.65,-346.144 2753.13,-331.829 2810.12,-321.575"/>
<polygon fill="black" stroke="black" points="2810.93,-324.985 2820.15,-319.772 2809.69,-318.095 2810.93,-324.985"/>
</g>
<!-- 37 -->
<g id="node38" class="node"><title>37</title>
<ellipse fill="paleturquoise" stroke="paleturquoise" cx="1880.61" cy="-450" rx="157.988" ry="18"/>
<text text-anchor="middle" x="1880.61" y="-445.8" font-family="Times,serif" font-size="14.00">k8s.io/kubernetes/pkg/apis/extensions</text>
</g>
<!-- 36&#45;&gt;37 -->
<g id="edge46" class="edge"><title>36&#45;&gt;37</title>
<path fill="none" stroke="black" d="M1880.61,-503.697C1880.61,-495.983 1880.61,-486.712 1880.61,-478.112"/>
<polygon fill="black" stroke="black" points="1884.11,-478.104 1880.61,-468.104 1877.11,-478.104 1884.11,-478.104"/>
</g>
<!-- 37&#45;&gt;10 -->
<g id="edge85" class="edge"><title>37&#45;&gt;10</title>
<path fill="none" stroke="black" d="M1797.88,-434.666C1728.24,-422.599 1629.14,-405.428 1559.47,-393.356"/>
<polygon fill="black" stroke="black" points="1559.86,-389.871 1549.41,-391.613 1558.66,-396.769 1559.86,-389.871"/>
</g>
<!-- 37&#45;&gt;14 -->
<g id="edge86" class="edge"><title>37&#45;&gt;14</title>
<path fill="none" stroke="black" d="M1892.56,-431.871C1909.8,-407.137 1941.8,-361.242 1961.83,-332.512"/>
<polygon fill="black" stroke="black" points="1964.78,-334.394 1967.63,-324.189 1959.04,-330.391 1964.78,-334.394"/>
</g>
<!-- 37&#45;&gt;15 -->
<g id="edge87" class="edge"><title>37&#45;&gt;15</title>
<path fill="none" stroke="black" d="M1928.45,-432.817C1956.72,-422.905 1993.03,-409.553 2024.61,-396 2057.86,-381.733 2062.9,-370.191 2097.61,-360 2114,-355.19 2308.61,-334.011 2441.38,-319.925"/>
<polygon fill="black" stroke="black" points="2442.05,-323.374 2451.63,-318.839 2441.31,-316.413 2442.05,-323.374"/>
</g>
<!-- 37&#45;&gt;17 -->
<g id="edge88" class="edge"><title>37&#45;&gt;17</title>
<path fill="none" stroke="black" d="M1845.39,-432.283C1824.58,-422.187 1797.85,-408.83 1774.61,-396 1693.61,-351.271 1683.17,-320.728 1596.61,-288 1348.54,-194.197 1037.59,-169.836 856.294,-164.066"/>
<polygon fill="black" stroke="black" points="856.253,-160.563 846.151,-163.758 856.041,-167.56 856.253,-160.563"/>
</g>
<!-- 37&#45;&gt;19 -->
<g id="edge89" class="edge"><title>37&#45;&gt;19</title>
<path fill="none" stroke="black" d="M1907.11,-432.184C1939.24,-412.435 1995.59,-379.856 2047.61,-360 2090.37,-343.68 2139.83,-331.143 2180.72,-322.37"/>
<polygon fill="black" stroke="black" points="2181.58,-325.764 2190.65,-320.277 2180.14,-318.915 2181.58,-325.764"/>
</g>
<!-- 37&#45;&gt;22 -->
<g id="edge90" class="edge"><title>37&#45;&gt;22</title>
<path fill="none" stroke="black" d="M1939.28,-433.197C2016.65,-412.983 2157.32,-378.395 2279.61,-360 2479.77,-329.893 2532.07,-342.761 2733.61,-324 2753,-322.195 2773.71,-320.103 2793.55,-318.016"/>
<polygon fill="black" stroke="black" points="2793.94,-321.494 2803.52,-316.96 2793.2,-314.533 2793.94,-321.494"/>
</g>
<!-- 37&#45;&gt;24 -->
<g id="edge91" class="edge"><title>37&#45;&gt;24</title>
<path fill="none" stroke="black" d="M1859.64,-431.994C1820.36,-399.548 1734.24,-325.47 1673.61,-252 1657.23,-232.144 1641.68,-207.321 1630.98,-188.939"/>
<polygon fill="black" stroke="black" points="1634,-187.164 1625.99,-180.229 1627.92,-190.645 1634,-187.164"/>
</g>
<!-- 37&#45;&gt;25 -->
<g id="edge92" class="edge"><title>37&#45;&gt;25</title>
<path fill="none" stroke="black" d="M1871.05,-431.782C1858.39,-408.198 1836.31,-364.186 1824.61,-324 1818.7,-303.665 1815.4,-279.898 1813.61,-262.041"/>
<polygon fill="black" stroke="black" points="1817.09,-261.669 1812.7,-252.027 1810.12,-262.303 1817.09,-261.669"/>
</g>
<!-- 38&#45;&gt;26 -->
<g id="edge50" class="edge"><title>38&#45;&gt;26</title>
<path fill="none" stroke="black" d="M225.035,-148.838C242.148,-146.929 259.906,-145.195 276.614,-144 680.77,-115.087 1940.25,-97.2534 2325.51,-92.3693"/>
<polygon fill="black" stroke="black" points="2325.59,-95.8686 2335.55,-92.2424 2325.5,-88.8692 2325.59,-95.8686"/>
</g>
<!-- 39 -->
<g id="node40" class="node"><title>39</title>
<ellipse fill="paleturquoise" stroke="paleturquoise" cx="133.614" cy="-90" rx="106.026" ry="18"/>
<text text-anchor="middle" x="133.614" y="-85.8" font-family="Times,serif" font-size="14.00">github.com/ghodss/yaml</text>
</g>
<!-- 38&#45;&gt;39 -->
<g id="edge49" class="edge"><title>38&#45;&gt;39</title>
<path fill="none" stroke="black" d="M133.614,-143.697C133.614,-135.983 133.614,-126.712 133.614,-118.112"/>
<polygon fill="black" stroke="black" points="137.114,-118.104 133.614,-108.104 130.114,-118.104 137.114,-118.104"/>
</g>
<!-- 44 -->
<g id="node45" class="node"><title>44</title>
<ellipse fill="paleturquoise" stroke="paleturquoise" cx="133.614" cy="-18" rx="79.3425" ry="18"/>
<text text-anchor="middle" x="133.614" y="-13.8" font-family="Times,serif" font-size="14.00">gopkg.in/yaml.v2</text>
</g>
<!-- 39&#45;&gt;44 -->
<g id="edge69" class="edge"><title>39&#45;&gt;44</title>
<path fill="none" stroke="black" d="M133.614,-71.6966C133.614,-63.9827 133.614,-54.7125 133.614,-46.1124"/>
<polygon fill="black" stroke="black" points="137.114,-46.1043 133.614,-36.1043 130.114,-46.1044 137.114,-46.1043"/>
</g>
<!-- 40 -->
<g id="node41" class="node"><title>40</title>
<ellipse fill="paleturquoise" stroke="paleturquoise" cx="2752.61" cy="-378" rx="135.976" ry="18"/>
<text text-anchor="middle" x="2752.61" y="-373.8" font-family="Times,serif" font-size="14.00">k8s.io/kubernetes/pkg/api/errors</text>
</g>
<!-- 40&#45;&gt;0 -->
<g id="edge55" class="edge"><title>40&#45;&gt;0</title>
<path fill="none" stroke="black" d="M2885.16,-374.036C3166.06,-366.117 3811.85,-338.768 4011.61,-252 4033.86,-242.339 4030.66,-226.306 4052.61,-216 4073.33,-206.274 4192.69,-188.738 4282.86,-176.511"/>
<polygon fill="black" stroke="black" points="4283.43,-179.966 4292.87,-175.159 4282.49,-173.029 4283.43,-179.966"/>
</g>
<!-- 40&#45;&gt;15 -->
<g id="edge53" class="edge"><title>40&#45;&gt;15</title>
<path fill="none" stroke="black" d="M2709.01,-360.765C2681.92,-350.677 2646.9,-337.637 2618.13,-326.925"/>
<polygon fill="black" stroke="black" points="2619.23,-323.599 2608.63,-323.39 2616.78,-330.159 2619.23,-323.599"/>
</g>
<!-- 40&#45;&gt;20 -->
<g id="edge54" class="edge"><title>40&#45;&gt;20</title>
<path fill="none" stroke="black" d="M2754.61,-359.77C2755.93,-339.134 2754.45,-305.203 2733.61,-288 2695.18,-256.263 989.442,-253.22 939.614,-252 783.988,-248.189 605.22,-242.889 486.046,-239.225"/>
<polygon fill="black" stroke="black" points="485.882,-235.718 475.779,-238.908 485.667,-242.715 485.882,-235.718"/>
</g>
<!-- 40&#45;&gt;28 -->
<g id="edge56" class="edge"><title>40&#45;&gt;28</title>
<path fill="none" stroke="black" d="M2887.74,-376.002C3197.54,-373.065 3940.67,-362.095 4047.61,-324 4072.73,-315.052 4072.58,-301.439 4095.61,-288 4117.01,-275.516 4141.89,-264.131 4163.51,-255.141"/>
<polygon fill="black" stroke="black" points="4164.94,-258.337 4172.87,-251.311 4162.29,-251.858 4164.94,-258.337"/>
</g>
<!-- 41 -->
<g id="node42" class="node"><title>41</title>
<ellipse fill="paleturquoise" stroke="paleturquoise" cx="4465.61" cy="-522" rx="204.334" ry="18"/>
<text text-anchor="middle" x="4465.61" y="-517.8" font-family="Times,serif" font-size="14.00">github.com/openshift/origin/pkg/util/stringreplace</text>
</g>
<!-- 41&#45;&gt;26 -->
<g id="edge57" class="edge"><title>41&#45;&gt;26</title>
<path fill="none" stroke="black" d="M4484.7,-503.773C4510.04,-478.914 4551.61,-430.302 4551.61,-379 4551.61,-379 4551.61,-379 4551.61,-233 4551.61,-192.553 4563.82,-169.73 4532.61,-144 4490.96,-109.66 2643.48,-111.523 2589.61,-108 2569.91,-106.711 2548.82,-104.722 2528.84,-102.554"/>
<polygon fill="black" stroke="black" points="2529.14,-99.0659 2518.81,-101.441 2528.37,-106.023 2529.14,-99.0659"/>
</g>
<!-- 42 -->
<g id="node43" class="node"><title>42</title>
<ellipse fill="paleturquoise" stroke="paleturquoise" cx="1880.61" cy="-666" rx="172.474" ry="18"/>
<text text-anchor="middle" x="1880.61" y="-661.8" font-family="Times,serif" font-size="14.00">github.com/openshift/origin/pkg/template</text>
</g>
<!-- 42&#45;&gt;13 -->
<g id="edge62" class="edge"><title>42&#45;&gt;13</title>
<path fill="none" stroke="black" d="M1721.29,-659.153C1315.09,-643.196 272.614,-595.209 272.614,-523 272.614,-523 272.614,-523 272.614,-449 272.614,-408.993 278.575,-362.995 282.982,-334.459"/>
<polygon fill="black" stroke="black" points="286.463,-334.852 284.579,-324.426 279.55,-333.752 286.463,-334.852"/>
</g>
<!-- 42&#45;&gt;20 -->
<g id="edge63" class="edge"><title>42&#45;&gt;20</title>
<path fill="none" stroke="black" d="M1711.96,-662.321C1391.21,-656.621 704.286,-641.349 468.614,-612 280.559,-588.581 51.614,-712.507 51.614,-523 51.614,-523 51.614,-523 51.614,-377 51.614,-293.665 147.357,-259.168 230.667,-244.925"/>
<polygon fill="black" stroke="black" points="231.448,-248.344 240.757,-243.287 230.326,-241.435 231.448,-248.344"/>
</g>
<!-- 42&#45;&gt;28 -->
<g id="edge64" class="edge"><title>42&#45;&gt;28</title>
<path fill="none" stroke="black" d="M2051.01,-663.214C2578.22,-656.575 4147.61,-627.995 4147.61,-523 4147.61,-523 4147.61,-523 4147.61,-377 4147.61,-332.482 4175.39,-287.293 4195.7,-260.205"/>
<polygon fill="black" stroke="black" points="4198.64,-262.123 4201.98,-252.07 4193.1,-257.843 4198.64,-262.123"/>
</g>
<!-- 42&#45;&gt;34 -->
<g id="edge58" class="edge"><title>42&#45;&gt;34</title>
<path fill="none" stroke="black" d="M1793.71,-650.459C1564.24,-612.064 943.106,-508.138 700.549,-467.554"/>
<polygon fill="black" stroke="black" points="700.774,-464.043 690.334,-465.844 699.619,-470.947 700.774,-464.043"/>
</g>
<!-- 42&#45;&gt;35 -->
<g id="edge59" class="edge"><title>42&#45;&gt;35</title>
<path fill="none" stroke="black" d="M2052.01,-664.163C2436.48,-661.61 3396.93,-651.469 4199.61,-612 4222.21,-610.889 4246.06,-609.414 4269.45,-607.796"/>
<polygon fill="black" stroke="black" points="4269.71,-611.286 4279.44,-607.094 4269.22,-604.304 4269.71,-611.286"/>
</g>
<!-- 42&#45;&gt;41 -->
<g id="edge61" class="edge"><title>42&#45;&gt;41</title>
<path fill="none" stroke="black" d="M2052.26,-664.111C2566.21,-661.041 4063.46,-648.958 4161.61,-612 4184.94,-603.217 4182.16,-586.812 4204.61,-576 4242.52,-557.749 4286.46,-545.776 4327.35,-537.925"/>
<polygon fill="black" stroke="black" points="4328.2,-541.327 4337.4,-536.065 4326.93,-534.444 4328.2,-541.327"/>
</g>
<!-- 43 -->
<g id="node44" class="node"><title>43</title>
<ellipse fill="paleturquoise" stroke="paleturquoise" cx="1880.61" cy="-594" rx="151.73" ry="18"/>
<text text-anchor="middle" x="1880.61" y="-589.8" font-family="Times,serif" font-size="14.00">github.com/openshift/origin/pkg/util</text>
</g>
<!-- 42&#45;&gt;43 -->
<g id="edge60" class="edge"><title>42&#45;&gt;43</title>
<path fill="none" stroke="black" d="M1880.61,-647.697C1880.61,-639.983 1880.61,-630.712 1880.61,-622.112"/>
<polygon fill="black" stroke="black" points="1884.11,-622.104 1880.61,-612.104 1877.11,-622.104 1884.11,-622.104"/>
</g>
<!-- 43&#45;&gt;10 -->
<g id="edge71" class="edge"><title>43&#45;&gt;10</title>
<path fill="none" stroke="black" d="M1804.22,-578.359C1768.84,-569.894 1726.92,-557.406 1691.61,-540 1616.06,-502.747 1540.07,-437.898 1501.89,-402.951"/>
<polygon fill="black" stroke="black" points="1504.05,-400.182 1494.33,-395.968 1499.3,-405.324 1504.05,-400.182"/>
</g>
<!-- 43&#45;&gt;13 -->
<g id="edge73" class="edge"><title>43&#45;&gt;13</title>
<path fill="none" stroke="black" d="M1738.51,-587.628C1391.35,-573.563 520.086,-532.246 405.614,-468 351.379,-437.561 315.195,-370.678 298.406,-333.406"/>
<polygon fill="black" stroke="black" points="301.582,-331.932 294.371,-324.17 295.168,-334.735 301.582,-331.932"/>
</g>
<!-- 43&#45;&gt;19 -->
<g id="edge74" class="edge"><title>43&#45;&gt;19</title>
<path fill="none" stroke="black" d="M1970.38,-579.363C2003.43,-571.47 2039.99,-559.142 2069.61,-540 2154.76,-484.981 2221.96,-381.252 2250.18,-332.959"/>
<polygon fill="black" stroke="black" points="2253.34,-334.483 2255.29,-324.07 2247.27,-330.991 2253.34,-334.483"/>
</g>
<!-- 43&#45;&gt;20 -->
<g id="edge75" class="edge"><title>43&#45;&gt;20</title>
<path fill="none" stroke="black" d="M1729.01,-592.584C1431.49,-590.834 781.053,-582.14 561.614,-540 352.753,-499.891 207.015,-523.974 134.614,-324 129.167,-308.956 124.733,-300.585 134.614,-288 149.234,-269.38 199.264,-256.466 247.604,-248.05"/>
<polygon fill="black" stroke="black" points="248.279,-251.485 257.559,-246.374 247.117,-244.583 248.279,-251.485"/>
</g>
<!-- 43&#45;&gt;28 -->
<g id="edge76" class="edge"><title>43&#45;&gt;28</title>
<path fill="none" stroke="black" d="M2030.76,-591.3C2531.01,-584.657 4109.61,-555.424 4109.61,-451 4109.61,-451 4109.61,-451 4109.61,-377 4109.61,-336.031 4109.38,-321.032 4133.61,-288 4142.99,-275.222 4156.46,-264.749 4169.82,-256.587"/>
<polygon fill="black" stroke="black" points="4171.64,-259.583 4178.55,-251.556 4168.14,-253.518 4171.64,-259.583"/>
</g>
<!-- 43&#45;&gt;36 -->
<g id="edge70" class="edge"><title>43&#45;&gt;36</title>
<path fill="none" stroke="black" d="M1880.61,-575.697C1880.61,-567.983 1880.61,-558.712 1880.61,-550.112"/>
<polygon fill="black" stroke="black" points="1884.11,-550.104 1880.61,-540.104 1877.11,-550.104 1884.11,-550.104"/>
</g>
<!-- 43&#45;&gt;40 -->
<g id="edge72" class="edge"><title>43&#45;&gt;40</title>
<path fill="none" stroke="black" d="M1986.99,-581.15C2056.99,-572.32 2150.36,-558.579 2231.61,-540 2405.43,-500.257 2605.48,-431.852 2699.09,-398.468"/>
<polygon fill="black" stroke="black" points="2700.38,-401.722 2708.62,-395.058 2698.03,-395.131 2700.38,-401.722"/>
</g>
</g>
</svg>
