<?xml version="1.0" encoding="UTF-8" standalone="no"?>
<!DOCTYPE svg PUBLIC "-//W3C//DTD SVG 1.1//EN"
 "http://www.w3.org/Graphics/SVG/1.1/DTD/svg11.dtd">
<!-- Generated by graphviz version 2.38.0 (20140413.2041)
 -->
<!-- Title: godep Pages: 1 -->
<svg width="6954pt" height="836pt"
 viewBox="0.00 0.00 6954.04 836.00" xmlns="http://www.w3.org/2000/svg" xmlns:xlink="http://www.w3.org/1999/xlink">
<g id="graph0" class="graph" transform="scale(1 1) rotate(0) translate(4 832)">
<title>godep</title>
<polygon fill="white" stroke="none" points="-4,4 -4,-832 6950.04,-832 6950.04,4 -4,4"/>
<!-- 0 -->
<g id="node1" class="node"><title>0</title>
<ellipse fill="paleturquoise" stroke="paleturquoise" cx="4531" cy="-378" rx="151.084" ry="18"/>
<text text-anchor="middle" x="4531" y="-373.8" font-family="Times,serif" font-size="14.00">k8s.io/kubernetes/pkg/api/registered</text>
</g>
<!-- 1 -->
<g id="node2" class="node"><title>1</title>
<ellipse fill="paleturquoise" stroke="paleturquoise" cx="764" cy="-90" rx="103.66" ry="18"/>
<text text-anchor="middle" x="764" y="-85.8" font-family="Times,serif" font-size="14.00">github.com/golang/glog</text>
</g>
<!-- 0&#45;&gt;1 -->
<g id="edge1" class="edge"><title>0&#45;&gt;1</title>
<path fill="none" stroke="black" d="M4486.14,-360.728C4463.35,-351.516 4435.75,-338.863 4413,-324 4400.52,-315.846 4227.87,-149.465 4214,-144 4134.66,-112.738 1465.14,-95.1481 877.615,-91.6504"/>
<polygon fill="black" stroke="black" points="877.465,-88.1495 867.444,-91.59 877.423,-95.1494 877.465,-88.1495"/>
</g>
<!-- 2 -->
<g id="node3" class="node"><title>2</title>
<ellipse fill="paleturquoise" stroke="paleturquoise" cx="4548" cy="-306" rx="126.204" ry="18"/>
<text text-anchor="middle" x="4548" y="-301.8" font-family="Times,serif" font-size="14.00">k8s.io/kubernetes/pkg/api/util</text>
</g>
<!-- 0&#45;&gt;2 -->
<g id="edge2" class="edge"><title>0&#45;&gt;2</title>
<path fill="none" stroke="black" d="M4535.2,-359.697C4537.1,-351.898 4539.38,-342.509 4541.48,-333.829"/>
<polygon fill="black" stroke="black" points="4544.89,-334.648 4543.85,-324.104 4538.08,-332.996 4544.89,-334.648"/>
</g>
<!-- 3 -->
<g id="node4" class="node"><title>3</title>
<ellipse fill="paleturquoise" stroke="paleturquoise" cx="2206" cy="-234" rx="102.493" ry="18"/>
<text text-anchor="middle" x="2206" y="-229.8" font-family="Times,serif" font-size="14.00">golang.org/x/crypto/ssh</text>
</g>
<!-- 4 -->
<g id="node5" class="node"><title>4</title>
<ellipse fill="paleturquoise" stroke="paleturquoise" cx="1407" cy="-738" rx="144.704" ry="18"/>
<text text-anchor="middle" x="1407" y="-733.8" font-family="Times,serif" font-size="14.00">k8s.io/kubernetes/pkg/client/cache</text>
</g>
<!-- 4&#45;&gt;1 -->
<g id="edge3" class="edge"><title>4&#45;&gt;1</title>
<path fill="none" stroke="black" d="M1273.55,-730.912C1162.81,-724.211 1001.62,-710.635 863,-684 477.718,-609.968 245,-668.353 57,-324 9.46,-236.923 138.866,-214.161 387,-144 476.781,-118.614 582.179,-105.109 658.672,-98.1017"/>
<polygon fill="black" stroke="black" points="659.148,-101.573 668.796,-97.1966 658.524,-94.601 659.148,-101.573"/>
</g>
<!-- 5 -->
<g id="node6" class="node"><title>5</title>
<ellipse fill="paleturquoise" stroke="paleturquoise" cx="3383" cy="-378" rx="110.578" ry="18"/>
<text text-anchor="middle" x="3383" y="-373.8" font-family="Times,serif" font-size="14.00">k8s.io/kubernetes/pkg/api</text>
</g>
<!-- 4&#45;&gt;5 -->
<g id="edge4" class="edge"><title>4&#45;&gt;5</title>
<path fill="none" stroke="black" d="M1415.67,-719.983C1425.82,-701.064 1443.97,-670.247 1465,-648 1546.05,-562.27 1575.22,-538.651 1688,-504 1983.04,-413.347 2927.85,-387.38 3263.39,-380.916"/>
<polygon fill="black" stroke="black" points="3263.68,-384.411 3273.62,-380.721 3263.55,-377.412 3263.68,-384.411"/>
</g>
<!-- 6 -->
<g id="node7" class="node"><title>6</title>
<ellipse fill="paleturquoise" stroke="paleturquoise" cx="1044" cy="-378" rx="135.976" ry="18"/>
<text text-anchor="middle" x="1044" y="-373.8" font-family="Times,serif" font-size="14.00">k8s.io/kubernetes/pkg/api/errors</text>
</g>
<!-- 4&#45;&gt;6 -->
<g id="edge5" class="edge"><title>4&#45;&gt;6</title>
<path fill="none" stroke="black" d="M1300.93,-725.715C1254.82,-718.036 1201.14,-705.237 1156,-684 1098.47,-656.931 1044,-658.58 1044,-595 1044,-595 1044,-595 1044,-521 1044,-480.996 1044,-434.653 1044,-406.08"/>
<polygon fill="black" stroke="black" points="1047.5,-406.049 1044,-396.049 1040.5,-406.049 1047.5,-406.049"/>
</g>
<!-- 7 -->
<g id="node8" class="node"><title>7</title>
<ellipse fill="paleturquoise" stroke="paleturquoise" cx="4862" cy="-306" rx="131.983" ry="18"/>
<text text-anchor="middle" x="4862" y="-301.8" font-family="Times,serif" font-size="14.00">k8s.io/kubernetes/pkg/api/meta</text>
</g>
<!-- 4&#45;&gt;7 -->
<g id="edge6" class="edge"><title>4&#45;&gt;7</title>
<path fill="none" stroke="black" d="M1549.83,-734.984C2232.06,-725.024 5128.61,-678.849 5193,-612 5302.41,-498.413 5033.57,-374.354 4914.89,-326.935"/>
<polygon fill="black" stroke="black" points="4915.84,-323.544 4905.25,-323.119 4913.26,-330.053 4915.84,-323.544"/>
</g>
<!-- 8 -->
<g id="node9" class="node"><title>8</title>
<ellipse fill="paleturquoise" stroke="paleturquoise" cx="3178" cy="-450" rx="157.988" ry="18"/>
<text text-anchor="middle" x="3178" y="-445.8" font-family="Times,serif" font-size="14.00">k8s.io/kubernetes/pkg/apis/extensions</text>
</g>
<!-- 4&#45;&gt;8 -->
<g id="edge7" class="edge"><title>4&#45;&gt;8</title>
<path fill="none" stroke="black" d="M1425.59,-720.038C1476.84,-674.525 1626.36,-550.045 1777,-504 1892.11,-468.816 2665.73,-456.361 3011.54,-452.517"/>
<polygon fill="black" stroke="black" points="3011.68,-456.016 3021.64,-452.406 3011.6,-449.016 3011.68,-456.016"/>
</g>
<!-- 9 -->
<g id="node10" class="node"><title>9</title>
<ellipse fill="paleturquoise" stroke="paleturquoise" cx="3093" cy="-666" rx="170.15" ry="18"/>
<text text-anchor="middle" x="3093" y="-661.8" font-family="Times,serif" font-size="14.00">k8s.io/kubernetes/pkg/client/unversioned</text>
</g>
<!-- 4&#45;&gt;9 -->
<g id="edge8" class="edge"><title>4&#45;&gt;9</title>
<path fill="none" stroke="black" d="M1542.12,-731.39C1848.39,-718.674 2594.57,-687.694 2927.68,-673.864"/>
<polygon fill="black" stroke="black" points="2928.05,-677.351 2937.9,-673.439 2927.76,-670.357 2928.05,-677.351"/>
</g>
<!-- 10 -->
<g id="node11" class="node"><title>10</title>
<ellipse fill="paleturquoise" stroke="paleturquoise" cx="186" cy="-306" rx="120.386" ry="18"/>
<text text-anchor="middle" x="186" y="-301.8" font-family="Times,serif" font-size="14.00">k8s.io/kubernetes/pkg/fields</text>
</g>
<!-- 4&#45;&gt;10 -->
<g id="edge9" class="edge"><title>4&#45;&gt;10</title>
<path fill="none" stroke="black" d="M1292.39,-726.93C1214.38,-718.726 1109.16,-705.01 1018,-684 718.477,-614.966 640.752,-595.353 361,-468 304.046,-442.072 284.439,-440.059 240,-396 221.664,-377.821 206.976,-352.215 197.575,-333.132"/>
<polygon fill="black" stroke="black" points="200.728,-331.612 193.27,-324.086 194.407,-334.62 200.728,-331.612"/>
</g>
<!-- 11 -->
<g id="node12" class="node"><title>11</title>
<ellipse fill="paleturquoise" stroke="paleturquoise" cx="1238" cy="-306" rx="121.03" ry="18"/>
<text text-anchor="middle" x="1238" y="-301.8" font-family="Times,serif" font-size="14.00">k8s.io/kubernetes/pkg/labels</text>
</g>
<!-- 4&#45;&gt;11 -->
<g id="edge10" class="edge"><title>4&#45;&gt;11</title>
<path fill="none" stroke="black" d="M1282.94,-728.708C1200.98,-721.162 1102.53,-707.504 1068,-684 945.312,-600.494 937.917,-539.217 899,-396 894.804,-380.56 888.597,-372.156 899,-360 926.123,-328.306 1025.04,-315.428 1109.07,-310.264"/>
<polygon fill="black" stroke="black" points="1109.46,-313.747 1119.24,-309.672 1109.05,-306.759 1109.46,-313.747"/>
</g>
<!-- 12 -->
<g id="node13" class="node"><title>12</title>
<ellipse fill="paleturquoise" stroke="paleturquoise" cx="4695" cy="-234" rx="128.556" ry="18"/>
<text text-anchor="middle" x="4695" y="-229.8" font-family="Times,serif" font-size="14.00">k8s.io/kubernetes/pkg/runtime</text>
</g>
<!-- 4&#45;&gt;12 -->
<g id="edge11" class="edge"><title>4&#45;&gt;12</title>
<path fill="none" stroke="black" d="M1551.18,-735.949C2074.91,-731.903 3876.09,-715.942 4451,-684 4686.59,-670.91 5358.02,-726.163 5503,-540 5685.12,-306.148 5104.18,-251.588 4830.04,-238.865"/>
<polygon fill="black" stroke="black" points="4830.17,-235.368 4820.02,-238.413 4829.85,-242.36 4830.17,-235.368"/>
</g>
<!-- 13 -->
<g id="node14" class="node"><title>13</title>
<ellipse fill="paleturquoise" stroke="paleturquoise" cx="1974" cy="-306" rx="111.739" ry="18"/>
<text text-anchor="middle" x="1974" y="-301.8" font-family="Times,serif" font-size="14.00">k8s.io/kubernetes/pkg/util</text>
</g>
<!-- 4&#45;&gt;13 -->
<g id="edge12" class="edge"><title>4&#45;&gt;13</title>
<path fill="none" stroke="black" d="M1409.94,-719.73C1413.62,-701.131 1421.06,-671.103 1434,-648 1454.92,-610.646 1466.79,-605.312 1498,-576 1535.85,-540.452 1545.26,-530.353 1590,-504 1643.02,-472.766 1791.06,-425.627 1845,-396 1880.78,-376.346 1918.93,-349.159 1944.38,-330.019"/>
<polygon fill="black" stroke="black" points="1946.65,-332.691 1952.51,-323.86 1942.42,-327.113 1946.65,-332.691"/>
</g>
<!-- 14 -->
<g id="node15" class="node"><title>14</title>
<ellipse fill="paleturquoise" stroke="paleturquoise" cx="2361" cy="-162" rx="128.57" ry="18"/>
<text text-anchor="middle" x="2361" y="-157.8" font-family="Times,serif" font-size="14.00">k8s.io/kubernetes/pkg/util/sets</text>
</g>
<!-- 4&#45;&gt;14 -->
<g id="edge13" class="edge"><title>4&#45;&gt;14</title>
<path fill="none" stroke="black" d="M1326.1,-723.014C1257.44,-705.955 1170,-669.587 1170,-595 1170,-595 1170,-595 1170,-521 1170,-403.746 1279.4,-421.878 1379,-360 1502.59,-283.217 1532.63,-254.271 1673,-216 1725.49,-201.689 2049.92,-181.001 2233.92,-170.192"/>
<polygon fill="black" stroke="black" points="2234.15,-173.685 2243.93,-169.606 2233.74,-166.697 2234.15,-173.685"/>
</g>
<!-- 15 -->
<g id="node16" class="node"><title>15</title>
<ellipse fill="paleturquoise" stroke="paleturquoise" cx="1908" cy="-522" rx="121.594" ry="18"/>
<text text-anchor="middle" x="1908" y="-517.8" font-family="Times,serif" font-size="14.00">k8s.io/kubernetes/pkg/watch</text>
</g>
<!-- 4&#45;&gt;15 -->
<g id="edge14" class="edge"><title>4&#45;&gt;15</title>
<path fill="none" stroke="black" d="M1489.17,-723.135C1523.43,-715.046 1562.69,-702.64 1595,-684 1654.62,-649.606 1646.07,-609.851 1706,-576 1738.9,-557.42 1778.48,-545.184 1813.86,-537.207"/>
<polygon fill="black" stroke="black" points="1814.68,-540.609 1823.71,-535.068 1813.2,-533.768 1814.68,-540.609"/>
</g>
<!-- 5&#45;&gt;7 -->
<g id="edge191" class="edge"><title>5&#45;&gt;7</title>
<path fill="none" stroke="black" d="M3491.82,-374.546C3715.26,-369.072 4241.85,-353.919 4683,-324 4704.88,-322.516 4728.22,-320.567 4750.59,-318.519"/>
<polygon fill="black" stroke="black" points="4751.15,-321.982 4760.79,-317.573 4750.51,-315.012 4751.15,-321.982"/>
</g>
<!-- 5&#45;&gt;10 -->
<g id="edge196" class="edge"><title>5&#45;&gt;10</title>
<path fill="none" stroke="black" d="M3272.75,-376.009C2803.28,-371.641 968.406,-353.024 391,-324 359.54,-322.419 325.423,-319.909 294.214,-317.298"/>
<polygon fill="black" stroke="black" points="294.451,-313.806 284.191,-316.448 293.859,-320.781 294.451,-313.806"/>
</g>
<!-- 5&#45;&gt;11 -->
<g id="edge197" class="edge"><title>5&#45;&gt;11</title>
<path fill="none" stroke="black" d="M3275.9,-373.505C2916.27,-361.769 1752.82,-323.801 1365.07,-311.147"/>
<polygon fill="black" stroke="black" points="1365.05,-307.644 1354.94,-310.816 1364.82,-314.641 1365.05,-307.644"/>
</g>
<!-- 5&#45;&gt;12 -->
<g id="edge198" class="edge"><title>5&#45;&gt;12</title>
<path fill="none" stroke="black" d="M3421.95,-361.119C3443.38,-351.64 3470.01,-338.617 3492,-324 3512.2,-310.578 3510.51,-297.064 3533,-288 3556.58,-278.499 4262.25,-251.144 4562.19,-239.908"/>
<polygon fill="black" stroke="black" points="4562.39,-243.403 4572.25,-239.531 4562.13,-236.408 4562.39,-243.403"/>
</g>
<!-- 5&#45;&gt;13 -->
<g id="edge200" class="edge"><title>5&#45;&gt;13</title>
<path fill="none" stroke="black" d="M3277.7,-372.455C2987.96,-359.94 2198.44,-325.783 2171,-324 2140.68,-322.03 2107.79,-319.391 2077.72,-316.78"/>
<polygon fill="black" stroke="black" points="2077.9,-313.283 2067.63,-315.897 2077.29,-320.256 2077.9,-313.283"/>
</g>
<!-- 5&#45;&gt;14 -->
<g id="edge202" class="edge"><title>5&#45;&gt;14</title>
<path fill="none" stroke="black" d="M3303.51,-365.397C3287.79,-363.375 3271.39,-361.456 3256,-360 3184.32,-353.219 2658.48,-376.307 2609,-324 2436.91,-142.073 3333.13,-398.827 3162,-216 3117.88,-168.863 2717.93,-162.197 2500.41,-162.109"/>
<polygon fill="black" stroke="black" points="2500.19,-158.609 2490.19,-162.11 2500.19,-165.609 2500.19,-158.609"/>
</g>
<!-- 23 -->
<g id="node24" class="node"><title>23</title>
<ellipse fill="paleturquoise" stroke="paleturquoise" cx="4693" cy="-162" rx="141.22" ry="18"/>
<text text-anchor="middle" x="4693" y="-157.8" font-family="Times,serif" font-size="14.00">k8s.io/kubernetes/pkg/conversion</text>
</g>
<!-- 5&#45;&gt;23 -->
<g id="edge195" class="edge"><title>5&#45;&gt;23</title>
<path fill="none" stroke="black" d="M3394.78,-359.867C3410.63,-337.163 3438.42,-298.721 3452,-288 3512.89,-239.933 3535.5,-233.829 3611,-216 3812.72,-168.364 4336.33,-195.681 4543,-180 4556.77,-178.955 4571.23,-177.62 4585.52,-176.158"/>
<polygon fill="black" stroke="black" points="4586.29,-179.596 4595.87,-175.073 4585.56,-172.634 4586.29,-179.596"/>
</g>
<!-- 37 -->
<g id="node38" class="node"><title>37</title>
<ellipse fill="paleturquoise" stroke="paleturquoise" cx="3739" cy="-234" rx="119.246" ry="18"/>
<text text-anchor="middle" x="3739" y="-229.8" font-family="Times,serif" font-size="14.00">k8s.io/kubernetes/pkg/types</text>
</g>
<!-- 5&#45;&gt;37 -->
<g id="edge199" class="edge"><title>5&#45;&gt;37</title>
<path fill="none" stroke="black" d="M3304.09,-365.312C3288.82,-363.321 3272.93,-361.437 3258,-360 3116.64,-346.401 2524.99,-390.774 2623,-288 2639.9,-270.28 3324.84,-247.529 3613.15,-238.717"/>
<polygon fill="black" stroke="black" points="3613.35,-242.212 3623.24,-238.409 3613.14,-235.216 3613.35,-242.212"/>
</g>
<!-- 38 -->
<g id="node39" class="node"><title>38</title>
<ellipse fill="paleturquoise" stroke="paleturquoise" cx="3279" cy="-306" rx="131.423" ry="18"/>
<text text-anchor="middle" x="3279" y="-301.8" font-family="Times,serif" font-size="14.00">k8s.io/kubernetes/pkg/util/rand</text>
</g>
<!-- 5&#45;&gt;38 -->
<g id="edge201" class="edge"><title>5&#45;&gt;38</title>
<path fill="none" stroke="black" d="M3358.35,-360.411C3344.6,-351.151 3327.27,-339.487 3312.31,-329.423"/>
<polygon fill="black" stroke="black" points="3314.08,-326.393 3303.83,-323.713 3310.17,-332.2 3314.08,-326.393"/>
</g>
<!-- 42 -->
<g id="node43" class="node"><title>42</title>
<ellipse fill="paleturquoise" stroke="paleturquoise" cx="2340" cy="-306" rx="160.342" ry="18"/>
<text text-anchor="middle" x="2340" y="-301.8" font-family="Times,serif" font-size="14.00">k8s.io/kubernetes/pkg/api/unversioned</text>
</g>
<!-- 5&#45;&gt;42 -->
<g id="edge193" class="edge"><title>5&#45;&gt;42</title>
<path fill="none" stroke="black" d="M3304.44,-365.256C3289.07,-363.258 3273.05,-361.385 3258,-360 2928.34,-329.665 2844.17,-348.103 2514,-324 2497.43,-322.79 2479.98,-321.32 2462.8,-319.756"/>
<polygon fill="black" stroke="black" points="2463,-316.26 2452.72,-318.826 2462.35,-323.231 2463,-316.26"/>
</g>
<!-- 50 -->
<g id="node51" class="node"><title>50</title>
<ellipse fill="paleturquoise" stroke="paleturquoise" cx="4043" cy="-234" rx="128.529" ry="18"/>
<text text-anchor="middle" x="4043" y="-229.8" font-family="Times,serif" font-size="14.00">speter.net/go/exp/math/dec/inf</text>
</g>
<!-- 5&#45;&gt;50 -->
<g id="edge203" class="edge"><title>5&#45;&gt;50</title>
<path fill="none" stroke="black" d="M3404.96,-360.176C3438.46,-334.528 3498.63,-288.537 3500,-288 3501.25,-287.512 3771.52,-261.283 3930.23,-245.912"/>
<polygon fill="black" stroke="black" points="3930.91,-249.363 3940.52,-244.915 3930.23,-242.395 3930.91,-249.363"/>
</g>
<!-- 55 -->
<g id="node56" class="node"><title>55</title>
<ellipse fill="paleturquoise" stroke="paleturquoise" cx="1858" cy="-162" rx="147.581" ry="18"/>
<text text-anchor="middle" x="1858" y="-157.8" font-family="Times,serif" font-size="14.00">github.com/davecgh/go&#45;spew/spew</text>
</g>
<!-- 5&#45;&gt;55 -->
<g id="edge189" class="edge"><title>5&#45;&gt;55</title>
<path fill="none" stroke="black" d="M3303.85,-365.415C3288.02,-363.379 3271.5,-361.451 3256,-360 3181.55,-353.034 2635.44,-378.269 2584,-324 2436.85,-168.757 3200.94,-370.492 3053,-216 3021.08,-182.664 2269.11,-182.074 2223,-180 2150.52,-176.74 2069.94,-173 2002.97,-169.859"/>
<polygon fill="black" stroke="black" points="2002.92,-166.353 1992.77,-169.38 2002.59,-173.345 2002.92,-166.353"/>
</g>
<!-- 60 -->
<g id="node61" class="node"><title>60</title>
<ellipse fill="paleturquoise" stroke="paleturquoise" cx="3688" cy="-306" rx="145.849" ry="18"/>
<text text-anchor="middle" x="3688" y="-301.8" font-family="Times,serif" font-size="14.00">k8s.io/kubernetes/pkg/api/resource</text>
</g>
<!-- 5&#45;&gt;60 -->
<g id="edge192" class="edge"><title>5&#45;&gt;60</title>
<path fill="none" stroke="black" d="M3444.35,-362.919C3492.81,-351.798 3560.66,-336.227 3612.45,-324.339"/>
<polygon fill="black" stroke="black" points="3613.29,-327.737 3622.26,-322.089 3611.73,-320.914 3613.29,-327.737"/>
</g>
<!-- 63 -->
<g id="node64" class="node"><title>63</title>
<ellipse fill="paleturquoise" stroke="paleturquoise" cx="2766" cy="-306" rx="134.273" ry="18"/>
<text text-anchor="middle" x="2766" y="-301.8" font-family="Times,serif" font-size="14.00">k8s.io/kubernetes/pkg/auth/user</text>
</g>
<!-- 5&#45;&gt;63 -->
<g id="edge194" class="edge"><title>5&#45;&gt;63</title>
<path fill="none" stroke="black" d="M3302.36,-365.643C3287.61,-363.677 3272.35,-361.716 3258,-360 3103.17,-341.491 3063.98,-341.205 2909,-324 2897.04,-322.672 2884.52,-321.243 2872.08,-319.797"/>
<polygon fill="black" stroke="black" points="2872.47,-316.318 2862.13,-318.635 2871.65,-323.271 2872.47,-316.318"/>
</g>
<!-- 65 -->
<g id="node66" class="node"><title>65</title>
<ellipse fill="paleturquoise" stroke="paleturquoise" cx="3024" cy="-306" rx="105.923" ry="18"/>
<text text-anchor="middle" x="3024" y="-301.8" font-family="Times,serif" font-size="14.00">golang.org/x/net/context</text>
</g>
<!-- 5&#45;&gt;65 -->
<g id="edge190" class="edge"><title>5&#45;&gt;65</title>
<path fill="none" stroke="black" d="M3315.05,-363.751C3253.98,-351.843 3164.37,-334.37 3100.74,-321.963"/>
<polygon fill="black" stroke="black" points="3101.24,-318.495 3090.76,-320.017 3099.9,-325.366 3101.24,-318.495"/>
</g>
<!-- 6&#45;&gt;12 -->
<g id="edge181" class="edge"><title>6&#45;&gt;12</title>
<path fill="none" stroke="black" d="M1133.25,-364.4C1282.07,-344.015 1590.52,-304.431 1853,-288 2885.77,-223.35 3146.51,-277.104 4181,-252 4310.57,-248.856 4458.47,-243.811 4562.25,-240.032"/>
<polygon fill="black" stroke="black" points="4562.6,-243.522 4572.47,-239.659 4562.35,-236.526 4562.6,-243.522"/>
</g>
<!-- 22 -->
<g id="node23" class="node"><title>22</title>
<ellipse fill="paleturquoise" stroke="paleturquoise" cx="929" cy="-162" rx="136.637" ry="18"/>
<text text-anchor="middle" x="929" y="-157.8" font-family="Times,serif" font-size="14.00">k8s.io/kubernetes/pkg/util/errors</text>
</g>
<!-- 6&#45;&gt;22 -->
<g id="edge182" class="edge"><title>6&#45;&gt;22</title>
<path fill="none" stroke="black" d="M998.574,-360.904C953.9,-342.345 888.276,-307.114 859,-252 851.494,-237.87 851.877,-230.327 859,-216 865.165,-203.6 875.769,-193.327 886.885,-185.232"/>
<polygon fill="black" stroke="black" points="889.093,-187.965 895.421,-179.468 885.175,-182.164 889.093,-187.965"/>
</g>
<!-- 6&#45;&gt;42 -->
<g id="edge180" class="edge"><title>6&#45;&gt;42</title>
<path fill="none" stroke="black" d="M1168.09,-370.689C1231.24,-367.481 1309.21,-363.525 1379,-360 1697.22,-343.926 1776.94,-343.029 2095,-324 2128.89,-321.972 2165.41,-319.561 2199.64,-317.201"/>
<polygon fill="black" stroke="black" points="2199.97,-320.686 2209.7,-316.504 2199.48,-313.703 2199.97,-320.686"/>
</g>
<!-- 51 -->
<g id="node52" class="node"><title>51</title>
<ellipse fill="paleturquoise" stroke="paleturquoise" cx="1023" cy="-234" rx="154.531" ry="18"/>
<text text-anchor="middle" x="1023" y="-229.8" font-family="Times,serif" font-size="14.00">k8s.io/kubernetes/pkg/util/fielderrors</text>
</g>
<!-- 6&#45;&gt;51 -->
<g id="edge183" class="edge"><title>6&#45;&gt;51</title>
<path fill="none" stroke="black" d="M1041.47,-359.871C1037.89,-335.67 1031.31,-291.211 1027.05,-262.393"/>
<polygon fill="black" stroke="black" points="1030.47,-261.57 1025.54,-252.189 1023.54,-262.594 1030.47,-261.57"/>
</g>
<!-- 7&#45;&gt;12 -->
<g id="edge68" class="edge"><title>7&#45;&gt;12</title>
<path fill="none" stroke="black" d="M4823.27,-288.765C4799.43,-278.773 4768.68,-265.884 4743.27,-255.231"/>
<polygon fill="black" stroke="black" points="4744.39,-251.906 4733.81,-251.268 4741.68,-258.362 4744.39,-251.906"/>
</g>
<!-- 7&#45;&gt;23 -->
<g id="edge67" class="edge"><title>7&#45;&gt;23</title>
<path fill="none" stroke="black" d="M4860.76,-287.682C4858.45,-267.909 4851.85,-235.753 4833,-216 4817.68,-199.939 4796.99,-188.695 4776.23,-180.842"/>
<polygon fill="black" stroke="black" points="4777.3,-177.508 4766.7,-177.468 4774.96,-184.106 4777.3,-177.508"/>
</g>
<!-- 7&#45;&gt;37 -->
<g id="edge69" class="edge"><title>7&#45;&gt;37</title>
<path fill="none" stroke="black" d="M4760.31,-294.48C4735.07,-292.107 4708.07,-289.769 4683,-288 4337.71,-263.629 4250.2,-277.642 3905,-252 3884.52,-250.478 3862.65,-248.496 3841.73,-246.424"/>
<polygon fill="black" stroke="black" points="3841.85,-242.918 3831.55,-245.402 3841.15,-249.883 3841.85,-242.918"/>
</g>
<!-- 8&#45;&gt;5 -->
<g id="edge145" class="edge"><title>8&#45;&gt;5</title>
<path fill="none" stroke="black" d="M3225.55,-432.765C3256.1,-422.333 3295.89,-408.744 3327.83,-397.838"/>
<polygon fill="black" stroke="black" points="3329.14,-401.09 3337.47,-394.546 3326.88,-394.465 3329.14,-401.09"/>
</g>
<!-- 8&#45;&gt;11 -->
<g id="edge149" class="edge"><title>8&#45;&gt;11</title>
<path fill="none" stroke="black" d="M3028.7,-444.108C2821.44,-436.749 2434.87,-420.973 2106,-396 1827.85,-374.879 1500.74,-338.093 1339.02,-319.107"/>
<polygon fill="black" stroke="black" points="1339.43,-315.63 1329.09,-317.938 1338.61,-322.583 1339.43,-315.63"/>
</g>
<!-- 8&#45;&gt;13 -->
<g id="edge150" class="edge"><title>8&#45;&gt;13</title>
<path fill="none" stroke="black" d="M3026.81,-444.802C2804.69,-437.864 2401.02,-422.117 2258,-396 2173.61,-380.589 2079.22,-347.732 2023.31,-326.541"/>
<polygon fill="black" stroke="black" points="2024.25,-323.155 2013.66,-322.856 2021.75,-329.694 2024.25,-323.155"/>
</g>
<!-- 8&#45;&gt;14 -->
<g id="edge151" class="edge"><title>8&#45;&gt;14</title>
<path fill="none" stroke="black" d="M3037.19,-441.826C2773.5,-426.926 2226.66,-388.534 2171,-324 2160.55,-311.884 2159.91,-299.534 2171,-288 2241.52,-214.655 3015.48,-325.345 3086,-252 3097.09,-240.466 3096.89,-227.719 3086,-216 3047.04,-174.093 2699.47,-164.963 2500.06,-163.201"/>
<polygon fill="black" stroke="black" points="2499.83,-159.699 2489.8,-163.116 2499.77,-166.699 2499.83,-159.699"/>
</g>
<!-- 8&#45;&gt;23 -->
<g id="edge148" class="edge"><title>8&#45;&gt;23</title>
<path fill="none" stroke="black" d="M3285.58,-436.779C3360.81,-427.506 3463.44,-413.398 3553,-396 3683.36,-370.674 3737,-404 3843,-324 3887.18,-290.659 3857.9,-245.071 3905,-216 3965.42,-178.706 4472.25,-186 4543,-180 4556.45,-178.859 4570.56,-177.49 4584.52,-176.029"/>
<polygon fill="black" stroke="black" points="4585.07,-179.49 4594.64,-174.952 4584.33,-172.53 4585.07,-179.49"/>
</g>
<!-- 8&#45;&gt;42 -->
<g id="edge147" class="edge"><title>8&#45;&gt;42</title>
<path fill="none" stroke="black" d="M3093.81,-434.734C2936.58,-408.092 2599.36,-350.949 2434.56,-323.024"/>
<polygon fill="black" stroke="black" points="2434.89,-319.529 2424.44,-321.309 2433.72,-326.431 2434.89,-319.529"/>
</g>
<!-- 8&#45;&gt;50 -->
<g id="edge152" class="edge"><title>8&#45;&gt;50</title>
<path fill="none" stroke="black" d="M3292.95,-437.651C3427.61,-422.031 3656.08,-388.238 3843,-324 3899.4,-304.617 3961.8,-275.557 4001.66,-255.965"/>
<polygon fill="black" stroke="black" points="4003.38,-259.017 4010.79,-251.446 4000.28,-252.743 4003.38,-259.017"/>
</g>
<!-- 8&#45;&gt;60 -->
<g id="edge146" class="edge"><title>8&#45;&gt;60</title>
<path fill="none" stroke="black" d="M3296.09,-438C3358.6,-430.125 3436.06,-417.075 3503,-396 3503.93,-395.708 3589.92,-354.281 3644.33,-328.057"/>
<polygon fill="black" stroke="black" points="3645.94,-331.164 3653.43,-323.669 3642.9,-324.858 3645.94,-331.164"/>
</g>
<!-- 9&#45;&gt;1 -->
<g id="edge45" class="edge"><title>9&#45;&gt;1</title>
<path fill="none" stroke="black" d="M2923.36,-664.646C2529.96,-663.095 1564.58,-654.893 1243,-612 1192.25,-605.23 378.681,-436.226 347,-396 297.134,-332.684 329.721,-286.376 369,-216 390.011,-178.355 396.122,-164.587 434,-144 472.602,-123.019 581.008,-108.315 663.127,-99.8027"/>
<polygon fill="black" stroke="black" points="663.664,-103.266 673.258,-98.7699 662.954,-96.3022 663.664,-103.266"/>
</g>
<!-- 9&#45;&gt;5 -->
<g id="edge47" class="edge"><title>9&#45;&gt;5</title>
<path fill="none" stroke="black" d="M3124.75,-648.089C3177.63,-618.401 3283.96,-552.007 3345,-468 3358.75,-449.078 3368.78,-424.415 3375.08,-405.852"/>
<polygon fill="black" stroke="black" points="3378.44,-406.833 3378.19,-396.241 3371.78,-404.678 3378.44,-406.833"/>
</g>
<!-- 9&#45;&gt;6 -->
<g id="edge48" class="edge"><title>9&#45;&gt;6</title>
<path fill="none" stroke="black" d="M2923.97,-663.93C2536.37,-660.838 1606.28,-649.559 1469,-612 1386.2,-589.347 1165.43,-454.802 1079.2,-401.108"/>
<polygon fill="black" stroke="black" points="1080.9,-398.044 1070.56,-395.72 1077.19,-403.983 1080.9,-398.044"/>
</g>
<!-- 9&#45;&gt;7 -->
<g id="edge51" class="edge"><title>9&#45;&gt;7</title>
<path fill="none" stroke="black" d="M3263.02,-665.151C3615.72,-664.528 4403.65,-657.934 4517,-612 4539.17,-603.017 4536.4,-588.154 4557,-576 4599.13,-551.145 4615.24,-557.267 4661,-540 4700.54,-525.083 4708.56,-516.243 4749,-504 4826.25,-480.616 4875.9,-530.474 4927,-468 4960.75,-426.744 4916.86,-365.668 4886.49,-331.836"/>
<polygon fill="black" stroke="black" points="4888.85,-329.227 4879.49,-324.249 4883.7,-333.973 4888.85,-329.227"/>
</g>
<!-- 9&#45;&gt;8 -->
<g id="edge54" class="edge"><title>9&#45;&gt;8</title>
<path fill="none" stroke="black" d="M3123.22,-648.164C3136.41,-639.192 3150.74,-626.912 3159,-612 3182.38,-569.789 3182.97,-511.906 3180.8,-478.275"/>
<polygon fill="black" stroke="black" points="3184.29,-477.959 3180.03,-468.258 3177.31,-478.498 3184.29,-477.959"/>
</g>
<!-- 9&#45;&gt;10 -->
<g id="edge58" class="edge"><title>9&#45;&gt;10</title>
<path fill="none" stroke="black" d="M2922.97,-664.74C2521.82,-663.4 1525.28,-655.639 1194,-612 783.593,-557.939 655.984,-585.589 288,-396 271.222,-387.356 235.346,-354.524 210.941,-331.259"/>
<polygon fill="black" stroke="black" points="213.099,-328.479 203.459,-324.084 208.254,-333.532 213.099,-328.479"/>
</g>
<!-- 9&#45;&gt;11 -->
<g id="edge59" class="edge"><title>9&#45;&gt;11</title>
<path fill="none" stroke="black" d="M2926.16,-662.394C2575.2,-656.395 1782.96,-639.934 1663,-612 1510.32,-576.445 1461.22,-568.62 1341,-468 1296.3,-430.589 1264.45,-368.715 1248.86,-333.564"/>
<polygon fill="black" stroke="black" points="1251.9,-331.776 1244.72,-323.984 1245.47,-334.553 1251.9,-331.776"/>
</g>
<!-- 9&#45;&gt;12 -->
<g id="edge60" class="edge"><title>9&#45;&gt;12</title>
<path fill="none" stroke="black" d="M3261.86,-663.506C3754.21,-658.795 5156.01,-642.711 5193,-612 5224.12,-586.165 5212,-563.447 5212,-523 5212,-523 5212,-523 5212,-377 5212,-325.272 5182.52,-312.57 5137,-288 5085.1,-259.989 4938.01,-246.539 4827.65,-240.245"/>
<polygon fill="black" stroke="black" points="4827.61,-236.737 4817.43,-239.676 4827.22,-243.726 4827.61,-236.737"/>
</g>
<!-- 9&#45;&gt;13 -->
<g id="edge61" class="edge"><title>9&#45;&gt;13</title>
<path fill="none" stroke="black" d="M2922.78,-665.327C2721.16,-663.715 2398.45,-654.276 2286,-612 2141.04,-557.502 2028.63,-395.525 1989.23,-332.496"/>
<polygon fill="black" stroke="black" points="1992.18,-330.613 1983.95,-323.939 1986.22,-334.288 1992.18,-330.613"/>
</g>
<!-- 9&#45;&gt;14 -->
<g id="edge62" class="edge"><title>9&#45;&gt;14</title>
<path fill="none" stroke="black" d="M2924.84,-663.256C2658.25,-659.44 2150.71,-647.613 1974,-612 1882.62,-593.584 1830.42,-616.397 1777,-540 1763.56,-520.784 1702.79,-316.002 1802,-216 1817.09,-200.785 2075.33,-181.458 2235.47,-170.852"/>
<polygon fill="black" stroke="black" points="2236.12,-174.317 2245.87,-170.166 2235.66,-167.332 2236.12,-174.317"/>
</g>
<!-- 9&#45;&gt;15 -->
<g id="edge65" class="edge"><title>9&#45;&gt;15</title>
<path fill="none" stroke="black" d="M2928.35,-661.408C2654.08,-654.721 2125.57,-638.577 2044,-612 2001.88,-598.275 1960.27,-567.908 1934.38,-546.475"/>
<polygon fill="black" stroke="black" points="1936.45,-543.64 1926.55,-539.863 1931.94,-548.988 1936.45,-543.64"/>
</g>
<!-- 25 -->
<g id="node26" class="node"><title>25</title>
<ellipse fill="paleturquoise" stroke="paleturquoise" cx="4288" cy="-594" rx="184.066" ry="18"/>
<text text-anchor="middle" x="4288" y="-589.8" font-family="Times,serif" font-size="14.00">k8s.io/kubernetes/pkg/apis/extensions/install</text>
</g>
<!-- 9&#45;&gt;25 -->
<g id="edge55" class="edge"><title>9&#45;&gt;25</title>
<path fill="none" stroke="black" d="M3237.74,-656.522C3461.49,-643.415 3889.98,-618.315 4124.57,-604.573"/>
<polygon fill="black" stroke="black" points="4124.78,-608.067 4134.55,-603.988 4124.37,-601.079 4124.78,-608.067"/>
</g>
<!-- 26 -->
<g id="node27" class="node"><title>26</title>
<ellipse fill="paleturquoise" stroke="paleturquoise" cx="4784" cy="-450" rx="133.705" ry="18"/>
<text text-anchor="middle" x="4784" y="-445.8" font-family="Times,serif" font-size="14.00">k8s.io/kubernetes/pkg/api/latest</text>
</g>
<!-- 9&#45;&gt;26 -->
<g id="edge50" class="edge"><title>9&#45;&gt;26</title>
<path fill="none" stroke="black" d="M3262.86,-664.652C3608.45,-663.053 4370.2,-654.667 4481,-612 4504.26,-603.043 4502.68,-588.915 4524,-576 4559.79,-554.318 4573.03,-557.587 4611,-540 4657.56,-518.434 4709.79,-491.121 4744.56,-472.476"/>
<polygon fill="black" stroke="black" points="4746.29,-475.516 4753.44,-467.696 4742.98,-469.351 4746.29,-475.516"/>
</g>
<!-- 39 -->
<g id="node40" class="node"><title>39</title>
<ellipse fill="paleturquoise" stroke="paleturquoise" cx="534" cy="-378" rx="165.547" ry="18"/>
<text text-anchor="middle" x="534" y="-373.8" font-family="Times,serif" font-size="14.00">github.com/emicklei/go&#45;restful/swagger</text>
</g>
<!-- 9&#45;&gt;39 -->
<g id="edge44" class="edge"><title>9&#45;&gt;39</title>
<path fill="none" stroke="black" d="M2923.05,-664.841C2551.36,-663.659 1676.07,-656.117 1383,-612 1343.19,-606.007 793.735,-452.027 600.574,-397.734"/>
<polygon fill="black" stroke="black" points="601.4,-394.33 590.826,-394.993 599.506,-401.069 601.4,-394.33"/>
</g>
<!-- 40 -->
<g id="node41" class="node"><title>40</title>
<ellipse fill="paleturquoise" stroke="paleturquoise" cx="5034" cy="-594" rx="149.907" ry="18"/>
<text text-anchor="middle" x="5034" y="-589.8" font-family="Times,serif" font-size="14.00">github.com/google/cadvisor/info/v1</text>
</g>
<!-- 9&#45;&gt;40 -->
<g id="edge46" class="edge"><title>9&#45;&gt;40</title>
<path fill="none" stroke="black" d="M3262.26,-664.088C3578.46,-661.465 4280.25,-651.307 4870,-612 4885.97,-610.936 4902.78,-609.526 4919.31,-607.972"/>
<polygon fill="black" stroke="black" points="4919.93,-611.428 4929.55,-606.988 4919.26,-604.46 4919.93,-611.428"/>
</g>
<!-- 41 -->
<g id="node42" class="node"><title>41</title>
<ellipse fill="paleturquoise" stroke="paleturquoise" cx="4049" cy="-522" rx="136.656" ry="18"/>
<text text-anchor="middle" x="4049" y="-517.8" font-family="Times,serif" font-size="14.00">k8s.io/kubernetes/pkg/api/install</text>
</g>
<!-- 9&#45;&gt;41 -->
<g id="edge49" class="edge"><title>9&#45;&gt;41</title>
<path fill="none" stroke="black" d="M3187.28,-650.996C3369.41,-623.943 3767.87,-564.758 3952.07,-537.397"/>
<polygon fill="black" stroke="black" points="3952.64,-540.851 3962.02,-535.92 3951.61,-533.927 3952.64,-540.851"/>
</g>
<!-- 9&#45;&gt;42 -->
<g id="edge52" class="edge"><title>9&#45;&gt;42</title>
<path fill="none" stroke="black" d="M2947.39,-656.649C2693.36,-640.112 2196,-598.139 2196,-523 2196,-523 2196,-523 2196,-449 2196,-393.065 2251.77,-351.756 2293.89,-328.531"/>
<polygon fill="black" stroke="black" points="2295.74,-331.509 2302.92,-323.711 2292.45,-325.334 2295.74,-331.509"/>
</g>
<!-- 43 -->
<g id="node44" class="node"><title>43</title>
<ellipse fill="paleturquoise" stroke="paleturquoise" cx="1502" cy="-450" rx="151.689" ry="18"/>
<text text-anchor="middle" x="1502" y="-445.8" font-family="Times,serif" font-size="14.00">k8s.io/kubernetes/pkg/api/validation</text>
</g>
<!-- 9&#45;&gt;43 -->
<g id="edge53" class="edge"><title>9&#45;&gt;43</title>
<path fill="none" stroke="black" d="M2924.4,-663.472C2587.38,-659.676 1853.37,-647.414 1744,-612 1655.38,-583.302 1568.73,-512.274 1527.29,-474.887"/>
<polygon fill="black" stroke="black" points="1529.6,-472.255 1519.85,-468.098 1524.88,-477.425 1529.6,-472.255"/>
</g>
<!-- 44 -->
<g id="node45" class="node"><title>44</title>
<ellipse fill="paleturquoise" stroke="paleturquoise" cx="5701" cy="-522" rx="151.1" ry="18"/>
<text text-anchor="middle" x="5701" y="-517.8" font-family="Times,serif" font-size="14.00">k8s.io/kubernetes/pkg/client/metrics</text>
</g>
<!-- 9&#45;&gt;44 -->
<g id="edge56" class="edge"><title>9&#45;&gt;44</title>
<path fill="none" stroke="black" d="M3262.93,-664.727C3703.95,-663.396 4877.54,-655.724 5264,-612 5395.36,-597.138 5545.89,-562.511 5631.58,-541.095"/>
<polygon fill="black" stroke="black" points="5632.6,-544.446 5641.45,-538.615 5630.9,-537.658 5632.6,-544.446"/>
</g>
<!-- 45 -->
<g id="node46" class="node"><title>45</title>
<ellipse fill="paleturquoise" stroke="paleturquoise" cx="4952" cy="-522" rx="193.83" ry="18"/>
<text text-anchor="middle" x="4952" y="-517.8" font-family="Times,serif" font-size="14.00">k8s.io/kubernetes/pkg/conversion/queryparams</text>
</g>
<!-- 9&#45;&gt;45 -->
<g id="edge57" class="edge"><title>9&#45;&gt;45</title>
<path fill="none" stroke="black" d="M3261.05,-663.121C3684.2,-657.958 4765.14,-641.907 4837,-612 4858.48,-603.061 4856.92,-590.64 4875,-576 4888.14,-565.361 4903.34,-554.604 4916.74,-545.587"/>
<polygon fill="black" stroke="black" points="4918.86,-548.381 4925.25,-539.931 4914.99,-542.551 4918.86,-548.381"/>
</g>
<!-- 46 -->
<g id="node47" class="node"><title>46</title>
<ellipse fill="paleturquoise" stroke="paleturquoise" cx="4697" cy="-594" rx="130.857" ry="18"/>
<text text-anchor="middle" x="4697" y="-589.8" font-family="Times,serif" font-size="14.00">k8s.io/kubernetes/pkg/util/wait</text>
</g>
<!-- 9&#45;&gt;46 -->
<g id="edge63" class="edge"><title>9&#45;&gt;46</title>
<path fill="none" stroke="black" d="M3261.19,-663.279C3532.97,-659.511 4085.41,-647.769 4552,-612 4565.96,-610.93 4580.65,-609.529 4595.1,-607.992"/>
<polygon fill="black" stroke="black" points="4595.5,-611.47 4605.06,-606.907 4594.74,-604.511 4595.5,-611.47"/>
</g>
<!-- 47 -->
<g id="node48" class="node"><title>47</title>
<ellipse fill="paleturquoise" stroke="paleturquoise" cx="5367" cy="-522" rx="127.332" ry="18"/>
<text text-anchor="middle" x="5367" y="-517.8" font-family="Times,serif" font-size="14.00">k8s.io/kubernetes/pkg/version</text>
</g>
<!-- 9&#45;&gt;47 -->
<g id="edge64" class="edge"><title>9&#45;&gt;47</title>
<path fill="none" stroke="black" d="M3261.59,-663.61C3749.46,-659.216 5133.87,-643.987 5226,-612 5251.19,-603.254 5251.71,-590.631 5274,-576 5290.91,-564.902 5310.25,-553.661 5326.9,-544.404"/>
<polygon fill="black" stroke="black" points="5328.77,-547.369 5335.84,-539.478 5325.4,-541.238 5328.77,-547.369"/>
</g>
<!-- 48 -->
<g id="node49" class="node"><title>48</title>
<ellipse fill="paleturquoise" stroke="paleturquoise" cx="3009" cy="-594" rx="140.653" ry="18"/>
<text text-anchor="middle" x="3009" y="-589.8" font-family="Times,serif" font-size="14.00">k8s.io/kubernetes/pkg/watch/json</text>
</g>
<!-- 9&#45;&gt;48 -->
<g id="edge66" class="edge"><title>9&#45;&gt;48</title>
<path fill="none" stroke="black" d="M3072.67,-648.055C3062.01,-639.179 3048.8,-628.169 3037.18,-618.483"/>
<polygon fill="black" stroke="black" points="3039.36,-615.745 3029.44,-612.032 3034.88,-621.122 3039.36,-615.745"/>
</g>
<!-- 11&#45;&gt;14 -->
<g id="edge71" class="edge"><title>11&#45;&gt;14</title>
<path fill="none" stroke="black" d="M1228.2,-287.761C1218.27,-267.756 1206.77,-235.081 1225,-216 1255.35,-184.234 1971.11,-182.078 2015,-180 2086.71,-176.605 2166.77,-172.68 2231.8,-169.457"/>
<polygon fill="black" stroke="black" points="2232.29,-172.937 2242.11,-168.946 2231.95,-165.946 2232.29,-172.937"/>
</g>
<!-- 11&#45;&gt;51 -->
<g id="edge70" class="edge"><title>11&#45;&gt;51</title>
<path fill="none" stroke="black" d="M1190.02,-289.378C1158.14,-278.999 1116.07,-265.301 1082.12,-254.249"/>
<polygon fill="black" stroke="black" points="1082.92,-250.828 1072.33,-251.06 1080.75,-257.484 1082.92,-250.828"/>
</g>
<!-- 52 -->
<g id="node53" class="node"><title>52</title>
<ellipse fill="paleturquoise" stroke="paleturquoise" cx="1387" cy="-234" rx="152.85" ry="18"/>
<text text-anchor="middle" x="1387" y="-229.8" font-family="Times,serif" font-size="14.00">k8s.io/kubernetes/pkg/util/validation</text>
</g>
<!-- 11&#45;&gt;52 -->
<g id="edge72" class="edge"><title>11&#45;&gt;52</title>
<path fill="none" stroke="black" d="M1272.93,-288.588C1293.71,-278.829 1320.26,-266.354 1342.52,-255.896"/>
<polygon fill="black" stroke="black" points="1344.21,-258.972 1351.77,-251.552 1341.23,-252.636 1344.21,-258.972"/>
</g>
<!-- 12&#45;&gt;14 -->
<g id="edge141" class="edge"><title>12&#45;&gt;14</title>
<path fill="none" stroke="black" d="M4571.67,-228.784C4467.56,-225.258 4314.53,-220.152 4181,-216 3550.92,-196.406 2798.06,-175.177 2496.07,-166.751"/>
<polygon fill="black" stroke="black" points="2496.05,-163.249 2485.95,-166.469 2495.85,-170.246 2496.05,-163.249"/>
</g>
<!-- 12&#45;&gt;23 -->
<g id="edge139" class="edge"><title>12&#45;&gt;23</title>
<path fill="none" stroke="black" d="M4694.51,-215.697C4694.29,-207.983 4694.02,-198.712 4693.77,-190.112"/>
<polygon fill="black" stroke="black" points="4697.27,-190 4693.49,-180.104 4690.28,-190.2 4697.27,-190"/>
</g>
<!-- 49 -->
<g id="node50" class="node"><title>49</title>
<ellipse fill="paleturquoise" stroke="paleturquoise" cx="4983" cy="-162" rx="130.299" ry="18"/>
<text text-anchor="middle" x="4983" y="-157.8" font-family="Times,serif" font-size="14.00">k8s.io/kubernetes/pkg/util/json</text>
</g>
<!-- 12&#45;&gt;49 -->
<g id="edge140" class="edge"><title>12&#45;&gt;49</title>
<path fill="none" stroke="black" d="M4756.43,-218.069C4801.93,-207.011 4864.04,-191.915 4911.72,-180.325"/>
<polygon fill="black" stroke="black" points="4912.77,-183.671 4921.66,-177.908 4911.12,-176.869 4912.77,-183.671"/>
</g>
<!-- 62 -->
<g id="node63" class="node"><title>62</title>
<ellipse fill="paleturquoise" stroke="paleturquoise" cx="4400" cy="-162" rx="133.728" ry="18"/>
<text text-anchor="middle" x="4400" y="-157.8" font-family="Times,serif" font-size="14.00">k8s.io/kubernetes/pkg/util/yaml</text>
</g>
<!-- 12&#45;&gt;62 -->
<g id="edge142" class="edge"><title>12&#45;&gt;62</title>
<path fill="none" stroke="black" d="M4632.44,-218.155C4585.76,-207.079 4521.87,-191.918 4472.88,-180.294"/>
<polygon fill="black" stroke="black" points="4473.52,-176.848 4462.98,-177.944 4471.9,-183.659 4473.52,-176.848"/>
</g>
<!-- 13&#45;&gt;1 -->
<g id="edge80" class="edge"><title>13&#45;&gt;1</title>
<path fill="none" stroke="black" d="M1933.77,-289.162C1907.36,-278.715 1872.07,-264.669 1841,-252 1725.51,-204.914 1703.44,-172.419 1582,-144 1451.06,-113.357 1067.63,-99.0725 875.874,-93.6942"/>
<polygon fill="black" stroke="black" points="875.861,-90.1926 865.768,-93.414 875.667,-97.1899 875.861,-90.1926"/>
</g>
<!-- 13&#45;&gt;3 -->
<g id="edge86" class="edge"><title>13&#45;&gt;3</title>
<path fill="none" stroke="black" d="M2024.05,-289.897C2060.13,-279.013 2108.94,-264.285 2146.92,-252.825"/>
<polygon fill="black" stroke="black" points="2148.27,-256.075 2156.83,-249.835 2146.25,-249.373 2148.27,-256.075"/>
</g>
<!-- 13&#45;&gt;14 -->
<g id="edge88" class="edge"><title>13&#45;&gt;14</title>
<path fill="none" stroke="black" d="M2054.58,-293.464C2069.66,-291.494 2085.3,-289.578 2100,-288 2149.98,-282.637 2516.9,-288.934 2551,-252 2586.48,-213.578 2522.4,-190.26 2459.28,-177.188"/>
<polygon fill="black" stroke="black" points="2459.66,-173.696 2449.17,-175.178 2458.3,-180.562 2459.66,-173.696"/>
</g>
<!-- 30 -->
<g id="node31" class="node"><title>30</title>
<ellipse fill="paleturquoise" stroke="paleturquoise" cx="5718" cy="-234" rx="205.466" ry="18"/>
<text text-anchor="middle" x="5718" y="-229.8" font-family="Times,serif" font-size="14.00">github.com/prometheus/client_golang/prometheus</text>
</g>
<!-- 13&#45;&gt;30 -->
<g id="edge84" class="edge"><title>13&#45;&gt;30</title>
<path fill="none" stroke="black" d="M2065.61,-295.704C2098.78,-292.706 2136.54,-289.717 2171,-288 3352.75,-229.098 3649.94,-271.362 4833,-252 5065.05,-248.202 5331.3,-242.969 5510.65,-239.316"/>
<polygon fill="black" stroke="black" points="5510.8,-242.814 5520.73,-239.11 5510.66,-235.815 5510.8,-242.814"/>
</g>
<!-- 13&#45;&gt;37 -->
<g id="edge87" class="edge"><title>13&#45;&gt;37</title>
<path fill="none" stroke="black" d="M2067.12,-295.958C2099.93,-293.039 2137.08,-290.036 2171,-288 2450.39,-271.235 3291.76,-247.23 3612.72,-238.414"/>
<polygon fill="black" stroke="black" points="3613.09,-241.905 3622.99,-238.132 3612.9,-234.908 3613.09,-241.905"/>
</g>
<!-- 13&#45;&gt;55 -->
<g id="edge79" class="edge"><title>13&#45;&gt;55</title>
<path fill="none" stroke="black" d="M1908.26,-291.445C1886.97,-283.605 1865.61,-271.292 1853,-252 1841.14,-233.857 1843.75,-208.925 1848.55,-190.065"/>
<polygon fill="black" stroke="black" points="1851.96,-190.871 1851.37,-180.293 1845.24,-188.934 1851.96,-190.871"/>
</g>
<!-- 56 -->
<g id="node57" class="node"><title>56</title>
<ellipse fill="paleturquoise" stroke="paleturquoise" cx="2711" cy="-234" rx="112.869" ry="18"/>
<text text-anchor="middle" x="2711" y="-229.8" font-family="Times,serif" font-size="14.00">github.com/google/gofuzz</text>
</g>
<!-- 13&#45;&gt;56 -->
<g id="edge81" class="edge"><title>13&#45;&gt;56</title>
<path fill="none" stroke="black" d="M2054.24,-293.443C2069.42,-291.464 2085.18,-289.549 2100,-288 2314.54,-265.569 2369.45,-274.319 2584,-252 2595.67,-250.786 2607.92,-249.351 2620.01,-247.837"/>
<polygon fill="black" stroke="black" points="2620.65,-251.285 2630.12,-246.551 2619.76,-244.341 2620.65,-251.285"/>
</g>
<!-- 57 -->
<g id="node58" class="node"><title>57</title>
<ellipse fill="paleturquoise" stroke="paleturquoise" cx="2434" cy="-234" rx="107.739" ry="18"/>
<text text-anchor="middle" x="2434" y="-229.8" font-family="Times,serif" font-size="14.00">github.com/juju/ratelimit</text>
</g>
<!-- 13&#45;&gt;57 -->
<g id="edge82" class="edge"><title>13&#45;&gt;57</title>
<path fill="none" stroke="black" d="M2052.03,-293.125C2133.89,-280.669 2262.24,-261.138 2347.23,-248.204"/>
<polygon fill="black" stroke="black" points="2347.76,-251.664 2357.12,-246.699 2346.71,-244.744 2347.76,-251.664"/>
</g>
<!-- 58 -->
<g id="node59" class="node"><title>58</title>
<ellipse fill="paleturquoise" stroke="paleturquoise" cx="1974" cy="-234" rx="111.747" ry="18"/>
<text text-anchor="middle" x="1974" y="-229.8" font-family="Times,serif" font-size="14.00">github.com/pborman/uuid</text>
</g>
<!-- 13&#45;&gt;58 -->
<g id="edge83" class="edge"><title>13&#45;&gt;58</title>
<path fill="none" stroke="black" d="M1974,-287.697C1974,-279.983 1974,-270.712 1974,-262.112"/>
<polygon fill="black" stroke="black" points="1977.5,-262.104 1974,-252.104 1970.5,-262.104 1977.5,-262.104"/>
</g>
<!-- 59 -->
<g id="node60" class="node"><title>59</title>
<ellipse fill="paleturquoise" stroke="paleturquoise" cx="2943" cy="-234" rx="101.349" ry="18"/>
<text text-anchor="middle" x="2943" y="-229.8" font-family="Times,serif" font-size="14.00">github.com/spf13/pflag</text>
</g>
<!-- 13&#45;&gt;59 -->
<g id="edge85" class="edge"><title>13&#45;&gt;59</title>
<path fill="none" stroke="black" d="M2053.2,-293.269C2068.69,-291.27 2084.83,-289.393 2100,-288 2424.8,-258.167 2508.5,-284.953 2833,-252 2842.49,-251.036 2852.41,-249.813 2862.24,-248.464"/>
<polygon fill="black" stroke="black" points="2863.02,-251.889 2872.43,-247.02 2862.04,-244.958 2863.02,-251.889"/>
</g>
<!-- 15&#45;&gt;1 -->
<g id="edge102" class="edge"><title>15&#45;&gt;1</title>
<path fill="none" stroke="black" d="M1800.96,-513.324C1452.36,-488.205 371.274,-409.304 359,-396 341.183,-376.688 347.48,-267.567 395,-216 463.381,-141.796 577.377,-111.627 660.601,-99.3697"/>
<polygon fill="black" stroke="black" points="661.179,-102.823 670.592,-97.962 660.202,-95.8914 661.179,-102.823"/>
</g>
<!-- 15&#45;&gt;12 -->
<g id="edge103" class="edge"><title>15&#45;&gt;12</title>
<path fill="none" stroke="black" d="M2028.85,-519.461C2492.16,-513.399 4131.63,-490.407 4181,-468 4200.76,-459.029 4199.04,-447.73 4214,-432 4246.51,-397.809 4327.16,-307.762 4370,-288 4429.62,-260.495 4501.17,-247.002 4561.93,-240.485"/>
<polygon fill="black" stroke="black" points="4562.38,-243.957 4571.98,-239.46 4561.67,-236.993 4562.38,-243.957"/>
</g>
<!-- 15&#45;&gt;13 -->
<g id="edge104" class="edge"><title>15&#45;&gt;13</title>
<path fill="none" stroke="black" d="M1913.29,-503.849C1924.75,-466.675 1951.97,-378.439 1965.73,-333.82"/>
<polygon fill="black" stroke="black" points="1969.08,-334.82 1968.69,-324.232 1962.39,-332.757 1969.08,-334.82"/>
</g>
<!-- 16 -->
<g id="node17" class="node"><title>16</title>
<ellipse fill="paleturquoise" stroke="paleturquoise" cx="5917" cy="-162" rx="169.029" ry="18"/>
<text text-anchor="middle" x="5917" y="-157.8" font-family="Times,serif" font-size="14.00">github.com/prometheus/common/expfmt</text>
</g>
<!-- 17 -->
<g id="node18" class="node"><title>17</title>
<ellipse fill="paleturquoise" stroke="paleturquoise" cx="6294" cy="-90" rx="121.598" ry="18"/>
<text text-anchor="middle" x="6294" y="-85.8" font-family="Times,serif" font-size="14.00">bitbucket.org/ww/goautoneg</text>
</g>
<!-- 16&#45;&gt;17 -->
<g id="edge15" class="edge"><title>16&#45;&gt;17</title>
<path fill="none" stroke="black" d="M5997.41,-146.069C6060.43,-134.368 6147.79,-118.147 6211.37,-106.342"/>
<polygon fill="black" stroke="black" points="6212.17,-109.754 6221.36,-104.487 6210.89,-102.871 6212.17,-109.754"/>
</g>
<!-- 18 -->
<g id="node19" class="node"><title>18</title>
<ellipse fill="paleturquoise" stroke="paleturquoise" cx="5784" cy="-18" rx="142.968" ry="18"/>
<text text-anchor="middle" x="5784" y="-13.8" font-family="Times,serif" font-size="14.00">github.com/golang/protobuf/proto</text>
</g>
<!-- 16&#45;&gt;18 -->
<g id="edge16" class="edge"><title>16&#45;&gt;18</title>
<path fill="none" stroke="black" d="M5796.28,-149.397C5742.08,-141.445 5686.58,-128.509 5670,-108 5659.94,-95.556 5661.4,-85.4893 5670,-72 5679.57,-57.0023 5694.6,-46.1822 5710.64,-38.3998"/>
<polygon fill="black" stroke="black" points="5712.46,-41.4224 5720.17,-34.16 5709.61,-35.0266 5712.46,-41.4224"/>
</g>
<!-- 19 -->
<g id="node20" class="node"><title>19</title>
<ellipse fill="paleturquoise" stroke="paleturquoise" cx="5917" cy="-90" rx="237.876" ry="18"/>
<text text-anchor="middle" x="5917" y="-85.8" font-family="Times,serif" font-size="14.00">github.com/matttproud/golang_protobuf_extensions/pbutil</text>
</g>
<!-- 16&#45;&gt;19 -->
<g id="edge17" class="edge"><title>16&#45;&gt;19</title>
<path fill="none" stroke="black" d="M5917,-143.697C5917,-135.983 5917,-126.712 5917,-118.112"/>
<polygon fill="black" stroke="black" points="5920.5,-118.104 5917,-108.104 5913.5,-118.104 5920.5,-118.104"/>
</g>
<!-- 20 -->
<g id="node21" class="node"><title>20</title>
<ellipse fill="paleturquoise" stroke="paleturquoise" cx="5455" cy="-90" rx="167.883" ry="18"/>
<text text-anchor="middle" x="5455" y="-85.8" font-family="Times,serif" font-size="14.00">github.com/prometheus/client_model/go</text>
</g>
<!-- 16&#45;&gt;20 -->
<g id="edge18" class="edge"><title>16&#45;&gt;20</title>
<path fill="none" stroke="black" d="M5824.06,-146.919C5746.99,-135.241 5637.53,-118.657 5557.85,-106.583"/>
<polygon fill="black" stroke="black" points="5558.2,-103.096 5547.79,-105.059 5557.15,-110.017 5558.2,-103.096"/>
</g>
<!-- 21 -->
<g id="node22" class="node"><title>21</title>
<ellipse fill="paleturquoise" stroke="paleturquoise" cx="6600" cy="-90" rx="165.6" ry="18"/>
<text text-anchor="middle" x="6600" y="-85.8" font-family="Times,serif" font-size="14.00">github.com/prometheus/common/model</text>
</g>
<!-- 16&#45;&gt;21 -->
<g id="edge19" class="edge"><title>16&#45;&gt;21</title>
<path fill="none" stroke="black" d="M6034.02,-149.006C6156.5,-136.453 6348.15,-116.812 6473.91,-103.923"/>
<polygon fill="black" stroke="black" points="6474.39,-107.392 6483.98,-102.89 6473.68,-100.428 6474.39,-107.392"/>
</g>
<!-- 19&#45;&gt;18 -->
<g id="edge153" class="edge"><title>19&#45;&gt;18</title>
<path fill="none" stroke="black" d="M5884.8,-72.055C5866.75,-62.5539 5844.06,-50.6085 5824.77,-40.4591"/>
<polygon fill="black" stroke="black" points="5826.38,-37.3493 5815.9,-35.789 5823.12,-43.5437 5826.38,-37.3493"/>
</g>
<!-- 20&#45;&gt;18 -->
<g id="edge188" class="edge"><title>20&#45;&gt;18</title>
<path fill="none" stroke="black" d="M5526.79,-73.7247C5579.3,-62.5528 5650.52,-47.3998 5704.7,-35.8715"/>
<polygon fill="black" stroke="black" points="5705.56,-39.2674 5714.61,-33.7628 5704.11,-32.4206 5705.56,-39.2674"/>
</g>
<!-- 24 -->
<g id="node25" class="node"><title>24</title>
<ellipse fill="paleturquoise" stroke="paleturquoise" cx="4699" cy="-90" rx="179.914" ry="18"/>
<text text-anchor="middle" x="4699" y="-85.8" font-family="Times,serif" font-size="14.00">k8s.io/kubernetes/third_party/forked/reflect</text>
</g>
<!-- 23&#45;&gt;24 -->
<g id="edge20" class="edge"><title>23&#45;&gt;24</title>
<path fill="none" stroke="black" d="M4694.48,-143.697C4695.14,-135.983 4695.94,-126.712 4696.68,-118.112"/>
<polygon fill="black" stroke="black" points="4700.17,-118.367 4697.53,-108.104 4693.19,-117.769 4700.17,-118.367"/>
</g>
<!-- 25&#45;&gt;0 -->
<g id="edge25" class="edge"><title>25&#45;&gt;0</title>
<path fill="none" stroke="black" d="M4315.55,-575.975C4330.88,-566.094 4350.02,-553.051 4366,-540 4420.52,-495.461 4478.02,-436.118 4508.66,-403.342"/>
<polygon fill="black" stroke="black" points="4511.25,-405.698 4515.5,-395.993 4506.12,-400.931 4511.25,-405.698"/>
</g>
<!-- 25&#45;&gt;1 -->
<g id="edge21" class="edge"><title>25&#45;&gt;1</title>
<path fill="none" stroke="black" d="M4289.37,-575.788C4293.18,-514.764 4296.86,-307.51 4181,-216 4048.58,-111.408 1455.03,-93.9993 877.383,-91.4154"/>
<polygon fill="black" stroke="black" points="877.395,-87.9155 867.38,-91.3712 877.364,-94.9154 877.395,-87.9155"/>
</g>
<!-- 25&#45;&gt;2 -->
<g id="edge26" class="edge"><title>25&#45;&gt;2</title>
<path fill="none" stroke="black" d="M4324.57,-576.322C4346.79,-566.074 4375.66,-552.547 4401,-540 4494,-493.958 4512.84,-473.372 4608,-432 4652.09,-412.833 4682.23,-435.245 4710,-396 4735.81,-359.515 4685.59,-336.387 4634.43,-322.881"/>
<polygon fill="black" stroke="black" points="4635.09,-319.439 4624.54,-320.388 4633.38,-326.227 4635.09,-319.439"/>
</g>
<!-- 25&#45;&gt;5 -->
<g id="edge22" class="edge"><title>25&#45;&gt;5</title>
<path fill="none" stroke="black" d="M4110.99,-588.983C3895,-582.861 3552.02,-568.741 3500,-540 3485.71,-532.102 3428.72,-448.066 3399.89,-404.653"/>
<polygon fill="black" stroke="black" points="3402.63,-402.452 3394.19,-396.047 3396.79,-406.317 3402.63,-402.452"/>
</g>
<!-- 25&#45;&gt;7 -->
<g id="edge24" class="edge"><title>25&#45;&gt;7</title>
<path fill="none" stroke="black" d="M4344.73,-576.846C4375.95,-567.329 4415.13,-554.356 4449,-540 4512.33,-513.154 4526.71,-502.875 4586,-468 4611.18,-453.187 4614.1,-443.389 4641,-432 4708.12,-403.586 4740.66,-436.893 4801,-396 4823.79,-380.556 4840.51,-353.516 4850.63,-333.282"/>
<polygon fill="black" stroke="black" points="4853.92,-334.509 4855.06,-323.976 4847.6,-331.499 4853.92,-334.509"/>
</g>
<!-- 25&#45;&gt;8 -->
<g id="edge27" class="edge"><title>25&#45;&gt;8</title>
<path fill="none" stroke="black" d="M4118.78,-586.853C3915.04,-578.621 3585.14,-562.414 3464,-540 3379.89,-524.438 3285.8,-492.132 3229.27,-471.023"/>
<polygon fill="black" stroke="black" points="3230.44,-467.723 3219.85,-467.477 3227.97,-474.275 3230.44,-467.723"/>
</g>
<!-- 25&#45;&gt;12 -->
<g id="edge29" class="edge"><title>25&#45;&gt;12</title>
<path fill="none" stroke="black" d="M4388.84,-578.907C4452.77,-569.368 4537.06,-555.675 4611,-540 4673.01,-526.854 4687.03,-517.343 4749,-504 4842,-483.975 4874.91,-510.548 4960,-468 5033.01,-431.492 5054.37,-403.233 5074,-324 5077.85,-308.469 5084.5,-300.072 5074,-288 5042.89,-252.234 4928.7,-239.874 4833.72,-235.938"/>
<polygon fill="black" stroke="black" points="4833.84,-232.44 4823.71,-235.551 4833.57,-239.435 4833.84,-232.44"/>
</g>
<!-- 25&#45;&gt;14 -->
<g id="edge30" class="edge"><title>25&#45;&gt;14</title>
<path fill="none" stroke="black" d="M4115.65,-587.609C3922.91,-580.625 3601.59,-566.13 3326,-540 3063.44,-515.106 2278.68,-559.021 2159,-324 2151.74,-309.742 2147.92,-299.539 2159,-288 2227.87,-216.304 2984.13,-323.696 3053,-252 3064.08,-240.461 3063.87,-227.738 3053,-216 3016.25,-176.325 2690.69,-166.232 2499.49,-163.742"/>
<polygon fill="black" stroke="black" points="2499.4,-160.241 2489.36,-163.615 2499.31,-167.24 2499.4,-160.241"/>
</g>
<!-- 25&#45;&gt;26 -->
<g id="edge23" class="edge"><title>25&#45;&gt;26</title>
<path fill="none" stroke="black" d="M4384.25,-578.599C4435.3,-569.769 4498.72,-556.891 4554,-540 4593.63,-527.891 4601.44,-519.16 4640,-504 4669.37,-492.455 4702.39,-480.247 4729.39,-470.461"/>
<polygon fill="black" stroke="black" points="4730.84,-473.661 4739.05,-466.971 4728.46,-467.077 4730.84,-473.661"/>
</g>
<!-- 27 -->
<g id="node28" class="node"><title>27</title>
<ellipse fill="paleturquoise" stroke="paleturquoise" cx="3700" cy="-522" rx="190.997" ry="18"/>
<text text-anchor="middle" x="3700" y="-517.8" font-family="Times,serif" font-size="14.00">k8s.io/kubernetes/pkg/apis/extensions/v1beta1</text>
</g>
<!-- 25&#45;&gt;27 -->
<g id="edge28" class="edge"><title>25&#45;&gt;27</title>
<path fill="none" stroke="black" d="M4176.02,-579.669C4075.22,-567.67 3927.38,-550.069 3823.25,-537.673"/>
<polygon fill="black" stroke="black" points="3823.66,-534.197 3813.32,-536.49 3822.83,-541.148 3823.66,-534.197"/>
</g>
<!-- 26&#45;&gt;0 -->
<g id="edge185" class="edge"><title>26&#45;&gt;0</title>
<path fill="none" stroke="black" d="M4728.16,-433.552C4689.72,-422.914 4638.44,-408.728 4597.82,-397.489"/>
<polygon fill="black" stroke="black" points="4598.58,-394.066 4588.01,-394.772 4596.71,-400.812 4598.58,-394.066"/>
</g>
<!-- 26&#45;&gt;7 -->
<g id="edge184" class="edge"><title>26&#45;&gt;7</title>
<path fill="none" stroke="black" d="M4831.67,-433.159C4848.77,-424.911 4866.22,-412.917 4876,-396 4886.95,-377.06 4881.75,-352.249 4874.79,-333.637"/>
<polygon fill="black" stroke="black" points="4877.98,-332.194 4870.95,-324.272 4871.5,-334.852 4877.98,-332.194"/>
</g>
<!-- 26&#45;&gt;12 -->
<g id="edge186" class="edge"><title>26&#45;&gt;12</title>
<path fill="none" stroke="black" d="M4839.84,-433.612C4921.71,-408.376 5058.87,-354.309 5003,-288 4980,-260.706 4899.3,-247.468 4826.27,-241.047"/>
<polygon fill="black" stroke="black" points="4826.28,-237.536 4816.02,-240.186 4825.7,-244.511 4826.28,-237.536"/>
</g>
<!-- 27&#45;&gt;5 -->
<g id="edge156" class="edge"><title>27&#45;&gt;5</title>
<path fill="none" stroke="black" d="M3636.16,-505.007C3606.06,-496.188 3570.21,-483.793 3540,-468 3516.37,-455.646 3514.76,-445.894 3492,-432 3472.15,-419.886 3449.13,-408.355 3429.37,-399.161"/>
<polygon fill="black" stroke="black" points="3430.81,-395.967 3420.26,-394.975 3427.89,-402.329 3430.81,-395.967"/>
</g>
<!-- 27&#45;&gt;8 -->
<g id="edge160" class="edge"><title>27&#45;&gt;8</title>
<path fill="none" stroke="black" d="M3594.99,-506.919C3505.32,-494.893 3376.83,-477.664 3286.24,-465.515"/>
<polygon fill="black" stroke="black" points="3286.59,-462.031 3276.22,-464.171 3285.66,-468.969 3286.59,-462.031"/>
</g>
<!-- 27&#45;&gt;12 -->
<g id="edge162" class="edge"><title>27&#45;&gt;12</title>
<path fill="none" stroke="black" d="M3832.67,-509.027C3976.23,-495.772 4187.08,-475.313 4204,-468 4211.03,-464.961 4406.1,-291.321 4413,-288 4462.03,-264.414 4520.55,-251.306 4571.54,-244.029"/>
<polygon fill="black" stroke="black" points="4572.2,-247.472 4581.64,-242.65 4571.26,-240.536 4572.2,-247.472"/>
</g>
<!-- 27&#45;&gt;13 -->
<g id="edge163" class="edge"><title>27&#45;&gt;13</title>
<path fill="none" stroke="black" d="M3516.19,-517.107C3157.24,-507.761 2375.88,-478.367 2121,-396 2076.49,-381.617 2031.37,-351.47 2003.07,-330.262"/>
<polygon fill="black" stroke="black" points="2004.92,-327.274 1994.85,-323.995 2000.68,-332.841 2004.92,-327.274"/>
</g>
<!-- 27&#45;&gt;23 -->
<g id="edge161" class="edge"><title>27&#45;&gt;23</title>
<path fill="none" stroke="black" d="M3839.01,-509.637C3948.01,-500.171 4103.43,-485.448 4239,-468 4324.68,-456.974 4949.22,-391.602 5003,-324 5067.59,-242.803 4907.39,-198.227 4794.01,-177.589"/>
<polygon fill="black" stroke="black" points="4794.34,-174.093 4783.88,-175.786 4793.11,-180.984 4794.34,-174.093"/>
</g>
<!-- 27&#45;&gt;42 -->
<g id="edge158" class="edge"><title>27&#45;&gt;42</title>
<path fill="none" stroke="black" d="M3635.98,-505.024C3593.92,-494.52 3537.68,-480.463 3488,-468 3424.43,-452.052 3409.41,-444.115 3345,-432 3177.93,-400.576 2689.82,-345.302 2461.01,-320.14"/>
<polygon fill="black" stroke="black" points="2461.3,-316.651 2450.98,-319.038 2460.53,-323.609 2461.3,-316.651"/>
</g>
<!-- 27&#45;&gt;50 -->
<g id="edge164" class="edge"><title>27&#45;&gt;50</title>
<path fill="none" stroke="black" d="M3829.98,-508.786C3970.41,-495.28 4175.12,-474.561 4181,-468 4241.55,-400.414 4132.36,-302.297 4074.95,-258.103"/>
<polygon fill="black" stroke="black" points="4076.97,-255.239 4066.89,-251.984 4072.74,-260.816 4076.97,-255.239"/>
</g>
<!-- 27&#45;&gt;60 -->
<g id="edge157" class="edge"><title>27&#45;&gt;60</title>
<path fill="none" stroke="black" d="M3652.91,-504.331C3636.66,-496.056 3620.24,-484.26 3611,-468 3584.21,-420.868 3630.01,-362.953 3661.69,-331.012"/>
<polygon fill="black" stroke="black" points="3664.3,-333.351 3668.99,-323.85 3659.4,-328.354 3664.3,-333.351"/>
</g>
<!-- 68 -->
<g id="node69" class="node"><title>68</title>
<ellipse fill="paleturquoise" stroke="paleturquoise" cx="4049" cy="-450" rx="122.759" ry="18"/>
<text text-anchor="middle" x="4049" y="-445.8" font-family="Times,serif" font-size="14.00">k8s.io/kubernetes/pkg/api/v1</text>
</g>
<!-- 27&#45;&gt;68 -->
<g id="edge159" class="edge"><title>27&#45;&gt;68</title>
<path fill="none" stroke="black" d="M3777.45,-505.465C3834.57,-494.009 3912.03,-478.473 3969.6,-466.926"/>
<polygon fill="black" stroke="black" points="3970.63,-470.289 3979.75,-464.891 3969.25,-463.426 3970.63,-470.289"/>
</g>
<!-- 28 -->
<g id="node29" class="node"><title>28</title>
<ellipse fill="paleturquoise" stroke="paleturquoise" cx="3093" cy="-810" rx="152.296" ry="18"/>
<text text-anchor="middle" x="3093" y="-805.8" font-family="Times,serif" font-size="14.00">github.com/openshift/origin/pkg/dns</text>
</g>
<!-- 28&#45;&gt;1 -->
<g id="edge32" class="edge"><title>28&#45;&gt;1</title>
<path fill="none" stroke="black" d="M2941.31,-808.2C2401.82,-805.064 594.57,-791.96 337,-756 183.575,-734.58 0,-821.913 0,-667 0,-667 0,-667 0,-233 0,-112.542 138.427,-170.202 256,-144 390.855,-113.947 549.738,-100.844 653.445,-95.1901"/>
<polygon fill="black" stroke="black" points="653.818,-98.6753 663.618,-94.6498 653.447,-91.6852 653.818,-98.6753"/>
</g>
<!-- 28&#45;&gt;4 -->
<g id="edge39" class="edge"><title>28&#45;&gt;4</title>
<path fill="none" stroke="black" d="M2948.19,-804.354C2695.85,-796.059 2159.12,-777.537 1706,-756 1653.05,-753.483 1594.85,-750.275 1543.98,-747.325"/>
<polygon fill="black" stroke="black" points="1544.1,-743.826 1533.91,-746.739 1543.69,-750.814 1544.1,-743.826"/>
</g>
<!-- 28&#45;&gt;5 -->
<g id="edge37" class="edge"><title>28&#45;&gt;5</title>
<path fill="none" stroke="black" d="M3127.16,-792.413C3166.61,-771.781 3231.27,-733.191 3272,-684 3339.12,-602.947 3339,-568.87 3369,-468 3375.05,-447.667 3378.62,-423.899 3380.64,-406.043"/>
<polygon fill="black" stroke="black" points="3384.12,-406.336 3381.68,-396.028 3377.16,-405.612 3384.12,-406.336"/>
</g>
<!-- 28&#45;&gt;6 -->
<g id="edge38" class="edge"><title>28&#45;&gt;6</title>
<path fill="none" stroke="black" d="M2941.85,-807.606C2531.44,-803.402 1416.06,-789.05 1253,-756 1166.53,-738.474 1130.38,-746.396 1068,-684 993.074,-609.054 1020.36,-465.665 1036.05,-406.043"/>
<polygon fill="black" stroke="black" points="1039.47,-406.811 1038.72,-396.242 1032.71,-404.967 1039.47,-406.811"/>
</g>
<!-- 28&#45;&gt;9 -->
<g id="edge40" class="edge"><title>28&#45;&gt;9</title>
<path fill="none" stroke="black" d="M3093,-791.871C3093,-767.67 3093,-723.211 3093,-694.393"/>
<polygon fill="black" stroke="black" points="3096.5,-694.189 3093,-684.189 3089.5,-694.189 3096.5,-694.189"/>
</g>
<!-- 28&#45;&gt;10 -->
<g id="edge41" class="edge"><title>28&#45;&gt;10</title>
<path fill="none" stroke="black" d="M2940.55,-809.6C2342.05,-810.972 186,-806.251 186,-667 186,-667 186,-667 186,-449 186,-408.996 186,-362.653 186,-334.08"/>
<polygon fill="black" stroke="black" points="189.5,-334.049 186,-324.049 182.5,-334.049 189.5,-334.049"/>
</g>
<!-- 28&#45;&gt;11 -->
<g id="edge42" class="edge"><title>28&#45;&gt;11</title>
<path fill="none" stroke="black" d="M2941.63,-807.899C2492.48,-804.243 1193.22,-790.71 1109,-756 923.05,-679.368 758.928,-512.545 890,-360 918.159,-327.228 1021.38,-314.49 1108.15,-309.652"/>
<polygon fill="black" stroke="black" points="1108.58,-313.135 1118.38,-309.114 1108.21,-306.144 1108.58,-313.135"/>
</g>
<!-- 28&#45;&gt;15 -->
<g id="edge43" class="edge"><title>28&#45;&gt;15</title>
<path fill="none" stroke="black" d="M2971.81,-799.01C2717.94,-776.283 2140.02,-714.589 1974,-612 1949.84,-597.073 1931.6,-569.767 1920.48,-549.322"/>
<polygon fill="black" stroke="black" points="1923.46,-547.46 1915.74,-540.201 1917.25,-550.688 1923.46,-547.46"/>
</g>
<!-- 29 -->
<g id="node30" class="node"><title>29</title>
<ellipse fill="paleturquoise" stroke="paleturquoise" cx="6079" cy="-666" rx="133.108" ry="18"/>
<text text-anchor="middle" x="6079" y="-661.8" font-family="Times,serif" font-size="14.00">github.com/coreos/go&#45;etcd/etcd</text>
</g>
<!-- 28&#45;&gt;29 -->
<g id="edge31" class="edge"><title>28&#45;&gt;29</title>
<path fill="none" stroke="black" d="M3245.26,-808.92C3811.46,-808.262 5769.4,-802.61 5894,-756 5917.34,-747.267 5915.46,-732.538 5937,-720 5961.09,-705.977 5989.56,-694.484 6014.66,-685.828"/>
<polygon fill="black" stroke="black" points="6016.1,-689.038 6024.46,-682.532 6013.86,-682.403 6016.1,-689.038"/>
</g>
<!-- 28&#45;&gt;30 -->
<g id="edge33" class="edge"><title>28&#45;&gt;30</title>
<path fill="none" stroke="black" d="M3245.32,-809.27C3827.57,-809.316 5880,-800.043 5880,-667 5880,-667 5880,-667 5880,-377 5880,-318.27 5819.05,-278.161 5771.92,-255.926"/>
<polygon fill="black" stroke="black" points="5773.25,-252.687 5762.7,-251.718 5770.34,-259.054 5773.25,-252.687"/>
</g>
<!-- 31 -->
<g id="node32" class="node"><title>31</title>
<ellipse fill="paleturquoise" stroke="paleturquoise" cx="6504" cy="-738" rx="200.788" ry="18"/>
<text text-anchor="middle" x="6504" y="-733.8" font-family="Times,serif" font-size="14.00">github.com/skynetservices/skydns/backends/etcd</text>
</g>
<!-- 28&#45;&gt;31 -->
<g id="edge34" class="edge"><title>28&#45;&gt;31</title>
<path fill="none" stroke="black" d="M3244.65,-807.792C3795.52,-803.199 5690.05,-785.579 6295,-756 6315.56,-754.995 6337.23,-753.604 6358.53,-752.048"/>
<polygon fill="black" stroke="black" points="6358.9,-755.53 6368.61,-751.296 6358.38,-748.549 6358.9,-755.53"/>
</g>
<!-- 32 -->
<g id="node33" class="node"><title>32</title>
<ellipse fill="paleturquoise" stroke="paleturquoise" cx="6784" cy="-666" rx="162.082" ry="18"/>
<text text-anchor="middle" x="6784" y="-661.8" font-family="Times,serif" font-size="14.00">github.com/skynetservices/skydns/msg</text>
</g>
<!-- 28&#45;&gt;32 -->
<g id="edge35" class="edge"><title>28&#45;&gt;32</title>
<path fill="none" stroke="black" d="M3245.18,-808.552C3922.71,-806.334 6635.12,-795.03 6714,-756 6740.55,-742.862 6760.1,-714.351 6771.69,-693.118"/>
<polygon fill="black" stroke="black" points="6774.8,-694.73 6776.31,-684.244 6768.59,-691.498 6774.8,-694.73"/>
</g>
<!-- 33 -->
<g id="node34" class="node"><title>33</title>
<ellipse fill="paleturquoise" stroke="paleturquoise" cx="6116" cy="-738" rx="169.564" ry="18"/>
<text text-anchor="middle" x="6116" y="-733.8" font-family="Times,serif" font-size="14.00">github.com/skynetservices/skydns/server</text>
</g>
<!-- 28&#45;&gt;33 -->
<g id="edge36" class="edge"><title>28&#45;&gt;33</title>
<path fill="none" stroke="black" d="M3244.3,-807.644C3753.37,-802.853 5401.8,-785.402 5932,-756 5950.55,-754.971 5970.12,-753.538 5989.3,-751.936"/>
<polygon fill="black" stroke="black" points="5989.62,-755.422 5999.29,-751.085 5989.03,-748.447 5989.62,-755.422"/>
</g>
<!-- 35 -->
<g id="node36" class="node"><title>35</title>
<ellipse fill="paleturquoise" stroke="paleturquoise" cx="6079" cy="-594" rx="118.104" ry="18"/>
<text text-anchor="middle" x="6079" y="-589.8" font-family="Times,serif" font-size="14.00">github.com/ugorji/go/codec</text>
</g>
<!-- 29&#45;&gt;35 -->
<g id="edge124" class="edge"><title>29&#45;&gt;35</title>
<path fill="none" stroke="black" d="M6079,-647.697C6079,-639.983 6079,-630.712 6079,-622.112"/>
<polygon fill="black" stroke="black" points="6082.5,-622.104 6079,-612.104 6075.5,-622.104 6082.5,-622.104"/>
</g>
<!-- 30&#45;&gt;16 -->
<g id="edge77" class="edge"><title>30&#45;&gt;16</title>
<path fill="none" stroke="black" d="M5765.16,-216.411C5793.89,-206.306 5830.75,-193.338 5860.97,-182.711"/>
<polygon fill="black" stroke="black" points="5862.25,-185.969 5870.52,-179.349 5859.93,-179.366 5862.25,-185.969"/>
</g>
<!-- 30&#45;&gt;18 -->
<g id="edge75" class="edge"><title>30&#45;&gt;18</title>
<path fill="none" stroke="black" d="M5894.46,-224.726C6180.07,-209.507 6717.61,-172.572 6775,-108 6785.63,-96.0404 6786.01,-83.6119 6775,-72 6746.58,-42.0238 6204.56,-27.2159 5934.42,-21.6731"/>
<polygon fill="black" stroke="black" points="5934.21,-18.1681 5924.14,-21.4638 5934.06,-25.1666 5934.21,-18.1681"/>
</g>
<!-- 30&#45;&gt;20 -->
<g id="edge76" class="edge"><title>30&#45;&gt;20</title>
<path fill="none" stroke="black" d="M5719.88,-215.739C5721.03,-195.713 5719.58,-163.018 5701,-144 5683.22,-125.797 5630.68,-113.185 5578.7,-104.846"/>
<polygon fill="black" stroke="black" points="5579.09,-101.364 5568.67,-103.287 5578.01,-108.281 5579.09,-101.364"/>
</g>
<!-- 36 -->
<g id="node37" class="node"><title>36</title>
<ellipse fill="paleturquoise" stroke="paleturquoise" cx="5550" cy="-162" rx="141.799" ry="18"/>
<text text-anchor="middle" x="5550" y="-157.8" font-family="Times,serif" font-size="14.00">github.com/beorn7/perks/quantile</text>
</g>
<!-- 30&#45;&gt;36 -->
<g id="edge74" class="edge"><title>30&#45;&gt;36</title>
<path fill="none" stroke="black" d="M5677.76,-216.233C5654,-206.334 5623.77,-193.736 5598.67,-183.281"/>
<polygon fill="black" stroke="black" points="5599.91,-180.004 5589.33,-179.388 5597.22,-186.465 5599.91,-180.004"/>
</g>
<!-- 54 -->
<g id="node55" class="node"><title>54</title>
<ellipse fill="paleturquoise" stroke="paleturquoise" cx="5261" cy="-162" rx="129.118" ry="18"/>
<text text-anchor="middle" x="5261" y="-157.8" font-family="Times,serif" font-size="14.00">github.com/prometheus/procfs</text>
</g>
<!-- 30&#45;&gt;54 -->
<g id="edge78" class="edge"><title>30&#45;&gt;54</title>
<path fill="none" stroke="black" d="M5620.8,-218.112C5542.3,-206.087 5432.49,-189.268 5354.89,-177.381"/>
<polygon fill="black" stroke="black" points="5355.05,-173.865 5344.63,-175.811 5353.99,-180.784 5355.05,-173.865"/>
</g>
<!-- 31&#45;&gt;29 -->
<g id="edge178" class="edge"><title>31&#45;&gt;29</title>
<path fill="none" stroke="black" d="M6412.57,-721.94C6340.8,-710.12 6241.39,-693.747 6169.79,-681.954"/>
<polygon fill="black" stroke="black" points="6170.31,-678.493 6159.88,-680.321 6169.18,-685.4 6170.31,-678.493"/>
</g>
<!-- 31&#45;&gt;32 -->
<g id="edge179" class="edge"><title>31&#45;&gt;32</title>
<path fill="none" stroke="black" d="M6568.24,-720.941C6611.02,-710.246 6667.3,-696.174 6711.66,-685.085"/>
<polygon fill="black" stroke="black" points="6712.65,-688.444 6721.51,-682.623 6710.96,-681.653 6712.65,-688.444"/>
</g>
<!-- 34 -->
<g id="node35" class="node"><title>34</title>
<ellipse fill="paleturquoise" stroke="paleturquoise" cx="6594" cy="-594" rx="97.8576" ry="18"/>
<text text-anchor="middle" x="6594" y="-589.8" font-family="Times,serif" font-size="14.00">github.com/miekg/dns</text>
</g>
<!-- 32&#45;&gt;34 -->
<g id="edge119" class="edge"><title>32&#45;&gt;34</title>
<path fill="none" stroke="black" d="M6739.45,-648.588C6711.27,-638.205 6674.74,-624.746 6645.34,-613.915"/>
<polygon fill="black" stroke="black" points="6646.26,-610.523 6635.67,-610.35 6643.84,-617.092 6646.26,-610.523"/>
</g>
<!-- 33&#45;&gt;29 -->
<g id="edge125" class="edge"><title>33&#45;&gt;29</title>
<path fill="none" stroke="black" d="M6106.85,-719.697C6102.6,-711.644 6097.44,-701.894 6092.73,-692.982"/>
<polygon fill="black" stroke="black" points="6095.81,-691.31 6088.04,-684.104 6089.62,-694.581 6095.81,-691.31"/>
</g>
<!-- 33&#45;&gt;30 -->
<g id="edge127" class="edge"><title>33&#45;&gt;30</title>
<path fill="none" stroke="black" d="M6006.28,-724.152C5980.51,-716.257 5955.27,-703.744 5937,-684 5909.53,-654.313 5918,-635.447 5918,-595 5918,-595 5918,-595 5918,-377 5918,-336.031 5922.54,-317.388 5894,-288 5878.22,-271.749 5857.65,-260.436 5836.17,-252.571"/>
<polygon fill="black" stroke="black" points="5837.18,-249.218 5826.59,-249.301 5834.92,-255.843 5837.18,-249.218"/>
</g>
<!-- 33&#45;&gt;32 -->
<g id="edge129" class="edge"><title>33&#45;&gt;32</title>
<path fill="none" stroke="black" d="M6231.98,-724.847C6351.71,-712.299 6537.85,-692.795 6660.34,-679.959"/>
<polygon fill="black" stroke="black" points="6660.93,-683.416 6670.51,-678.892 6660.2,-676.454 6660.93,-683.416"/>
</g>
<!-- 33&#45;&gt;34 -->
<g id="edge126" class="edge"><title>33&#45;&gt;34</title>
<path fill="none" stroke="black" d="M6234.17,-725.046C6368.06,-711.255 6568.69,-689.737 6575,-684 6591.85,-668.687 6595.75,-642.413 6595.94,-622.37"/>
<polygon fill="black" stroke="black" points="6599.44,-622.195 6595.74,-612.267 6592.44,-622.336 6599.44,-622.195"/>
</g>
<!-- 67 -->
<g id="node68" class="node"><title>67</title>
<ellipse fill="paleturquoise" stroke="paleturquoise" cx="6398" cy="-666" rx="167.841" ry="18"/>
<text text-anchor="middle" x="6398" y="-661.8" font-family="Times,serif" font-size="14.00">github.com/skynetservices/skydns/cache</text>
</g>
<!-- 33&#45;&gt;67 -->
<g id="edge128" class="edge"><title>33&#45;&gt;67</title>
<path fill="none" stroke="black" d="M6179.29,-721.291C6222.4,-710.588 6279.62,-696.385 6324.72,-685.191"/>
<polygon fill="black" stroke="black" points="6325.58,-688.584 6334.44,-682.778 6323.89,-681.79 6325.58,-688.584"/>
</g>
<!-- 53 -->
<g id="node54" class="node"><title>53</title>
<ellipse fill="paleturquoise" stroke="paleturquoise" cx="550" cy="-234" rx="145.884" ry="18"/>
<text text-anchor="middle" x="550" y="-229.8" font-family="Times,serif" font-size="14.00">github.com/emicklei/go&#45;restful/log</text>
</g>
<!-- 39&#45;&gt;53 -->
<g id="edge122" class="edge"><title>39&#45;&gt;53</title>
<path fill="none" stroke="black" d="M617.172,-362.4C638.159,-354.559 658.313,-342.512 671,-324 680.045,-310.802 679.755,-301.392 671,-288 660.942,-272.613 645.319,-261.666 628.603,-253.886"/>
<polygon fill="black" stroke="black" points="629.804,-250.593 619.233,-249.882 627.053,-257.03 629.804,-250.593"/>
</g>
<!-- 66 -->
<g id="node67" class="node"><title>66</title>
<ellipse fill="paleturquoise" stroke="paleturquoise" cx="531" cy="-306" rx="130.836" ry="18"/>
<text text-anchor="middle" x="531" y="-301.8" font-family="Times,serif" font-size="14.00">github.com/emicklei/go&#45;restful</text>
</g>
<!-- 39&#45;&gt;66 -->
<g id="edge121" class="edge"><title>39&#45;&gt;66</title>
<path fill="none" stroke="black" d="M533.258,-359.697C532.928,-351.983 532.531,-342.712 532.162,-334.112"/>
<polygon fill="black" stroke="black" points="535.658,-333.945 531.733,-324.104 528.665,-334.245 535.658,-333.945"/>
</g>
<!-- 41&#45;&gt;0 -->
<g id="edge172" class="edge"><title>41&#45;&gt;0</title>
<path fill="none" stroke="black" d="M4127.17,-507.183C4174.75,-497.944 4236.46,-484.472 4290,-468 4331.18,-455.331 4339.67,-447.137 4380,-432 4410.71,-420.473 4445.22,-408.304 4473.48,-398.538"/>
<polygon fill="black" stroke="black" points="4474.89,-401.755 4483.21,-395.188 4472.61,-395.137 4474.89,-401.755"/>
</g>
<!-- 41&#45;&gt;1 -->
<g id="edge168" class="edge"><title>41&#45;&gt;1</title>
<path fill="none" stroke="black" d="M3955.34,-508.874C3937.02,-506.909 3917.93,-505.146 3900,-504 2764.87,-431.441 2475.2,-553.871 1341,-468 1282.62,-463.58 866.768,-429.856 819,-396 730.611,-333.353 747.239,-180.572 758.365,-118.198"/>
<polygon fill="black" stroke="black" points="761.815,-118.789 760.22,-108.315 754.936,-117.498 761.815,-118.789"/>
</g>
<!-- 41&#45;&gt;2 -->
<g id="edge173" class="edge"><title>41&#45;&gt;2</title>
<path fill="none" stroke="black" d="M4154.06,-510.435C4212.54,-502.583 4286.03,-489.418 4349,-468 4381.75,-456.861 4385.02,-442.42 4418,-432 4476.35,-413.566 4650.66,-442.011 4691,-396 4719.01,-364.05 4669.15,-339.695 4620.79,-324.608"/>
<polygon fill="black" stroke="black" points="4621.75,-321.241 4611.17,-321.714 4619.74,-327.945 4621.75,-321.241"/>
</g>
<!-- 41&#45;&gt;5 -->
<g id="edge169" class="edge"><title>41&#45;&gt;5</title>
<path fill="none" stroke="black" d="M3950.6,-509.46C3823.97,-494.555 3619.14,-470.247 3611,-468 3573.02,-457.518 3566.55,-446.69 3530,-432 3499.94,-419.919 3465.94,-407.576 3438.21,-397.844"/>
<polygon fill="black" stroke="black" points="3439.28,-394.51 3428.68,-394.516 3436.97,-401.118 3439.28,-394.51"/>
</g>
<!-- 41&#45;&gt;7 -->
<g id="edge171" class="edge"><title>41&#45;&gt;7</title>
<path fill="none" stroke="black" d="M4150.98,-509.982C4231.41,-500.668 4346.26,-485.982 4446,-468 4450.43,-467.201 4758,-398.061 4762,-396 4793.19,-379.934 4822.37,-351.868 4841.06,-331.54"/>
<polygon fill="black" stroke="black" points="4843.85,-333.677 4847.93,-323.901 4838.64,-328.996 4843.85,-333.677"/>
</g>
<!-- 41&#45;&gt;12 -->
<g id="edge176" class="edge"><title>41&#45;&gt;12</title>
<path fill="none" stroke="black" d="M4179.09,-516.406C4246.56,-510.309 4329.05,-496.916 4398,-468 4422.59,-457.687 4421.33,-442.126 4446,-432 4500.77,-409.516 4671.06,-440.606 4710,-396 4726.9,-376.642 4711.96,-302.64 4702.07,-262.045"/>
<polygon fill="black" stroke="black" points="4705.45,-261.116 4699.63,-252.261 4698.66,-262.811 4705.45,-261.116"/>
</g>
<!-- 41&#45;&gt;14 -->
<g id="edge177" class="edge"><title>41&#45;&gt;14</title>
<path fill="none" stroke="black" d="M3953.72,-509.079C3935.89,-507.147 3917.39,-505.343 3900,-504 3110.23,-443.037 2901.49,-531.255 2121,-396 1999.48,-374.941 1928.05,-421.873 1853,-324 1823.79,-285.909 1820.87,-251.659 1853,-216 1877.75,-188.539 2085.78,-174.366 2227.84,-167.821"/>
<polygon fill="black" stroke="black" points="2228.12,-171.312 2237.95,-167.363 2227.8,-164.319 2228.12,-171.312"/>
</g>
<!-- 41&#45;&gt;26 -->
<g id="edge170" class="edge"><title>41&#45;&gt;26</title>
<path fill="none" stroke="black" d="M4156.27,-510.784C4292.71,-497.79 4527.43,-475.435 4667.94,-462.053"/>
<polygon fill="black" stroke="black" points="4668.69,-465.498 4678.31,-461.066 4668.02,-458.53 4668.69,-465.498"/>
</g>
<!-- 64 -->
<g id="node65" class="node"><title>64</title>
<ellipse fill="paleturquoise" stroke="paleturquoise" cx="3764" cy="-450" rx="143.587" ry="18"/>
<text text-anchor="middle" x="3764" y="-445.8" font-family="Times,serif" font-size="14.00">k8s.io/kubernetes/pkg/api/v1beta3</text>
</g>
<!-- 41&#45;&gt;64 -->
<g id="edge175" class="edge"><title>41&#45;&gt;64</title>
<path fill="none" stroke="black" d="M3987.51,-505.897C3943.05,-494.978 3882.85,-480.19 3836.12,-468.714"/>
<polygon fill="black" stroke="black" points="3836.91,-465.304 3826.36,-466.317 3835.24,-472.102 3836.91,-465.304"/>
</g>
<!-- 41&#45;&gt;68 -->
<g id="edge174" class="edge"><title>41&#45;&gt;68</title>
<path fill="none" stroke="black" d="M4049,-503.697C4049,-495.983 4049,-486.712 4049,-478.112"/>
<polygon fill="black" stroke="black" points="4052.5,-478.104 4049,-468.104 4045.5,-478.104 4052.5,-478.104"/>
</g>
<!-- 42&#45;&gt;56 -->
<g id="edge120" class="edge"><title>42&#45;&gt;56</title>
<path fill="none" stroke="black" d="M2418.23,-290.24C2480.78,-278.437 2568.14,-261.955 2631.13,-250.071"/>
<polygon fill="black" stroke="black" points="2631.84,-253.498 2641.02,-248.204 2630.54,-246.619 2631.84,-253.498"/>
</g>
<!-- 43&#45;&gt;1 -->
<g id="edge90" class="edge"><title>43&#45;&gt;1</title>
<path fill="none" stroke="black" d="M1393.1,-437.425C1374.08,-435.524 1354.47,-433.641 1336,-432 1282.95,-427.287 901.358,-426.934 858,-396 767.366,-331.337 761.099,-180.279 762.596,-118.288"/>
<polygon fill="black" stroke="black" points="766.1,-118.233 762.933,-108.123 759.104,-118.001 766.1,-118.233"/>
</g>
<!-- 43&#45;&gt;2 -->
<g id="edge93" class="edge"><title>43&#45;&gt;2</title>
<path fill="none" stroke="black" d="M1653.05,-448.013C1986.91,-445.17 2812.73,-434.503 3503,-396 3845.47,-376.897 4249.77,-337.716 4439.47,-318.35"/>
<polygon fill="black" stroke="black" points="4439.85,-321.829 4449.44,-317.33 4439.14,-314.866 4439.85,-321.829"/>
</g>
<!-- 43&#45;&gt;5 -->
<g id="edge91" class="edge"><title>43&#45;&gt;5</title>
<path fill="none" stroke="black" d="M1617.63,-438.321C1646.48,-435.944 1677.35,-433.645 1706,-432 2289.5,-398.489 2988.52,-384.95 3263.53,-380.662"/>
<polygon fill="black" stroke="black" points="3263.58,-384.162 3273.53,-380.507 3263.48,-377.163 3263.58,-384.162"/>
</g>
<!-- 43&#45;&gt;11 -->
<g id="edge95" class="edge"><title>43&#45;&gt;11</title>
<path fill="none" stroke="black" d="M1439.83,-433.5C1410.33,-424.761 1375.23,-412.29 1346,-396 1314.2,-378.277 1282.62,-350.807 1261.9,-331.073"/>
<polygon fill="black" stroke="black" points="1264.13,-328.364 1254.51,-323.925 1259.27,-333.395 1264.13,-328.364"/>
</g>
<!-- 43&#45;&gt;13 -->
<g id="edge96" class="edge"><title>43&#45;&gt;13</title>
<path fill="none" stroke="black" d="M1606.73,-436.926C1662.64,-428.727 1732.08,-415.711 1792,-396 1820,-386.791 1889.33,-351.501 1933.88,-328.222"/>
<polygon fill="black" stroke="black" points="1935.76,-331.191 1942.99,-323.45 1932.51,-324.991 1935.76,-331.191"/>
</g>
<!-- 43&#45;&gt;14 -->
<g id="edge99" class="edge"><title>43&#45;&gt;14</title>
<path fill="none" stroke="black" d="M1584.56,-434.758C1626.24,-425.71 1670.58,-412.575 1683,-396 1692.59,-383.195 1686.14,-375.689 1683,-360 1679.6,-343.003 1671.4,-340.997 1668,-324 1664.86,-308.311 1664.15,-303.531 1668,-288 1676.7,-252.878 1675.79,-235.919 1706,-216 1727.67,-201.71 2049.68,-180.946 2233.96,-170.139"/>
<polygon fill="black" stroke="black" points="2234.21,-173.631 2243.99,-169.553 2233.8,-166.642 2234.21,-173.631"/>
</g>
<!-- 43&#45;&gt;22 -->
<g id="edge97" class="edge"><title>43&#45;&gt;22</title>
<path fill="none" stroke="black" d="M1392.65,-437.49C1373.76,-435.591 1354.32,-433.692 1336,-432 1287.49,-427.518 937.414,-425.967 899,-396 833.628,-345.002 810.984,-289.158 850,-216 856.946,-202.975 868.671,-192.585 880.992,-184.577"/>
<polygon fill="black" stroke="black" points="882.806,-187.57 889.565,-179.411 879.193,-181.575 882.806,-187.57"/>
</g>
<!-- 43&#45;&gt;39 -->
<g id="edge89" class="edge"><title>43&#45;&gt;39</title>
<path fill="none" stroke="black" d="M1382.82,-438.789C1354.99,-436.482 1325.46,-434.097 1298,-432 1182.14,-423.154 868.351,-401.682 680.912,-388.947"/>
<polygon fill="black" stroke="black" points="680.91,-385.439 670.696,-388.254 680.436,-392.423 680.91,-385.439"/>
</g>
<!-- 43&#45;&gt;51 -->
<g id="edge98" class="edge"><title>43&#45;&gt;51</title>
<path fill="none" stroke="black" d="M1432.81,-433.851C1391.57,-424.248 1338.37,-410.859 1292,-396 1271.09,-389.301 1126.23,-336.227 1108,-324 1081.91,-306.508 1057.76,-279.759 1041.92,-260.151"/>
<polygon fill="black" stroke="black" points="1044.61,-257.906 1035.66,-252.233 1039.12,-262.248 1044.61,-257.906"/>
</g>
<!-- 43&#45;&gt;52 -->
<g id="edge100" class="edge"><title>43&#45;&gt;52</title>
<path fill="none" stroke="black" d="M1430.68,-433.999C1410.58,-426.127 1390.95,-414.162 1379,-396 1364.98,-374.7 1374.97,-302.153 1381.9,-262.105"/>
<polygon fill="black" stroke="black" points="1385.35,-262.665 1383.66,-252.207 1378.46,-261.438 1385.35,-262.665"/>
</g>
<!-- 43&#45;&gt;60 -->
<g id="edge92" class="edge"><title>43&#45;&gt;60</title>
<path fill="none" stroke="black" d="M1620.63,-438.707C1648.62,-436.392 1678.35,-434.023 1706,-432 2466.81,-376.322 2657.67,-372.057 3419,-324 3462.02,-321.285 3508.91,-318.322 3551.31,-315.642"/>
<polygon fill="black" stroke="black" points="3551.66,-319.127 3561.42,-315.003 3551.22,-312.141 3551.66,-319.127"/>
</g>
<!-- 61 -->
<g id="node62" class="node"><title>61</title>
<ellipse fill="paleturquoise" stroke="paleturquoise" cx="1531" cy="-378" rx="142.936" ry="18"/>
<text text-anchor="middle" x="1531" y="-373.8" font-family="Times,serif" font-size="14.00">k8s.io/kubernetes/pkg/capabilities</text>
</g>
<!-- 43&#45;&gt;61 -->
<g id="edge94" class="edge"><title>43&#45;&gt;61</title>
<path fill="none" stroke="black" d="M1509.17,-431.697C1512.43,-423.813 1516.37,-414.304 1520,-405.546"/>
<polygon fill="black" stroke="black" points="1523.32,-406.683 1523.91,-396.104 1516.85,-404.003 1523.32,-406.683"/>
</g>
<!-- 43&#45;&gt;62 -->
<g id="edge101" class="edge"><title>43&#45;&gt;62</title>
<path fill="none" stroke="black" d="M1596.44,-435.828C1630.92,-427.997 1669.02,-415.591 1700,-396 1788.74,-339.879 1758.16,-261.059 1853,-216 1907.6,-190.059 3727.34,-169.764 4256.83,-164.397"/>
<polygon fill="black" stroke="black" points="4257.24,-167.893 4267.2,-164.292 4257.17,-160.894 4257.24,-167.893"/>
</g>
<!-- 44&#45;&gt;30 -->
<g id="edge187" class="edge"><title>44&#45;&gt;30</title>
<path fill="none" stroke="black" d="M5702.01,-503.966C5704.85,-456.291 5712.88,-321.185 5716.36,-262.63"/>
<polygon fill="black" stroke="black" points="5719.87,-262.497 5716.97,-252.306 5712.88,-262.081 5719.87,-262.497"/>
</g>
<!-- 45&#45;&gt;12 -->
<g id="edge165" class="edge"><title>45&#45;&gt;12</title>
<path fill="none" stroke="black" d="M5010.39,-504.757C5032.27,-496.475 5056.13,-484.562 5074,-468 5133.96,-412.417 5166.05,-349.352 5112,-288 5092.81,-266.217 4936.39,-251.038 4820.73,-242.668"/>
<polygon fill="black" stroke="black" points="4820.95,-239.175 4810.73,-241.954 4820.45,-246.157 4820.95,-239.175"/>
</g>
<!-- 47&#45;&gt;30 -->
<g id="edge73" class="edge"><title>47&#45;&gt;30</title>
<path fill="none" stroke="black" d="M5387.65,-504.177C5447.38,-455.506 5620.48,-314.459 5689.3,-258.387"/>
<polygon fill="black" stroke="black" points="5691.62,-261.012 5697.16,-251.982 5687.2,-255.585 5691.62,-261.012"/>
</g>
<!-- 48&#45;&gt;12 -->
<g id="edge117" class="edge"><title>48&#45;&gt;12</title>
<path fill="none" stroke="black" d="M3144.76,-589.291C3365.28,-582.736 3814.93,-567.165 4195,-540 4215.38,-538.543 4909.2,-478.022 4927,-468 4943.81,-458.537 5018.87,-342.597 5024,-324 5028.26,-308.576 5034.38,-300.18 5024,-288 4998.73,-258.329 4908.92,-245.209 4829.51,-239.438"/>
<polygon fill="black" stroke="black" points="4829.6,-235.936 4819.39,-238.737 4829.12,-242.919 4829.6,-235.936"/>
</g>
<!-- 48&#45;&gt;15 -->
<g id="edge118" class="edge"><title>48&#45;&gt;15</title>
<path fill="none" stroke="black" d="M2886.17,-585.191C2673.32,-571.658 2238.53,-544.015 2027.8,-530.617"/>
<polygon fill="black" stroke="black" points="2027.84,-527.112 2017.63,-529.97 2027.39,-534.098 2027.84,-527.112"/>
</g>
<!-- 51&#45;&gt;22 -->
<g id="edge106" class="edge"><title>51&#45;&gt;22</title>
<path fill="none" stroke="black" d="M1000.25,-216.055C988.122,-207.027 973.034,-195.792 959.869,-185.987"/>
<polygon fill="black" stroke="black" points="961.656,-182.955 951.545,-179.789 957.475,-188.569 961.656,-182.955"/>
</g>
<!-- 51&#45;&gt;55 -->
<g id="edge105" class="edge"><title>51&#45;&gt;55</title>
<path fill="none" stroke="black" d="M1134.33,-221.469C1153.55,-219.572 1173.35,-217.68 1192,-216 1376.65,-199.368 1590.34,-182.844 1724.84,-172.777"/>
<polygon fill="black" stroke="black" points="1725.47,-176.239 1735.19,-172.003 1724.95,-169.258 1725.47,-176.239"/>
</g>
<!-- 60&#45;&gt;50 -->
<g id="edge144" class="edge"><title>60&#45;&gt;50</title>
<path fill="none" stroke="black" d="M3761.99,-290.411C3820.41,-278.891 3901.82,-262.838 3961.99,-250.974"/>
<polygon fill="black" stroke="black" points="3962.7,-254.402 3971.83,-249.033 3961.34,-247.534 3962.7,-254.402"/>
</g>
<!-- 60&#45;&gt;59 -->
<g id="edge143" class="edge"><title>60&#45;&gt;59</title>
<path fill="none" stroke="black" d="M3575.66,-294.445C3430.02,-280.76 3178.41,-257.119 3040.45,-244.157"/>
<polygon fill="black" stroke="black" points="3040.6,-240.655 3030.31,-243.204 3039.94,-247.624 3040.6,-240.655"/>
</g>
<!-- 62&#45;&gt;1 -->
<g id="edge155" class="edge"><title>62&#45;&gt;1</title>
<path fill="none" stroke="black" d="M4307.76,-148.974C4289.32,-146.974 4270.07,-145.172 4252,-144 3573.21,-99.9669 1400.02,-92.4017 877.681,-91.2089"/>
<polygon fill="black" stroke="black" points="877.51,-87.7086 867.502,-91.186 877.494,-94.7085 877.51,-87.7086"/>
</g>
<!-- 69 -->
<g id="node70" class="node"><title>69</title>
<ellipse fill="paleturquoise" stroke="paleturquoise" cx="4395" cy="-90" rx="106.026" ry="18"/>
<text text-anchor="middle" x="4395" y="-85.8" font-family="Times,serif" font-size="14.00">github.com/ghodss/yaml</text>
</g>
<!-- 62&#45;&gt;69 -->
<g id="edge154" class="edge"><title>62&#45;&gt;69</title>
<path fill="none" stroke="black" d="M4398.76,-143.697C4398.21,-135.983 4397.55,-126.712 4396.94,-118.112"/>
<polygon fill="black" stroke="black" points="4400.43,-117.83 4396.22,-108.104 4393.44,-118.328 4400.43,-117.83"/>
</g>
<!-- 64&#45;&gt;0 -->
<g id="edge109" class="edge"><title>64&#45;&gt;0</title>
<path fill="none" stroke="black" d="M3866.01,-437.312C3883.03,-435.464 3900.51,-433.628 3917,-432 4082.83,-415.632 4274.15,-399.563 4398.56,-389.488"/>
<polygon fill="black" stroke="black" points="4399.2,-392.947 4408.89,-388.652 4398.64,-385.97 4399.2,-392.947"/>
</g>
<!-- 64&#45;&gt;1 -->
<g id="edge107" class="edge"><title>64&#45;&gt;1</title>
<path fill="none" stroke="black" d="M3629.42,-443.576C3335.71,-431.675 2655.1,-403.716 2550,-396 2239.41,-373.198 2156.77,-392.614 1853,-324 1713.14,-292.409 1687.94,-251.423 1549,-216 1305.53,-153.928 1011.32,-116.922 861.684,-100.724"/>
<polygon fill="black" stroke="black" points="861.918,-97.2289 851.601,-99.6402 861.17,-104.189 861.918,-97.2289"/>
</g>
<!-- 64&#45;&gt;5 -->
<g id="edge108" class="edge"><title>64&#45;&gt;5</title>
<path fill="none" stroke="black" d="M3686.44,-434.75C3621.46,-422.811 3529.03,-405.83 3463.3,-393.752"/>
<polygon fill="black" stroke="black" points="3463.86,-390.297 3453.39,-391.932 3462.59,-397.182 3463.86,-390.297"/>
</g>
<!-- 64&#45;&gt;12 -->
<g id="edge113" class="edge"><title>64&#45;&gt;12</title>
<path fill="none" stroke="black" d="M3837.54,-434.498C3881.17,-425.143 3937.28,-411.787 3986,-396 4105.43,-357.303 4125.52,-319.672 4247,-288 4351.64,-260.717 4473.73,-247.447 4564,-241.01"/>
<polygon fill="black" stroke="black" points="4564.29,-244.499 4574.02,-240.315 4563.8,-237.516 4564.29,-244.499"/>
</g>
<!-- 64&#45;&gt;13 -->
<g id="edge115" class="edge"><title>64&#45;&gt;13</title>
<path fill="none" stroke="black" d="M3636.87,-441.572C3478.32,-432.089 3199,-414.661 2960,-396 2637.47,-370.817 2256.21,-334.554 2076.93,-317.117"/>
<polygon fill="black" stroke="black" points="2077.01,-313.608 2066.72,-316.123 2076.33,-320.575 2077.01,-313.608"/>
</g>
<!-- 64&#45;&gt;23 -->
<g id="edge112" class="edge"><title>64&#45;&gt;23</title>
<path fill="none" stroke="black" d="M3802.68,-432.583C3922.08,-382.002 4280.07,-231.036 4335,-216 4380.66,-203.5 4496.61,-187.352 4584.28,-176.181"/>
<polygon fill="black" stroke="black" points="4584.81,-179.643 4594.29,-174.913 4583.92,-172.699 4584.81,-179.643"/>
</g>
<!-- 64&#45;&gt;37 -->
<g id="edge114" class="edge"><title>64&#45;&gt;37</title>
<path fill="none" stroke="black" d="M3783.72,-431.999C3816.03,-402.018 3873.74,-338.175 3843,-288 3833.84,-273.05 3818.99,-262.152 3803.35,-254.274"/>
<polygon fill="black" stroke="black" points="3804.63,-251.009 3794.08,-249.977 3801.68,-257.359 3804.63,-251.009"/>
</g>
<!-- 64&#45;&gt;42 -->
<g id="edge111" class="edge"><title>64&#45;&gt;42</title>
<path fill="none" stroke="black" d="M3629.4,-443.588C3503.94,-436.958 3326.86,-423.091 3263,-396 3240.05,-386.266 3243.2,-369.106 3220,-360 3073.77,-302.61 2670.66,-335.641 2514,-324 2497.55,-322.778 2480.25,-321.309 2463.19,-319.752"/>
<polygon fill="black" stroke="black" points="2463.47,-316.263 2453.19,-318.827 2462.82,-323.233 2463.47,-316.263"/>
</g>
<!-- 64&#45;&gt;50 -->
<g id="edge116" class="edge"><title>64&#45;&gt;50</title>
<path fill="none" stroke="black" d="M3789.59,-432.072C3805.3,-421.675 3825.82,-408.08 3844,-396 3892.05,-364.069 3907.18,-360.326 3952,-324 3976.79,-303.91 4002.56,-278.173 4020.32,-259.548"/>
<polygon fill="black" stroke="black" points="4023.09,-261.711 4027.42,-252.039 4018,-256.903 4023.09,-261.711"/>
</g>
<!-- 64&#45;&gt;60 -->
<g id="edge110" class="edge"><title>64&#45;&gt;60</title>
<path fill="none" stroke="black" d="M3754.83,-431.871C3741.71,-407.35 3717.45,-362.032 3702.05,-333.259"/>
<polygon fill="black" stroke="black" points="3705,-331.354 3697.2,-324.189 3698.83,-334.658 3705,-331.354"/>
</g>
<!-- 66&#45;&gt;53 -->
<g id="edge123" class="edge"><title>66&#45;&gt;53</title>
<path fill="none" stroke="black" d="M535.697,-287.697C537.813,-279.898 540.362,-270.509 542.718,-261.829"/>
<polygon fill="black" stroke="black" points="546.116,-262.672 545.357,-252.104 539.36,-260.838 546.116,-262.672"/>
</g>
<!-- 67&#45;&gt;34 -->
<g id="edge166" class="edge"><title>67&#45;&gt;34</title>
<path fill="none" stroke="black" d="M6443.95,-648.588C6473.26,-638.123 6511.3,-624.535 6541.75,-613.66"/>
<polygon fill="black" stroke="black" points="6543.11,-616.891 6551.35,-610.232 6540.76,-610.299 6543.11,-616.891"/>
</g>
<!-- 68&#45;&gt;0 -->
<g id="edge131" class="edge"><title>68&#45;&gt;0</title>
<path fill="none" stroke="black" d="M4132.96,-436.807C4215.29,-424.851 4340.92,-406.605 4428.97,-393.818"/>
<polygon fill="black" stroke="black" points="4429.58,-397.266 4438.97,-392.365 4428.57,-390.338 4429.58,-397.266"/>
</g>
<!-- 68&#45;&gt;5 -->
<g id="edge130" class="edge"><title>68&#45;&gt;5</title>
<path fill="none" stroke="black" d="M3961.35,-437.348C3946.56,-435.486 3931.35,-433.636 3917,-432 3767.92,-415.006 3595.07,-398.417 3487.36,-388.45"/>
<polygon fill="black" stroke="black" points="3487.42,-384.941 3477.14,-387.507 3486.77,-391.912 3487.42,-384.941"/>
</g>
<!-- 68&#45;&gt;12 -->
<g id="edge135" class="edge"><title>68&#45;&gt;12</title>
<path fill="none" stroke="black" d="M4078.75,-432.344C4096.28,-422.27 4118.73,-408.913 4138,-396 4160.15,-381.157 4163.1,-373.663 4186,-360 4251.58,-320.874 4268.84,-309.888 4342,-288 4417.83,-265.313 4505.86,-252.071 4575.04,-244.497"/>
<polygon fill="black" stroke="black" points="4575.54,-247.964 4585.11,-243.42 4574.79,-241.004 4575.54,-247.964"/>
</g>
<!-- 68&#45;&gt;13 -->
<g id="edge137" class="edge"><title>68&#45;&gt;13</title>
<path fill="none" stroke="black" d="M3963.18,-437.024C3947.83,-435.145 3931.96,-433.373 3917,-432 3627.11,-405.39 3553.51,-414.623 3263,-396 3044.2,-381.974 2989.77,-374.566 2771,-360 2504.44,-342.252 2437.43,-343.486 2171,-324 2141.01,-321.807 2108.48,-319.124 2078.65,-316.543"/>
<polygon fill="black" stroke="black" points="2078.92,-313.053 2068.65,-315.673 2078.31,-320.027 2078.92,-313.053"/>
</g>
<!-- 68&#45;&gt;23 -->
<g id="edge134" class="edge"><title>68&#45;&gt;23</title>
<path fill="none" stroke="black" d="M4064.15,-431.9C4081.17,-413.181 4110.07,-382.799 4138,-360 4182.98,-323.287 4194.19,-312.124 4247,-288 4365.91,-233.678 4513.67,-197.939 4605.67,-179.088"/>
<polygon fill="black" stroke="black" points="4606.4,-182.512 4615.5,-177.095 4605,-175.652 4606.4,-182.512"/>
</g>
<!-- 68&#45;&gt;37 -->
<g id="edge136" class="edge"><title>68&#45;&gt;37</title>
<path fill="none" stroke="black" d="M4032.86,-432.021C4002.06,-400.368 3931.74,-331.611 3862,-288 3840.79,-274.737 3815.69,-263.262 3793.7,-254.413"/>
<polygon fill="black" stroke="black" points="3794.76,-251.068 3784.17,-250.661 3792.2,-257.581 3794.76,-251.068"/>
</g>
<!-- 68&#45;&gt;42 -->
<g id="edge133" class="edge"><title>68&#45;&gt;42</title>
<path fill="none" stroke="black" d="M3979.97,-434.999C3876.72,-414.682 3675.71,-377.544 3503,-360 3113.57,-320.441 3013.94,-343.737 2623,-324 2578.42,-321.749 2529.91,-318.96 2485.85,-316.296"/>
<polygon fill="black" stroke="black" points="2485.83,-312.789 2475.64,-315.676 2485.41,-319.776 2485.83,-312.789"/>
</g>
<!-- 68&#45;&gt;50 -->
<g id="edge138" class="edge"><title>68&#45;&gt;50</title>
<path fill="none" stroke="black" d="M4048.52,-431.849C4047.48,-394.832 4045.02,-307.181 4043.77,-262.386"/>
<polygon fill="black" stroke="black" points="4047.26,-262.13 4043.48,-252.232 4040.26,-262.327 4047.26,-262.13"/>
</g>
<!-- 68&#45;&gt;60 -->
<g id="edge132" class="edge"><title>68&#45;&gt;60</title>
<path fill="none" stroke="black" d="M4011.14,-432.734C3968.36,-414.488 3896.51,-384.272 3834,-360 3804.45,-348.526 3771.25,-336.413 3743.98,-326.668"/>
<polygon fill="black" stroke="black" points="3744.82,-323.25 3734.22,-323.19 3742.47,-329.844 3744.82,-323.25"/>
</g>
<!-- 70 -->
<g id="node71" class="node"><title>70</title>
<ellipse fill="paleturquoise" stroke="paleturquoise" cx="4395" cy="-18" rx="79.3425" ry="18"/>
<text text-anchor="middle" x="4395" y="-13.8" font-family="Times,serif" font-size="14.00">gopkg.in/yaml.v2</text>
</g>
<!-- 69&#45;&gt;70 -->
<g id="edge167" class="edge"><title>69&#45;&gt;70</title>
<path fill="none" stroke="black" d="M4395,-71.6966C4395,-63.9827 4395,-54.7125 4395,-46.1124"/>
<polygon fill="black" stroke="black" points="4398.5,-46.1043 4395,-36.1043 4391.5,-46.1044 4398.5,-46.1043"/>
</g>
</g>
</svg>
