<?xml version="1.0" encoding="UTF-8" standalone="no"?>
<!DOCTYPE svg PUBLIC "-//W3C//DTD SVG 1.1//EN"
 "http://www.w3.org/Graphics/SVG/1.1/DTD/svg11.dtd">
<!-- Generated by graphviz version 2.38.0 (20140413.2041)
 -->
<!-- Title: godep Pages: 1 -->
<svg width="4186pt" height="476pt"
 viewBox="0.00 0.00 4185.98 476.00" xmlns="http://www.w3.org/2000/svg" xmlns:xlink="http://www.w3.org/1999/xlink">
<g id="graph0" class="graph" transform="scale(1 1) rotate(0) translate(4 472)">
<title>godep</title>
<polygon fill="white" stroke="none" points="-4,4 -4,-472 4181.98,-472 4181.98,4 -4,4"/>
<!-- 0 -->
<g id="node1" class="node"><title>0</title>
<ellipse fill="paleturquoise" stroke="paleturquoise" cx="2022.52" cy="-234" rx="111.747" ry="18"/>
<text text-anchor="middle" x="2022.52" y="-229.8" font-family="Times,serif" font-size="14.00">github.com/pborman/uuid</text>
</g>
<!-- 1 -->
<g id="node2" class="node"><title>1</title>
<ellipse fill="paleturquoise" stroke="paleturquoise" cx="2863.52" cy="-234" rx="119.246" ry="18"/>
<text text-anchor="middle" x="2863.52" y="-229.8" font-family="Times,serif" font-size="14.00">k8s.io/kubernetes/pkg/types</text>
</g>
<!-- 2 -->
<g id="node3" class="node"><title>2</title>
<ellipse fill="paleturquoise" stroke="paleturquoise" cx="479.516" cy="-234" rx="152.85" ry="18"/>
<text text-anchor="middle" x="479.516" y="-229.8" font-family="Times,serif" font-size="14.00">k8s.io/kubernetes/pkg/util/validation</text>
</g>
<!-- 3 -->
<g id="node4" class="node"><title>3</title>
<ellipse fill="paleturquoise" stroke="paleturquoise" cx="2336.52" cy="-234" rx="107.739" ry="18"/>
<text text-anchor="middle" x="2336.52" y="-229.8" font-family="Times,serif" font-size="14.00">github.com/juju/ratelimit</text>
</g>
<!-- 4 -->
<g id="node5" class="node"><title>4</title>
<ellipse fill="paleturquoise" stroke="paleturquoise" cx="1550.52" cy="-90" rx="121.598" ry="18"/>
<text text-anchor="middle" x="1550.52" y="-85.8" font-family="Times,serif" font-size="14.00">bitbucket.org/ww/goautoneg</text>
</g>
<!-- 5 -->
<g id="node6" class="node"><title>5</title>
<ellipse fill="paleturquoise" stroke="paleturquoise" cx="1244.52" cy="-90" rx="165.6" ry="18"/>
<text text-anchor="middle" x="1244.52" y="-85.8" font-family="Times,serif" font-size="14.00">github.com/prometheus/common/model</text>
</g>
<!-- 6 -->
<g id="node7" class="node"><title>6</title>
<ellipse fill="paleturquoise" stroke="paleturquoise" cx="2770.52" cy="-162" rx="133.728" ry="18"/>
<text text-anchor="middle" x="2770.52" y="-157.8" font-family="Times,serif" font-size="14.00">k8s.io/kubernetes/pkg/util/yaml</text>
</g>
<!-- 7 -->
<g id="node8" class="node"><title>7</title>
<ellipse fill="paleturquoise" stroke="paleturquoise" cx="2869.52" cy="-90" rx="106.026" ry="18"/>
<text text-anchor="middle" x="2869.52" y="-85.8" font-family="Times,serif" font-size="14.00">github.com/ghodss/yaml</text>
</g>
<!-- 6&#45;&gt;7 -->
<g id="edge1" class="edge"><title>6&#45;&gt;7</title>
<path fill="none" stroke="black" d="M2794.23,-144.233C2807.21,-135.056 2823.47,-123.557 2837.56,-113.598"/>
<polygon fill="black" stroke="black" points="2839.85,-116.261 2846,-107.63 2835.81,-110.545 2839.85,-116.261"/>
</g>
<!-- 8 -->
<g id="node9" class="node"><title>8</title>
<ellipse fill="paleturquoise" stroke="paleturquoise" cx="2641.52" cy="-90" rx="103.66" ry="18"/>
<text text-anchor="middle" x="2641.52" y="-85.8" font-family="Times,serif" font-size="14.00">github.com/golang/glog</text>
</g>
<!-- 6&#45;&gt;8 -->
<g id="edge2" class="edge"><title>6&#45;&gt;8</title>
<path fill="none" stroke="black" d="M2739.94,-144.411C2722.27,-134.822 2699.85,-122.655 2680.87,-112.356"/>
<polygon fill="black" stroke="black" points="2682.33,-109.163 2671.87,-107.47 2678.99,-115.316 2682.33,-109.163"/>
</g>
<!-- 9 -->
<g id="node10" class="node"><title>9</title>
<ellipse fill="paleturquoise" stroke="paleturquoise" cx="2869.52" cy="-18" rx="79.3425" ry="18"/>
<text text-anchor="middle" x="2869.52" y="-13.8" font-family="Times,serif" font-size="14.00">gopkg.in/yaml.v2</text>
</g>
<!-- 7&#45;&gt;9 -->
<g id="edge51" class="edge"><title>7&#45;&gt;9</title>
<path fill="none" stroke="black" d="M2869.52,-71.6966C2869.52,-63.9827 2869.52,-54.7125 2869.52,-46.1124"/>
<polygon fill="black" stroke="black" points="2873.02,-46.1043 2869.52,-36.1043 2866.02,-46.1044 2873.02,-46.1043"/>
</g>
<!-- 10 -->
<g id="node11" class="node"><title>10</title>
<ellipse fill="paleturquoise" stroke="paleturquoise" cx="817.516" cy="-234" rx="128.529" ry="18"/>
<text text-anchor="middle" x="817.516" y="-229.8" font-family="Times,serif" font-size="14.00">speter.net/go/exp/math/dec/inf</text>
</g>
<!-- 11 -->
<g id="node12" class="node"><title>11</title>
<ellipse fill="paleturquoise" stroke="paleturquoise" cx="2575.52" cy="-234" rx="112.869" ry="18"/>
<text text-anchor="middle" x="2575.52" y="-229.8" font-family="Times,serif" font-size="14.00">github.com/google/gofuzz</text>
</g>
<!-- 12 -->
<g id="node13" class="node"><title>12</title>
<ellipse fill="paleturquoise" stroke="paleturquoise" cx="2162.52" cy="-306" rx="111.739" ry="18"/>
<text text-anchor="middle" x="2162.52" y="-301.8" font-family="Times,serif" font-size="14.00">k8s.io/kubernetes/pkg/util</text>
</g>
<!-- 12&#45;&gt;0 -->
<g id="edge7" class="edge"><title>12&#45;&gt;0</title>
<path fill="none" stroke="black" d="M2130.04,-288.765C2110.48,-278.984 2085.37,-266.428 2064.34,-255.91"/>
<polygon fill="black" stroke="black" points="2065.8,-252.731 2055.3,-251.39 2062.67,-258.992 2065.8,-252.731"/>
</g>
<!-- 12&#45;&gt;1 -->
<g id="edge11" class="edge"><title>12&#45;&gt;1</title>
<path fill="none" stroke="black" d="M2255.31,-295.901C2362.01,-285.417 2542.43,-267.623 2697.52,-252 2717,-250.038 2737.76,-247.927 2757.77,-245.882"/>
<polygon fill="black" stroke="black" points="2758.25,-249.352 2767.84,-244.853 2757.54,-242.388 2758.25,-249.352"/>
</g>
<!-- 12&#45;&gt;3 -->
<g id="edge6" class="edge"><title>12&#45;&gt;3</title>
<path fill="none" stroke="black" d="M2202,-289.116C2227.47,-278.868 2260.78,-265.467 2287.88,-254.564"/>
<polygon fill="black" stroke="black" points="2289.22,-257.801 2297.19,-250.821 2286.6,-251.306 2289.22,-257.801"/>
</g>
<!-- 12&#45;&gt;8 -->
<g id="edge4" class="edge"><title>12&#45;&gt;8</title>
<path fill="none" stroke="black" d="M2163.94,-287.759C2166.15,-268.917 2171.72,-238.427 2185.52,-216 2210.93,-174.693 2223.41,-164.166 2267.52,-144 2374.01,-95.3118 2412.62,-124.711 2528.52,-108 2537.53,-106.701 2546.94,-105.321 2556.32,-103.931"/>
<polygon fill="black" stroke="black" points="2557.09,-107.355 2566.47,-102.422 2556.06,-100.431 2557.09,-107.355"/>
</g>
<!-- 12&#45;&gt;11 -->
<g id="edge5" class="edge"><title>12&#45;&gt;11</title>
<path fill="none" stroke="black" d="M2236.35,-292.485C2307.96,-280.348 2416.49,-261.954 2491.39,-249.258"/>
<polygon fill="black" stroke="black" points="2492,-252.705 2501.28,-247.583 2490.83,-245.803 2492,-252.705"/>
</g>
<!-- 13 -->
<g id="node14" class="node"><title>13</title>
<ellipse fill="paleturquoise" stroke="paleturquoise" cx="560.516" cy="-162" rx="147.581" ry="18"/>
<text text-anchor="middle" x="560.516" y="-157.8" font-family="Times,serif" font-size="14.00">github.com/davecgh/go&#45;spew/spew</text>
</g>
<!-- 12&#45;&gt;13 -->
<g id="edge3" class="edge"><title>12&#45;&gt;13</title>
<path fill="none" stroke="black" d="M2052.22,-303.096C1818.53,-298.448 1288.76,-284.443 1213.52,-252 1192.15,-242.789 1196.77,-225.453 1175.52,-216 1082.23,-174.519 819.165,-189.496 717.516,-180 703.897,-178.728 689.623,-177.306 675.467,-175.841"/>
<polygon fill="black" stroke="black" points="675.501,-172.325 665.192,-174.768 674.774,-179.287 675.501,-172.325"/>
</g>
<!-- 14 -->
<g id="node15" class="node"><title>14</title>
<ellipse fill="paleturquoise" stroke="paleturquoise" cx="1427.52" cy="-234" rx="205.466" ry="18"/>
<text text-anchor="middle" x="1427.52" y="-229.8" font-family="Times,serif" font-size="14.00">github.com/prometheus/client_golang/prometheus</text>
</g>
<!-- 12&#45;&gt;14 -->
<g id="edge8" class="edge"><title>12&#45;&gt;14</title>
<path fill="none" stroke="black" d="M2069.05,-296.099C1943.29,-284.121 1718.39,-262.702 1571.08,-248.672"/>
<polygon fill="black" stroke="black" points="1571.33,-245.181 1561.05,-247.717 1570.67,-252.15 1571.33,-245.181"/>
</g>
<!-- 15 -->
<g id="node16" class="node"><title>15</title>
<ellipse fill="paleturquoise" stroke="paleturquoise" cx="1065.52" cy="-234" rx="101.349" ry="18"/>
<text text-anchor="middle" x="1065.52" y="-229.8" font-family="Times,serif" font-size="14.00">github.com/spf13/pflag</text>
</g>
<!-- 12&#45;&gt;15 -->
<g id="edge9" class="edge"><title>12&#45;&gt;15</title>
<path fill="none" stroke="black" d="M2052.91,-302.404C1871.2,-297.357 1496.27,-283.79 1180.52,-252 1169.91,-250.932 1158.78,-249.581 1147.8,-248.109"/>
<polygon fill="black" stroke="black" points="1148.16,-244.626 1137.78,-246.728 1147.2,-251.56 1148.16,-244.626"/>
</g>
<!-- 16 -->
<g id="node17" class="node"><title>16</title>
<ellipse fill="paleturquoise" stroke="paleturquoise" cx="1790.52" cy="-234" rx="102.493" ry="18"/>
<text text-anchor="middle" x="1790.52" y="-229.8" font-family="Times,serif" font-size="14.00">golang.org/x/crypto/ssh</text>
</g>
<!-- 12&#45;&gt;16 -->
<g id="edge10" class="edge"><title>12&#45;&gt;16</title>
<path fill="none" stroke="black" d="M2092.98,-291.916C2028.97,-279.871 1934.17,-262.033 1867.81,-249.546"/>
<polygon fill="black" stroke="black" points="1868.3,-246.076 1857.83,-247.666 1867.01,-252.955 1868.3,-246.076"/>
</g>
<!-- 17 -->
<g id="node18" class="node"><title>17</title>
<ellipse fill="paleturquoise" stroke="paleturquoise" cx="2405.52" cy="-162" rx="128.57" ry="18"/>
<text text-anchor="middle" x="2405.52" y="-157.8" font-family="Times,serif" font-size="14.00">k8s.io/kubernetes/pkg/util/sets</text>
</g>
<!-- 12&#45;&gt;17 -->
<g id="edge12" class="edge"><title>12&#45;&gt;17</title>
<path fill="none" stroke="black" d="M2169.02,-287.918C2177.56,-267.752 2194.48,-234.613 2219.52,-216 2244.57,-197.37 2275.96,-185.281 2305.79,-177.439"/>
<polygon fill="black" stroke="black" points="2306.97,-180.752 2315.83,-174.94 2305.28,-173.959 2306.97,-180.752"/>
</g>
<!-- 19 -->
<g id="node20" class="node"><title>19</title>
<ellipse fill="paleturquoise" stroke="paleturquoise" cx="1488.52" cy="-18" rx="142.968" ry="18"/>
<text text-anchor="middle" x="1488.52" y="-13.8" font-family="Times,serif" font-size="14.00">github.com/golang/protobuf/proto</text>
</g>
<!-- 14&#45;&gt;19 -->
<g id="edge42" class="edge"><title>14&#45;&gt;19</title>
<path fill="none" stroke="black" d="M1297.9,-220.023C1162.86,-201.562 980.96,-159.701 1058.52,-72 1077.91,-50.0656 1232.8,-35.2061 1351.18,-26.9299"/>
<polygon fill="black" stroke="black" points="1351.69,-30.4026 1361.43,-26.223 1351.21,-23.4192 1351.69,-30.4026"/>
</g>
<!-- 34 -->
<g id="node35" class="node"><title>34</title>
<ellipse fill="paleturquoise" stroke="paleturquoise" cx="1794.52" cy="-162" rx="141.799" ry="18"/>
<text text-anchor="middle" x="1794.52" y="-157.8" font-family="Times,serif" font-size="14.00">github.com/beorn7/perks/quantile</text>
</g>
<!-- 14&#45;&gt;34 -->
<g id="edge41" class="edge"><title>14&#45;&gt;34</title>
<path fill="none" stroke="black" d="M1508.96,-217.465C1568.58,-206.095 1649.26,-190.706 1709.65,-179.187"/>
<polygon fill="black" stroke="black" points="1710.38,-182.612 1719.54,-177.3 1709.06,-175.736 1710.38,-182.612"/>
</g>
<!-- 35 -->
<g id="node36" class="node"><title>35</title>
<ellipse fill="paleturquoise" stroke="paleturquoise" cx="855.516" cy="-162" rx="129.118" ry="18"/>
<text text-anchor="middle" x="855.516" y="-157.8" font-family="Times,serif" font-size="14.00">github.com/prometheus/procfs</text>
</g>
<!-- 14&#45;&gt;35 -->
<g id="edge45" class="edge"><title>14&#45;&gt;35</title>
<path fill="none" stroke="black" d="M1313.14,-219.003C1209.91,-206.37 1059.35,-187.944 959.472,-175.722"/>
<polygon fill="black" stroke="black" points="959.717,-172.226 949.365,-174.485 958.866,-179.174 959.717,-172.226"/>
</g>
<!-- 36 -->
<g id="node37" class="node"><title>36</title>
<ellipse fill="paleturquoise" stroke="paleturquoise" cx="2351.52" cy="-90" rx="167.883" ry="18"/>
<text text-anchor="middle" x="2351.52" y="-85.8" font-family="Times,serif" font-size="14.00">github.com/prometheus/client_model/go</text>
</g>
<!-- 14&#45;&gt;36 -->
<g id="edge43" class="edge"><title>14&#45;&gt;36</title>
<path fill="none" stroke="black" d="M1508.75,-217.345C1540.32,-209.123 1575.92,-197.098 1605.52,-180 1625.66,-168.362 1622.21,-153.338 1643.52,-144 1751.84,-96.5271 2056.64,-117.655 2174.52,-108 2190.19,-106.717 2206.63,-105.271 2222.91,-103.779"/>
<polygon fill="black" stroke="black" points="2223.39,-107.25 2233.02,-102.844 2222.74,-100.279 2223.39,-107.25"/>
</g>
<!-- 37 -->
<g id="node38" class="node"><title>37</title>
<ellipse fill="paleturquoise" stroke="paleturquoise" cx="1427.52" cy="-162" rx="169.029" ry="18"/>
<text text-anchor="middle" x="1427.52" y="-157.8" font-family="Times,serif" font-size="14.00">github.com/prometheus/common/expfmt</text>
</g>
<!-- 14&#45;&gt;37 -->
<g id="edge44" class="edge"><title>14&#45;&gt;37</title>
<path fill="none" stroke="black" d="M1427.52,-215.697C1427.52,-207.983 1427.52,-198.712 1427.52,-190.112"/>
<polygon fill="black" stroke="black" points="1431.02,-190.104 1427.52,-180.104 1424.02,-190.104 1431.02,-190.104"/>
</g>
<!-- 18 -->
<g id="node19" class="node"><title>18</title>
<ellipse fill="paleturquoise" stroke="paleturquoise" cx="1927.52" cy="-90" rx="237.876" ry="18"/>
<text text-anchor="middle" x="1927.52" y="-85.8" font-family="Times,serif" font-size="14.00">github.com/matttproud/golang_protobuf_extensions/pbutil</text>
</g>
<!-- 18&#45;&gt;19 -->
<g id="edge13" class="edge"><title>18&#45;&gt;19</title>
<path fill="none" stroke="black" d="M1830.63,-73.5515C1757.08,-61.8232 1656.48,-45.7823 1583.42,-34.1324"/>
<polygon fill="black" stroke="black" points="1583.72,-30.637 1573.3,-32.5186 1582.62,-37.5496 1583.72,-30.637"/>
</g>
<!-- 20 -->
<g id="node21" class="node"><title>20</title>
<ellipse fill="paleturquoise" stroke="paleturquoise" cx="2754.52" cy="-378" rx="110.578" ry="18"/>
<text text-anchor="middle" x="2754.52" y="-373.8" font-family="Times,serif" font-size="14.00">k8s.io/kubernetes/pkg/api</text>
</g>
<!-- 20&#45;&gt;1 -->
<g id="edge24" class="edge"><title>20&#45;&gt;1</title>
<path fill="none" stroke="black" d="M2754.21,-359.97C2754.7,-340.758 2758.09,-309.406 2773.52,-288 2783.26,-274.477 2797.61,-263.833 2812,-255.742"/>
<polygon fill="black" stroke="black" points="2813.72,-258.795 2820.93,-251.032 2810.45,-252.604 2813.72,-258.795"/>
</g>
<!-- 20&#45;&gt;10 -->
<g id="edge28" class="edge"><title>20&#45;&gt;10</title>
<path fill="none" stroke="black" d="M2644.41,-376.015C2259.16,-372.285 990.64,-357.506 910.516,-324 879.027,-310.832 852.009,-281.699 835.335,-260.337"/>
<polygon fill="black" stroke="black" points="838.079,-258.162 829.256,-252.296 832.495,-262.384 838.079,-258.162"/>
</g>
<!-- 20&#45;&gt;12 -->
<g id="edge25" class="edge"><title>20&#45;&gt;12</title>
<path fill="none" stroke="black" d="M2667.8,-366.746C2559.15,-353.9 2373.49,-331.947 2260.02,-318.529"/>
<polygon fill="black" stroke="black" points="2260.29,-315.037 2249.95,-317.338 2259.47,-321.988 2260.29,-315.037"/>
</g>
<!-- 20&#45;&gt;13 -->
<g id="edge14" class="edge"><title>20&#45;&gt;13</title>
<path fill="none" stroke="black" d="M2644.51,-376.19C2266.27,-373.091 1032.86,-360.283 858.516,-324 774.564,-306.528 751.69,-298.303 679.516,-252 659.934,-239.438 659.767,-230.427 641.516,-216 627.65,-205.04 611.506,-194.14 597.296,-185.1"/>
<polygon fill="black" stroke="black" points="599.066,-182.079 588.735,-179.729 595.345,-188.009 599.066,-182.079"/>
</g>
<!-- 20&#45;&gt;17 -->
<g id="edge27" class="edge"><title>20&#45;&gt;17</title>
<path fill="none" stroke="black" d="M2753.81,-359.804C2751.47,-326.516 2741.32,-253.279 2697.52,-216 2671.48,-193.842 2593.95,-180.414 2525.32,-172.619"/>
<polygon fill="black" stroke="black" points="2525.59,-169.128 2515.27,-171.51 2524.83,-176.086 2525.59,-169.128"/>
</g>
<!-- 21 -->
<g id="node22" class="node"><title>21</title>
<ellipse fill="paleturquoise" stroke="paleturquoise" cx="3208.52" cy="-306" rx="105.923" ry="18"/>
<text text-anchor="middle" x="3208.52" y="-301.8" font-family="Times,serif" font-size="14.00">golang.org/x/net/context</text>
</g>
<!-- 20&#45;&gt;21 -->
<g id="edge15" class="edge"><title>20&#45;&gt;21</title>
<path fill="none" stroke="black" d="M2831.79,-365.086C2912.66,-352.616 3039.31,-333.089 3123.1,-320.169"/>
<polygon fill="black" stroke="black" points="3123.75,-323.61 3133.1,-318.627 3122.69,-316.692 3123.75,-323.61"/>
</g>
<!-- 22 -->
<g id="node23" class="node"><title>22</title>
<ellipse fill="paleturquoise" stroke="paleturquoise" cx="2914.52" cy="-306" rx="131.983" ry="18"/>
<text text-anchor="middle" x="2914.52" y="-301.8" font-family="Times,serif" font-size="14.00">k8s.io/kubernetes/pkg/api/meta</text>
</g>
<!-- 20&#45;&gt;22 -->
<g id="edge16" class="edge"><title>20&#45;&gt;22</title>
<path fill="none" stroke="black" d="M2791.22,-360.941C2813.95,-350.999 2843.34,-338.139 2867.73,-327.47"/>
<polygon fill="black" stroke="black" points="2869.39,-330.564 2877.15,-323.349 2866.58,-324.15 2869.39,-330.564"/>
</g>
<!-- 23 -->
<g id="node24" class="node"><title>23</title>
<ellipse fill="paleturquoise" stroke="paleturquoise" cx="1065.52" cy="-306" rx="145.849" ry="18"/>
<text text-anchor="middle" x="1065.52" y="-301.8" font-family="Times,serif" font-size="14.00">k8s.io/kubernetes/pkg/api/resource</text>
</g>
<!-- 20&#45;&gt;23 -->
<g id="edge17" class="edge"><title>20&#45;&gt;23</title>
<path fill="none" stroke="black" d="M2648.86,-372.621C2358.12,-360.572 1545.69,-326.901 1211.72,-313.059"/>
<polygon fill="black" stroke="black" points="1211.63,-309.553 1201.49,-312.636 1211.34,-316.547 1211.63,-309.553"/>
</g>
<!-- 24 -->
<g id="node25" class="node"><title>24</title>
<ellipse fill="paleturquoise" stroke="paleturquoise" cx="2528.52" cy="-306" rx="160.342" ry="18"/>
<text text-anchor="middle" x="2528.52" y="-301.8" font-family="Times,serif" font-size="14.00">k8s.io/kubernetes/pkg/api/unversioned</text>
</g>
<!-- 20&#45;&gt;24 -->
<g id="edge18" class="edge"><title>20&#45;&gt;24</title>
<path fill="none" stroke="black" d="M2705.48,-361.811C2671.78,-351.373 2626.76,-337.429 2590.56,-326.218"/>
<polygon fill="black" stroke="black" points="2591.19,-322.749 2580.6,-323.134 2589.12,-329.436 2591.19,-322.749"/>
</g>
<!-- 25 -->
<g id="node26" class="node"><title>25</title>
<ellipse fill="paleturquoise" stroke="paleturquoise" cx="3504.52" cy="-306" rx="134.273" ry="18"/>
<text text-anchor="middle" x="3504.52" y="-301.8" font-family="Times,serif" font-size="14.00">k8s.io/kubernetes/pkg/auth/user</text>
</g>
<!-- 20&#45;&gt;25 -->
<g id="edge19" class="edge"><title>20&#45;&gt;25</title>
<path fill="none" stroke="black" d="M2851.29,-369.276C2970.3,-359.594 3178.41,-342.066 3356.52,-324 3369.87,-322.645 3383.89,-321.141 3397.77,-319.604"/>
<polygon fill="black" stroke="black" points="3398.28,-323.068 3407.83,-318.48 3397.5,-316.112 3398.28,-323.068"/>
</g>
<!-- 26 -->
<g id="node27" class="node"><title>26</title>
<ellipse fill="paleturquoise" stroke="paleturquoise" cx="3342.52" cy="-162" rx="141.22" ry="18"/>
<text text-anchor="middle" x="3342.52" y="-157.8" font-family="Times,serif" font-size="14.00">k8s.io/kubernetes/pkg/conversion</text>
</g>
<!-- 20&#45;&gt;26 -->
<g id="edge20" class="edge"><title>20&#45;&gt;26</title>
<path fill="none" stroke="black" d="M2862.53,-374.145C3018.37,-368.958 3291.27,-355.46 3323.52,-324 3358.93,-289.443 3354.66,-226.416 3348.52,-190.322"/>
<polygon fill="black" stroke="black" points="3351.87,-189.23 3346.59,-180.046 3344.99,-190.52 3351.87,-189.23"/>
</g>
<!-- 27 -->
<g id="node28" class="node"><title>27</title>
<ellipse fill="paleturquoise" stroke="paleturquoise" cx="3776.52" cy="-306" rx="120.386" ry="18"/>
<text text-anchor="middle" x="3776.52" y="-301.8" font-family="Times,serif" font-size="14.00">k8s.io/kubernetes/pkg/fields</text>
</g>
<!-- 20&#45;&gt;27 -->
<g id="edge21" class="edge"><title>20&#45;&gt;27</title>
<path fill="none" stroke="black" d="M2861.24,-373.143C3028.92,-366.526 3364.2,-351.04 3647.52,-324 3658.82,-322.921 3670.66,-321.61 3682.39,-320.2"/>
<polygon fill="black" stroke="black" points="3683.15,-323.633 3692.65,-318.939 3682.3,-316.685 3683.15,-323.633"/>
</g>
<!-- 28 -->
<g id="node29" class="node"><title>28</title>
<ellipse fill="paleturquoise" stroke="paleturquoise" cx="495.516" cy="-306" rx="121.03" ry="18"/>
<text text-anchor="middle" x="495.516" y="-301.8" font-family="Times,serif" font-size="14.00">k8s.io/kubernetes/pkg/labels</text>
</g>
<!-- 20&#45;&gt;28 -->
<g id="edge22" class="edge"><title>20&#45;&gt;28</title>
<path fill="none" stroke="black" d="M2643.79,-377.604C2330.17,-378.586 1409.15,-376.417 646.516,-324 629.685,-322.843 611.84,-321.204 594.539,-319.394"/>
<polygon fill="black" stroke="black" points="594.742,-315.896 584.426,-318.312 593.997,-322.857 594.742,-315.896"/>
</g>
<!-- 29 -->
<g id="node30" class="node"><title>29</title>
<ellipse fill="paleturquoise" stroke="paleturquoise" cx="3129.52" cy="-234" rx="128.556" ry="18"/>
<text text-anchor="middle" x="3129.52" y="-229.8" font-family="Times,serif" font-size="14.00">k8s.io/kubernetes/pkg/runtime</text>
</g>
<!-- 20&#45;&gt;29 -->
<g id="edge23" class="edge"><title>20&#45;&gt;29</title>
<path fill="none" stroke="black" d="M2846.28,-367.842C2921.39,-359.079 3020.69,-344.204 3055.52,-324 3069.29,-316.007 3094.38,-283.783 3111.49,-260.404"/>
<polygon fill="black" stroke="black" points="3114.37,-262.404 3117.4,-252.252 3108.7,-258.296 3114.37,-262.404"/>
</g>
<!-- 30 -->
<g id="node31" class="node"><title>30</title>
<ellipse fill="paleturquoise" stroke="paleturquoise" cx="4046.52" cy="-306" rx="131.423" ry="18"/>
<text text-anchor="middle" x="4046.52" y="-301.8" font-family="Times,serif" font-size="14.00">k8s.io/kubernetes/pkg/util/rand</text>
</g>
<!-- 20&#45;&gt;30 -->
<g id="edge26" class="edge"><title>20&#45;&gt;30</title>
<path fill="none" stroke="black" d="M2863.39,-374.67C3067.89,-369.697 3523.26,-355.801 3905.52,-324 3918.34,-322.933 3931.8,-321.594 3945.1,-320.139"/>
<polygon fill="black" stroke="black" points="3945.67,-323.597 3955.22,-319.007 3944.89,-316.64 3945.67,-323.597"/>
</g>
<!-- 22&#45;&gt;1 -->
<g id="edge31" class="edge"><title>22&#45;&gt;1</title>
<path fill="none" stroke="black" d="M2902.17,-288.055C2896.12,-279.753 2888.71,-269.584 2882.01,-260.378"/>
<polygon fill="black" stroke="black" points="2884.82,-258.297 2876.1,-252.275 2879.16,-262.419 2884.82,-258.297"/>
</g>
<!-- 22&#45;&gt;26 -->
<g id="edge29" class="edge"><title>22&#45;&gt;26</title>
<path fill="none" stroke="black" d="M3012.59,-293.871C3109.23,-282.33 3245.54,-264.286 3267.52,-252 3293.94,-237.226 3315.12,-209.26 3328.15,-188.604"/>
<polygon fill="black" stroke="black" points="3331.19,-190.344 3333.39,-179.98 3325.21,-186.711 3331.19,-190.344"/>
</g>
<!-- 22&#45;&gt;29 -->
<g id="edge30" class="edge"><title>22&#45;&gt;29</title>
<path fill="none" stroke="black" d="M2963.03,-289.203C2995.16,-278.744 3037.47,-264.97 3071.39,-253.924"/>
<polygon fill="black" stroke="black" points="3072.75,-257.163 3081.17,-250.739 3070.58,-250.507 3072.75,-257.163"/>
</g>
<!-- 23&#45;&gt;10 -->
<g id="edge39" class="edge"><title>23&#45;&gt;10</title>
<path fill="none" stroke="black" d="M1009.86,-289.291C971.943,-278.589 921.629,-264.387 881.971,-253.193"/>
<polygon fill="black" stroke="black" points="882.707,-249.764 872.132,-250.416 880.805,-256.501 882.707,-249.764"/>
</g>
<!-- 23&#45;&gt;15 -->
<g id="edge38" class="edge"><title>23&#45;&gt;15</title>
<path fill="none" stroke="black" d="M1065.52,-287.697C1065.52,-279.983 1065.52,-270.712 1065.52,-262.112"/>
<polygon fill="black" stroke="black" points="1069.02,-262.104 1065.52,-252.104 1062.02,-262.104 1069.02,-262.104"/>
</g>
<!-- 24&#45;&gt;11 -->
<g id="edge40" class="edge"><title>24&#45;&gt;11</title>
<path fill="none" stroke="black" d="M2540.13,-287.697C2545.65,-279.474 2552.36,-269.483 2558.45,-260.421"/>
<polygon fill="black" stroke="black" points="2561.36,-262.358 2564.03,-252.104 2555.55,-258.456 2561.36,-262.358"/>
</g>
<!-- 33 -->
<g id="node34" class="node"><title>33</title>
<ellipse fill="paleturquoise" stroke="paleturquoise" cx="3342.52" cy="-90" rx="179.914" ry="18"/>
<text text-anchor="middle" x="3342.52" y="-85.8" font-family="Times,serif" font-size="14.00">k8s.io/kubernetes/third_party/forked/reflect</text>
</g>
<!-- 26&#45;&gt;33 -->
<g id="edge37" class="edge"><title>26&#45;&gt;33</title>
<path fill="none" stroke="black" d="M3342.52,-143.697C3342.52,-135.983 3342.52,-126.712 3342.52,-118.112"/>
<polygon fill="black" stroke="black" points="3346.02,-118.104 3342.52,-108.104 3339.02,-118.104 3346.02,-118.104"/>
</g>
<!-- 28&#45;&gt;2 -->
<g id="edge48" class="edge"><title>28&#45;&gt;2</title>
<path fill="none" stroke="black" d="M491.56,-287.697C489.797,-279.983 487.678,-270.712 485.713,-262.112"/>
<polygon fill="black" stroke="black" points="489.065,-261.073 483.425,-252.104 482.241,-262.633 489.065,-261.073"/>
</g>
<!-- 28&#45;&gt;17 -->
<g id="edge47" class="edge"><title>28&#45;&gt;17</title>
<path fill="none" stroke="black" d="M610.596,-300.2C898.855,-288.109 1629.75,-257.006 1641.52,-252 1662.92,-242.891 1658.23,-225.393 1679.52,-216 1732.18,-192.757 2077.66,-175.751 2272.45,-167.879"/>
<polygon fill="black" stroke="black" points="2272.62,-171.375 2282.47,-167.476 2272.34,-164.38 2272.62,-171.375"/>
</g>
<!-- 38 -->
<g id="node39" class="node"><title>38</title>
<ellipse fill="paleturquoise" stroke="paleturquoise" cx="154.516" cy="-234" rx="154.531" ry="18"/>
<text text-anchor="middle" x="154.516" y="-229.8" font-family="Times,serif" font-size="14.00">k8s.io/kubernetes/pkg/util/fielderrors</text>
</g>
<!-- 28&#45;&gt;38 -->
<g id="edge46" class="edge"><title>28&#45;&gt;38</title>
<path fill="none" stroke="black" d="M427.329,-291.003C372.577,-279.763 295.488,-263.939 237.216,-251.977"/>
<polygon fill="black" stroke="black" points="237.799,-248.523 227.299,-249.941 236.391,-255.38 237.799,-248.523"/>
</g>
<!-- 29&#45;&gt;6 -->
<g id="edge35" class="edge"><title>29&#45;&gt;6</title>
<path fill="none" stroke="black" d="M3057.73,-219.003C2998.71,-207.494 2915.03,-191.179 2853.21,-179.125"/>
<polygon fill="black" stroke="black" points="2853.58,-175.631 2843.1,-177.153 2852.24,-182.502 2853.58,-175.631"/>
</g>
<!-- 29&#45;&gt;17 -->
<g id="edge34" class="edge"><title>29&#45;&gt;17</title>
<path fill="none" stroke="black" d="M3037.89,-221.291C3022.42,-219.435 3006.52,-217.602 2991.52,-216 2829.78,-198.728 2642.52,-182.437 2524.07,-172.59"/>
<polygon fill="black" stroke="black" points="2524.15,-169.084 2513.89,-171.745 2523.57,-176.06 2524.15,-169.084"/>
</g>
<!-- 29&#45;&gt;26 -->
<g id="edge32" class="edge"><title>29&#45;&gt;26</title>
<path fill="none" stroke="black" d="M3177.58,-217.203C3209.19,-206.817 3250.73,-193.163 3284.22,-182.157"/>
<polygon fill="black" stroke="black" points="3285.48,-185.429 3293.89,-178.981 3283.29,-178.779 3285.48,-185.429"/>
</g>
<!-- 31 -->
<g id="node32" class="node"><title>31</title>
<ellipse fill="paleturquoise" stroke="paleturquoise" cx="3052.52" cy="-162" rx="130.299" ry="18"/>
<text text-anchor="middle" x="3052.52" y="-157.8" font-family="Times,serif" font-size="14.00">k8s.io/kubernetes/pkg/util/json</text>
</g>
<!-- 29&#45;&gt;31 -->
<g id="edge33" class="edge"><title>29&#45;&gt;31</title>
<path fill="none" stroke="black" d="M3110.88,-216.055C3101.21,-207.264 3089.23,-196.38 3078.65,-186.763"/>
<polygon fill="black" stroke="black" points="3081,-184.169 3071.25,-180.032 3076.3,-189.348 3081,-184.169"/>
</g>
<!-- 32 -->
<g id="node33" class="node"><title>32</title>
<ellipse fill="paleturquoise" stroke="paleturquoise" cx="2754.52" cy="-450" rx="166.156" ry="18"/>
<text text-anchor="middle" x="2754.52" y="-445.8" font-family="Times,serif" font-size="14.00">github.com/openshift/origin/pkg/service</text>
</g>
<!-- 32&#45;&gt;20 -->
<g id="edge36" class="edge"><title>32&#45;&gt;20</title>
<path fill="none" stroke="black" d="M2754.52,-431.697C2754.52,-423.983 2754.52,-414.712 2754.52,-406.112"/>
<polygon fill="black" stroke="black" points="2758.02,-406.104 2754.52,-396.104 2751.02,-406.104 2758.02,-406.104"/>
</g>
<!-- 36&#45;&gt;19 -->
<g id="edge57" class="edge"><title>36&#45;&gt;19</title>
<path fill="none" stroke="black" d="M2232.53,-77.2651C2213.15,-75.4416 2193.28,-73.6255 2174.52,-72 1981.5,-55.276 1757.7,-38.4693 1619.6,-28.3976"/>
<polygon fill="black" stroke="black" points="1619.62,-24.89 1609.39,-27.6542 1619.11,-31.8715 1619.62,-24.89"/>
</g>
<!-- 37&#45;&gt;4 -->
<g id="edge52" class="edge"><title>37&#45;&gt;4</title>
<path fill="none" stroke="black" d="M1456.98,-144.233C1473.56,-134.796 1494.45,-122.905 1512.29,-112.756"/>
<polygon fill="black" stroke="black" points="1514.33,-115.618 1521.29,-107.63 1510.87,-109.534 1514.33,-115.618"/>
</g>
<!-- 37&#45;&gt;5 -->
<g id="edge56" class="edge"><title>37&#45;&gt;5</title>
<path fill="none" stroke="black" d="M1384.61,-144.588C1358.43,-134.575 1324.78,-121.703 1297.02,-111.084"/>
<polygon fill="black" stroke="black" points="1298.06,-107.734 1287.47,-107.43 1295.56,-114.272 1298.06,-107.734"/>
</g>
<!-- 37&#45;&gt;18 -->
<g id="edge54" class="edge"><title>37&#45;&gt;18</title>
<path fill="none" stroke="black" d="M1525.41,-147.295C1606.9,-135.886 1723.18,-119.607 1809.76,-107.486"/>
<polygon fill="black" stroke="black" points="1810.48,-110.919 1819.9,-106.067 1809.51,-103.987 1810.48,-110.919"/>
</g>
<!-- 37&#45;&gt;19 -->
<g id="edge53" class="edge"><title>37&#45;&gt;19</title>
<path fill="none" stroke="black" d="M1264.81,-157.098C1182.85,-151.329 1095.43,-138.028 1069.52,-108 1059.06,-95.8861 1058.94,-84.0026 1069.52,-72 1088.27,-50.7264 1237.37,-35.8092 1352.44,-27.335"/>
<polygon fill="black" stroke="black" points="1353.04,-30.8007 1362.76,-26.5853 1352.53,-23.819 1353.04,-30.8007"/>
</g>
<!-- 37&#45;&gt;36 -->
<g id="edge55" class="edge"><title>37&#45;&gt;36</title>
<path fill="none" stroke="black" d="M1548.06,-149.303C1568.88,-147.426 1590.32,-145.583 1610.52,-144 1860.92,-124.381 1924.14,-128.009 2174.52,-108 2190.32,-106.737 2206.9,-105.297 2223.31,-103.802"/>
<polygon fill="black" stroke="black" points="2223.86,-107.266 2233.5,-102.865 2223.22,-100.295 2223.86,-107.266"/>
</g>
<!-- 38&#45;&gt;13 -->
<g id="edge49" class="edge"><title>38&#45;&gt;13</title>
<path fill="none" stroke="black" d="M237.165,-218.75C304.455,-207.148 399.356,-190.786 468.945,-178.788"/>
<polygon fill="black" stroke="black" points="469.762,-182.199 479.022,-177.051 468.573,-175.301 469.762,-182.199"/>
</g>
<!-- 39 -->
<g id="node40" class="node"><title>39</title>
<ellipse fill="paleturquoise" stroke="paleturquoise" cx="154.516" cy="-162" rx="136.637" ry="18"/>
<text text-anchor="middle" x="154.516" y="-157.8" font-family="Times,serif" font-size="14.00">k8s.io/kubernetes/pkg/util/errors</text>
</g>
<!-- 38&#45;&gt;39 -->
<g id="edge50" class="edge"><title>38&#45;&gt;39</title>
<path fill="none" stroke="black" d="M154.516,-215.697C154.516,-207.983 154.516,-198.712 154.516,-190.112"/>
<polygon fill="black" stroke="black" points="158.016,-190.104 154.516,-180.104 151.016,-190.104 158.016,-190.104"/>
</g>
</g>
</svg>
